%
M48
M72
T01C0.01181
T02C0.03543
T03C0.04000
T04C0.04331
%
T01
X34708Y47256
X17208Y49131
X11583Y54131
X11583Y59131
X11583Y64131
X11583Y69131
X34708Y61006
X51583Y78506
X48458Y81631
X44083Y79756
X40958Y91006
X34708Y94131
X44708Y96631
X36583Y104131
X49708Y106631
X52833Y109756
X62208Y104756
X74083Y91631
X79708Y91631
X80958Y95381
X82208Y102881
X96583Y99131
X96583Y94131
X107208Y99756
X96583Y84131
X96583Y79131
X96583Y75381
X90333Y69131
X90333Y64131
X90333Y59131
X90333Y54131
X80958Y59756
X75958Y49131
X82833Y42256
X62833Y52256
X81583Y74756
X93458Y119756
X95958Y122881
X102833Y126944
X105958Y124131
X107833Y120381
X105958Y130069
X92521Y138506
X88458Y138506
X77208Y146006
X77208Y150381
X77208Y154756
X65958Y146006
X68458Y142881
X65958Y136944
X52833Y136944
X52833Y142569
X44708Y149131
X40958Y149756
X48458Y150381
X55958Y154131
X59708Y151006
X60333Y159756
X59708Y166006
X40958Y183819
X44708Y185381
X34708Y184131
X31583Y181006
X25958Y186006
X25333Y176631
X20333Y172881
X28458Y149131
X30958Y142881
X24083Y140381
X23458Y132256
X49708Y125069
X51583Y121631
X57833Y122881
X62208Y122256
X77208Y121631
X84708Y123506
X112833Y154131
X106896Y160694
X109708Y163819
X100333Y155381
X92833Y156631
X106583Y179756
X101583Y180381
X109708Y187256
X84708Y201006
X95958Y203506
X111583Y207256
X76583Y188506
X207521Y112881
X210958Y115694
X213458Y132256
X230021Y141944
X244708Y135694
X252208Y139444
X218771Y164131
X216271Y167569
X209708Y148506
X258771Y169756
X263146Y169810
X267521Y169697
X271896Y169756
X276583Y169756
X281271Y169756
X285958Y169756
X299083Y164444
X302208Y161631
X336896Y146631
X360021Y153194
X373771Y142569
X339708Y179131
X351271Y180381
X371271Y193506
X353458Y197881
X277833Y194131
X272521Y193194
X273771Y198194
X275021Y203819
X259552Y206788
X257521Y201631
X258458Y196006
X257521Y192256
X272521Y182881
X259708Y180069
X224708Y188194
X224083Y199131
X274708Y109131
X275333Y102569
X275646Y97569
X264708Y81944
X254708Y71631
X221583Y83506
X218146Y59756
X276896Y49756
X337208Y54131
X360333Y60694
X374083Y50069
X351583Y87881
X340021Y86631
X353771Y105381
X371583Y101006
T02
X70333Y76631
X65333Y71631
X60333Y66631
X70333Y66631
X60333Y76631
T03
X9708Y46006
X119708Y46006
X119708Y56006
X119708Y66006
X119708Y76006
X119708Y86006
X119708Y96006
X119708Y106006
X119708Y116006
X119708Y126006
X119708Y136006
X119708Y146006
X119708Y156006
X119708Y166006
X119708Y176006
X119708Y186006
X119708Y196006
X119708Y206006
X139708Y206006
X149708Y206006
X159708Y206006
X169708Y206006
X179708Y206006
X179708Y196006
X169708Y196006
X159708Y196006
X149708Y196006
X139708Y196006
X139708Y186006
X149708Y186006
X159708Y186006
X169708Y186006
X179708Y186006
X179708Y176006
X169708Y176006
X159708Y176006
X149708Y176006
X139708Y176006
X139708Y166006
X149708Y166006
X159708Y166006
X169708Y166006
X179708Y166006
X179708Y156006
X169708Y156006
X159708Y156006
X149708Y156006
X139708Y156006
X139708Y146006
X149708Y146006
X159708Y146006
X169708Y146006
X179708Y146006
X179708Y136006
X169708Y136006
X159708Y136006
X149708Y136006
X139708Y136006
X139708Y126006
X149708Y126006
X159708Y126006
X169708Y126006
X179708Y126006
X179708Y116006
X169708Y116006
X159708Y116006
X149708Y116006
X139708Y116006
X139708Y106006
X149708Y106006
X159708Y106006
X169708Y106006
X179708Y106006
X179708Y96006
X169708Y96006
X159708Y96006
X149708Y96006
X139708Y96006
X139708Y86006
X149708Y86006
X159708Y86006
X169708Y86006
X179708Y86006
X179708Y76006
X169708Y76006
X159708Y76006
X149708Y76006
X139708Y76006
X139708Y66006
X139708Y56006
X149708Y56006
X159708Y56006
X159708Y66006
X149708Y66006
X169708Y66006
X179708Y66006
X179708Y56006
X169708Y56006
X169708Y46006
X179708Y46006
X159708Y46006
X149708Y46006
X139708Y46006
X199708Y46006
X199708Y56006
X199708Y66006
X199708Y76006
X199708Y86006
X199708Y96006
X199708Y106006
X199708Y116006
X199708Y126006
X199708Y136006
X199708Y146006
X199708Y156006
X199708Y166006
X209708Y166006
X209708Y176006
X199708Y176006
X199708Y186006
X209708Y186006
X209708Y196006
X199708Y196006
X199708Y206006
X239708Y146006
X249708Y146006
X259708Y146006
X269708Y146006
X279708Y146006
X289708Y146006
X330646Y148506
X330646Y138506
X330646Y158506
X330646Y168506
X330646Y178506
X330646Y188506
X330646Y198506
X330646Y208506
X340646Y208506
X350646Y208506
X360646Y208506
X370646Y208506
X380646Y208506
X390646Y198506
X390646Y188506
X390646Y178506
X390646Y168506
X390646Y158506
X390646Y148506
X390646Y138506
X380958Y116006
X370958Y116006
X360958Y116006
X350958Y116006
X340958Y116006
X330958Y116006
X330958Y106006
X330958Y96006
X330958Y86006
X330958Y76006
X330958Y66006
X330958Y56006
X330958Y46006
X309708Y46006
X279708Y66006
X269708Y66006
X259708Y66006
X249708Y66006
X239708Y66006
X229708Y66006
X229708Y116006
X239708Y116006
X249708Y116006
X259708Y116006
X269708Y116006
X279708Y116006
X390958Y106006
X390958Y96006
X390958Y86006
X390958Y76006
X390958Y66006
X390958Y56006
X390958Y46006
X309708Y206006
X79708Y206006
X69708Y206006
X69708Y196006
X79708Y196006
X9708Y206006
T04
X302912Y121433
X302912Y96098
X302755Y86539
X302755Y61205
M30
