G75*
%MOIN*%
%OFA0B0*%
%FSLAX25Y25*%
%IPPOS*%
%LPD*%
%AMOC8*
5,1,8,0,0,1.08239X$1,22.5*
%
%ADD10C,0.01000*%
%ADD11C,0.00434*%
%ADD12C,0.02402*%
%ADD13C,0.06463*%
%ADD14C,0.01301*%
%ADD15C,0.06000*%
%ADD16R,0.10236X0.06693*%
%ADD17R,0.02165X0.03740*%
%ADD18C,0.01090*%
%ADD19C,0.00516*%
%ADD20C,0.01969*%
%ADD21C,0.00400*%
%ADD22C,0.00464*%
%ADD23C,0.00494*%
%ADD24C,0.00039*%
%ADD25C,0.00461*%
%ADD26C,0.00631*%
%ADD27C,0.00827*%
%ADD28C,0.00538*%
%ADD29C,0.00552*%
%ADD30C,0.00500*%
%ADD31R,0.07200X0.00600*%
%ADD32R,0.00600X0.07200*%
%ADD33C,0.05518*%
D10*
X0162208Y0175069D02*
X0161271Y0176006D01*
X0161271Y0186006D01*
X0162208Y0186944D01*
X0172208Y0186944D01*
X0173146Y0186006D01*
X0173146Y0176006D01*
X0172208Y0175069D01*
X0162208Y0175069D01*
X0161975Y0175302D02*
X0172442Y0175302D01*
X0173146Y0176301D02*
X0161271Y0176301D01*
X0161271Y0177299D02*
X0173146Y0177299D01*
X0173146Y0178298D02*
X0161271Y0178298D01*
X0161271Y0179296D02*
X0173146Y0179296D01*
X0173146Y0180295D02*
X0161271Y0180295D01*
X0161271Y0181293D02*
X0173146Y0181293D01*
X0173146Y0182292D02*
X0161271Y0182292D01*
X0161271Y0183290D02*
X0173146Y0183290D01*
X0173146Y0184289D02*
X0161271Y0184289D01*
X0161271Y0185287D02*
X0173146Y0185287D01*
X0172866Y0186286D02*
X0161551Y0186286D01*
D11*
X0244046Y0184845D02*
X0253658Y0184845D01*
X0244046Y0184845D02*
X0244046Y0188747D01*
X0253658Y0188747D01*
X0253658Y0184845D01*
X0253658Y0185278D02*
X0244046Y0185278D01*
X0244046Y0185711D02*
X0253658Y0185711D01*
X0253658Y0186144D02*
X0244046Y0186144D01*
X0244046Y0186577D02*
X0253658Y0186577D01*
X0253658Y0187010D02*
X0244046Y0187010D01*
X0244046Y0187443D02*
X0253658Y0187443D01*
X0253658Y0187876D02*
X0244046Y0187876D01*
X0244046Y0188309D02*
X0253658Y0188309D01*
X0253658Y0188742D02*
X0244046Y0188742D01*
X0244046Y0190357D02*
X0253658Y0190357D01*
X0244046Y0190357D02*
X0244046Y0194259D01*
X0253658Y0194259D01*
X0253658Y0190357D01*
X0253658Y0190790D02*
X0244046Y0190790D01*
X0244046Y0191223D02*
X0253658Y0191223D01*
X0253658Y0191656D02*
X0244046Y0191656D01*
X0244046Y0192089D02*
X0253658Y0192089D01*
X0253658Y0192522D02*
X0244046Y0192522D01*
X0244046Y0192955D02*
X0253658Y0192955D01*
X0253658Y0193388D02*
X0244046Y0193388D01*
X0244046Y0193821D02*
X0253658Y0193821D01*
X0253658Y0194254D02*
X0244046Y0194254D01*
X0244046Y0195869D02*
X0253658Y0195869D01*
X0244046Y0195869D02*
X0244046Y0199771D01*
X0253658Y0199771D01*
X0253658Y0195869D01*
X0253658Y0196302D02*
X0244046Y0196302D01*
X0244046Y0196735D02*
X0253658Y0196735D01*
X0253658Y0197168D02*
X0244046Y0197168D01*
X0244046Y0197601D02*
X0253658Y0197601D01*
X0253658Y0198034D02*
X0244046Y0198034D01*
X0244046Y0198467D02*
X0253658Y0198467D01*
X0253658Y0198900D02*
X0244046Y0198900D01*
X0244046Y0199333D02*
X0253658Y0199333D01*
X0253658Y0199766D02*
X0244046Y0199766D01*
X0244046Y0201381D02*
X0253658Y0201381D01*
X0244046Y0201381D02*
X0244046Y0205283D01*
X0253658Y0205283D01*
X0253658Y0201381D01*
X0253658Y0201814D02*
X0244046Y0201814D01*
X0244046Y0202247D02*
X0253658Y0202247D01*
X0253658Y0202680D02*
X0244046Y0202680D01*
X0244046Y0203113D02*
X0253658Y0203113D01*
X0253658Y0203546D02*
X0244046Y0203546D01*
X0244046Y0203979D02*
X0253658Y0203979D01*
X0253658Y0204412D02*
X0244046Y0204412D01*
X0244046Y0204845D02*
X0253658Y0204845D01*
X0253658Y0205278D02*
X0244046Y0205278D01*
X0244046Y0206892D02*
X0253658Y0206892D01*
X0244046Y0206892D02*
X0244046Y0210794D01*
X0253658Y0210794D01*
X0253658Y0206892D01*
X0253658Y0207325D02*
X0244046Y0207325D01*
X0244046Y0207758D02*
X0253658Y0207758D01*
X0253658Y0208191D02*
X0244046Y0208191D01*
X0244046Y0208624D02*
X0253658Y0208624D01*
X0253658Y0209057D02*
X0244046Y0209057D01*
X0244046Y0209490D02*
X0253658Y0209490D01*
X0253658Y0209923D02*
X0244046Y0209923D01*
X0244046Y0210356D02*
X0253658Y0210356D01*
X0253658Y0210789D02*
X0244046Y0210789D01*
X0244046Y0179333D02*
X0253658Y0179333D01*
X0244046Y0179333D02*
X0244046Y0183235D01*
X0253658Y0183235D01*
X0253658Y0179333D01*
X0253658Y0179766D02*
X0244046Y0179766D01*
X0244046Y0180199D02*
X0253658Y0180199D01*
X0253658Y0180632D02*
X0244046Y0180632D01*
X0244046Y0181065D02*
X0253658Y0181065D01*
X0253658Y0181498D02*
X0244046Y0181498D01*
X0244046Y0181931D02*
X0253658Y0181931D01*
X0253658Y0182364D02*
X0244046Y0182364D01*
X0244046Y0182797D02*
X0253658Y0182797D01*
X0253658Y0183230D02*
X0244046Y0183230D01*
X0244046Y0173822D02*
X0253658Y0173822D01*
X0244046Y0173822D02*
X0244046Y0177724D01*
X0253658Y0177724D01*
X0253658Y0173822D01*
X0253658Y0174255D02*
X0244046Y0174255D01*
X0244046Y0174688D02*
X0253658Y0174688D01*
X0253658Y0175121D02*
X0244046Y0175121D01*
X0244046Y0175554D02*
X0253658Y0175554D01*
X0253658Y0175987D02*
X0244046Y0175987D01*
X0244046Y0176420D02*
X0253658Y0176420D01*
X0253658Y0176853D02*
X0244046Y0176853D01*
X0244046Y0177286D02*
X0253658Y0177286D01*
X0253658Y0177719D02*
X0244046Y0177719D01*
X0244046Y0168310D02*
X0253658Y0168310D01*
X0244046Y0168310D02*
X0244046Y0172212D01*
X0253658Y0172212D01*
X0253658Y0168310D01*
X0253658Y0168743D02*
X0244046Y0168743D01*
X0244046Y0169176D02*
X0253658Y0169176D01*
X0253658Y0169609D02*
X0244046Y0169609D01*
X0244046Y0170042D02*
X0253658Y0170042D01*
X0253658Y0170475D02*
X0244046Y0170475D01*
X0244046Y0170908D02*
X0253658Y0170908D01*
X0253658Y0171341D02*
X0244046Y0171341D01*
X0244046Y0171774D02*
X0253658Y0171774D01*
X0253658Y0172207D02*
X0244046Y0172207D01*
X0256118Y0166208D02*
X0256118Y0156596D01*
X0252216Y0156596D01*
X0252216Y0166208D01*
X0256118Y0166208D01*
X0256118Y0157029D02*
X0252216Y0157029D01*
X0252216Y0157462D02*
X0256118Y0157462D01*
X0256118Y0157895D02*
X0252216Y0157895D01*
X0252216Y0158328D02*
X0256118Y0158328D01*
X0256118Y0158761D02*
X0252216Y0158761D01*
X0252216Y0159194D02*
X0256118Y0159194D01*
X0256118Y0159627D02*
X0252216Y0159627D01*
X0252216Y0160060D02*
X0256118Y0160060D01*
X0256118Y0160493D02*
X0252216Y0160493D01*
X0252216Y0160926D02*
X0256118Y0160926D01*
X0256118Y0161359D02*
X0252216Y0161359D01*
X0252216Y0161792D02*
X0256118Y0161792D01*
X0256118Y0162225D02*
X0252216Y0162225D01*
X0252216Y0162658D02*
X0256118Y0162658D01*
X0256118Y0163091D02*
X0252216Y0163091D01*
X0252216Y0163524D02*
X0256118Y0163524D01*
X0256118Y0163957D02*
X0252216Y0163957D01*
X0252216Y0164390D02*
X0256118Y0164390D01*
X0256118Y0164823D02*
X0252216Y0164823D01*
X0252216Y0165256D02*
X0256118Y0165256D01*
X0256118Y0165689D02*
X0252216Y0165689D01*
X0252216Y0166122D02*
X0256118Y0166122D01*
X0261630Y0166208D02*
X0261630Y0156596D01*
X0257728Y0156596D01*
X0257728Y0166208D01*
X0261630Y0166208D01*
X0261630Y0157029D02*
X0257728Y0157029D01*
X0257728Y0157462D02*
X0261630Y0157462D01*
X0261630Y0157895D02*
X0257728Y0157895D01*
X0257728Y0158328D02*
X0261630Y0158328D01*
X0261630Y0158761D02*
X0257728Y0158761D01*
X0257728Y0159194D02*
X0261630Y0159194D01*
X0261630Y0159627D02*
X0257728Y0159627D01*
X0257728Y0160060D02*
X0261630Y0160060D01*
X0261630Y0160493D02*
X0257728Y0160493D01*
X0257728Y0160926D02*
X0261630Y0160926D01*
X0261630Y0161359D02*
X0257728Y0161359D01*
X0257728Y0161792D02*
X0261630Y0161792D01*
X0261630Y0162225D02*
X0257728Y0162225D01*
X0257728Y0162658D02*
X0261630Y0162658D01*
X0261630Y0163091D02*
X0257728Y0163091D01*
X0257728Y0163524D02*
X0261630Y0163524D01*
X0261630Y0163957D02*
X0257728Y0163957D01*
X0257728Y0164390D02*
X0261630Y0164390D01*
X0261630Y0164823D02*
X0257728Y0164823D01*
X0257728Y0165256D02*
X0261630Y0165256D01*
X0261630Y0165689D02*
X0257728Y0165689D01*
X0257728Y0166122D02*
X0261630Y0166122D01*
X0267142Y0166208D02*
X0267142Y0156596D01*
X0263240Y0156596D01*
X0263240Y0166208D01*
X0267142Y0166208D01*
X0267142Y0157029D02*
X0263240Y0157029D01*
X0263240Y0157462D02*
X0267142Y0157462D01*
X0267142Y0157895D02*
X0263240Y0157895D01*
X0263240Y0158328D02*
X0267142Y0158328D01*
X0267142Y0158761D02*
X0263240Y0158761D01*
X0263240Y0159194D02*
X0267142Y0159194D01*
X0267142Y0159627D02*
X0263240Y0159627D01*
X0263240Y0160060D02*
X0267142Y0160060D01*
X0267142Y0160493D02*
X0263240Y0160493D01*
X0263240Y0160926D02*
X0267142Y0160926D01*
X0267142Y0161359D02*
X0263240Y0161359D01*
X0263240Y0161792D02*
X0267142Y0161792D01*
X0267142Y0162225D02*
X0263240Y0162225D01*
X0263240Y0162658D02*
X0267142Y0162658D01*
X0267142Y0163091D02*
X0263240Y0163091D01*
X0263240Y0163524D02*
X0267142Y0163524D01*
X0267142Y0163957D02*
X0263240Y0163957D01*
X0263240Y0164390D02*
X0267142Y0164390D01*
X0267142Y0164823D02*
X0263240Y0164823D01*
X0263240Y0165256D02*
X0267142Y0165256D01*
X0267142Y0165689D02*
X0263240Y0165689D01*
X0263240Y0166122D02*
X0267142Y0166122D01*
X0272653Y0166208D02*
X0272653Y0156596D01*
X0268751Y0156596D01*
X0268751Y0166208D01*
X0272653Y0166208D01*
X0272653Y0157029D02*
X0268751Y0157029D01*
X0268751Y0157462D02*
X0272653Y0157462D01*
X0272653Y0157895D02*
X0268751Y0157895D01*
X0268751Y0158328D02*
X0272653Y0158328D01*
X0272653Y0158761D02*
X0268751Y0158761D01*
X0268751Y0159194D02*
X0272653Y0159194D01*
X0272653Y0159627D02*
X0268751Y0159627D01*
X0268751Y0160060D02*
X0272653Y0160060D01*
X0272653Y0160493D02*
X0268751Y0160493D01*
X0268751Y0160926D02*
X0272653Y0160926D01*
X0272653Y0161359D02*
X0268751Y0161359D01*
X0268751Y0161792D02*
X0272653Y0161792D01*
X0272653Y0162225D02*
X0268751Y0162225D01*
X0268751Y0162658D02*
X0272653Y0162658D01*
X0272653Y0163091D02*
X0268751Y0163091D01*
X0268751Y0163524D02*
X0272653Y0163524D01*
X0272653Y0163957D02*
X0268751Y0163957D01*
X0268751Y0164390D02*
X0272653Y0164390D01*
X0272653Y0164823D02*
X0268751Y0164823D01*
X0268751Y0165256D02*
X0272653Y0165256D01*
X0272653Y0165689D02*
X0268751Y0165689D01*
X0268751Y0166122D02*
X0272653Y0166122D01*
X0278165Y0166208D02*
X0278165Y0156596D01*
X0274263Y0156596D01*
X0274263Y0166208D01*
X0278165Y0166208D01*
X0278165Y0157029D02*
X0274263Y0157029D01*
X0274263Y0157462D02*
X0278165Y0157462D01*
X0278165Y0157895D02*
X0274263Y0157895D01*
X0274263Y0158328D02*
X0278165Y0158328D01*
X0278165Y0158761D02*
X0274263Y0158761D01*
X0274263Y0159194D02*
X0278165Y0159194D01*
X0278165Y0159627D02*
X0274263Y0159627D01*
X0274263Y0160060D02*
X0278165Y0160060D01*
X0278165Y0160493D02*
X0274263Y0160493D01*
X0274263Y0160926D02*
X0278165Y0160926D01*
X0278165Y0161359D02*
X0274263Y0161359D01*
X0274263Y0161792D02*
X0278165Y0161792D01*
X0278165Y0162225D02*
X0274263Y0162225D01*
X0274263Y0162658D02*
X0278165Y0162658D01*
X0278165Y0163091D02*
X0274263Y0163091D01*
X0274263Y0163524D02*
X0278165Y0163524D01*
X0278165Y0163957D02*
X0274263Y0163957D01*
X0274263Y0164390D02*
X0278165Y0164390D01*
X0278165Y0164823D02*
X0274263Y0164823D01*
X0274263Y0165256D02*
X0278165Y0165256D01*
X0278165Y0165689D02*
X0274263Y0165689D01*
X0274263Y0166122D02*
X0278165Y0166122D01*
X0283677Y0166208D02*
X0283677Y0156596D01*
X0279775Y0156596D01*
X0279775Y0166208D01*
X0283677Y0166208D01*
X0283677Y0157029D02*
X0279775Y0157029D01*
X0279775Y0157462D02*
X0283677Y0157462D01*
X0283677Y0157895D02*
X0279775Y0157895D01*
X0279775Y0158328D02*
X0283677Y0158328D01*
X0283677Y0158761D02*
X0279775Y0158761D01*
X0279775Y0159194D02*
X0283677Y0159194D01*
X0283677Y0159627D02*
X0279775Y0159627D01*
X0279775Y0160060D02*
X0283677Y0160060D01*
X0283677Y0160493D02*
X0279775Y0160493D01*
X0279775Y0160926D02*
X0283677Y0160926D01*
X0283677Y0161359D02*
X0279775Y0161359D01*
X0279775Y0161792D02*
X0283677Y0161792D01*
X0283677Y0162225D02*
X0279775Y0162225D01*
X0279775Y0162658D02*
X0283677Y0162658D01*
X0283677Y0163091D02*
X0279775Y0163091D01*
X0279775Y0163524D02*
X0283677Y0163524D01*
X0283677Y0163957D02*
X0279775Y0163957D01*
X0279775Y0164390D02*
X0283677Y0164390D01*
X0283677Y0164823D02*
X0279775Y0164823D01*
X0279775Y0165256D02*
X0283677Y0165256D01*
X0283677Y0165689D02*
X0279775Y0165689D01*
X0279775Y0166122D02*
X0283677Y0166122D01*
X0289189Y0166208D02*
X0289189Y0156596D01*
X0285287Y0156596D01*
X0285287Y0166208D01*
X0289189Y0166208D01*
X0289189Y0157029D02*
X0285287Y0157029D01*
X0285287Y0157462D02*
X0289189Y0157462D01*
X0289189Y0157895D02*
X0285287Y0157895D01*
X0285287Y0158328D02*
X0289189Y0158328D01*
X0289189Y0158761D02*
X0285287Y0158761D01*
X0285287Y0159194D02*
X0289189Y0159194D01*
X0289189Y0159627D02*
X0285287Y0159627D01*
X0285287Y0160060D02*
X0289189Y0160060D01*
X0289189Y0160493D02*
X0285287Y0160493D01*
X0285287Y0160926D02*
X0289189Y0160926D01*
X0289189Y0161359D02*
X0285287Y0161359D01*
X0285287Y0161792D02*
X0289189Y0161792D01*
X0289189Y0162225D02*
X0285287Y0162225D01*
X0285287Y0162658D02*
X0289189Y0162658D01*
X0289189Y0163091D02*
X0285287Y0163091D01*
X0285287Y0163524D02*
X0289189Y0163524D01*
X0289189Y0163957D02*
X0285287Y0163957D01*
X0285287Y0164390D02*
X0289189Y0164390D01*
X0289189Y0164823D02*
X0285287Y0164823D01*
X0285287Y0165256D02*
X0289189Y0165256D01*
X0289189Y0165689D02*
X0285287Y0165689D01*
X0285287Y0166122D02*
X0289189Y0166122D01*
X0294701Y0166208D02*
X0294701Y0156596D01*
X0290799Y0156596D01*
X0290799Y0166208D01*
X0294701Y0166208D01*
X0294701Y0157029D02*
X0290799Y0157029D01*
X0290799Y0157462D02*
X0294701Y0157462D01*
X0294701Y0157895D02*
X0290799Y0157895D01*
X0290799Y0158328D02*
X0294701Y0158328D01*
X0294701Y0158761D02*
X0290799Y0158761D01*
X0290799Y0159194D02*
X0294701Y0159194D01*
X0294701Y0159627D02*
X0290799Y0159627D01*
X0290799Y0160060D02*
X0294701Y0160060D01*
X0294701Y0160493D02*
X0290799Y0160493D01*
X0290799Y0160926D02*
X0294701Y0160926D01*
X0294701Y0161359D02*
X0290799Y0161359D01*
X0290799Y0161792D02*
X0294701Y0161792D01*
X0294701Y0162225D02*
X0290799Y0162225D01*
X0290799Y0162658D02*
X0294701Y0162658D01*
X0294701Y0163091D02*
X0290799Y0163091D01*
X0290799Y0163524D02*
X0294701Y0163524D01*
X0294701Y0163957D02*
X0290799Y0163957D01*
X0290799Y0164390D02*
X0294701Y0164390D01*
X0294701Y0164823D02*
X0290799Y0164823D01*
X0290799Y0165256D02*
X0294701Y0165256D01*
X0294701Y0165689D02*
X0290799Y0165689D01*
X0290799Y0166122D02*
X0294701Y0166122D01*
X0293259Y0168310D02*
X0302871Y0168310D01*
X0293259Y0168310D02*
X0293259Y0172212D01*
X0302871Y0172212D01*
X0302871Y0168310D01*
X0302871Y0168743D02*
X0293259Y0168743D01*
X0293259Y0169176D02*
X0302871Y0169176D01*
X0302871Y0169609D02*
X0293259Y0169609D01*
X0293259Y0170042D02*
X0302871Y0170042D01*
X0302871Y0170475D02*
X0293259Y0170475D01*
X0293259Y0170908D02*
X0302871Y0170908D01*
X0302871Y0171341D02*
X0293259Y0171341D01*
X0293259Y0171774D02*
X0302871Y0171774D01*
X0302871Y0172207D02*
X0293259Y0172207D01*
X0293259Y0173822D02*
X0302871Y0173822D01*
X0293259Y0173822D02*
X0293259Y0177724D01*
X0302871Y0177724D01*
X0302871Y0173822D01*
X0302871Y0174255D02*
X0293259Y0174255D01*
X0293259Y0174688D02*
X0302871Y0174688D01*
X0302871Y0175121D02*
X0293259Y0175121D01*
X0293259Y0175554D02*
X0302871Y0175554D01*
X0302871Y0175987D02*
X0293259Y0175987D01*
X0293259Y0176420D02*
X0302871Y0176420D01*
X0302871Y0176853D02*
X0293259Y0176853D01*
X0293259Y0177286D02*
X0302871Y0177286D01*
X0302871Y0177719D02*
X0293259Y0177719D01*
X0293259Y0179333D02*
X0302871Y0179333D01*
X0293259Y0179333D02*
X0293259Y0183235D01*
X0302871Y0183235D01*
X0302871Y0179333D01*
X0302871Y0179766D02*
X0293259Y0179766D01*
X0293259Y0180199D02*
X0302871Y0180199D01*
X0302871Y0180632D02*
X0293259Y0180632D01*
X0293259Y0181065D02*
X0302871Y0181065D01*
X0302871Y0181498D02*
X0293259Y0181498D01*
X0293259Y0181931D02*
X0302871Y0181931D01*
X0302871Y0182364D02*
X0293259Y0182364D01*
X0293259Y0182797D02*
X0302871Y0182797D01*
X0302871Y0183230D02*
X0293259Y0183230D01*
X0293259Y0184845D02*
X0302871Y0184845D01*
X0293259Y0184845D02*
X0293259Y0188747D01*
X0302871Y0188747D01*
X0302871Y0184845D01*
X0302871Y0185278D02*
X0293259Y0185278D01*
X0293259Y0185711D02*
X0302871Y0185711D01*
X0302871Y0186144D02*
X0293259Y0186144D01*
X0293259Y0186577D02*
X0302871Y0186577D01*
X0302871Y0187010D02*
X0293259Y0187010D01*
X0293259Y0187443D02*
X0302871Y0187443D01*
X0302871Y0187876D02*
X0293259Y0187876D01*
X0293259Y0188309D02*
X0302871Y0188309D01*
X0302871Y0188742D02*
X0293259Y0188742D01*
X0293259Y0190357D02*
X0302871Y0190357D01*
X0293259Y0190357D02*
X0293259Y0194259D01*
X0302871Y0194259D01*
X0302871Y0190357D01*
X0302871Y0190790D02*
X0293259Y0190790D01*
X0293259Y0191223D02*
X0302871Y0191223D01*
X0302871Y0191656D02*
X0293259Y0191656D01*
X0293259Y0192089D02*
X0302871Y0192089D01*
X0302871Y0192522D02*
X0293259Y0192522D01*
X0293259Y0192955D02*
X0302871Y0192955D01*
X0302871Y0193388D02*
X0293259Y0193388D01*
X0293259Y0193821D02*
X0302871Y0193821D01*
X0302871Y0194254D02*
X0293259Y0194254D01*
X0293259Y0195869D02*
X0302871Y0195869D01*
X0293259Y0195869D02*
X0293259Y0199771D01*
X0302871Y0199771D01*
X0302871Y0195869D01*
X0302871Y0196302D02*
X0293259Y0196302D01*
X0293259Y0196735D02*
X0302871Y0196735D01*
X0302871Y0197168D02*
X0293259Y0197168D01*
X0293259Y0197601D02*
X0302871Y0197601D01*
X0302871Y0198034D02*
X0293259Y0198034D01*
X0293259Y0198467D02*
X0302871Y0198467D01*
X0302871Y0198900D02*
X0293259Y0198900D01*
X0293259Y0199333D02*
X0302871Y0199333D01*
X0302871Y0199766D02*
X0293259Y0199766D01*
X0293259Y0201381D02*
X0302871Y0201381D01*
X0293259Y0201381D02*
X0293259Y0205283D01*
X0302871Y0205283D01*
X0302871Y0201381D01*
X0302871Y0201814D02*
X0293259Y0201814D01*
X0293259Y0202247D02*
X0302871Y0202247D01*
X0302871Y0202680D02*
X0293259Y0202680D01*
X0293259Y0203113D02*
X0302871Y0203113D01*
X0302871Y0203546D02*
X0293259Y0203546D01*
X0293259Y0203979D02*
X0302871Y0203979D01*
X0302871Y0204412D02*
X0293259Y0204412D01*
X0293259Y0204845D02*
X0302871Y0204845D01*
X0302871Y0205278D02*
X0293259Y0205278D01*
X0293259Y0206892D02*
X0302871Y0206892D01*
X0293259Y0206892D02*
X0293259Y0210794D01*
X0302871Y0210794D01*
X0302871Y0206892D01*
X0302871Y0207325D02*
X0293259Y0207325D01*
X0293259Y0207758D02*
X0302871Y0207758D01*
X0302871Y0208191D02*
X0293259Y0208191D01*
X0293259Y0208624D02*
X0302871Y0208624D01*
X0302871Y0209057D02*
X0293259Y0209057D01*
X0293259Y0209490D02*
X0302871Y0209490D01*
X0302871Y0209923D02*
X0293259Y0209923D01*
X0293259Y0210356D02*
X0302871Y0210356D01*
X0302871Y0210789D02*
X0293259Y0210789D01*
X0104687Y0111023D02*
X0098815Y0111023D01*
X0104687Y0111023D02*
X0104687Y0107121D01*
X0098815Y0107121D01*
X0098815Y0111023D01*
X0098815Y0107554D02*
X0104687Y0107554D01*
X0104687Y0107987D02*
X0098815Y0107987D01*
X0098815Y0108420D02*
X0104687Y0108420D01*
X0104687Y0108853D02*
X0098815Y0108853D01*
X0098815Y0109286D02*
X0104687Y0109286D01*
X0104687Y0109719D02*
X0098815Y0109719D01*
X0098815Y0110152D02*
X0104687Y0110152D01*
X0104687Y0110585D02*
X0098815Y0110585D01*
X0098815Y0111018D02*
X0104687Y0111018D01*
X0104687Y0106023D02*
X0098815Y0106023D01*
X0104687Y0106023D02*
X0104687Y0102121D01*
X0098815Y0102121D01*
X0098815Y0106023D01*
X0098815Y0102554D02*
X0104687Y0102554D01*
X0104687Y0102987D02*
X0098815Y0102987D01*
X0098815Y0103420D02*
X0104687Y0103420D01*
X0104687Y0103853D02*
X0098815Y0103853D01*
X0098815Y0104286D02*
X0104687Y0104286D01*
X0104687Y0104719D02*
X0098815Y0104719D01*
X0098815Y0105152D02*
X0104687Y0105152D01*
X0104687Y0105585D02*
X0098815Y0105585D01*
X0098815Y0106018D02*
X0104687Y0106018D01*
X0104687Y0101023D02*
X0098815Y0101023D01*
X0104687Y0101023D02*
X0104687Y0097121D01*
X0098815Y0097121D01*
X0098815Y0101023D01*
X0098815Y0097554D02*
X0104687Y0097554D01*
X0104687Y0097987D02*
X0098815Y0097987D01*
X0098815Y0098420D02*
X0104687Y0098420D01*
X0104687Y0098853D02*
X0098815Y0098853D01*
X0098815Y0099286D02*
X0104687Y0099286D01*
X0104687Y0099719D02*
X0098815Y0099719D01*
X0098815Y0100152D02*
X0104687Y0100152D01*
X0104687Y0100585D02*
X0098815Y0100585D01*
X0098815Y0101018D02*
X0104687Y0101018D01*
X0104687Y0096023D02*
X0098815Y0096023D01*
X0104687Y0096023D02*
X0104687Y0092121D01*
X0098815Y0092121D01*
X0098815Y0096023D01*
X0098815Y0092554D02*
X0104687Y0092554D01*
X0104687Y0092987D02*
X0098815Y0092987D01*
X0098815Y0093420D02*
X0104687Y0093420D01*
X0104687Y0093853D02*
X0098815Y0093853D01*
X0098815Y0094286D02*
X0104687Y0094286D01*
X0104687Y0094719D02*
X0098815Y0094719D01*
X0098815Y0095152D02*
X0104687Y0095152D01*
X0104687Y0095585D02*
X0098815Y0095585D01*
X0098815Y0096018D02*
X0104687Y0096018D01*
X0104687Y0091023D02*
X0098815Y0091023D01*
X0104687Y0091023D02*
X0104687Y0087121D01*
X0098815Y0087121D01*
X0098815Y0091023D01*
X0098815Y0087554D02*
X0104687Y0087554D01*
X0104687Y0087987D02*
X0098815Y0087987D01*
X0098815Y0088420D02*
X0104687Y0088420D01*
X0104687Y0088853D02*
X0098815Y0088853D01*
X0098815Y0089286D02*
X0104687Y0089286D01*
X0104687Y0089719D02*
X0098815Y0089719D01*
X0098815Y0090152D02*
X0104687Y0090152D01*
X0104687Y0090585D02*
X0098815Y0090585D01*
X0098815Y0091018D02*
X0104687Y0091018D01*
X0104687Y0086023D02*
X0098815Y0086023D01*
X0104687Y0086023D02*
X0104687Y0082121D01*
X0098815Y0082121D01*
X0098815Y0086023D01*
X0098815Y0082554D02*
X0104687Y0082554D01*
X0104687Y0082987D02*
X0098815Y0082987D01*
X0098815Y0083420D02*
X0104687Y0083420D01*
X0104687Y0083853D02*
X0098815Y0083853D01*
X0098815Y0084286D02*
X0104687Y0084286D01*
X0104687Y0084719D02*
X0098815Y0084719D01*
X0098815Y0085152D02*
X0104687Y0085152D01*
X0104687Y0085585D02*
X0098815Y0085585D01*
X0098815Y0086018D02*
X0104687Y0086018D01*
X0104687Y0081023D02*
X0098815Y0081023D01*
X0104687Y0081023D02*
X0104687Y0077121D01*
X0098815Y0077121D01*
X0098815Y0081023D01*
X0098815Y0077554D02*
X0104687Y0077554D01*
X0104687Y0077987D02*
X0098815Y0077987D01*
X0098815Y0078420D02*
X0104687Y0078420D01*
X0104687Y0078853D02*
X0098815Y0078853D01*
X0098815Y0079286D02*
X0104687Y0079286D01*
X0104687Y0079719D02*
X0098815Y0079719D01*
X0098815Y0080152D02*
X0104687Y0080152D01*
X0104687Y0080585D02*
X0098815Y0080585D01*
X0098815Y0081018D02*
X0104687Y0081018D01*
X0104687Y0076023D02*
X0098815Y0076023D01*
X0104687Y0076023D02*
X0104687Y0072121D01*
X0098815Y0072121D01*
X0098815Y0076023D01*
X0098815Y0072554D02*
X0104687Y0072554D01*
X0104687Y0072987D02*
X0098815Y0072987D01*
X0098815Y0073420D02*
X0104687Y0073420D01*
X0104687Y0073853D02*
X0098815Y0073853D01*
X0098815Y0074286D02*
X0104687Y0074286D01*
X0104687Y0074719D02*
X0098815Y0074719D01*
X0098815Y0075152D02*
X0104687Y0075152D01*
X0104687Y0075585D02*
X0098815Y0075585D01*
X0098815Y0076018D02*
X0104687Y0076018D01*
X0104687Y0071023D02*
X0098815Y0071023D01*
X0104687Y0071023D02*
X0104687Y0067121D01*
X0098815Y0067121D01*
X0098815Y0071023D01*
X0098815Y0067554D02*
X0104687Y0067554D01*
X0104687Y0067987D02*
X0098815Y0067987D01*
X0098815Y0068420D02*
X0104687Y0068420D01*
X0104687Y0068853D02*
X0098815Y0068853D01*
X0098815Y0069286D02*
X0104687Y0069286D01*
X0104687Y0069719D02*
X0098815Y0069719D01*
X0098815Y0070152D02*
X0104687Y0070152D01*
X0104687Y0070585D02*
X0098815Y0070585D01*
X0098815Y0071018D02*
X0104687Y0071018D01*
X0104687Y0066023D02*
X0098815Y0066023D01*
X0104687Y0066023D02*
X0104687Y0062121D01*
X0098815Y0062121D01*
X0098815Y0066023D01*
X0098815Y0062554D02*
X0104687Y0062554D01*
X0104687Y0062987D02*
X0098815Y0062987D01*
X0098815Y0063420D02*
X0104687Y0063420D01*
X0104687Y0063853D02*
X0098815Y0063853D01*
X0098815Y0064286D02*
X0104687Y0064286D01*
X0104687Y0064719D02*
X0098815Y0064719D01*
X0098815Y0065152D02*
X0104687Y0065152D01*
X0104687Y0065585D02*
X0098815Y0065585D01*
X0098815Y0066018D02*
X0104687Y0066018D01*
X0104687Y0061023D02*
X0098815Y0061023D01*
X0104687Y0061023D02*
X0104687Y0057121D01*
X0098815Y0057121D01*
X0098815Y0061023D01*
X0098815Y0057554D02*
X0104687Y0057554D01*
X0104687Y0057987D02*
X0098815Y0057987D01*
X0098815Y0058420D02*
X0104687Y0058420D01*
X0104687Y0058853D02*
X0098815Y0058853D01*
X0098815Y0059286D02*
X0104687Y0059286D01*
X0104687Y0059719D02*
X0098815Y0059719D01*
X0098815Y0060152D02*
X0104687Y0060152D01*
X0104687Y0060585D02*
X0098815Y0060585D01*
X0098815Y0061018D02*
X0104687Y0061018D01*
X0104687Y0056023D02*
X0098815Y0056023D01*
X0104687Y0056023D02*
X0104687Y0052121D01*
X0098815Y0052121D01*
X0098815Y0056023D01*
X0098815Y0052554D02*
X0104687Y0052554D01*
X0104687Y0052987D02*
X0098815Y0052987D01*
X0098815Y0053420D02*
X0104687Y0053420D01*
X0104687Y0053853D02*
X0098815Y0053853D01*
X0098815Y0054286D02*
X0104687Y0054286D01*
X0104687Y0054719D02*
X0098815Y0054719D01*
X0098815Y0055152D02*
X0104687Y0055152D01*
X0104687Y0055585D02*
X0098815Y0055585D01*
X0098815Y0056018D02*
X0104687Y0056018D01*
X0104687Y0051023D02*
X0098815Y0051023D01*
X0104687Y0051023D02*
X0104687Y0047121D01*
X0098815Y0047121D01*
X0098815Y0051023D01*
X0098815Y0047554D02*
X0104687Y0047554D01*
X0104687Y0047987D02*
X0098815Y0047987D01*
X0098815Y0048420D02*
X0104687Y0048420D01*
X0104687Y0048853D02*
X0098815Y0048853D01*
X0098815Y0049286D02*
X0104687Y0049286D01*
X0104687Y0049719D02*
X0098815Y0049719D01*
X0098815Y0050152D02*
X0104687Y0050152D01*
X0104687Y0050585D02*
X0098815Y0050585D01*
X0098815Y0051018D02*
X0104687Y0051018D01*
X0104687Y0046023D02*
X0098815Y0046023D01*
X0104687Y0046023D02*
X0104687Y0042121D01*
X0098815Y0042121D01*
X0098815Y0046023D01*
X0098815Y0042554D02*
X0104687Y0042554D01*
X0104687Y0042987D02*
X0098815Y0042987D01*
X0098815Y0043420D02*
X0104687Y0043420D01*
X0104687Y0043853D02*
X0098815Y0043853D01*
X0098815Y0044286D02*
X0104687Y0044286D01*
X0104687Y0044719D02*
X0098815Y0044719D01*
X0098815Y0045152D02*
X0104687Y0045152D01*
X0104687Y0045585D02*
X0098815Y0045585D01*
X0098815Y0046018D02*
X0104687Y0046018D01*
X0031852Y0046023D02*
X0025980Y0046023D01*
X0031852Y0046023D02*
X0031852Y0042121D01*
X0025980Y0042121D01*
X0025980Y0046023D01*
X0025980Y0042554D02*
X0031852Y0042554D01*
X0031852Y0042987D02*
X0025980Y0042987D01*
X0025980Y0043420D02*
X0031852Y0043420D01*
X0031852Y0043853D02*
X0025980Y0043853D01*
X0025980Y0044286D02*
X0031852Y0044286D01*
X0031852Y0044719D02*
X0025980Y0044719D01*
X0025980Y0045152D02*
X0031852Y0045152D01*
X0031852Y0045585D02*
X0025980Y0045585D01*
X0025980Y0046018D02*
X0031852Y0046018D01*
X0031852Y0051023D02*
X0025980Y0051023D01*
X0031852Y0051023D02*
X0031852Y0047121D01*
X0025980Y0047121D01*
X0025980Y0051023D01*
X0025980Y0047554D02*
X0031852Y0047554D01*
X0031852Y0047987D02*
X0025980Y0047987D01*
X0025980Y0048420D02*
X0031852Y0048420D01*
X0031852Y0048853D02*
X0025980Y0048853D01*
X0025980Y0049286D02*
X0031852Y0049286D01*
X0031852Y0049719D02*
X0025980Y0049719D01*
X0025980Y0050152D02*
X0031852Y0050152D01*
X0031852Y0050585D02*
X0025980Y0050585D01*
X0025980Y0051018D02*
X0031852Y0051018D01*
X0031852Y0056023D02*
X0025980Y0056023D01*
X0031852Y0056023D02*
X0031852Y0052121D01*
X0025980Y0052121D01*
X0025980Y0056023D01*
X0025980Y0052554D02*
X0031852Y0052554D01*
X0031852Y0052987D02*
X0025980Y0052987D01*
X0025980Y0053420D02*
X0031852Y0053420D01*
X0031852Y0053853D02*
X0025980Y0053853D01*
X0025980Y0054286D02*
X0031852Y0054286D01*
X0031852Y0054719D02*
X0025980Y0054719D01*
X0025980Y0055152D02*
X0031852Y0055152D01*
X0031852Y0055585D02*
X0025980Y0055585D01*
X0025980Y0056018D02*
X0031852Y0056018D01*
X0031852Y0061023D02*
X0025980Y0061023D01*
X0031852Y0061023D02*
X0031852Y0057121D01*
X0025980Y0057121D01*
X0025980Y0061023D01*
X0025980Y0057554D02*
X0031852Y0057554D01*
X0031852Y0057987D02*
X0025980Y0057987D01*
X0025980Y0058420D02*
X0031852Y0058420D01*
X0031852Y0058853D02*
X0025980Y0058853D01*
X0025980Y0059286D02*
X0031852Y0059286D01*
X0031852Y0059719D02*
X0025980Y0059719D01*
X0025980Y0060152D02*
X0031852Y0060152D01*
X0031852Y0060585D02*
X0025980Y0060585D01*
X0025980Y0061018D02*
X0031852Y0061018D01*
X0031852Y0066023D02*
X0025980Y0066023D01*
X0031852Y0066023D02*
X0031852Y0062121D01*
X0025980Y0062121D01*
X0025980Y0066023D01*
X0025980Y0062554D02*
X0031852Y0062554D01*
X0031852Y0062987D02*
X0025980Y0062987D01*
X0025980Y0063420D02*
X0031852Y0063420D01*
X0031852Y0063853D02*
X0025980Y0063853D01*
X0025980Y0064286D02*
X0031852Y0064286D01*
X0031852Y0064719D02*
X0025980Y0064719D01*
X0025980Y0065152D02*
X0031852Y0065152D01*
X0031852Y0065585D02*
X0025980Y0065585D01*
X0025980Y0066018D02*
X0031852Y0066018D01*
X0031852Y0071023D02*
X0025980Y0071023D01*
X0031852Y0071023D02*
X0031852Y0067121D01*
X0025980Y0067121D01*
X0025980Y0071023D01*
X0025980Y0067554D02*
X0031852Y0067554D01*
X0031852Y0067987D02*
X0025980Y0067987D01*
X0025980Y0068420D02*
X0031852Y0068420D01*
X0031852Y0068853D02*
X0025980Y0068853D01*
X0025980Y0069286D02*
X0031852Y0069286D01*
X0031852Y0069719D02*
X0025980Y0069719D01*
X0025980Y0070152D02*
X0031852Y0070152D01*
X0031852Y0070585D02*
X0025980Y0070585D01*
X0025980Y0071018D02*
X0031852Y0071018D01*
X0031852Y0076023D02*
X0025980Y0076023D01*
X0031852Y0076023D02*
X0031852Y0072121D01*
X0025980Y0072121D01*
X0025980Y0076023D01*
X0025980Y0072554D02*
X0031852Y0072554D01*
X0031852Y0072987D02*
X0025980Y0072987D01*
X0025980Y0073420D02*
X0031852Y0073420D01*
X0031852Y0073853D02*
X0025980Y0073853D01*
X0025980Y0074286D02*
X0031852Y0074286D01*
X0031852Y0074719D02*
X0025980Y0074719D01*
X0025980Y0075152D02*
X0031852Y0075152D01*
X0031852Y0075585D02*
X0025980Y0075585D01*
X0025980Y0076018D02*
X0031852Y0076018D01*
X0031852Y0081023D02*
X0025980Y0081023D01*
X0031852Y0081023D02*
X0031852Y0077121D01*
X0025980Y0077121D01*
X0025980Y0081023D01*
X0025980Y0077554D02*
X0031852Y0077554D01*
X0031852Y0077987D02*
X0025980Y0077987D01*
X0025980Y0078420D02*
X0031852Y0078420D01*
X0031852Y0078853D02*
X0025980Y0078853D01*
X0025980Y0079286D02*
X0031852Y0079286D01*
X0031852Y0079719D02*
X0025980Y0079719D01*
X0025980Y0080152D02*
X0031852Y0080152D01*
X0031852Y0080585D02*
X0025980Y0080585D01*
X0025980Y0081018D02*
X0031852Y0081018D01*
X0031852Y0086023D02*
X0025980Y0086023D01*
X0031852Y0086023D02*
X0031852Y0082121D01*
X0025980Y0082121D01*
X0025980Y0086023D01*
X0025980Y0082554D02*
X0031852Y0082554D01*
X0031852Y0082987D02*
X0025980Y0082987D01*
X0025980Y0083420D02*
X0031852Y0083420D01*
X0031852Y0083853D02*
X0025980Y0083853D01*
X0025980Y0084286D02*
X0031852Y0084286D01*
X0031852Y0084719D02*
X0025980Y0084719D01*
X0025980Y0085152D02*
X0031852Y0085152D01*
X0031852Y0085585D02*
X0025980Y0085585D01*
X0025980Y0086018D02*
X0031852Y0086018D01*
X0031852Y0091023D02*
X0025980Y0091023D01*
X0031852Y0091023D02*
X0031852Y0087121D01*
X0025980Y0087121D01*
X0025980Y0091023D01*
X0025980Y0087554D02*
X0031852Y0087554D01*
X0031852Y0087987D02*
X0025980Y0087987D01*
X0025980Y0088420D02*
X0031852Y0088420D01*
X0031852Y0088853D02*
X0025980Y0088853D01*
X0025980Y0089286D02*
X0031852Y0089286D01*
X0031852Y0089719D02*
X0025980Y0089719D01*
X0025980Y0090152D02*
X0031852Y0090152D01*
X0031852Y0090585D02*
X0025980Y0090585D01*
X0025980Y0091018D02*
X0031852Y0091018D01*
X0031852Y0096023D02*
X0025980Y0096023D01*
X0031852Y0096023D02*
X0031852Y0092121D01*
X0025980Y0092121D01*
X0025980Y0096023D01*
X0025980Y0092554D02*
X0031852Y0092554D01*
X0031852Y0092987D02*
X0025980Y0092987D01*
X0025980Y0093420D02*
X0031852Y0093420D01*
X0031852Y0093853D02*
X0025980Y0093853D01*
X0025980Y0094286D02*
X0031852Y0094286D01*
X0031852Y0094719D02*
X0025980Y0094719D01*
X0025980Y0095152D02*
X0031852Y0095152D01*
X0031852Y0095585D02*
X0025980Y0095585D01*
X0025980Y0096018D02*
X0031852Y0096018D01*
X0031852Y0101023D02*
X0025980Y0101023D01*
X0031852Y0101023D02*
X0031852Y0097121D01*
X0025980Y0097121D01*
X0025980Y0101023D01*
X0025980Y0097554D02*
X0031852Y0097554D01*
X0031852Y0097987D02*
X0025980Y0097987D01*
X0025980Y0098420D02*
X0031852Y0098420D01*
X0031852Y0098853D02*
X0025980Y0098853D01*
X0025980Y0099286D02*
X0031852Y0099286D01*
X0031852Y0099719D02*
X0025980Y0099719D01*
X0025980Y0100152D02*
X0031852Y0100152D01*
X0031852Y0100585D02*
X0025980Y0100585D01*
X0025980Y0101018D02*
X0031852Y0101018D01*
X0031852Y0106023D02*
X0025980Y0106023D01*
X0031852Y0106023D02*
X0031852Y0102121D01*
X0025980Y0102121D01*
X0025980Y0106023D01*
X0025980Y0102554D02*
X0031852Y0102554D01*
X0031852Y0102987D02*
X0025980Y0102987D01*
X0025980Y0103420D02*
X0031852Y0103420D01*
X0031852Y0103853D02*
X0025980Y0103853D01*
X0025980Y0104286D02*
X0031852Y0104286D01*
X0031852Y0104719D02*
X0025980Y0104719D01*
X0025980Y0105152D02*
X0031852Y0105152D01*
X0031852Y0105585D02*
X0025980Y0105585D01*
X0025980Y0106018D02*
X0031852Y0106018D01*
X0031852Y0111023D02*
X0025980Y0111023D01*
X0031852Y0111023D02*
X0031852Y0107121D01*
X0025980Y0107121D01*
X0025980Y0111023D01*
X0025980Y0107554D02*
X0031852Y0107554D01*
X0031852Y0107987D02*
X0025980Y0107987D01*
X0025980Y0108420D02*
X0031852Y0108420D01*
X0031852Y0108853D02*
X0025980Y0108853D01*
X0025980Y0109286D02*
X0031852Y0109286D01*
X0031852Y0109719D02*
X0025980Y0109719D01*
X0025980Y0110152D02*
X0031852Y0110152D01*
X0031852Y0110585D02*
X0025980Y0110585D01*
X0025980Y0111018D02*
X0031852Y0111018D01*
X0040823Y0112987D02*
X0040823Y0118859D01*
X0044725Y0118859D01*
X0044725Y0112987D01*
X0040823Y0112987D01*
X0040823Y0113420D02*
X0044725Y0113420D01*
X0044725Y0113853D02*
X0040823Y0113853D01*
X0040823Y0114286D02*
X0044725Y0114286D01*
X0044725Y0114719D02*
X0040823Y0114719D01*
X0040823Y0115152D02*
X0044725Y0115152D01*
X0044725Y0115585D02*
X0040823Y0115585D01*
X0040823Y0116018D02*
X0044725Y0116018D01*
X0044725Y0116451D02*
X0040823Y0116451D01*
X0040823Y0116884D02*
X0044725Y0116884D01*
X0044725Y0117317D02*
X0040823Y0117317D01*
X0040823Y0117750D02*
X0044725Y0117750D01*
X0044725Y0118183D02*
X0040823Y0118183D01*
X0040823Y0118616D02*
X0044725Y0118616D01*
X0045823Y0118859D02*
X0045823Y0112987D01*
X0045823Y0118859D02*
X0049725Y0118859D01*
X0049725Y0112987D01*
X0045823Y0112987D01*
X0045823Y0113420D02*
X0049725Y0113420D01*
X0049725Y0113853D02*
X0045823Y0113853D01*
X0045823Y0114286D02*
X0049725Y0114286D01*
X0049725Y0114719D02*
X0045823Y0114719D01*
X0045823Y0115152D02*
X0049725Y0115152D01*
X0049725Y0115585D02*
X0045823Y0115585D01*
X0045823Y0116018D02*
X0049725Y0116018D01*
X0049725Y0116451D02*
X0045823Y0116451D01*
X0045823Y0116884D02*
X0049725Y0116884D01*
X0049725Y0117317D02*
X0045823Y0117317D01*
X0045823Y0117750D02*
X0049725Y0117750D01*
X0049725Y0118183D02*
X0045823Y0118183D01*
X0045823Y0118616D02*
X0049725Y0118616D01*
X0050823Y0118859D02*
X0050823Y0112987D01*
X0050823Y0118859D02*
X0054725Y0118859D01*
X0054725Y0112987D01*
X0050823Y0112987D01*
X0050823Y0113420D02*
X0054725Y0113420D01*
X0054725Y0113853D02*
X0050823Y0113853D01*
X0050823Y0114286D02*
X0054725Y0114286D01*
X0054725Y0114719D02*
X0050823Y0114719D01*
X0050823Y0115152D02*
X0054725Y0115152D01*
X0054725Y0115585D02*
X0050823Y0115585D01*
X0050823Y0116018D02*
X0054725Y0116018D01*
X0054725Y0116451D02*
X0050823Y0116451D01*
X0050823Y0116884D02*
X0054725Y0116884D01*
X0054725Y0117317D02*
X0050823Y0117317D01*
X0050823Y0117750D02*
X0054725Y0117750D01*
X0054725Y0118183D02*
X0050823Y0118183D01*
X0050823Y0118616D02*
X0054725Y0118616D01*
X0055823Y0118859D02*
X0055823Y0112987D01*
X0055823Y0118859D02*
X0059725Y0118859D01*
X0059725Y0112987D01*
X0055823Y0112987D01*
X0055823Y0113420D02*
X0059725Y0113420D01*
X0059725Y0113853D02*
X0055823Y0113853D01*
X0055823Y0114286D02*
X0059725Y0114286D01*
X0059725Y0114719D02*
X0055823Y0114719D01*
X0055823Y0115152D02*
X0059725Y0115152D01*
X0059725Y0115585D02*
X0055823Y0115585D01*
X0055823Y0116018D02*
X0059725Y0116018D01*
X0059725Y0116451D02*
X0055823Y0116451D01*
X0055823Y0116884D02*
X0059725Y0116884D01*
X0059725Y0117317D02*
X0055823Y0117317D01*
X0055823Y0117750D02*
X0059725Y0117750D01*
X0059725Y0118183D02*
X0055823Y0118183D01*
X0055823Y0118616D02*
X0059725Y0118616D01*
X0060823Y0118859D02*
X0060823Y0112987D01*
X0060823Y0118859D02*
X0064725Y0118859D01*
X0064725Y0112987D01*
X0060823Y0112987D01*
X0060823Y0113420D02*
X0064725Y0113420D01*
X0064725Y0113853D02*
X0060823Y0113853D01*
X0060823Y0114286D02*
X0064725Y0114286D01*
X0064725Y0114719D02*
X0060823Y0114719D01*
X0060823Y0115152D02*
X0064725Y0115152D01*
X0064725Y0115585D02*
X0060823Y0115585D01*
X0060823Y0116018D02*
X0064725Y0116018D01*
X0064725Y0116451D02*
X0060823Y0116451D01*
X0060823Y0116884D02*
X0064725Y0116884D01*
X0064725Y0117317D02*
X0060823Y0117317D01*
X0060823Y0117750D02*
X0064725Y0117750D01*
X0064725Y0118183D02*
X0060823Y0118183D01*
X0060823Y0118616D02*
X0064725Y0118616D01*
X0065823Y0118859D02*
X0065823Y0112987D01*
X0065823Y0118859D02*
X0069725Y0118859D01*
X0069725Y0112987D01*
X0065823Y0112987D01*
X0065823Y0113420D02*
X0069725Y0113420D01*
X0069725Y0113853D02*
X0065823Y0113853D01*
X0065823Y0114286D02*
X0069725Y0114286D01*
X0069725Y0114719D02*
X0065823Y0114719D01*
X0065823Y0115152D02*
X0069725Y0115152D01*
X0069725Y0115585D02*
X0065823Y0115585D01*
X0065823Y0116018D02*
X0069725Y0116018D01*
X0069725Y0116451D02*
X0065823Y0116451D01*
X0065823Y0116884D02*
X0069725Y0116884D01*
X0069725Y0117317D02*
X0065823Y0117317D01*
X0065823Y0117750D02*
X0069725Y0117750D01*
X0069725Y0118183D02*
X0065823Y0118183D01*
X0065823Y0118616D02*
X0069725Y0118616D01*
X0070823Y0118859D02*
X0070823Y0112987D01*
X0070823Y0118859D02*
X0074725Y0118859D01*
X0074725Y0112987D01*
X0070823Y0112987D01*
X0070823Y0113420D02*
X0074725Y0113420D01*
X0074725Y0113853D02*
X0070823Y0113853D01*
X0070823Y0114286D02*
X0074725Y0114286D01*
X0074725Y0114719D02*
X0070823Y0114719D01*
X0070823Y0115152D02*
X0074725Y0115152D01*
X0074725Y0115585D02*
X0070823Y0115585D01*
X0070823Y0116018D02*
X0074725Y0116018D01*
X0074725Y0116451D02*
X0070823Y0116451D01*
X0070823Y0116884D02*
X0074725Y0116884D01*
X0074725Y0117317D02*
X0070823Y0117317D01*
X0070823Y0117750D02*
X0074725Y0117750D01*
X0074725Y0118183D02*
X0070823Y0118183D01*
X0070823Y0118616D02*
X0074725Y0118616D01*
X0075823Y0118859D02*
X0075823Y0112987D01*
X0075823Y0118859D02*
X0079725Y0118859D01*
X0079725Y0112987D01*
X0075823Y0112987D01*
X0075823Y0113420D02*
X0079725Y0113420D01*
X0079725Y0113853D02*
X0075823Y0113853D01*
X0075823Y0114286D02*
X0079725Y0114286D01*
X0079725Y0114719D02*
X0075823Y0114719D01*
X0075823Y0115152D02*
X0079725Y0115152D01*
X0079725Y0115585D02*
X0075823Y0115585D01*
X0075823Y0116018D02*
X0079725Y0116018D01*
X0079725Y0116451D02*
X0075823Y0116451D01*
X0075823Y0116884D02*
X0079725Y0116884D01*
X0079725Y0117317D02*
X0075823Y0117317D01*
X0075823Y0117750D02*
X0079725Y0117750D01*
X0079725Y0118183D02*
X0075823Y0118183D01*
X0075823Y0118616D02*
X0079725Y0118616D01*
X0080823Y0118859D02*
X0080823Y0112987D01*
X0080823Y0118859D02*
X0084725Y0118859D01*
X0084725Y0112987D01*
X0080823Y0112987D01*
X0080823Y0113420D02*
X0084725Y0113420D01*
X0084725Y0113853D02*
X0080823Y0113853D01*
X0080823Y0114286D02*
X0084725Y0114286D01*
X0084725Y0114719D02*
X0080823Y0114719D01*
X0080823Y0115152D02*
X0084725Y0115152D01*
X0084725Y0115585D02*
X0080823Y0115585D01*
X0080823Y0116018D02*
X0084725Y0116018D01*
X0084725Y0116451D02*
X0080823Y0116451D01*
X0080823Y0116884D02*
X0084725Y0116884D01*
X0084725Y0117317D02*
X0080823Y0117317D01*
X0080823Y0117750D02*
X0084725Y0117750D01*
X0084725Y0118183D02*
X0080823Y0118183D01*
X0080823Y0118616D02*
X0084725Y0118616D01*
X0085823Y0118859D02*
X0085823Y0112987D01*
X0085823Y0118859D02*
X0089725Y0118859D01*
X0089725Y0112987D01*
X0085823Y0112987D01*
X0085823Y0113420D02*
X0089725Y0113420D01*
X0089725Y0113853D02*
X0085823Y0113853D01*
X0085823Y0114286D02*
X0089725Y0114286D01*
X0089725Y0114719D02*
X0085823Y0114719D01*
X0085823Y0115152D02*
X0089725Y0115152D01*
X0089725Y0115585D02*
X0085823Y0115585D01*
X0085823Y0116018D02*
X0089725Y0116018D01*
X0089725Y0116451D02*
X0085823Y0116451D01*
X0085823Y0116884D02*
X0089725Y0116884D01*
X0089725Y0117317D02*
X0085823Y0117317D01*
X0085823Y0117750D02*
X0089725Y0117750D01*
X0089725Y0118183D02*
X0085823Y0118183D01*
X0085823Y0118616D02*
X0089725Y0118616D01*
D12*
X0077324Y0085197D02*
X0055704Y0085197D01*
X0077324Y0085197D02*
X0077324Y0063577D01*
X0055704Y0063577D01*
X0055704Y0085197D01*
X0055704Y0065978D02*
X0077324Y0065978D01*
X0077324Y0068379D02*
X0055704Y0068379D01*
X0055704Y0070780D02*
X0077324Y0070780D01*
X0077324Y0073181D02*
X0055704Y0073181D01*
X0055704Y0075582D02*
X0077324Y0075582D01*
X0077324Y0077983D02*
X0055704Y0077983D01*
X0055704Y0080384D02*
X0077324Y0080384D01*
X0077324Y0082785D02*
X0055704Y0082785D01*
X0055704Y0085186D02*
X0077324Y0085186D01*
D13*
X0302755Y0086539D03*
X0302912Y0096098D03*
X0302912Y0121433D03*
X0302755Y0061205D03*
D14*
X0023726Y0044178D02*
X0023726Y0041142D01*
X0020690Y0041142D01*
X0020690Y0044178D01*
X0023726Y0044178D01*
X0023726Y0042442D02*
X0020690Y0042442D01*
X0020690Y0043742D02*
X0023726Y0043742D01*
X0023726Y0047835D02*
X0023726Y0050871D01*
X0023726Y0047835D02*
X0020690Y0047835D01*
X0020690Y0050871D01*
X0023726Y0050871D01*
X0023726Y0049135D02*
X0020690Y0049135D01*
X0020690Y0050435D02*
X0023726Y0050435D01*
X0023948Y0052613D02*
X0020912Y0052613D01*
X0020912Y0055649D01*
X0023948Y0055649D01*
X0023948Y0052613D01*
X0023948Y0053913D02*
X0020912Y0053913D01*
X0020912Y0055213D02*
X0023948Y0055213D01*
X0023948Y0057613D02*
X0020912Y0057613D01*
X0020912Y0060649D01*
X0023948Y0060649D01*
X0023948Y0057613D01*
X0023948Y0058913D02*
X0020912Y0058913D01*
X0020912Y0060213D02*
X0023948Y0060213D01*
X0023948Y0062613D02*
X0020912Y0062613D01*
X0020912Y0065649D01*
X0023948Y0065649D01*
X0023948Y0062613D01*
X0023948Y0063913D02*
X0020912Y0063913D01*
X0020912Y0065213D02*
X0023948Y0065213D01*
X0023948Y0067613D02*
X0020912Y0067613D01*
X0020912Y0070649D01*
X0023948Y0070649D01*
X0023948Y0067613D01*
X0023948Y0068913D02*
X0020912Y0068913D01*
X0020912Y0070213D02*
X0023948Y0070213D01*
X0017255Y0067613D02*
X0014219Y0067613D01*
X0014219Y0070649D01*
X0017255Y0070649D01*
X0017255Y0067613D01*
X0017255Y0068913D02*
X0014219Y0068913D01*
X0014219Y0070213D02*
X0017255Y0070213D01*
X0017255Y0062613D02*
X0014219Y0062613D01*
X0014219Y0065649D01*
X0017255Y0065649D01*
X0017255Y0062613D01*
X0017255Y0063913D02*
X0014219Y0063913D01*
X0014219Y0065213D02*
X0017255Y0065213D01*
X0017255Y0057613D02*
X0014219Y0057613D01*
X0014219Y0060649D01*
X0017255Y0060649D01*
X0017255Y0057613D01*
X0017255Y0058913D02*
X0014219Y0058913D01*
X0014219Y0060213D02*
X0017255Y0060213D01*
X0017255Y0052613D02*
X0014219Y0052613D01*
X0014219Y0055649D01*
X0017255Y0055649D01*
X0017255Y0052613D01*
X0017255Y0053913D02*
X0014219Y0053913D01*
X0014219Y0055213D02*
X0017255Y0055213D01*
X0034664Y0129267D02*
X0034664Y0132303D01*
X0034664Y0129267D02*
X0031628Y0129267D01*
X0031628Y0132303D01*
X0034664Y0132303D01*
X0034664Y0130567D02*
X0031628Y0130567D01*
X0031628Y0131867D02*
X0034664Y0131867D01*
X0034664Y0135960D02*
X0034664Y0138996D01*
X0034664Y0135960D02*
X0031628Y0135960D01*
X0031628Y0138996D01*
X0034664Y0138996D01*
X0034664Y0137260D02*
X0031628Y0137260D01*
X0031628Y0138560D02*
X0034664Y0138560D01*
X0025601Y0150517D02*
X0025601Y0153553D01*
X0025601Y0150517D02*
X0022565Y0150517D01*
X0022565Y0153553D01*
X0025601Y0153553D01*
X0025601Y0151817D02*
X0022565Y0151817D01*
X0022565Y0153117D02*
X0025601Y0153117D01*
X0025601Y0157210D02*
X0025601Y0160246D01*
X0025601Y0157210D02*
X0022565Y0157210D01*
X0022565Y0160246D01*
X0025601Y0160246D01*
X0025601Y0158510D02*
X0022565Y0158510D01*
X0022565Y0159810D02*
X0025601Y0159810D01*
X0022565Y0161767D02*
X0022565Y0164803D01*
X0025601Y0164803D01*
X0025601Y0161767D01*
X0022565Y0161767D01*
X0022565Y0163067D02*
X0025601Y0163067D01*
X0025601Y0164367D02*
X0022565Y0164367D01*
X0022565Y0168460D02*
X0022565Y0171496D01*
X0025601Y0171496D01*
X0025601Y0168460D01*
X0022565Y0168460D01*
X0022565Y0169760D02*
X0025601Y0169760D01*
X0025601Y0171060D02*
X0022565Y0171060D01*
X0022880Y0182524D02*
X0019844Y0182524D01*
X0022880Y0182524D02*
X0022880Y0179488D01*
X0019844Y0179488D01*
X0019844Y0182524D01*
X0019844Y0180788D02*
X0022880Y0180788D01*
X0022880Y0182088D02*
X0019844Y0182088D01*
X0026537Y0182524D02*
X0029573Y0182524D01*
X0029573Y0179488D01*
X0026537Y0179488D01*
X0026537Y0182524D01*
X0026537Y0180788D02*
X0029573Y0180788D01*
X0029573Y0182088D02*
X0026537Y0182088D01*
X0049219Y0181899D02*
X0052255Y0181899D01*
X0052255Y0178863D01*
X0049219Y0178863D01*
X0049219Y0181899D01*
X0049219Y0180163D02*
X0052255Y0180163D01*
X0052255Y0181463D02*
X0049219Y0181463D01*
X0049219Y0186899D02*
X0052255Y0186899D01*
X0052255Y0183863D01*
X0049219Y0183863D01*
X0049219Y0186899D01*
X0049219Y0185163D02*
X0052255Y0185163D01*
X0052255Y0186463D02*
X0049219Y0186463D01*
X0055912Y0186899D02*
X0058948Y0186899D01*
X0058948Y0183863D01*
X0055912Y0183863D01*
X0055912Y0186899D01*
X0055912Y0185163D02*
X0058948Y0185163D01*
X0058948Y0186463D02*
X0055912Y0186463D01*
X0055912Y0181899D02*
X0058948Y0181899D01*
X0058948Y0178863D01*
X0055912Y0178863D01*
X0055912Y0181899D01*
X0055912Y0180163D02*
X0058948Y0180163D01*
X0058948Y0181463D02*
X0055912Y0181463D01*
X0055912Y0176899D02*
X0058948Y0176899D01*
X0058948Y0173863D01*
X0055912Y0173863D01*
X0055912Y0176899D01*
X0055912Y0175163D02*
X0058948Y0175163D01*
X0058948Y0176463D02*
X0055912Y0176463D01*
X0052255Y0176899D02*
X0049219Y0176899D01*
X0052255Y0176899D02*
X0052255Y0173863D01*
X0049219Y0173863D01*
X0049219Y0176899D01*
X0049219Y0175163D02*
X0052255Y0175163D01*
X0052255Y0176463D02*
X0049219Y0176463D01*
X0087344Y0192613D02*
X0090380Y0192613D01*
X0087344Y0192613D02*
X0087344Y0195649D01*
X0090380Y0195649D01*
X0090380Y0192613D01*
X0090380Y0193913D02*
X0087344Y0193913D01*
X0087344Y0195213D02*
X0090380Y0195213D01*
X0094037Y0192613D02*
X0097073Y0192613D01*
X0094037Y0192613D02*
X0094037Y0195649D01*
X0097073Y0195649D01*
X0097073Y0192613D01*
X0097073Y0193913D02*
X0094037Y0193913D01*
X0094037Y0195213D02*
X0097073Y0195213D01*
X0099219Y0195649D02*
X0102255Y0195649D01*
X0102255Y0192613D01*
X0099219Y0192613D01*
X0099219Y0195649D01*
X0099219Y0193913D02*
X0102255Y0193913D01*
X0102255Y0195213D02*
X0099219Y0195213D01*
X0105912Y0195649D02*
X0108948Y0195649D01*
X0108948Y0192613D01*
X0105912Y0192613D01*
X0105912Y0195649D01*
X0105912Y0193913D02*
X0108948Y0193913D01*
X0108948Y0195213D02*
X0105912Y0195213D01*
X0082385Y0143149D02*
X0079349Y0143149D01*
X0082385Y0143149D02*
X0082385Y0140113D01*
X0079349Y0140113D01*
X0079349Y0143149D01*
X0079349Y0141413D02*
X0082385Y0141413D01*
X0082385Y0142713D02*
X0079349Y0142713D01*
X0075692Y0143149D02*
X0072656Y0143149D01*
X0075692Y0143149D02*
X0075692Y0140113D01*
X0072656Y0140113D01*
X0072656Y0143149D01*
X0072656Y0141413D02*
X0075692Y0141413D01*
X0075692Y0142713D02*
X0072656Y0142713D01*
X0064573Y0133774D02*
X0061537Y0133774D01*
X0064573Y0133774D02*
X0064573Y0130738D01*
X0061537Y0130738D01*
X0061537Y0133774D01*
X0061537Y0132038D02*
X0064573Y0132038D01*
X0064573Y0133338D02*
X0061537Y0133338D01*
X0057880Y0133774D02*
X0054844Y0133774D01*
X0057880Y0133774D02*
X0057880Y0130738D01*
X0054844Y0130738D01*
X0054844Y0133774D01*
X0054844Y0132038D02*
X0057880Y0132038D01*
X0057880Y0133338D02*
X0054844Y0133338D01*
X0241539Y0168017D02*
X0241539Y0171053D01*
X0241539Y0168017D02*
X0238503Y0168017D01*
X0238503Y0171053D01*
X0241539Y0171053D01*
X0241539Y0169317D02*
X0238503Y0169317D01*
X0238503Y0170617D02*
X0241539Y0170617D01*
X0241539Y0174710D02*
X0241539Y0177746D01*
X0241539Y0174710D02*
X0238503Y0174710D01*
X0238503Y0177746D01*
X0241539Y0177746D01*
X0241539Y0176010D02*
X0238503Y0176010D01*
X0238503Y0177310D02*
X0241539Y0177310D01*
X0339976Y0174933D02*
X0339976Y0171897D01*
X0336940Y0171897D01*
X0336940Y0174933D01*
X0339976Y0174933D01*
X0339976Y0173197D02*
X0336940Y0173197D01*
X0336940Y0174497D02*
X0339976Y0174497D01*
X0344976Y0174710D02*
X0344976Y0177746D01*
X0344976Y0174710D02*
X0341940Y0174710D01*
X0341940Y0177746D01*
X0344976Y0177746D01*
X0344976Y0176010D02*
X0341940Y0176010D01*
X0341940Y0177310D02*
X0344976Y0177310D01*
X0343724Y0186587D02*
X0346760Y0186587D01*
X0346760Y0183551D01*
X0343724Y0183551D01*
X0343724Y0186587D01*
X0343724Y0184851D02*
X0346760Y0184851D01*
X0346760Y0186151D02*
X0343724Y0186151D01*
X0343724Y0191587D02*
X0346760Y0191587D01*
X0346760Y0188551D01*
X0343724Y0188551D01*
X0343724Y0191587D01*
X0343724Y0189851D02*
X0346760Y0189851D01*
X0346760Y0191151D02*
X0343724Y0191151D01*
X0343724Y0196587D02*
X0346760Y0196587D01*
X0346760Y0193551D01*
X0343724Y0193551D01*
X0343724Y0196587D01*
X0343724Y0194851D02*
X0346760Y0194851D01*
X0346760Y0196151D02*
X0343724Y0196151D01*
X0343505Y0198551D02*
X0340469Y0198551D01*
X0340469Y0201587D01*
X0343505Y0201587D01*
X0343505Y0198551D01*
X0343505Y0199851D02*
X0340469Y0199851D01*
X0340469Y0201151D02*
X0343505Y0201151D01*
X0347162Y0198551D02*
X0350198Y0198551D01*
X0347162Y0198551D02*
X0347162Y0201587D01*
X0350198Y0201587D01*
X0350198Y0198551D01*
X0350198Y0199851D02*
X0347162Y0199851D01*
X0347162Y0201151D02*
X0350198Y0201151D01*
X0352164Y0195871D02*
X0352164Y0192835D01*
X0349128Y0192835D01*
X0349128Y0195871D01*
X0352164Y0195871D01*
X0352164Y0194135D02*
X0349128Y0194135D01*
X0349128Y0195435D02*
X0352164Y0195435D01*
X0352164Y0189178D02*
X0352164Y0186142D01*
X0349128Y0186142D01*
X0349128Y0189178D01*
X0352164Y0189178D01*
X0352164Y0187442D02*
X0349128Y0187442D01*
X0349128Y0188742D02*
X0352164Y0188742D01*
X0362969Y0181051D02*
X0366005Y0181051D01*
X0362969Y0181051D02*
X0362969Y0184087D01*
X0366005Y0184087D01*
X0366005Y0181051D01*
X0366005Y0182351D02*
X0362969Y0182351D01*
X0362969Y0183651D02*
X0366005Y0183651D01*
X0369662Y0181051D02*
X0372698Y0181051D01*
X0369662Y0181051D02*
X0369662Y0184087D01*
X0372698Y0184087D01*
X0372698Y0181051D01*
X0372698Y0182351D02*
X0369662Y0182351D01*
X0369662Y0183651D02*
X0372698Y0183651D01*
X0374219Y0178149D02*
X0377255Y0178149D01*
X0377255Y0175113D01*
X0374219Y0175113D01*
X0374219Y0178149D01*
X0374219Y0176413D02*
X0377255Y0176413D01*
X0377255Y0177713D02*
X0374219Y0177713D01*
X0374219Y0173149D02*
X0377255Y0173149D01*
X0377255Y0170113D01*
X0374219Y0170113D01*
X0374219Y0173149D01*
X0374219Y0171413D02*
X0377255Y0171413D01*
X0377255Y0172713D02*
X0374219Y0172713D01*
X0380912Y0173149D02*
X0383948Y0173149D01*
X0383948Y0170113D01*
X0380912Y0170113D01*
X0380912Y0173149D01*
X0380912Y0171413D02*
X0383948Y0171413D01*
X0383948Y0172713D02*
X0380912Y0172713D01*
X0380912Y0178149D02*
X0383948Y0178149D01*
X0383948Y0175113D01*
X0380912Y0175113D01*
X0380912Y0178149D01*
X0380912Y0176413D02*
X0383948Y0176413D01*
X0383948Y0177713D02*
X0380912Y0177713D01*
X0382162Y0165113D02*
X0385198Y0165113D01*
X0382162Y0165113D02*
X0382162Y0168149D01*
X0385198Y0168149D01*
X0385198Y0165113D01*
X0385198Y0166413D02*
X0382162Y0166413D01*
X0382162Y0167713D02*
X0385198Y0167713D01*
X0378505Y0165113D02*
X0375469Y0165113D01*
X0375469Y0168149D01*
X0378505Y0168149D01*
X0378505Y0165113D01*
X0378505Y0166413D02*
X0375469Y0166413D01*
X0375469Y0167713D02*
X0378505Y0167713D01*
X0378505Y0160113D02*
X0375469Y0160113D01*
X0375469Y0163149D01*
X0378505Y0163149D01*
X0378505Y0160113D01*
X0378505Y0161413D02*
X0375469Y0161413D01*
X0375469Y0162713D02*
X0378505Y0162713D01*
X0382162Y0160113D02*
X0385198Y0160113D01*
X0382162Y0160113D02*
X0382162Y0163149D01*
X0385198Y0163149D01*
X0385198Y0160113D01*
X0385198Y0161413D02*
X0382162Y0161413D01*
X0382162Y0162713D02*
X0385198Y0162713D01*
X0385198Y0155113D02*
X0382162Y0155113D01*
X0382162Y0158149D01*
X0385198Y0158149D01*
X0385198Y0155113D01*
X0385198Y0156413D02*
X0382162Y0156413D01*
X0382162Y0157713D02*
X0385198Y0157713D01*
X0378505Y0155113D02*
X0375469Y0155113D01*
X0375469Y0158149D01*
X0378505Y0158149D01*
X0378505Y0155113D01*
X0378505Y0156413D02*
X0375469Y0156413D01*
X0375469Y0157713D02*
X0378505Y0157713D01*
X0378505Y0150113D02*
X0375469Y0150113D01*
X0375469Y0153149D01*
X0378505Y0153149D01*
X0378505Y0150113D01*
X0378505Y0151413D02*
X0375469Y0151413D01*
X0375469Y0152713D02*
X0378505Y0152713D01*
X0382162Y0150113D02*
X0385198Y0150113D01*
X0382162Y0150113D02*
X0382162Y0153149D01*
X0385198Y0153149D01*
X0385198Y0150113D01*
X0385198Y0151413D02*
X0382162Y0151413D01*
X0382162Y0152713D02*
X0385198Y0152713D01*
X0385198Y0145113D02*
X0382162Y0145113D01*
X0382162Y0148149D01*
X0385198Y0148149D01*
X0385198Y0145113D01*
X0385198Y0146413D02*
X0382162Y0146413D01*
X0382162Y0147713D02*
X0385198Y0147713D01*
X0378505Y0145113D02*
X0375469Y0145113D01*
X0375469Y0148149D01*
X0378505Y0148149D01*
X0378505Y0145113D01*
X0378505Y0146413D02*
X0375469Y0146413D01*
X0375469Y0147713D02*
X0378505Y0147713D01*
X0374573Y0140337D02*
X0371537Y0140337D01*
X0374573Y0140337D02*
X0374573Y0137301D01*
X0371537Y0137301D01*
X0371537Y0140337D01*
X0371537Y0138601D02*
X0374573Y0138601D01*
X0374573Y0139901D02*
X0371537Y0139901D01*
X0367880Y0140337D02*
X0364844Y0140337D01*
X0367880Y0140337D02*
X0367880Y0137301D01*
X0364844Y0137301D01*
X0364844Y0140337D01*
X0364844Y0138601D02*
X0367880Y0138601D01*
X0367880Y0139901D02*
X0364844Y0139901D01*
X0351003Y0140740D02*
X0351003Y0137704D01*
X0351003Y0140740D02*
X0354039Y0140740D01*
X0354039Y0137704D01*
X0351003Y0137704D01*
X0351003Y0139004D02*
X0354039Y0139004D01*
X0354039Y0140304D02*
X0351003Y0140304D01*
X0351003Y0144397D02*
X0351003Y0147433D01*
X0354039Y0147433D01*
X0354039Y0144397D01*
X0351003Y0144397D01*
X0351003Y0145697D02*
X0354039Y0145697D01*
X0354039Y0146997D02*
X0351003Y0146997D01*
X0348948Y0148149D02*
X0345912Y0148149D01*
X0348948Y0148149D02*
X0348948Y0145113D01*
X0345912Y0145113D01*
X0345912Y0148149D01*
X0345912Y0146413D02*
X0348948Y0146413D01*
X0348948Y0147713D02*
X0345912Y0147713D01*
X0346760Y0153149D02*
X0343724Y0153149D01*
X0346760Y0153149D02*
X0346760Y0150113D01*
X0343724Y0150113D01*
X0343724Y0153149D01*
X0343724Y0151413D02*
X0346760Y0151413D01*
X0346760Y0152713D02*
X0343724Y0152713D01*
X0343724Y0158149D02*
X0346760Y0158149D01*
X0346760Y0155113D01*
X0343724Y0155113D01*
X0343724Y0158149D01*
X0343724Y0156413D02*
X0346760Y0156413D01*
X0346760Y0157713D02*
X0343724Y0157713D01*
X0343412Y0163149D02*
X0346448Y0163149D01*
X0346448Y0160113D01*
X0343412Y0160113D01*
X0343412Y0163149D01*
X0343412Y0161413D02*
X0346448Y0161413D01*
X0346448Y0162713D02*
X0343412Y0162713D01*
X0339755Y0163149D02*
X0336719Y0163149D01*
X0339755Y0163149D02*
X0339755Y0160113D01*
X0336719Y0160113D01*
X0336719Y0163149D01*
X0336719Y0161413D02*
X0339755Y0161413D01*
X0339755Y0162713D02*
X0336719Y0162713D01*
X0339976Y0165204D02*
X0339976Y0168240D01*
X0339976Y0165204D02*
X0336940Y0165204D01*
X0336940Y0168240D01*
X0339976Y0168240D01*
X0339976Y0166504D02*
X0336940Y0166504D01*
X0336940Y0167804D02*
X0339976Y0167804D01*
X0344976Y0168017D02*
X0344976Y0171053D01*
X0344976Y0168017D02*
X0341940Y0168017D01*
X0341940Y0171053D01*
X0344976Y0171053D01*
X0344976Y0169317D02*
X0341940Y0169317D01*
X0341940Y0170617D02*
X0344976Y0170617D01*
X0340067Y0186587D02*
X0337031Y0186587D01*
X0340067Y0186587D02*
X0340067Y0183551D01*
X0337031Y0183551D01*
X0337031Y0186587D01*
X0337031Y0184851D02*
X0340067Y0184851D01*
X0340067Y0186151D02*
X0337031Y0186151D01*
X0337031Y0191587D02*
X0340067Y0191587D01*
X0340067Y0188551D01*
X0337031Y0188551D01*
X0337031Y0191587D01*
X0337031Y0189851D02*
X0340067Y0189851D01*
X0340067Y0191151D02*
X0337031Y0191151D01*
X0337031Y0196587D02*
X0340067Y0196587D01*
X0340067Y0193551D01*
X0337031Y0193551D01*
X0337031Y0196587D01*
X0337031Y0194851D02*
X0340067Y0194851D01*
X0340067Y0196151D02*
X0337031Y0196151D01*
X0337031Y0158149D02*
X0340067Y0158149D01*
X0340067Y0155113D01*
X0337031Y0155113D01*
X0337031Y0158149D01*
X0337031Y0156413D02*
X0340067Y0156413D01*
X0340067Y0157713D02*
X0337031Y0157713D01*
X0337031Y0153149D02*
X0340067Y0153149D01*
X0340067Y0150113D01*
X0337031Y0150113D01*
X0337031Y0153149D01*
X0337031Y0151413D02*
X0340067Y0151413D01*
X0340067Y0152713D02*
X0337031Y0152713D01*
X0339219Y0148149D02*
X0342255Y0148149D01*
X0342255Y0145113D01*
X0339219Y0145113D01*
X0339219Y0148149D01*
X0339219Y0146413D02*
X0342255Y0146413D01*
X0342255Y0147713D02*
X0339219Y0147713D01*
X0304753Y0113683D02*
X0304753Y0110647D01*
X0304753Y0113683D02*
X0307789Y0113683D01*
X0307789Y0110647D01*
X0304753Y0110647D01*
X0304753Y0111947D02*
X0307789Y0111947D01*
X0307789Y0113247D02*
X0304753Y0113247D01*
X0300914Y0113683D02*
X0300914Y0110647D01*
X0297878Y0110647D01*
X0297878Y0113683D01*
X0300914Y0113683D01*
X0300914Y0111947D02*
X0297878Y0111947D01*
X0297878Y0113247D02*
X0300914Y0113247D01*
X0300914Y0106990D02*
X0300914Y0103954D01*
X0297878Y0103954D01*
X0297878Y0106990D01*
X0300914Y0106990D01*
X0300914Y0105254D02*
X0297878Y0105254D01*
X0297878Y0106554D02*
X0300914Y0106554D01*
X0304753Y0106990D02*
X0304753Y0103954D01*
X0304753Y0106990D02*
X0307789Y0106990D01*
X0307789Y0103954D01*
X0304753Y0103954D01*
X0304753Y0105254D02*
X0307789Y0105254D01*
X0307789Y0106554D02*
X0304753Y0106554D01*
X0337344Y0104087D02*
X0340380Y0104087D01*
X0340380Y0101051D01*
X0337344Y0101051D01*
X0337344Y0104087D01*
X0337344Y0102351D02*
X0340380Y0102351D01*
X0340380Y0103651D02*
X0337344Y0103651D01*
X0337344Y0099087D02*
X0340380Y0099087D01*
X0340380Y0096051D01*
X0337344Y0096051D01*
X0337344Y0099087D01*
X0337344Y0097351D02*
X0340380Y0097351D01*
X0340380Y0098651D02*
X0337344Y0098651D01*
X0337344Y0094087D02*
X0340380Y0094087D01*
X0340380Y0091051D01*
X0337344Y0091051D01*
X0337344Y0094087D01*
X0337344Y0092351D02*
X0340380Y0092351D01*
X0340380Y0093651D02*
X0337344Y0093651D01*
X0344037Y0094087D02*
X0347073Y0094087D01*
X0347073Y0091051D01*
X0344037Y0091051D01*
X0344037Y0094087D01*
X0344037Y0092351D02*
X0347073Y0092351D01*
X0347073Y0093651D02*
X0344037Y0093651D01*
X0352476Y0093642D02*
X0352476Y0096678D01*
X0352476Y0093642D02*
X0349440Y0093642D01*
X0349440Y0096678D01*
X0352476Y0096678D01*
X0352476Y0094942D02*
X0349440Y0094942D01*
X0349440Y0096242D02*
X0352476Y0096242D01*
X0347073Y0099087D02*
X0344037Y0099087D01*
X0347073Y0099087D02*
X0347073Y0096051D01*
X0344037Y0096051D01*
X0344037Y0099087D01*
X0344037Y0097351D02*
X0347073Y0097351D01*
X0347073Y0098651D02*
X0344037Y0098651D01*
X0344037Y0104087D02*
X0347073Y0104087D01*
X0347073Y0101051D01*
X0344037Y0101051D01*
X0344037Y0104087D01*
X0344037Y0102351D02*
X0347073Y0102351D01*
X0347073Y0103651D02*
X0344037Y0103651D01*
X0352476Y0103371D02*
X0352476Y0100335D01*
X0349440Y0100335D01*
X0349440Y0103371D01*
X0352476Y0103371D01*
X0352476Y0101635D02*
X0349440Y0101635D01*
X0349440Y0102935D02*
X0352476Y0102935D01*
X0350510Y0106051D02*
X0347474Y0106051D01*
X0347474Y0109087D01*
X0350510Y0109087D01*
X0350510Y0106051D01*
X0350510Y0107351D02*
X0347474Y0107351D01*
X0347474Y0108651D02*
X0350510Y0108651D01*
X0343817Y0106051D02*
X0340781Y0106051D01*
X0340781Y0109087D01*
X0343817Y0109087D01*
X0343817Y0106051D01*
X0343817Y0107351D02*
X0340781Y0107351D01*
X0340781Y0108651D02*
X0343817Y0108651D01*
X0363281Y0088551D02*
X0366317Y0088551D01*
X0363281Y0088551D02*
X0363281Y0091587D01*
X0366317Y0091587D01*
X0366317Y0088551D01*
X0366317Y0089851D02*
X0363281Y0089851D01*
X0363281Y0091151D02*
X0366317Y0091151D01*
X0369974Y0088551D02*
X0373010Y0088551D01*
X0369974Y0088551D02*
X0369974Y0091587D01*
X0373010Y0091587D01*
X0373010Y0088551D01*
X0373010Y0089851D02*
X0369974Y0089851D01*
X0369974Y0091151D02*
X0373010Y0091151D01*
X0374531Y0085649D02*
X0377567Y0085649D01*
X0377567Y0082613D01*
X0374531Y0082613D01*
X0374531Y0085649D01*
X0374531Y0083913D02*
X0377567Y0083913D01*
X0377567Y0085213D02*
X0374531Y0085213D01*
X0374531Y0080649D02*
X0377567Y0080649D01*
X0377567Y0077613D01*
X0374531Y0077613D01*
X0374531Y0080649D01*
X0374531Y0078913D02*
X0377567Y0078913D01*
X0377567Y0080213D02*
X0374531Y0080213D01*
X0375781Y0072613D02*
X0378817Y0072613D01*
X0375781Y0072613D02*
X0375781Y0075649D01*
X0378817Y0075649D01*
X0378817Y0072613D01*
X0378817Y0073913D02*
X0375781Y0073913D01*
X0375781Y0075213D02*
X0378817Y0075213D01*
X0382474Y0072613D02*
X0385510Y0072613D01*
X0382474Y0072613D02*
X0382474Y0075649D01*
X0385510Y0075649D01*
X0385510Y0072613D01*
X0385510Y0073913D02*
X0382474Y0073913D01*
X0382474Y0075213D02*
X0385510Y0075213D01*
X0384260Y0080649D02*
X0381224Y0080649D01*
X0384260Y0080649D02*
X0384260Y0077613D01*
X0381224Y0077613D01*
X0381224Y0080649D01*
X0381224Y0078913D02*
X0384260Y0078913D01*
X0384260Y0080213D02*
X0381224Y0080213D01*
X0381224Y0085649D02*
X0384260Y0085649D01*
X0384260Y0082613D01*
X0381224Y0082613D01*
X0381224Y0085649D01*
X0381224Y0083913D02*
X0384260Y0083913D01*
X0384260Y0085213D02*
X0381224Y0085213D01*
X0382474Y0067613D02*
X0385510Y0067613D01*
X0382474Y0067613D02*
X0382474Y0070649D01*
X0385510Y0070649D01*
X0385510Y0067613D01*
X0385510Y0068913D02*
X0382474Y0068913D01*
X0382474Y0070213D02*
X0385510Y0070213D01*
X0385510Y0062613D02*
X0382474Y0062613D01*
X0382474Y0065649D01*
X0385510Y0065649D01*
X0385510Y0062613D01*
X0385510Y0063913D02*
X0382474Y0063913D01*
X0382474Y0065213D02*
X0385510Y0065213D01*
X0385510Y0057613D02*
X0382474Y0057613D01*
X0382474Y0060649D01*
X0385510Y0060649D01*
X0385510Y0057613D01*
X0385510Y0058913D02*
X0382474Y0058913D01*
X0382474Y0060213D02*
X0385510Y0060213D01*
X0385510Y0052613D02*
X0382474Y0052613D01*
X0382474Y0055649D01*
X0385510Y0055649D01*
X0385510Y0052613D01*
X0385510Y0053913D02*
X0382474Y0053913D01*
X0382474Y0055213D02*
X0385510Y0055213D01*
X0378817Y0052613D02*
X0375781Y0052613D01*
X0375781Y0055649D01*
X0378817Y0055649D01*
X0378817Y0052613D01*
X0378817Y0053913D02*
X0375781Y0053913D01*
X0375781Y0055213D02*
X0378817Y0055213D01*
X0378817Y0057613D02*
X0375781Y0057613D01*
X0375781Y0060649D01*
X0378817Y0060649D01*
X0378817Y0057613D01*
X0378817Y0058913D02*
X0375781Y0058913D01*
X0375781Y0060213D02*
X0378817Y0060213D01*
X0378817Y0062613D02*
X0375781Y0062613D01*
X0375781Y0065649D01*
X0378817Y0065649D01*
X0378817Y0062613D01*
X0378817Y0063913D02*
X0375781Y0063913D01*
X0375781Y0065213D02*
X0378817Y0065213D01*
X0378817Y0067613D02*
X0375781Y0067613D01*
X0375781Y0070649D01*
X0378817Y0070649D01*
X0378817Y0067613D01*
X0378817Y0068913D02*
X0375781Y0068913D01*
X0375781Y0070213D02*
X0378817Y0070213D01*
X0351315Y0054933D02*
X0351315Y0051897D01*
X0351315Y0054933D02*
X0354351Y0054933D01*
X0354351Y0051897D01*
X0351315Y0051897D01*
X0351315Y0053197D02*
X0354351Y0053197D01*
X0354351Y0054497D02*
X0351315Y0054497D01*
X0349260Y0055649D02*
X0346224Y0055649D01*
X0349260Y0055649D02*
X0349260Y0052613D01*
X0346224Y0052613D01*
X0346224Y0055649D01*
X0346224Y0053913D02*
X0349260Y0053913D01*
X0349260Y0055213D02*
X0346224Y0055213D01*
X0342567Y0055649D02*
X0339531Y0055649D01*
X0342567Y0055649D02*
X0342567Y0052613D01*
X0339531Y0052613D01*
X0339531Y0055649D01*
X0339531Y0053913D02*
X0342567Y0053913D01*
X0342567Y0055213D02*
X0339531Y0055213D01*
X0340380Y0060649D02*
X0337344Y0060649D01*
X0340380Y0060649D02*
X0340380Y0057613D01*
X0337344Y0057613D01*
X0337344Y0060649D01*
X0337344Y0058913D02*
X0340380Y0058913D01*
X0340380Y0060213D02*
X0337344Y0060213D01*
X0337344Y0065649D02*
X0340380Y0065649D01*
X0340380Y0062613D01*
X0337344Y0062613D01*
X0337344Y0065649D01*
X0337344Y0063913D02*
X0340380Y0063913D01*
X0340380Y0065213D02*
X0337344Y0065213D01*
X0337031Y0070649D02*
X0340067Y0070649D01*
X0340067Y0067613D01*
X0337031Y0067613D01*
X0337031Y0070649D01*
X0337031Y0068913D02*
X0340067Y0068913D01*
X0340067Y0070213D02*
X0337031Y0070213D01*
X0340289Y0072704D02*
X0340289Y0075740D01*
X0340289Y0072704D02*
X0337253Y0072704D01*
X0337253Y0075740D01*
X0340289Y0075740D01*
X0340289Y0074004D02*
X0337253Y0074004D01*
X0337253Y0075304D02*
X0340289Y0075304D01*
X0345289Y0075517D02*
X0345289Y0078553D01*
X0345289Y0075517D02*
X0342253Y0075517D01*
X0342253Y0078553D01*
X0345289Y0078553D01*
X0345289Y0076817D02*
X0342253Y0076817D01*
X0342253Y0078117D02*
X0345289Y0078117D01*
X0345289Y0082210D02*
X0345289Y0085246D01*
X0345289Y0082210D02*
X0342253Y0082210D01*
X0342253Y0085246D01*
X0345289Y0085246D01*
X0345289Y0083510D02*
X0342253Y0083510D01*
X0342253Y0084810D02*
X0345289Y0084810D01*
X0340289Y0082433D02*
X0340289Y0079397D01*
X0337253Y0079397D01*
X0337253Y0082433D01*
X0340289Y0082433D01*
X0340289Y0080697D02*
X0337253Y0080697D01*
X0337253Y0081997D02*
X0340289Y0081997D01*
X0343724Y0070649D02*
X0346760Y0070649D01*
X0346760Y0067613D01*
X0343724Y0067613D01*
X0343724Y0070649D01*
X0343724Y0068913D02*
X0346760Y0068913D01*
X0346760Y0070213D02*
X0343724Y0070213D01*
X0344037Y0065649D02*
X0347073Y0065649D01*
X0347073Y0062613D01*
X0344037Y0062613D01*
X0344037Y0065649D01*
X0344037Y0063913D02*
X0347073Y0063913D01*
X0347073Y0065213D02*
X0344037Y0065213D01*
X0344037Y0060649D02*
X0347073Y0060649D01*
X0347073Y0057613D01*
X0344037Y0057613D01*
X0344037Y0060649D01*
X0344037Y0058913D02*
X0347073Y0058913D01*
X0347073Y0060213D02*
X0344037Y0060213D01*
X0351315Y0048240D02*
X0351315Y0045204D01*
X0351315Y0048240D02*
X0354351Y0048240D01*
X0354351Y0045204D01*
X0351315Y0045204D01*
X0351315Y0046504D02*
X0354351Y0046504D01*
X0354351Y0047804D02*
X0351315Y0047804D01*
X0365156Y0047837D02*
X0368192Y0047837D01*
X0368192Y0044801D01*
X0365156Y0044801D01*
X0365156Y0047837D01*
X0365156Y0046101D02*
X0368192Y0046101D01*
X0368192Y0047401D02*
X0365156Y0047401D01*
X0371849Y0047837D02*
X0374885Y0047837D01*
X0374885Y0044801D01*
X0371849Y0044801D01*
X0371849Y0047837D01*
X0371849Y0046101D02*
X0374885Y0046101D01*
X0374885Y0047401D02*
X0371849Y0047401D01*
X0307789Y0068954D02*
X0307789Y0071990D01*
X0307789Y0068954D02*
X0304753Y0068954D01*
X0304753Y0071990D01*
X0307789Y0071990D01*
X0307789Y0070254D02*
X0304753Y0070254D01*
X0304753Y0071554D02*
X0307789Y0071554D01*
X0307789Y0075647D02*
X0307789Y0078683D01*
X0307789Y0075647D02*
X0304753Y0075647D01*
X0304753Y0078683D01*
X0307789Y0078683D01*
X0307789Y0076947D02*
X0304753Y0076947D01*
X0304753Y0078247D02*
X0307789Y0078247D01*
X0297878Y0078683D02*
X0297878Y0075647D01*
X0297878Y0078683D02*
X0300914Y0078683D01*
X0300914Y0075647D01*
X0297878Y0075647D01*
X0297878Y0076947D02*
X0300914Y0076947D01*
X0300914Y0078247D02*
X0297878Y0078247D01*
X0297878Y0071990D02*
X0297878Y0068954D01*
X0297878Y0071990D02*
X0300914Y0071990D01*
X0300914Y0068954D01*
X0297878Y0068954D01*
X0297878Y0070254D02*
X0300914Y0070254D01*
X0300914Y0071554D02*
X0297878Y0071554D01*
X0298724Y0047212D02*
X0301760Y0047212D01*
X0301760Y0044176D01*
X0298724Y0044176D01*
X0298724Y0047212D01*
X0298724Y0045476D02*
X0301760Y0045476D01*
X0301760Y0046776D02*
X0298724Y0046776D01*
X0295067Y0047212D02*
X0292031Y0047212D01*
X0295067Y0047212D02*
X0295067Y0044176D01*
X0292031Y0044176D01*
X0292031Y0047212D01*
X0292031Y0045476D02*
X0295067Y0045476D01*
X0295067Y0046776D02*
X0292031Y0046776D01*
X0288323Y0047212D02*
X0285287Y0047212D01*
X0288323Y0047212D02*
X0288323Y0044176D01*
X0285287Y0044176D01*
X0285287Y0047212D01*
X0285287Y0045476D02*
X0288323Y0045476D01*
X0288323Y0046776D02*
X0285287Y0046776D01*
X0281630Y0047212D02*
X0278594Y0047212D01*
X0281630Y0047212D02*
X0281630Y0044176D01*
X0278594Y0044176D01*
X0278594Y0047212D01*
X0278594Y0045476D02*
X0281630Y0045476D01*
X0281630Y0046776D02*
X0278594Y0046776D01*
X0275198Y0044176D02*
X0272162Y0044176D01*
X0272162Y0047212D01*
X0275198Y0047212D01*
X0275198Y0044176D01*
X0275198Y0045476D02*
X0272162Y0045476D01*
X0272162Y0046776D02*
X0275198Y0046776D01*
X0268505Y0044176D02*
X0265469Y0044176D01*
X0265469Y0047212D01*
X0268505Y0047212D01*
X0268505Y0044176D01*
X0268505Y0045476D02*
X0265469Y0045476D01*
X0265469Y0046776D02*
X0268505Y0046776D01*
X0261760Y0044176D02*
X0258724Y0044176D01*
X0258724Y0047212D01*
X0261760Y0047212D01*
X0261760Y0044176D01*
X0261760Y0045476D02*
X0258724Y0045476D01*
X0258724Y0046776D02*
X0261760Y0046776D01*
X0255067Y0044176D02*
X0252031Y0044176D01*
X0252031Y0047212D01*
X0255067Y0047212D01*
X0255067Y0044176D01*
X0255067Y0045476D02*
X0252031Y0045476D01*
X0252031Y0046776D02*
X0255067Y0046776D01*
D15*
X0259708Y0066006D03*
X0269708Y0066006D03*
X0279708Y0066006D03*
X0249708Y0066006D03*
X0239708Y0066006D03*
X0229708Y0066006D03*
X0199708Y0066006D03*
X0199708Y0056006D03*
X0199708Y0046006D03*
X0179708Y0046006D03*
X0169708Y0046006D03*
X0159708Y0046006D03*
X0149708Y0046006D03*
X0139708Y0046006D03*
X0139708Y0056006D03*
X0139708Y0066006D03*
X0149708Y0066006D03*
X0159708Y0066006D03*
X0159708Y0056006D03*
X0149708Y0056006D03*
X0169708Y0056006D03*
X0179708Y0056006D03*
X0179708Y0066006D03*
X0169708Y0066006D03*
X0169708Y0076006D03*
X0179708Y0076006D03*
X0179708Y0086006D03*
X0169708Y0086006D03*
X0159708Y0086006D03*
X0149708Y0086006D03*
X0139708Y0086006D03*
X0139708Y0076006D03*
X0149708Y0076006D03*
X0159708Y0076006D03*
X0159708Y0096006D03*
X0149708Y0096006D03*
X0139708Y0096006D03*
X0139708Y0106006D03*
X0149708Y0106006D03*
X0159708Y0106006D03*
X0169708Y0106006D03*
X0179708Y0106006D03*
X0179708Y0096006D03*
X0169708Y0096006D03*
X0199708Y0096006D03*
X0199708Y0086006D03*
X0199708Y0076006D03*
X0199708Y0106006D03*
X0199708Y0116006D03*
X0199708Y0126006D03*
X0199708Y0136006D03*
X0199708Y0146006D03*
X0199708Y0156006D03*
X0199708Y0166006D03*
X0209708Y0166006D03*
X0209708Y0176006D03*
X0199708Y0176006D03*
X0199708Y0186006D03*
X0209708Y0186006D03*
X0209708Y0196006D03*
X0199708Y0196006D03*
X0199708Y0206006D03*
X0179708Y0206006D03*
X0169708Y0206006D03*
X0159708Y0206006D03*
X0149708Y0206006D03*
X0139708Y0206006D03*
X0139708Y0196006D03*
X0149708Y0196006D03*
X0159708Y0196006D03*
X0169708Y0196006D03*
X0179708Y0196006D03*
X0179708Y0186006D03*
X0169708Y0186006D03*
X0159708Y0186006D03*
X0149708Y0186006D03*
X0139708Y0186006D03*
X0139708Y0176006D03*
X0149708Y0176006D03*
X0159708Y0176006D03*
X0169708Y0176006D03*
X0179708Y0176006D03*
X0179708Y0166006D03*
X0169708Y0166006D03*
X0159708Y0166006D03*
X0149708Y0166006D03*
X0139708Y0166006D03*
X0139708Y0156006D03*
X0149708Y0156006D03*
X0159708Y0156006D03*
X0169708Y0156006D03*
X0179708Y0156006D03*
X0179708Y0146006D03*
X0169708Y0146006D03*
X0159708Y0146006D03*
X0149708Y0146006D03*
X0139708Y0146006D03*
X0139708Y0136006D03*
X0149708Y0136006D03*
X0159708Y0136006D03*
X0169708Y0136006D03*
X0179708Y0136006D03*
X0179708Y0126006D03*
X0169708Y0126006D03*
X0159708Y0126006D03*
X0149708Y0126006D03*
X0139708Y0126006D03*
X0139708Y0116006D03*
X0149708Y0116006D03*
X0159708Y0116006D03*
X0169708Y0116006D03*
X0179708Y0116006D03*
X0229708Y0116006D03*
X0239708Y0116006D03*
X0249708Y0116006D03*
X0259708Y0116006D03*
X0269708Y0116006D03*
X0279708Y0116006D03*
X0279708Y0146006D03*
X0269708Y0146006D03*
X0259708Y0146006D03*
X0249708Y0146006D03*
X0239708Y0146006D03*
X0289708Y0146006D03*
X0330646Y0148506D03*
X0330646Y0138506D03*
X0330646Y0158506D03*
X0330646Y0168506D03*
X0330646Y0178506D03*
X0330646Y0188506D03*
X0330646Y0198506D03*
X0330646Y0208506D03*
X0340646Y0208506D03*
X0350646Y0208506D03*
X0360646Y0208506D03*
X0370646Y0208506D03*
X0380646Y0208506D03*
X0390646Y0198506D03*
X0390646Y0188506D03*
X0390646Y0178506D03*
X0390646Y0168506D03*
X0390646Y0158506D03*
X0390646Y0148506D03*
X0390646Y0138506D03*
X0380958Y0116006D03*
X0370958Y0116006D03*
X0360958Y0116006D03*
X0350958Y0116006D03*
X0340958Y0116006D03*
X0330958Y0116006D03*
X0330958Y0106006D03*
X0330958Y0096006D03*
X0330958Y0086006D03*
X0330958Y0076006D03*
X0330958Y0066006D03*
X0330958Y0056006D03*
X0330958Y0046006D03*
X0309708Y0046006D03*
X0390958Y0046006D03*
X0390958Y0056006D03*
X0390958Y0066006D03*
X0390958Y0076006D03*
X0390958Y0086006D03*
X0390958Y0096006D03*
X0390958Y0106006D03*
X0309708Y0206006D03*
X0119708Y0206006D03*
X0119708Y0196006D03*
X0119708Y0186006D03*
X0119708Y0176006D03*
X0119708Y0166006D03*
X0119708Y0156006D03*
X0119708Y0146006D03*
X0119708Y0136006D03*
X0119708Y0126006D03*
X0119708Y0116006D03*
X0119708Y0106006D03*
X0119708Y0096006D03*
X0119708Y0086006D03*
X0119708Y0076006D03*
X0119708Y0066006D03*
X0119708Y0056006D03*
X0119708Y0046006D03*
X0009708Y0046006D03*
X0069708Y0196006D03*
X0079708Y0196006D03*
X0079708Y0206006D03*
X0069708Y0206006D03*
X0009708Y0206006D03*
D16*
X0043458Y0136944D03*
D17*
X0043458Y0131235D03*
X0039521Y0131235D03*
X0047395Y0131235D03*
X0047395Y0142652D03*
X0043458Y0142652D03*
X0039521Y0142652D03*
D18*
X0220230Y0054740D02*
X0220230Y0038930D01*
X0210420Y0038930D01*
X0210420Y0054740D01*
X0220230Y0054740D01*
X0220230Y0040019D02*
X0210420Y0040019D01*
X0210420Y0041108D02*
X0220230Y0041108D01*
X0220230Y0042197D02*
X0210420Y0042197D01*
X0210420Y0043286D02*
X0220230Y0043286D01*
X0220230Y0044375D02*
X0210420Y0044375D01*
X0210420Y0045464D02*
X0220230Y0045464D01*
X0220230Y0046553D02*
X0210420Y0046553D01*
X0210420Y0047642D02*
X0220230Y0047642D01*
X0220230Y0048731D02*
X0210420Y0048731D01*
X0210420Y0049820D02*
X0220230Y0049820D01*
X0220230Y0050909D02*
X0210420Y0050909D01*
X0210420Y0051998D02*
X0220230Y0051998D01*
X0220230Y0053087D02*
X0210420Y0053087D01*
X0210420Y0054176D02*
X0220230Y0054176D01*
X0247747Y0054740D02*
X0247747Y0038930D01*
X0237937Y0038930D01*
X0237937Y0054740D01*
X0247747Y0054740D01*
X0247747Y0040019D02*
X0237937Y0040019D01*
X0237937Y0041108D02*
X0247747Y0041108D01*
X0247747Y0042197D02*
X0237937Y0042197D01*
X0237937Y0043286D02*
X0247747Y0043286D01*
X0247747Y0044375D02*
X0237937Y0044375D01*
X0237937Y0045464D02*
X0247747Y0045464D01*
X0247747Y0046553D02*
X0237937Y0046553D01*
X0237937Y0047642D02*
X0247747Y0047642D01*
X0247747Y0048731D02*
X0237937Y0048731D01*
X0237937Y0049820D02*
X0247747Y0049820D01*
X0247747Y0050909D02*
X0237937Y0050909D01*
X0237937Y0051998D02*
X0247747Y0051998D01*
X0247747Y0053087D02*
X0237937Y0053087D01*
X0237937Y0054176D02*
X0247747Y0054176D01*
D19*
X0081619Y0128724D02*
X0081619Y0129986D01*
X0083471Y0129986D01*
X0083471Y0128724D01*
X0081619Y0128724D01*
X0081619Y0129239D02*
X0083471Y0129239D01*
X0083471Y0129754D02*
X0081619Y0129754D01*
X0081619Y0131283D02*
X0081619Y0132545D01*
X0083471Y0132545D01*
X0083471Y0131283D01*
X0081619Y0131283D01*
X0081619Y0131798D02*
X0083471Y0131798D01*
X0083471Y0132313D02*
X0081619Y0132313D01*
X0081619Y0133842D02*
X0081619Y0135104D01*
X0083471Y0135104D01*
X0083471Y0133842D01*
X0081619Y0133842D01*
X0081619Y0134357D02*
X0083471Y0134357D01*
X0083471Y0134872D02*
X0081619Y0134872D01*
X0081619Y0136401D02*
X0081619Y0137663D01*
X0083471Y0137663D01*
X0083471Y0136401D01*
X0081619Y0136401D01*
X0081619Y0136916D02*
X0083471Y0136916D01*
X0083471Y0137431D02*
X0081619Y0137431D01*
X0077172Y0137663D02*
X0077172Y0136401D01*
X0075320Y0136401D01*
X0075320Y0137663D01*
X0077172Y0137663D01*
X0077172Y0136916D02*
X0075320Y0136916D01*
X0075320Y0137431D02*
X0077172Y0137431D01*
X0077172Y0135104D02*
X0077172Y0133842D01*
X0075320Y0133842D01*
X0075320Y0135104D01*
X0077172Y0135104D01*
X0077172Y0134357D02*
X0075320Y0134357D01*
X0075320Y0134872D02*
X0077172Y0134872D01*
X0077172Y0132545D02*
X0077172Y0131283D01*
X0075320Y0131283D01*
X0075320Y0132545D01*
X0077172Y0132545D01*
X0077172Y0131798D02*
X0075320Y0131798D01*
X0075320Y0132313D02*
X0077172Y0132313D01*
X0077172Y0129986D02*
X0077172Y0128724D01*
X0075320Y0128724D01*
X0075320Y0129986D01*
X0077172Y0129986D01*
X0077172Y0129239D02*
X0075320Y0129239D01*
X0075320Y0129754D02*
X0077172Y0129754D01*
D20*
X0044925Y0159540D02*
X0034492Y0159540D01*
X0034492Y0169973D01*
X0044925Y0169973D01*
X0044925Y0159540D01*
X0044925Y0160461D02*
X0034492Y0160461D01*
X0034492Y0162428D02*
X0044925Y0162428D01*
X0044925Y0164395D02*
X0034492Y0164395D01*
X0034492Y0166362D02*
X0044925Y0166362D01*
X0044925Y0168329D02*
X0034492Y0168329D01*
D21*
X0030456Y0168103D02*
X0030456Y0167315D01*
X0028488Y0167315D01*
X0028488Y0168103D01*
X0030456Y0168103D01*
X0030456Y0168022D02*
X0028488Y0168022D01*
X0028488Y0167624D02*
X0030456Y0167624D01*
X0030456Y0166134D02*
X0028488Y0166134D01*
X0028488Y0165347D01*
X0030456Y0165347D01*
X0030456Y0166134D01*
X0030456Y0166030D02*
X0028488Y0166030D01*
X0028488Y0165631D02*
X0030456Y0165631D01*
X0030456Y0164166D02*
X0028488Y0164166D01*
X0028488Y0163378D01*
X0030456Y0163378D01*
X0030456Y0164166D01*
X0030456Y0164037D02*
X0028488Y0164037D01*
X0028488Y0163639D02*
X0030456Y0163639D01*
X0030456Y0162197D02*
X0028488Y0162197D01*
X0028488Y0161410D01*
X0030456Y0161410D01*
X0030456Y0162197D01*
X0030456Y0162045D02*
X0028488Y0162045D01*
X0028488Y0161646D02*
X0030456Y0161646D01*
X0030456Y0160229D02*
X0030456Y0159441D01*
X0028488Y0159441D01*
X0028488Y0160229D01*
X0030456Y0160229D01*
X0030456Y0160052D02*
X0028488Y0160052D01*
X0028488Y0159654D02*
X0030456Y0159654D01*
X0030456Y0158260D02*
X0028488Y0158260D01*
X0028488Y0157473D01*
X0030260Y0157473D01*
X0030456Y0157670D01*
X0030456Y0158260D01*
X0030456Y0158060D02*
X0028488Y0158060D01*
X0028488Y0157661D02*
X0030448Y0157661D01*
X0032622Y0155504D02*
X0033212Y0155504D01*
X0033212Y0153536D01*
X0032425Y0153536D01*
X0032425Y0155307D01*
X0032622Y0155504D01*
X0032425Y0155270D02*
X0033212Y0155270D01*
X0033212Y0154872D02*
X0032425Y0154872D01*
X0032425Y0154473D02*
X0033212Y0154473D01*
X0033212Y0154075D02*
X0032425Y0154075D01*
X0032425Y0153676D02*
X0033212Y0153676D01*
X0034393Y0153676D02*
X0035181Y0153676D01*
X0035181Y0153536D02*
X0034393Y0153536D01*
X0034393Y0155504D01*
X0035181Y0155504D01*
X0035181Y0153536D01*
X0035181Y0154075D02*
X0034393Y0154075D01*
X0034393Y0154473D02*
X0035181Y0154473D01*
X0035181Y0154872D02*
X0034393Y0154872D01*
X0034393Y0155270D02*
X0035181Y0155270D01*
X0036362Y0155270D02*
X0037149Y0155270D01*
X0037149Y0155504D02*
X0037149Y0153536D01*
X0036362Y0153536D01*
X0036362Y0155504D01*
X0037149Y0155504D01*
X0037149Y0154872D02*
X0036362Y0154872D01*
X0036362Y0154473D02*
X0037149Y0154473D01*
X0037149Y0154075D02*
X0036362Y0154075D01*
X0036362Y0153676D02*
X0037149Y0153676D01*
X0038330Y0153676D02*
X0039118Y0153676D01*
X0039118Y0153536D02*
X0038330Y0153536D01*
X0038330Y0155504D01*
X0039118Y0155504D01*
X0039118Y0153536D01*
X0039118Y0154075D02*
X0038330Y0154075D01*
X0038330Y0154473D02*
X0039118Y0154473D01*
X0039118Y0154872D02*
X0038330Y0154872D01*
X0038330Y0155270D02*
X0039118Y0155270D01*
X0040299Y0155270D02*
X0041086Y0155270D01*
X0041086Y0155504D02*
X0041086Y0153536D01*
X0040299Y0153536D01*
X0040299Y0155504D01*
X0041086Y0155504D01*
X0041086Y0154872D02*
X0040299Y0154872D01*
X0040299Y0154473D02*
X0041086Y0154473D01*
X0041086Y0154075D02*
X0040299Y0154075D01*
X0040299Y0153676D02*
X0041086Y0153676D01*
X0042267Y0153676D02*
X0043055Y0153676D01*
X0043055Y0153536D02*
X0042267Y0153536D01*
X0042267Y0155504D01*
X0043055Y0155504D01*
X0043055Y0153536D01*
X0043055Y0154075D02*
X0042267Y0154075D01*
X0042267Y0154473D02*
X0043055Y0154473D01*
X0043055Y0154872D02*
X0042267Y0154872D01*
X0042267Y0155270D02*
X0043055Y0155270D01*
X0044236Y0155270D02*
X0045023Y0155270D01*
X0045023Y0155504D02*
X0045023Y0153536D01*
X0044236Y0153536D01*
X0044236Y0155504D01*
X0045023Y0155504D01*
X0045023Y0154872D02*
X0044236Y0154872D01*
X0044236Y0154473D02*
X0045023Y0154473D01*
X0045023Y0154075D02*
X0044236Y0154075D01*
X0044236Y0153676D02*
X0045023Y0153676D01*
X0046204Y0153676D02*
X0046992Y0153676D01*
X0046992Y0153536D02*
X0046204Y0153536D01*
X0046204Y0155504D01*
X0046795Y0155504D01*
X0046992Y0155307D01*
X0046992Y0153536D01*
X0046992Y0154075D02*
X0046204Y0154075D01*
X0046204Y0154473D02*
X0046992Y0154473D01*
X0046992Y0154872D02*
X0046204Y0154872D01*
X0046204Y0155270D02*
X0046992Y0155270D01*
X0049157Y0157473D02*
X0048960Y0157670D01*
X0048960Y0158260D01*
X0050929Y0158260D01*
X0050929Y0157473D01*
X0049157Y0157473D01*
X0048969Y0157661D02*
X0050929Y0157661D01*
X0050929Y0158060D02*
X0048960Y0158060D01*
X0048960Y0159441D02*
X0048960Y0160229D01*
X0050929Y0160229D01*
X0050929Y0159441D01*
X0048960Y0159441D01*
X0048960Y0159654D02*
X0050929Y0159654D01*
X0050929Y0160052D02*
X0048960Y0160052D01*
X0048960Y0161410D02*
X0048960Y0162197D01*
X0050929Y0162197D01*
X0050929Y0161410D01*
X0048960Y0161410D01*
X0048960Y0161646D02*
X0050929Y0161646D01*
X0050929Y0162045D02*
X0048960Y0162045D01*
X0048960Y0163378D02*
X0048960Y0164166D01*
X0050929Y0164166D01*
X0050929Y0163378D01*
X0048960Y0163378D01*
X0048960Y0163639D02*
X0050929Y0163639D01*
X0050929Y0164037D02*
X0048960Y0164037D01*
X0048960Y0165347D02*
X0048960Y0166134D01*
X0050929Y0166134D01*
X0050929Y0165347D01*
X0048960Y0165347D01*
X0048960Y0165631D02*
X0050929Y0165631D01*
X0050929Y0166030D02*
X0048960Y0166030D01*
X0048960Y0167315D02*
X0048960Y0168103D01*
X0050929Y0168103D01*
X0050929Y0167315D01*
X0048960Y0167315D01*
X0048960Y0167624D02*
X0050929Y0167624D01*
X0050929Y0168022D02*
X0048960Y0168022D01*
X0048960Y0169284D02*
X0048960Y0170071D01*
X0050929Y0170071D01*
X0050929Y0169284D01*
X0048960Y0169284D01*
X0048960Y0169617D02*
X0050929Y0169617D01*
X0050929Y0170015D02*
X0048960Y0170015D01*
X0048960Y0171252D02*
X0050929Y0171252D01*
X0050929Y0172040D01*
X0049157Y0172040D01*
X0048960Y0171843D01*
X0048960Y0171252D01*
X0048960Y0171609D02*
X0050929Y0171609D01*
X0050929Y0172008D02*
X0049125Y0172008D01*
X0046992Y0174205D02*
X0046795Y0174008D01*
X0046204Y0174008D01*
X0046204Y0175977D01*
X0046992Y0175977D01*
X0046992Y0174205D01*
X0046992Y0174399D02*
X0046204Y0174399D01*
X0046204Y0174797D02*
X0046992Y0174797D01*
X0046992Y0175196D02*
X0046204Y0175196D01*
X0046204Y0175594D02*
X0046992Y0175594D01*
X0045023Y0175594D02*
X0044236Y0175594D01*
X0044236Y0175977D02*
X0045023Y0175977D01*
X0045023Y0174008D01*
X0044236Y0174008D01*
X0044236Y0175977D01*
X0044236Y0175196D02*
X0045023Y0175196D01*
X0045023Y0174797D02*
X0044236Y0174797D01*
X0044236Y0174399D02*
X0045023Y0174399D01*
X0043055Y0174399D02*
X0042267Y0174399D01*
X0042267Y0174008D02*
X0042267Y0175977D01*
X0043055Y0175977D01*
X0043055Y0174008D01*
X0042267Y0174008D01*
X0042267Y0174797D02*
X0043055Y0174797D01*
X0043055Y0175196D02*
X0042267Y0175196D01*
X0042267Y0175594D02*
X0043055Y0175594D01*
X0041086Y0175594D02*
X0040299Y0175594D01*
X0040299Y0175977D02*
X0041086Y0175977D01*
X0041086Y0174008D01*
X0040299Y0174008D01*
X0040299Y0175977D01*
X0040299Y0175196D02*
X0041086Y0175196D01*
X0041086Y0174797D02*
X0040299Y0174797D01*
X0040299Y0174399D02*
X0041086Y0174399D01*
X0039118Y0174399D02*
X0038330Y0174399D01*
X0038330Y0174008D02*
X0038330Y0175977D01*
X0039118Y0175977D01*
X0039118Y0174008D01*
X0038330Y0174008D01*
X0038330Y0174797D02*
X0039118Y0174797D01*
X0039118Y0175196D02*
X0038330Y0175196D01*
X0038330Y0175594D02*
X0039118Y0175594D01*
X0037149Y0175594D02*
X0036362Y0175594D01*
X0036362Y0175977D02*
X0037149Y0175977D01*
X0037149Y0174008D01*
X0036362Y0174008D01*
X0036362Y0175977D01*
X0036362Y0175196D02*
X0037149Y0175196D01*
X0037149Y0174797D02*
X0036362Y0174797D01*
X0036362Y0174399D02*
X0037149Y0174399D01*
X0035181Y0174399D02*
X0034393Y0174399D01*
X0034393Y0174008D02*
X0034393Y0175977D01*
X0035181Y0175977D01*
X0035181Y0174008D01*
X0034393Y0174008D01*
X0034393Y0174797D02*
X0035181Y0174797D01*
X0035181Y0175196D02*
X0034393Y0175196D01*
X0034393Y0175594D02*
X0035181Y0175594D01*
X0033212Y0175594D02*
X0032425Y0175594D01*
X0032425Y0175977D02*
X0033212Y0175977D01*
X0033212Y0174008D01*
X0032622Y0174008D01*
X0032425Y0174205D01*
X0032425Y0175977D01*
X0032425Y0175196D02*
X0033212Y0175196D01*
X0033212Y0174797D02*
X0032425Y0174797D01*
X0032425Y0174399D02*
X0033212Y0174399D01*
X0030456Y0171843D02*
X0030456Y0171252D01*
X0028488Y0171252D01*
X0028488Y0172040D01*
X0030260Y0172040D01*
X0030456Y0171843D01*
X0030292Y0172008D02*
X0028488Y0172008D01*
X0028488Y0171609D02*
X0030456Y0171609D01*
X0030456Y0170071D02*
X0028488Y0170071D01*
X0028488Y0169284D01*
X0030456Y0169284D01*
X0030456Y0170071D01*
X0030456Y0170015D02*
X0028488Y0170015D01*
X0028488Y0169617D02*
X0030456Y0169617D01*
D22*
X0088490Y0198548D02*
X0093426Y0198548D01*
X0088490Y0198548D02*
X0088490Y0200984D01*
X0093426Y0200984D01*
X0093426Y0198548D01*
X0093426Y0199011D02*
X0088490Y0199011D01*
X0088490Y0199474D02*
X0093426Y0199474D01*
X0093426Y0199937D02*
X0088490Y0199937D01*
X0088490Y0200400D02*
X0093426Y0200400D01*
X0093426Y0200863D02*
X0088490Y0200863D01*
X0088490Y0206028D02*
X0093426Y0206028D01*
X0088490Y0206028D02*
X0088490Y0208464D01*
X0093426Y0208464D01*
X0093426Y0206028D01*
X0093426Y0206491D02*
X0088490Y0206491D01*
X0088490Y0206954D02*
X0093426Y0206954D01*
X0093426Y0207417D02*
X0088490Y0207417D01*
X0088490Y0207880D02*
X0093426Y0207880D01*
X0093426Y0208343D02*
X0088490Y0208343D01*
X0098490Y0208464D02*
X0103426Y0208464D01*
X0103426Y0206028D01*
X0098490Y0206028D01*
X0098490Y0208464D01*
X0098490Y0206491D02*
X0103426Y0206491D01*
X0103426Y0206954D02*
X0098490Y0206954D01*
X0098490Y0207417D02*
X0103426Y0207417D01*
X0103426Y0207880D02*
X0098490Y0207880D01*
X0098490Y0208343D02*
X0103426Y0208343D01*
X0103426Y0204724D02*
X0098490Y0204724D01*
X0103426Y0204724D02*
X0103426Y0202288D01*
X0098490Y0202288D01*
X0098490Y0204724D01*
X0098490Y0202751D02*
X0103426Y0202751D01*
X0103426Y0203214D02*
X0098490Y0203214D01*
X0098490Y0203677D02*
X0103426Y0203677D01*
X0103426Y0204140D02*
X0098490Y0204140D01*
X0098490Y0204603D02*
X0103426Y0204603D01*
X0103426Y0200984D02*
X0098490Y0200984D01*
X0103426Y0200984D02*
X0103426Y0198548D01*
X0098490Y0198548D01*
X0098490Y0200984D01*
X0098490Y0199011D02*
X0103426Y0199011D01*
X0103426Y0199474D02*
X0098490Y0199474D01*
X0098490Y0199937D02*
X0103426Y0199937D01*
X0103426Y0200400D02*
X0098490Y0200400D01*
X0098490Y0200863D02*
X0103426Y0200863D01*
D23*
X0042211Y0195211D02*
X0042211Y0187431D01*
X0042211Y0195211D02*
X0043691Y0195211D01*
X0043691Y0187431D01*
X0042211Y0187431D01*
X0042211Y0187924D02*
X0043691Y0187924D01*
X0043691Y0188417D02*
X0042211Y0188417D01*
X0042211Y0188910D02*
X0043691Y0188910D01*
X0043691Y0189403D02*
X0042211Y0189403D01*
X0042211Y0189896D02*
X0043691Y0189896D01*
X0043691Y0190389D02*
X0042211Y0190389D01*
X0042211Y0190882D02*
X0043691Y0190882D01*
X0043691Y0191375D02*
X0042211Y0191375D01*
X0042211Y0191868D02*
X0043691Y0191868D01*
X0043691Y0192361D02*
X0042211Y0192361D01*
X0042211Y0192854D02*
X0043691Y0192854D01*
X0043691Y0193347D02*
X0042211Y0193347D01*
X0042211Y0193840D02*
X0043691Y0193840D01*
X0043691Y0194333D02*
X0042211Y0194333D01*
X0042211Y0194826D02*
X0043691Y0194826D01*
X0039652Y0195211D02*
X0039652Y0187431D01*
X0039652Y0195211D02*
X0041132Y0195211D01*
X0041132Y0187431D01*
X0039652Y0187431D01*
X0039652Y0187924D02*
X0041132Y0187924D01*
X0041132Y0188417D02*
X0039652Y0188417D01*
X0039652Y0188910D02*
X0041132Y0188910D01*
X0041132Y0189403D02*
X0039652Y0189403D01*
X0039652Y0189896D02*
X0041132Y0189896D01*
X0041132Y0190389D02*
X0039652Y0190389D01*
X0039652Y0190882D02*
X0041132Y0190882D01*
X0041132Y0191375D02*
X0039652Y0191375D01*
X0039652Y0191868D02*
X0041132Y0191868D01*
X0041132Y0192361D02*
X0039652Y0192361D01*
X0039652Y0192854D02*
X0041132Y0192854D01*
X0041132Y0193347D02*
X0039652Y0193347D01*
X0039652Y0193840D02*
X0041132Y0193840D01*
X0041132Y0194333D02*
X0039652Y0194333D01*
X0039652Y0194826D02*
X0041132Y0194826D01*
X0037093Y0195211D02*
X0037093Y0187431D01*
X0037093Y0195211D02*
X0038573Y0195211D01*
X0038573Y0187431D01*
X0037093Y0187431D01*
X0037093Y0187924D02*
X0038573Y0187924D01*
X0038573Y0188417D02*
X0037093Y0188417D01*
X0037093Y0188910D02*
X0038573Y0188910D01*
X0038573Y0189403D02*
X0037093Y0189403D01*
X0037093Y0189896D02*
X0038573Y0189896D01*
X0038573Y0190389D02*
X0037093Y0190389D01*
X0037093Y0190882D02*
X0038573Y0190882D01*
X0038573Y0191375D02*
X0037093Y0191375D01*
X0037093Y0191868D02*
X0038573Y0191868D01*
X0038573Y0192361D02*
X0037093Y0192361D01*
X0037093Y0192854D02*
X0038573Y0192854D01*
X0038573Y0193347D02*
X0037093Y0193347D01*
X0037093Y0193840D02*
X0038573Y0193840D01*
X0038573Y0194333D02*
X0037093Y0194333D01*
X0037093Y0194826D02*
X0038573Y0194826D01*
X0034534Y0195211D02*
X0034534Y0187431D01*
X0034534Y0195211D02*
X0036014Y0195211D01*
X0036014Y0187431D01*
X0034534Y0187431D01*
X0034534Y0187924D02*
X0036014Y0187924D01*
X0036014Y0188417D02*
X0034534Y0188417D01*
X0034534Y0188910D02*
X0036014Y0188910D01*
X0036014Y0189403D02*
X0034534Y0189403D01*
X0034534Y0189896D02*
X0036014Y0189896D01*
X0036014Y0190389D02*
X0034534Y0190389D01*
X0034534Y0190882D02*
X0036014Y0190882D01*
X0036014Y0191375D02*
X0034534Y0191375D01*
X0034534Y0191868D02*
X0036014Y0191868D01*
X0036014Y0192361D02*
X0034534Y0192361D01*
X0034534Y0192854D02*
X0036014Y0192854D01*
X0036014Y0193347D02*
X0034534Y0193347D01*
X0034534Y0193840D02*
X0036014Y0193840D01*
X0036014Y0194333D02*
X0034534Y0194333D01*
X0034534Y0194826D02*
X0036014Y0194826D01*
X0031975Y0195211D02*
X0031975Y0187431D01*
X0031975Y0195211D02*
X0033455Y0195211D01*
X0033455Y0187431D01*
X0031975Y0187431D01*
X0031975Y0187924D02*
X0033455Y0187924D01*
X0033455Y0188417D02*
X0031975Y0188417D01*
X0031975Y0188910D02*
X0033455Y0188910D01*
X0033455Y0189403D02*
X0031975Y0189403D01*
X0031975Y0189896D02*
X0033455Y0189896D01*
X0033455Y0190389D02*
X0031975Y0190389D01*
X0031975Y0190882D02*
X0033455Y0190882D01*
X0033455Y0191375D02*
X0031975Y0191375D01*
X0031975Y0191868D02*
X0033455Y0191868D01*
X0033455Y0192361D02*
X0031975Y0192361D01*
X0031975Y0192854D02*
X0033455Y0192854D01*
X0033455Y0193347D02*
X0031975Y0193347D01*
X0031975Y0193840D02*
X0033455Y0193840D01*
X0033455Y0194333D02*
X0031975Y0194333D01*
X0031975Y0194826D02*
X0033455Y0194826D01*
D24*
X0028778Y0194843D02*
X0019329Y0194843D01*
X0019329Y0194881D02*
X0028778Y0194881D01*
X0028778Y0194919D02*
X0019329Y0194919D01*
X0019329Y0194956D02*
X0028778Y0194956D01*
X0028778Y0194994D02*
X0019329Y0194994D01*
X0019329Y0195032D02*
X0028778Y0195032D01*
X0028778Y0195070D02*
X0019329Y0195070D01*
X0019329Y0195108D02*
X0028778Y0195108D01*
X0028778Y0195146D02*
X0019329Y0195146D01*
X0019329Y0195184D02*
X0028778Y0195184D01*
X0028778Y0195222D02*
X0019329Y0195222D01*
X0019329Y0195260D02*
X0028778Y0195260D01*
X0028778Y0195297D02*
X0019329Y0195297D01*
X0019329Y0195335D02*
X0028778Y0195335D01*
X0028778Y0195373D02*
X0019329Y0195373D01*
X0019329Y0195411D02*
X0028778Y0195411D01*
X0028778Y0195449D02*
X0019329Y0195449D01*
X0019329Y0195487D02*
X0028778Y0195487D01*
X0028778Y0195525D02*
X0019329Y0195525D01*
X0019329Y0195563D02*
X0028778Y0195563D01*
X0028778Y0195600D02*
X0019329Y0195600D01*
X0019329Y0195638D02*
X0028778Y0195638D01*
X0028778Y0195676D02*
X0019329Y0195676D01*
X0019329Y0195714D02*
X0028778Y0195714D01*
X0028778Y0195752D02*
X0019329Y0195752D01*
X0019329Y0195790D02*
X0028778Y0195790D01*
X0028778Y0195828D02*
X0019329Y0195828D01*
X0019329Y0195866D02*
X0028778Y0195866D01*
X0028778Y0195904D02*
X0019329Y0195904D01*
X0019329Y0195941D02*
X0028778Y0195941D01*
X0028778Y0195979D02*
X0019329Y0195979D01*
X0019329Y0196017D02*
X0028778Y0196017D01*
X0028778Y0196055D02*
X0019329Y0196055D01*
X0019329Y0196093D02*
X0028778Y0196093D01*
X0028778Y0196131D02*
X0019329Y0196131D01*
X0019329Y0196169D02*
X0028778Y0196169D01*
X0028778Y0196207D02*
X0019329Y0196207D01*
X0019329Y0196244D02*
X0028778Y0196244D01*
X0028778Y0196282D02*
X0019329Y0196282D01*
X0019329Y0196320D02*
X0028778Y0196320D01*
X0028778Y0196358D02*
X0019329Y0196358D01*
X0019329Y0196396D02*
X0028778Y0196396D01*
X0028778Y0196434D02*
X0019329Y0196434D01*
X0019329Y0196472D02*
X0028778Y0196472D01*
X0028778Y0196510D02*
X0019329Y0196510D01*
X0019329Y0196547D02*
X0028778Y0196547D01*
X0028778Y0196585D02*
X0019329Y0196585D01*
X0019329Y0196623D02*
X0028778Y0196623D01*
X0028778Y0196661D02*
X0019329Y0196661D01*
X0019329Y0196699D02*
X0028778Y0196699D01*
X0028778Y0196737D02*
X0019329Y0196737D01*
X0019329Y0196775D02*
X0028778Y0196775D01*
X0028778Y0196813D02*
X0019329Y0196813D01*
X0019329Y0196851D02*
X0028778Y0196851D01*
X0028778Y0196888D02*
X0019329Y0196888D01*
X0019329Y0196926D02*
X0028778Y0196926D01*
X0028778Y0196964D02*
X0019329Y0196964D01*
X0019329Y0197002D02*
X0028778Y0197002D01*
X0028778Y0197040D02*
X0019329Y0197040D01*
X0019329Y0197078D02*
X0028778Y0197078D01*
X0028778Y0197116D02*
X0019329Y0197116D01*
X0019329Y0197154D02*
X0028778Y0197154D01*
X0028778Y0197191D02*
X0019329Y0197191D01*
X0019329Y0197229D02*
X0028778Y0197229D01*
X0028778Y0197267D02*
X0019329Y0197267D01*
X0019329Y0197305D02*
X0028778Y0197305D01*
X0028778Y0197343D02*
X0019329Y0197343D01*
X0019329Y0197381D02*
X0028778Y0197381D01*
X0028778Y0197419D02*
X0019329Y0197419D01*
X0019329Y0197457D02*
X0028778Y0197457D01*
X0028778Y0197495D02*
X0019329Y0197495D01*
X0019329Y0197532D02*
X0028778Y0197532D01*
X0028778Y0197570D02*
X0019329Y0197570D01*
X0019329Y0197608D02*
X0028778Y0197608D01*
X0028778Y0197646D02*
X0019329Y0197646D01*
X0019329Y0197684D02*
X0028778Y0197684D01*
X0028778Y0197722D02*
X0019329Y0197722D01*
X0019329Y0197760D02*
X0028778Y0197760D01*
X0028778Y0197798D02*
X0019329Y0197798D01*
X0019329Y0197835D02*
X0028778Y0197835D01*
X0028778Y0197873D02*
X0019329Y0197873D01*
X0019329Y0197911D02*
X0028778Y0197911D01*
X0028778Y0197949D02*
X0019329Y0197949D01*
X0019329Y0197987D02*
X0028778Y0197987D01*
X0028778Y0198025D02*
X0019329Y0198025D01*
X0019329Y0198063D02*
X0028778Y0198063D01*
X0028778Y0198101D02*
X0019329Y0198101D01*
X0019329Y0198139D02*
X0028778Y0198139D01*
X0028778Y0198176D02*
X0019329Y0198176D01*
X0019329Y0198214D02*
X0028778Y0198214D01*
X0028778Y0198252D02*
X0019329Y0198252D01*
X0019329Y0198290D02*
X0028778Y0198290D01*
X0028778Y0198328D02*
X0019329Y0198328D01*
X0019329Y0198366D02*
X0028778Y0198366D01*
X0028778Y0198404D02*
X0019329Y0198404D01*
X0019329Y0198442D02*
X0028778Y0198442D01*
X0028778Y0198479D02*
X0019329Y0198479D01*
X0019329Y0198517D02*
X0028778Y0198517D01*
X0028778Y0198555D02*
X0019329Y0198555D01*
X0019329Y0198593D02*
X0028778Y0198593D01*
X0028778Y0198631D02*
X0019329Y0198631D01*
X0019329Y0198669D02*
X0028778Y0198669D01*
X0028778Y0198707D02*
X0019329Y0198707D01*
X0019329Y0198745D02*
X0028778Y0198745D01*
X0028778Y0198782D02*
X0019329Y0198782D01*
X0019329Y0198820D02*
X0028778Y0198820D01*
X0028778Y0198858D02*
X0019329Y0198858D01*
X0019329Y0198896D02*
X0028778Y0198896D01*
X0028778Y0198934D02*
X0019329Y0198934D01*
X0019329Y0198972D02*
X0028778Y0198972D01*
X0028778Y0199010D02*
X0019329Y0199010D01*
X0019329Y0199048D02*
X0028778Y0199048D01*
X0028778Y0199086D02*
X0019329Y0199086D01*
X0019329Y0199123D02*
X0028778Y0199123D01*
X0028778Y0199161D02*
X0019329Y0199161D01*
X0019329Y0199199D02*
X0028778Y0199199D01*
X0028778Y0199237D02*
X0019329Y0199237D01*
X0019329Y0199275D02*
X0028778Y0199275D01*
X0028778Y0199313D02*
X0019329Y0199313D01*
X0019329Y0199351D02*
X0028778Y0199351D01*
X0028778Y0199389D02*
X0019329Y0199389D01*
X0019329Y0199426D02*
X0028778Y0199426D01*
X0028778Y0199464D02*
X0019329Y0199464D01*
X0019329Y0199502D02*
X0028778Y0199502D01*
X0028778Y0199540D02*
X0019329Y0199540D01*
X0019329Y0199578D02*
X0028778Y0199578D01*
X0028778Y0199616D02*
X0019329Y0199616D01*
X0019329Y0199654D02*
X0028778Y0199654D01*
X0028778Y0199692D02*
X0019329Y0199692D01*
X0019329Y0199730D02*
X0028778Y0199730D01*
X0028778Y0199767D02*
X0019329Y0199767D01*
X0019329Y0199805D02*
X0028778Y0199805D01*
X0028778Y0199843D02*
X0019329Y0199843D01*
X0019329Y0199881D02*
X0028778Y0199881D01*
X0028778Y0199919D02*
X0019329Y0199919D01*
X0019329Y0199957D02*
X0028778Y0199957D01*
X0028778Y0199995D02*
X0019329Y0199995D01*
X0019329Y0200033D02*
X0028778Y0200033D01*
X0028778Y0200070D02*
X0019329Y0200070D01*
X0019329Y0200108D02*
X0028778Y0200108D01*
X0028778Y0200146D02*
X0019329Y0200146D01*
X0019329Y0200184D02*
X0028778Y0200184D01*
X0028778Y0200222D02*
X0019329Y0200222D01*
X0019329Y0200260D02*
X0028778Y0200260D01*
X0028778Y0200298D02*
X0019329Y0200298D01*
X0019329Y0200336D02*
X0028778Y0200336D01*
X0028778Y0200374D02*
X0019329Y0200374D01*
X0019329Y0200411D02*
X0056337Y0200411D01*
X0056337Y0200374D02*
X0046888Y0200374D01*
X0046888Y0200376D02*
X0028778Y0200376D01*
X0028778Y0188565D01*
X0019329Y0188565D01*
X0019329Y0209333D01*
X0056337Y0209333D01*
X0056337Y0188565D01*
X0046888Y0188565D01*
X0046888Y0200376D01*
X0046888Y0200336D02*
X0056337Y0200336D01*
X0056337Y0200298D02*
X0046888Y0200298D01*
X0046888Y0200260D02*
X0056337Y0200260D01*
X0056337Y0200222D02*
X0046888Y0200222D01*
X0046888Y0200184D02*
X0056337Y0200184D01*
X0056337Y0200146D02*
X0046888Y0200146D01*
X0046888Y0200108D02*
X0056337Y0200108D01*
X0056337Y0200070D02*
X0046888Y0200070D01*
X0046888Y0200033D02*
X0056337Y0200033D01*
X0056337Y0199995D02*
X0046888Y0199995D01*
X0046888Y0199957D02*
X0056337Y0199957D01*
X0056337Y0199919D02*
X0046888Y0199919D01*
X0046888Y0199881D02*
X0056337Y0199881D01*
X0056337Y0199843D02*
X0046888Y0199843D01*
X0046888Y0199805D02*
X0056337Y0199805D01*
X0056337Y0199767D02*
X0046888Y0199767D01*
X0046888Y0199730D02*
X0056337Y0199730D01*
X0056337Y0199692D02*
X0046888Y0199692D01*
X0046888Y0199654D02*
X0056337Y0199654D01*
X0056337Y0199616D02*
X0046888Y0199616D01*
X0046888Y0199578D02*
X0056337Y0199578D01*
X0056337Y0199540D02*
X0046888Y0199540D01*
X0046888Y0199502D02*
X0056337Y0199502D01*
X0056337Y0199464D02*
X0046888Y0199464D01*
X0046888Y0199426D02*
X0056337Y0199426D01*
X0056337Y0199389D02*
X0046888Y0199389D01*
X0046888Y0199351D02*
X0056337Y0199351D01*
X0056337Y0199313D02*
X0046888Y0199313D01*
X0046888Y0199275D02*
X0056337Y0199275D01*
X0056337Y0199237D02*
X0046888Y0199237D01*
X0046888Y0199199D02*
X0056337Y0199199D01*
X0056337Y0199161D02*
X0046888Y0199161D01*
X0046888Y0199123D02*
X0056337Y0199123D01*
X0056337Y0199086D02*
X0046888Y0199086D01*
X0046888Y0199048D02*
X0056337Y0199048D01*
X0056337Y0199010D02*
X0046888Y0199010D01*
X0046888Y0198972D02*
X0056337Y0198972D01*
X0056337Y0198934D02*
X0046888Y0198934D01*
X0046888Y0198896D02*
X0056337Y0198896D01*
X0056337Y0198858D02*
X0046888Y0198858D01*
X0046888Y0198820D02*
X0056337Y0198820D01*
X0056337Y0198782D02*
X0046888Y0198782D01*
X0046888Y0198745D02*
X0056337Y0198745D01*
X0056337Y0198707D02*
X0046888Y0198707D01*
X0046888Y0198669D02*
X0056337Y0198669D01*
X0056337Y0198631D02*
X0046888Y0198631D01*
X0046888Y0198593D02*
X0056337Y0198593D01*
X0056337Y0198555D02*
X0046888Y0198555D01*
X0046888Y0198517D02*
X0056337Y0198517D01*
X0056337Y0198479D02*
X0046888Y0198479D01*
X0046888Y0198442D02*
X0056337Y0198442D01*
X0056337Y0198404D02*
X0046888Y0198404D01*
X0046888Y0198366D02*
X0056337Y0198366D01*
X0056337Y0198328D02*
X0046888Y0198328D01*
X0046888Y0198290D02*
X0056337Y0198290D01*
X0056337Y0198252D02*
X0046888Y0198252D01*
X0046888Y0198214D02*
X0056337Y0198214D01*
X0056337Y0198176D02*
X0046888Y0198176D01*
X0046888Y0198139D02*
X0056337Y0198139D01*
X0056337Y0198101D02*
X0046888Y0198101D01*
X0046888Y0198063D02*
X0056337Y0198063D01*
X0056337Y0198025D02*
X0046888Y0198025D01*
X0046888Y0197987D02*
X0056337Y0197987D01*
X0056337Y0197949D02*
X0046888Y0197949D01*
X0046888Y0197911D02*
X0056337Y0197911D01*
X0056337Y0197873D02*
X0046888Y0197873D01*
X0046888Y0197835D02*
X0056337Y0197835D01*
X0056337Y0197798D02*
X0046888Y0197798D01*
X0046888Y0197760D02*
X0056337Y0197760D01*
X0056337Y0197722D02*
X0046888Y0197722D01*
X0046888Y0197684D02*
X0056337Y0197684D01*
X0056337Y0197646D02*
X0046888Y0197646D01*
X0046888Y0197608D02*
X0056337Y0197608D01*
X0056337Y0197570D02*
X0046888Y0197570D01*
X0046888Y0197532D02*
X0056337Y0197532D01*
X0056337Y0197495D02*
X0046888Y0197495D01*
X0046888Y0197457D02*
X0056337Y0197457D01*
X0056337Y0197419D02*
X0046888Y0197419D01*
X0046888Y0197381D02*
X0056337Y0197381D01*
X0056337Y0197343D02*
X0046888Y0197343D01*
X0046888Y0197305D02*
X0056337Y0197305D01*
X0056337Y0197267D02*
X0046888Y0197267D01*
X0046888Y0197229D02*
X0056337Y0197229D01*
X0056337Y0197191D02*
X0046888Y0197191D01*
X0046888Y0197154D02*
X0056337Y0197154D01*
X0056337Y0197116D02*
X0046888Y0197116D01*
X0046888Y0197078D02*
X0056337Y0197078D01*
X0056337Y0197040D02*
X0046888Y0197040D01*
X0046888Y0197002D02*
X0056337Y0197002D01*
X0056337Y0196964D02*
X0046888Y0196964D01*
X0046888Y0196926D02*
X0056337Y0196926D01*
X0056337Y0196888D02*
X0046888Y0196888D01*
X0046888Y0196851D02*
X0056337Y0196851D01*
X0056337Y0196813D02*
X0046888Y0196813D01*
X0046888Y0196775D02*
X0056337Y0196775D01*
X0056337Y0196737D02*
X0046888Y0196737D01*
X0046888Y0196699D02*
X0056337Y0196699D01*
X0056337Y0196661D02*
X0046888Y0196661D01*
X0046888Y0196623D02*
X0056337Y0196623D01*
X0056337Y0196585D02*
X0046888Y0196585D01*
X0046888Y0196547D02*
X0056337Y0196547D01*
X0056337Y0196510D02*
X0046888Y0196510D01*
X0046888Y0196472D02*
X0056337Y0196472D01*
X0056337Y0196434D02*
X0046888Y0196434D01*
X0046888Y0196396D02*
X0056337Y0196396D01*
X0056337Y0196358D02*
X0046888Y0196358D01*
X0046888Y0196320D02*
X0056337Y0196320D01*
X0056337Y0196282D02*
X0046888Y0196282D01*
X0046888Y0196244D02*
X0056337Y0196244D01*
X0056337Y0196207D02*
X0046888Y0196207D01*
X0046888Y0196169D02*
X0056337Y0196169D01*
X0056337Y0196131D02*
X0046888Y0196131D01*
X0046888Y0196093D02*
X0056337Y0196093D01*
X0056337Y0196055D02*
X0046888Y0196055D01*
X0046888Y0196017D02*
X0056337Y0196017D01*
X0056337Y0195979D02*
X0046888Y0195979D01*
X0046888Y0195941D02*
X0056337Y0195941D01*
X0056337Y0195904D02*
X0046888Y0195904D01*
X0046888Y0195866D02*
X0056337Y0195866D01*
X0056337Y0195828D02*
X0046888Y0195828D01*
X0046888Y0195790D02*
X0056337Y0195790D01*
X0056337Y0195752D02*
X0046888Y0195752D01*
X0046888Y0195714D02*
X0056337Y0195714D01*
X0056337Y0195676D02*
X0046888Y0195676D01*
X0046888Y0195638D02*
X0056337Y0195638D01*
X0056337Y0195600D02*
X0046888Y0195600D01*
X0046888Y0195563D02*
X0056337Y0195563D01*
X0056337Y0195525D02*
X0046888Y0195525D01*
X0046888Y0195487D02*
X0056337Y0195487D01*
X0056337Y0195449D02*
X0046888Y0195449D01*
X0046888Y0195411D02*
X0056337Y0195411D01*
X0056337Y0195373D02*
X0046888Y0195373D01*
X0046888Y0195335D02*
X0056337Y0195335D01*
X0056337Y0195297D02*
X0046888Y0195297D01*
X0046888Y0195260D02*
X0056337Y0195260D01*
X0056337Y0195222D02*
X0046888Y0195222D01*
X0046888Y0195184D02*
X0056337Y0195184D01*
X0056337Y0195146D02*
X0046888Y0195146D01*
X0046888Y0195108D02*
X0056337Y0195108D01*
X0056337Y0195070D02*
X0046888Y0195070D01*
X0046888Y0195032D02*
X0056337Y0195032D01*
X0056337Y0194994D02*
X0046888Y0194994D01*
X0046888Y0194956D02*
X0056337Y0194956D01*
X0056337Y0194919D02*
X0046888Y0194919D01*
X0046888Y0194881D02*
X0056337Y0194881D01*
X0056337Y0194843D02*
X0046888Y0194843D01*
X0046888Y0194805D02*
X0056337Y0194805D01*
X0056337Y0194767D02*
X0046888Y0194767D01*
X0046888Y0194729D02*
X0056337Y0194729D01*
X0056337Y0194691D02*
X0046888Y0194691D01*
X0046888Y0194653D02*
X0056337Y0194653D01*
X0056337Y0194616D02*
X0046888Y0194616D01*
X0046888Y0194578D02*
X0056337Y0194578D01*
X0056337Y0194540D02*
X0046888Y0194540D01*
X0046888Y0194502D02*
X0056337Y0194502D01*
X0056337Y0194464D02*
X0046888Y0194464D01*
X0046888Y0194426D02*
X0056337Y0194426D01*
X0056337Y0194388D02*
X0046888Y0194388D01*
X0046888Y0194350D02*
X0056337Y0194350D01*
X0056337Y0194312D02*
X0046888Y0194312D01*
X0046888Y0194275D02*
X0056337Y0194275D01*
X0056337Y0194237D02*
X0046888Y0194237D01*
X0046888Y0194199D02*
X0056337Y0194199D01*
X0056337Y0194161D02*
X0046888Y0194161D01*
X0046888Y0194123D02*
X0056337Y0194123D01*
X0056337Y0194085D02*
X0046888Y0194085D01*
X0046888Y0194047D02*
X0056337Y0194047D01*
X0056337Y0194009D02*
X0046888Y0194009D01*
X0046888Y0193972D02*
X0056337Y0193972D01*
X0056337Y0193934D02*
X0046888Y0193934D01*
X0046888Y0193896D02*
X0056337Y0193896D01*
X0056337Y0193858D02*
X0046888Y0193858D01*
X0046888Y0193820D02*
X0056337Y0193820D01*
X0056337Y0193782D02*
X0046888Y0193782D01*
X0046888Y0193744D02*
X0056337Y0193744D01*
X0056337Y0193706D02*
X0046888Y0193706D01*
X0046888Y0193669D02*
X0056337Y0193669D01*
X0056337Y0193631D02*
X0046888Y0193631D01*
X0046888Y0193593D02*
X0056337Y0193593D01*
X0056337Y0193555D02*
X0046888Y0193555D01*
X0046888Y0193517D02*
X0056337Y0193517D01*
X0056337Y0193479D02*
X0046888Y0193479D01*
X0046888Y0193441D02*
X0056337Y0193441D01*
X0056337Y0193403D02*
X0046888Y0193403D01*
X0046888Y0193365D02*
X0056337Y0193365D01*
X0056337Y0193328D02*
X0046888Y0193328D01*
X0046888Y0193290D02*
X0056337Y0193290D01*
X0056337Y0193252D02*
X0046888Y0193252D01*
X0046888Y0193214D02*
X0056337Y0193214D01*
X0056337Y0193176D02*
X0046888Y0193176D01*
X0046888Y0193138D02*
X0056337Y0193138D01*
X0056337Y0193100D02*
X0046888Y0193100D01*
X0046888Y0193062D02*
X0056337Y0193062D01*
X0056337Y0193025D02*
X0046888Y0193025D01*
X0046888Y0192987D02*
X0056337Y0192987D01*
X0056337Y0192949D02*
X0046888Y0192949D01*
X0046888Y0192911D02*
X0056337Y0192911D01*
X0056337Y0192873D02*
X0046888Y0192873D01*
X0046888Y0192835D02*
X0056337Y0192835D01*
X0056337Y0192797D02*
X0046888Y0192797D01*
X0046888Y0192759D02*
X0056337Y0192759D01*
X0056337Y0192721D02*
X0046888Y0192721D01*
X0046888Y0192684D02*
X0056337Y0192684D01*
X0056337Y0192646D02*
X0046888Y0192646D01*
X0046888Y0192608D02*
X0056337Y0192608D01*
X0056337Y0192570D02*
X0046888Y0192570D01*
X0046888Y0192532D02*
X0056337Y0192532D01*
X0056337Y0192494D02*
X0046888Y0192494D01*
X0046888Y0192456D02*
X0056337Y0192456D01*
X0056337Y0192418D02*
X0046888Y0192418D01*
X0046888Y0192381D02*
X0056337Y0192381D01*
X0056337Y0192343D02*
X0046888Y0192343D01*
X0046888Y0192305D02*
X0056337Y0192305D01*
X0056337Y0192267D02*
X0046888Y0192267D01*
X0046888Y0192229D02*
X0056337Y0192229D01*
X0056337Y0192191D02*
X0046888Y0192191D01*
X0046888Y0192153D02*
X0056337Y0192153D01*
X0056337Y0192115D02*
X0046888Y0192115D01*
X0046888Y0192077D02*
X0056337Y0192077D01*
X0056337Y0192040D02*
X0046888Y0192040D01*
X0046888Y0192002D02*
X0056337Y0192002D01*
X0056337Y0191964D02*
X0046888Y0191964D01*
X0046888Y0191926D02*
X0056337Y0191926D01*
X0056337Y0191888D02*
X0046888Y0191888D01*
X0046888Y0191850D02*
X0056337Y0191850D01*
X0056337Y0191812D02*
X0046888Y0191812D01*
X0046888Y0191774D02*
X0056337Y0191774D01*
X0056337Y0191737D02*
X0046888Y0191737D01*
X0046888Y0191699D02*
X0056337Y0191699D01*
X0056337Y0191661D02*
X0046888Y0191661D01*
X0046888Y0191623D02*
X0056337Y0191623D01*
X0056337Y0191585D02*
X0046888Y0191585D01*
X0046888Y0191547D02*
X0056337Y0191547D01*
X0056337Y0191509D02*
X0046888Y0191509D01*
X0046888Y0191471D02*
X0056337Y0191471D01*
X0056337Y0191434D02*
X0046888Y0191434D01*
X0046888Y0191396D02*
X0056337Y0191396D01*
X0056337Y0191358D02*
X0046888Y0191358D01*
X0046888Y0191320D02*
X0056337Y0191320D01*
X0056337Y0191282D02*
X0046888Y0191282D01*
X0046888Y0191244D02*
X0056337Y0191244D01*
X0056337Y0191206D02*
X0046888Y0191206D01*
X0046888Y0191168D02*
X0056337Y0191168D01*
X0056337Y0191130D02*
X0046888Y0191130D01*
X0046888Y0191093D02*
X0056337Y0191093D01*
X0056337Y0191055D02*
X0046888Y0191055D01*
X0046888Y0191017D02*
X0056337Y0191017D01*
X0056337Y0190979D02*
X0046888Y0190979D01*
X0046888Y0190941D02*
X0056337Y0190941D01*
X0056337Y0190903D02*
X0046888Y0190903D01*
X0046888Y0190865D02*
X0056337Y0190865D01*
X0056337Y0190827D02*
X0046888Y0190827D01*
X0046888Y0190790D02*
X0056337Y0190790D01*
X0056337Y0190752D02*
X0046888Y0190752D01*
X0046888Y0190714D02*
X0056337Y0190714D01*
X0056337Y0190676D02*
X0046888Y0190676D01*
X0046888Y0190638D02*
X0056337Y0190638D01*
X0056337Y0190600D02*
X0046888Y0190600D01*
X0046888Y0190562D02*
X0056337Y0190562D01*
X0056337Y0190524D02*
X0046888Y0190524D01*
X0046888Y0190486D02*
X0056337Y0190486D01*
X0056337Y0190449D02*
X0046888Y0190449D01*
X0046888Y0190411D02*
X0056337Y0190411D01*
X0056337Y0190373D02*
X0046888Y0190373D01*
X0046888Y0190335D02*
X0056337Y0190335D01*
X0056337Y0190297D02*
X0046888Y0190297D01*
X0046888Y0190259D02*
X0056337Y0190259D01*
X0056337Y0190221D02*
X0046888Y0190221D01*
X0046888Y0190183D02*
X0056337Y0190183D01*
X0056337Y0190146D02*
X0046888Y0190146D01*
X0046888Y0190108D02*
X0056337Y0190108D01*
X0056337Y0190070D02*
X0046888Y0190070D01*
X0046888Y0190032D02*
X0056337Y0190032D01*
X0056337Y0189994D02*
X0046888Y0189994D01*
X0046888Y0189956D02*
X0056337Y0189956D01*
X0056337Y0189918D02*
X0046888Y0189918D01*
X0046888Y0189880D02*
X0056337Y0189880D01*
X0056337Y0189842D02*
X0046888Y0189842D01*
X0046888Y0189805D02*
X0056337Y0189805D01*
X0056337Y0189767D02*
X0046888Y0189767D01*
X0046888Y0189729D02*
X0056337Y0189729D01*
X0056337Y0189691D02*
X0046888Y0189691D01*
X0046888Y0189653D02*
X0056337Y0189653D01*
X0056337Y0189615D02*
X0046888Y0189615D01*
X0046888Y0189577D02*
X0056337Y0189577D01*
X0056337Y0189539D02*
X0046888Y0189539D01*
X0046888Y0189502D02*
X0056337Y0189502D01*
X0056337Y0189464D02*
X0046888Y0189464D01*
X0046888Y0189426D02*
X0056337Y0189426D01*
X0056337Y0189388D02*
X0046888Y0189388D01*
X0046888Y0189350D02*
X0056337Y0189350D01*
X0056337Y0189312D02*
X0046888Y0189312D01*
X0046888Y0189274D02*
X0056337Y0189274D01*
X0056337Y0189236D02*
X0046888Y0189236D01*
X0046888Y0189198D02*
X0056337Y0189198D01*
X0056337Y0189161D02*
X0046888Y0189161D01*
X0046888Y0189123D02*
X0056337Y0189123D01*
X0056337Y0189085D02*
X0046888Y0189085D01*
X0046888Y0189047D02*
X0056337Y0189047D01*
X0056337Y0189009D02*
X0046888Y0189009D01*
X0046888Y0188971D02*
X0056337Y0188971D01*
X0056337Y0188933D02*
X0046888Y0188933D01*
X0046888Y0188895D02*
X0056337Y0188895D01*
X0056337Y0188858D02*
X0046888Y0188858D01*
X0046888Y0188820D02*
X0056337Y0188820D01*
X0056337Y0188782D02*
X0046888Y0188782D01*
X0046888Y0188744D02*
X0056337Y0188744D01*
X0056337Y0188706D02*
X0046888Y0188706D01*
X0046888Y0188668D02*
X0056337Y0188668D01*
X0056337Y0188630D02*
X0046888Y0188630D01*
X0046888Y0188592D02*
X0056337Y0188592D01*
X0056337Y0200449D02*
X0019329Y0200449D01*
X0019329Y0200487D02*
X0056337Y0200487D01*
X0056337Y0200525D02*
X0019329Y0200525D01*
X0019329Y0200563D02*
X0056337Y0200563D01*
X0056337Y0200601D02*
X0019329Y0200601D01*
X0019329Y0200639D02*
X0056337Y0200639D01*
X0056337Y0200677D02*
X0019329Y0200677D01*
X0019329Y0200714D02*
X0056337Y0200714D01*
X0056337Y0200752D02*
X0019329Y0200752D01*
X0019329Y0200790D02*
X0056337Y0200790D01*
X0056337Y0200828D02*
X0019329Y0200828D01*
X0019329Y0200866D02*
X0056337Y0200866D01*
X0056337Y0200904D02*
X0019329Y0200904D01*
X0019329Y0200942D02*
X0056337Y0200942D01*
X0056337Y0200980D02*
X0019329Y0200980D01*
X0019329Y0201017D02*
X0056337Y0201017D01*
X0056337Y0201055D02*
X0019329Y0201055D01*
X0019329Y0201093D02*
X0056337Y0201093D01*
X0056337Y0201131D02*
X0019329Y0201131D01*
X0019329Y0201169D02*
X0056337Y0201169D01*
X0056337Y0201207D02*
X0019329Y0201207D01*
X0019329Y0201245D02*
X0056337Y0201245D01*
X0056337Y0201283D02*
X0019329Y0201283D01*
X0019329Y0201321D02*
X0056337Y0201321D01*
X0056337Y0201358D02*
X0019329Y0201358D01*
X0019329Y0201396D02*
X0056337Y0201396D01*
X0056337Y0201434D02*
X0019329Y0201434D01*
X0019329Y0201472D02*
X0056337Y0201472D01*
X0056337Y0201510D02*
X0019329Y0201510D01*
X0019329Y0201548D02*
X0056337Y0201548D01*
X0056337Y0201586D02*
X0019329Y0201586D01*
X0019329Y0201624D02*
X0056337Y0201624D01*
X0056337Y0201661D02*
X0019329Y0201661D01*
X0019329Y0201699D02*
X0056337Y0201699D01*
X0056337Y0201737D02*
X0019329Y0201737D01*
X0019329Y0201775D02*
X0056337Y0201775D01*
X0056337Y0201813D02*
X0019329Y0201813D01*
X0019329Y0201851D02*
X0056337Y0201851D01*
X0056337Y0201889D02*
X0019329Y0201889D01*
X0019329Y0201927D02*
X0056337Y0201927D01*
X0056337Y0201965D02*
X0019329Y0201965D01*
X0019329Y0202002D02*
X0056337Y0202002D01*
X0056337Y0202040D02*
X0019329Y0202040D01*
X0019329Y0202078D02*
X0056337Y0202078D01*
X0056337Y0202116D02*
X0019329Y0202116D01*
X0019329Y0202154D02*
X0056337Y0202154D01*
X0056337Y0202192D02*
X0019329Y0202192D01*
X0019329Y0202230D02*
X0056337Y0202230D01*
X0056337Y0202268D02*
X0019329Y0202268D01*
X0019329Y0202305D02*
X0056337Y0202305D01*
X0056337Y0202343D02*
X0019329Y0202343D01*
X0019329Y0202381D02*
X0056337Y0202381D01*
X0056337Y0202419D02*
X0019329Y0202419D01*
X0019329Y0202457D02*
X0056337Y0202457D01*
X0056337Y0202495D02*
X0019329Y0202495D01*
X0019329Y0202533D02*
X0056337Y0202533D01*
X0056337Y0202571D02*
X0019329Y0202571D01*
X0019329Y0202609D02*
X0056337Y0202609D01*
X0056337Y0202646D02*
X0019329Y0202646D01*
X0019329Y0202684D02*
X0056337Y0202684D01*
X0056337Y0202722D02*
X0019329Y0202722D01*
X0019329Y0202760D02*
X0056337Y0202760D01*
X0056337Y0202798D02*
X0019329Y0202798D01*
X0019329Y0202836D02*
X0056337Y0202836D01*
X0056337Y0202874D02*
X0019329Y0202874D01*
X0019329Y0202912D02*
X0056337Y0202912D01*
X0056337Y0202949D02*
X0019329Y0202949D01*
X0019329Y0202987D02*
X0056337Y0202987D01*
X0056337Y0203025D02*
X0019329Y0203025D01*
X0019329Y0203063D02*
X0056337Y0203063D01*
X0056337Y0203101D02*
X0019329Y0203101D01*
X0019329Y0203139D02*
X0056337Y0203139D01*
X0056337Y0203177D02*
X0019329Y0203177D01*
X0019329Y0203215D02*
X0056337Y0203215D01*
X0056337Y0203252D02*
X0019329Y0203252D01*
X0019329Y0203290D02*
X0056337Y0203290D01*
X0056337Y0203328D02*
X0019329Y0203328D01*
X0019329Y0203366D02*
X0056337Y0203366D01*
X0056337Y0203404D02*
X0019329Y0203404D01*
X0019329Y0203442D02*
X0056337Y0203442D01*
X0056337Y0203480D02*
X0019329Y0203480D01*
X0019329Y0203518D02*
X0056337Y0203518D01*
X0056337Y0203556D02*
X0019329Y0203556D01*
X0019329Y0203593D02*
X0056337Y0203593D01*
X0056337Y0203631D02*
X0019329Y0203631D01*
X0019329Y0203669D02*
X0056337Y0203669D01*
X0056337Y0203707D02*
X0019329Y0203707D01*
X0019329Y0203745D02*
X0056337Y0203745D01*
X0056337Y0203783D02*
X0019329Y0203783D01*
X0019329Y0203821D02*
X0056337Y0203821D01*
X0056337Y0203859D02*
X0019329Y0203859D01*
X0019329Y0203896D02*
X0056337Y0203896D01*
X0056337Y0203934D02*
X0019329Y0203934D01*
X0019329Y0203972D02*
X0056337Y0203972D01*
X0056337Y0204010D02*
X0019329Y0204010D01*
X0019329Y0204048D02*
X0056337Y0204048D01*
X0056337Y0204086D02*
X0019329Y0204086D01*
X0019329Y0204124D02*
X0056337Y0204124D01*
X0056337Y0204162D02*
X0019329Y0204162D01*
X0019329Y0204200D02*
X0056337Y0204200D01*
X0056337Y0204237D02*
X0019329Y0204237D01*
X0019329Y0204275D02*
X0056337Y0204275D01*
X0056337Y0204313D02*
X0019329Y0204313D01*
X0019329Y0204351D02*
X0056337Y0204351D01*
X0056337Y0204389D02*
X0019329Y0204389D01*
X0019329Y0204427D02*
X0056337Y0204427D01*
X0056337Y0204465D02*
X0019329Y0204465D01*
X0019329Y0204503D02*
X0056337Y0204503D01*
X0056337Y0204540D02*
X0019329Y0204540D01*
X0019329Y0204578D02*
X0056337Y0204578D01*
X0056337Y0204616D02*
X0019329Y0204616D01*
X0019329Y0204654D02*
X0056337Y0204654D01*
X0056337Y0204692D02*
X0019329Y0204692D01*
X0019329Y0204730D02*
X0056337Y0204730D01*
X0056337Y0204768D02*
X0019329Y0204768D01*
X0019329Y0204806D02*
X0056337Y0204806D01*
X0056337Y0204844D02*
X0019329Y0204844D01*
X0019329Y0204881D02*
X0056337Y0204881D01*
X0056337Y0204919D02*
X0019329Y0204919D01*
X0019329Y0204957D02*
X0056337Y0204957D01*
X0056337Y0204995D02*
X0019329Y0204995D01*
X0019329Y0205033D02*
X0056337Y0205033D01*
X0056337Y0205071D02*
X0019329Y0205071D01*
X0019329Y0205109D02*
X0056337Y0205109D01*
X0056337Y0205147D02*
X0019329Y0205147D01*
X0019329Y0205184D02*
X0056337Y0205184D01*
X0056337Y0205222D02*
X0019329Y0205222D01*
X0019329Y0205260D02*
X0056337Y0205260D01*
X0056337Y0205298D02*
X0019329Y0205298D01*
X0019329Y0205336D02*
X0056337Y0205336D01*
X0056337Y0205374D02*
X0019329Y0205374D01*
X0019329Y0205412D02*
X0056337Y0205412D01*
X0056337Y0205450D02*
X0019329Y0205450D01*
X0019329Y0205487D02*
X0056337Y0205487D01*
X0056337Y0205525D02*
X0019329Y0205525D01*
X0019329Y0205563D02*
X0056337Y0205563D01*
X0056337Y0205601D02*
X0019329Y0205601D01*
X0019329Y0205639D02*
X0056337Y0205639D01*
X0056337Y0205677D02*
X0019329Y0205677D01*
X0019329Y0205715D02*
X0056337Y0205715D01*
X0056337Y0205753D02*
X0019329Y0205753D01*
X0019329Y0205791D02*
X0056337Y0205791D01*
X0056337Y0205828D02*
X0019329Y0205828D01*
X0019329Y0205866D02*
X0056337Y0205866D01*
X0056337Y0205904D02*
X0019329Y0205904D01*
X0019329Y0205942D02*
X0056337Y0205942D01*
X0056337Y0205980D02*
X0019329Y0205980D01*
X0019329Y0206018D02*
X0056337Y0206018D01*
X0056337Y0206056D02*
X0019329Y0206056D01*
X0019329Y0206094D02*
X0056337Y0206094D01*
X0056337Y0206131D02*
X0019329Y0206131D01*
X0019329Y0206169D02*
X0056337Y0206169D01*
X0056337Y0206207D02*
X0019329Y0206207D01*
X0019329Y0206245D02*
X0056337Y0206245D01*
X0056337Y0206283D02*
X0019329Y0206283D01*
X0019329Y0206321D02*
X0056337Y0206321D01*
X0056337Y0206359D02*
X0019329Y0206359D01*
X0019329Y0206397D02*
X0056337Y0206397D01*
X0056337Y0206435D02*
X0019329Y0206435D01*
X0019329Y0206472D02*
X0056337Y0206472D01*
X0056337Y0206510D02*
X0019329Y0206510D01*
X0019329Y0206548D02*
X0056337Y0206548D01*
X0056337Y0206586D02*
X0019329Y0206586D01*
X0019329Y0206624D02*
X0056337Y0206624D01*
X0056337Y0206662D02*
X0019329Y0206662D01*
X0019329Y0206700D02*
X0056337Y0206700D01*
X0056337Y0206738D02*
X0019329Y0206738D01*
X0019329Y0206775D02*
X0056337Y0206775D01*
X0056337Y0206813D02*
X0019329Y0206813D01*
X0019329Y0206851D02*
X0056337Y0206851D01*
X0056337Y0206889D02*
X0019329Y0206889D01*
X0019329Y0206927D02*
X0056337Y0206927D01*
X0056337Y0206965D02*
X0019329Y0206965D01*
X0019329Y0207003D02*
X0056337Y0207003D01*
X0056337Y0207041D02*
X0019329Y0207041D01*
X0019329Y0207079D02*
X0056337Y0207079D01*
X0056337Y0207116D02*
X0019329Y0207116D01*
X0019329Y0207154D02*
X0056337Y0207154D01*
X0056337Y0207192D02*
X0019329Y0207192D01*
X0019329Y0207230D02*
X0056337Y0207230D01*
X0056337Y0207268D02*
X0019329Y0207268D01*
X0019329Y0207306D02*
X0056337Y0207306D01*
X0056337Y0207344D02*
X0019329Y0207344D01*
X0019329Y0207382D02*
X0056337Y0207382D01*
X0056337Y0207419D02*
X0019329Y0207419D01*
X0019329Y0207457D02*
X0056337Y0207457D01*
X0056337Y0207495D02*
X0019329Y0207495D01*
X0019329Y0207533D02*
X0056337Y0207533D01*
X0056337Y0207571D02*
X0019329Y0207571D01*
X0019329Y0207609D02*
X0056337Y0207609D01*
X0056337Y0207647D02*
X0019329Y0207647D01*
X0019329Y0207685D02*
X0056337Y0207685D01*
X0056337Y0207723D02*
X0019329Y0207723D01*
X0019329Y0207760D02*
X0056337Y0207760D01*
X0056337Y0207798D02*
X0019329Y0207798D01*
X0019329Y0207836D02*
X0056337Y0207836D01*
X0056337Y0207874D02*
X0019329Y0207874D01*
X0019329Y0207912D02*
X0056337Y0207912D01*
X0056337Y0207950D02*
X0019329Y0207950D01*
X0019329Y0207988D02*
X0056337Y0207988D01*
X0056337Y0208026D02*
X0019329Y0208026D01*
X0019329Y0208063D02*
X0056337Y0208063D01*
X0056337Y0208101D02*
X0019329Y0208101D01*
X0019329Y0208139D02*
X0056337Y0208139D01*
X0056337Y0208177D02*
X0019329Y0208177D01*
X0019329Y0208215D02*
X0056337Y0208215D01*
X0056337Y0208253D02*
X0019329Y0208253D01*
X0019329Y0208291D02*
X0056337Y0208291D01*
X0056337Y0208329D02*
X0019329Y0208329D01*
X0019329Y0208366D02*
X0056337Y0208366D01*
X0056337Y0208404D02*
X0019329Y0208404D01*
X0019329Y0208442D02*
X0056337Y0208442D01*
X0056337Y0208480D02*
X0019329Y0208480D01*
X0019329Y0208518D02*
X0056337Y0208518D01*
X0056337Y0208556D02*
X0019329Y0208556D01*
X0019329Y0208594D02*
X0056337Y0208594D01*
X0056337Y0208632D02*
X0019329Y0208632D01*
X0019329Y0208670D02*
X0056337Y0208670D01*
X0056337Y0208707D02*
X0019329Y0208707D01*
X0019329Y0208745D02*
X0056337Y0208745D01*
X0056337Y0208783D02*
X0019329Y0208783D01*
X0019329Y0208821D02*
X0056337Y0208821D01*
X0056337Y0208859D02*
X0019329Y0208859D01*
X0019329Y0208897D02*
X0056337Y0208897D01*
X0056337Y0208935D02*
X0019329Y0208935D01*
X0019329Y0208973D02*
X0056337Y0208973D01*
X0056337Y0209010D02*
X0019329Y0209010D01*
X0019329Y0209048D02*
X0056337Y0209048D01*
X0056337Y0209086D02*
X0019329Y0209086D01*
X0019329Y0209124D02*
X0056337Y0209124D01*
X0056337Y0209162D02*
X0019329Y0209162D01*
X0019329Y0209200D02*
X0056337Y0209200D01*
X0056337Y0209238D02*
X0019329Y0209238D01*
X0019329Y0209276D02*
X0056337Y0209276D01*
X0056337Y0209314D02*
X0019329Y0209314D01*
X0019329Y0194805D02*
X0028778Y0194805D01*
X0028778Y0194767D02*
X0019329Y0194767D01*
X0019329Y0194729D02*
X0028778Y0194729D01*
X0028778Y0194691D02*
X0019329Y0194691D01*
X0019329Y0194653D02*
X0028778Y0194653D01*
X0028778Y0194616D02*
X0019329Y0194616D01*
X0019329Y0194578D02*
X0028778Y0194578D01*
X0028778Y0194540D02*
X0019329Y0194540D01*
X0019329Y0194502D02*
X0028778Y0194502D01*
X0028778Y0194464D02*
X0019329Y0194464D01*
X0019329Y0194426D02*
X0028778Y0194426D01*
X0028778Y0194388D02*
X0019329Y0194388D01*
X0019329Y0194350D02*
X0028778Y0194350D01*
X0028778Y0194312D02*
X0019329Y0194312D01*
X0019329Y0194275D02*
X0028778Y0194275D01*
X0028778Y0194237D02*
X0019329Y0194237D01*
X0019329Y0194199D02*
X0028778Y0194199D01*
X0028778Y0194161D02*
X0019329Y0194161D01*
X0019329Y0194123D02*
X0028778Y0194123D01*
X0028778Y0194085D02*
X0019329Y0194085D01*
X0019329Y0194047D02*
X0028778Y0194047D01*
X0028778Y0194009D02*
X0019329Y0194009D01*
X0019329Y0193972D02*
X0028778Y0193972D01*
X0028778Y0193934D02*
X0019329Y0193934D01*
X0019329Y0193896D02*
X0028778Y0193896D01*
X0028778Y0193858D02*
X0019329Y0193858D01*
X0019329Y0193820D02*
X0028778Y0193820D01*
X0028778Y0193782D02*
X0019329Y0193782D01*
X0019329Y0193744D02*
X0028778Y0193744D01*
X0028778Y0193706D02*
X0019329Y0193706D01*
X0019329Y0193669D02*
X0028778Y0193669D01*
X0028778Y0193631D02*
X0019329Y0193631D01*
X0019329Y0193593D02*
X0028778Y0193593D01*
X0028778Y0193555D02*
X0019329Y0193555D01*
X0019329Y0193517D02*
X0028778Y0193517D01*
X0028778Y0193479D02*
X0019329Y0193479D01*
X0019329Y0193441D02*
X0028778Y0193441D01*
X0028778Y0193403D02*
X0019329Y0193403D01*
X0019329Y0193365D02*
X0028778Y0193365D01*
X0028778Y0193328D02*
X0019329Y0193328D01*
X0019329Y0193290D02*
X0028778Y0193290D01*
X0028778Y0193252D02*
X0019329Y0193252D01*
X0019329Y0193214D02*
X0028778Y0193214D01*
X0028778Y0193176D02*
X0019329Y0193176D01*
X0019329Y0193138D02*
X0028778Y0193138D01*
X0028778Y0193100D02*
X0019329Y0193100D01*
X0019329Y0193062D02*
X0028778Y0193062D01*
X0028778Y0193025D02*
X0019329Y0193025D01*
X0019329Y0192987D02*
X0028778Y0192987D01*
X0028778Y0192949D02*
X0019329Y0192949D01*
X0019329Y0192911D02*
X0028778Y0192911D01*
X0028778Y0192873D02*
X0019329Y0192873D01*
X0019329Y0192835D02*
X0028778Y0192835D01*
X0028778Y0192797D02*
X0019329Y0192797D01*
X0019329Y0192759D02*
X0028778Y0192759D01*
X0028778Y0192721D02*
X0019329Y0192721D01*
X0019329Y0192684D02*
X0028778Y0192684D01*
X0028778Y0192646D02*
X0019329Y0192646D01*
X0019329Y0192608D02*
X0028778Y0192608D01*
X0028778Y0192570D02*
X0019329Y0192570D01*
X0019329Y0192532D02*
X0028778Y0192532D01*
X0028778Y0192494D02*
X0019329Y0192494D01*
X0019329Y0192456D02*
X0028778Y0192456D01*
X0028778Y0192418D02*
X0019329Y0192418D01*
X0019329Y0192381D02*
X0028778Y0192381D01*
X0028778Y0192343D02*
X0019329Y0192343D01*
X0019329Y0192305D02*
X0028778Y0192305D01*
X0028778Y0192267D02*
X0019329Y0192267D01*
X0019329Y0192229D02*
X0028778Y0192229D01*
X0028778Y0192191D02*
X0019329Y0192191D01*
X0019329Y0192153D02*
X0028778Y0192153D01*
X0028778Y0192115D02*
X0019329Y0192115D01*
X0019329Y0192077D02*
X0028778Y0192077D01*
X0028778Y0192040D02*
X0019329Y0192040D01*
X0019329Y0192002D02*
X0028778Y0192002D01*
X0028778Y0191964D02*
X0019329Y0191964D01*
X0019329Y0191926D02*
X0028778Y0191926D01*
X0028778Y0191888D02*
X0019329Y0191888D01*
X0019329Y0191850D02*
X0028778Y0191850D01*
X0028778Y0191812D02*
X0019329Y0191812D01*
X0019329Y0191774D02*
X0028778Y0191774D01*
X0028778Y0191737D02*
X0019329Y0191737D01*
X0019329Y0191699D02*
X0028778Y0191699D01*
X0028778Y0191661D02*
X0019329Y0191661D01*
X0019329Y0191623D02*
X0028778Y0191623D01*
X0028778Y0191585D02*
X0019329Y0191585D01*
X0019329Y0191547D02*
X0028778Y0191547D01*
X0028778Y0191509D02*
X0019329Y0191509D01*
X0019329Y0191471D02*
X0028778Y0191471D01*
X0028778Y0191434D02*
X0019329Y0191434D01*
X0019329Y0191396D02*
X0028778Y0191396D01*
X0028778Y0191358D02*
X0019329Y0191358D01*
X0019329Y0191320D02*
X0028778Y0191320D01*
X0028778Y0191282D02*
X0019329Y0191282D01*
X0019329Y0191244D02*
X0028778Y0191244D01*
X0028778Y0191206D02*
X0019329Y0191206D01*
X0019329Y0191168D02*
X0028778Y0191168D01*
X0028778Y0191130D02*
X0019329Y0191130D01*
X0019329Y0191093D02*
X0028778Y0191093D01*
X0028778Y0191055D02*
X0019329Y0191055D01*
X0019329Y0191017D02*
X0028778Y0191017D01*
X0028778Y0190979D02*
X0019329Y0190979D01*
X0019329Y0190941D02*
X0028778Y0190941D01*
X0028778Y0190903D02*
X0019329Y0190903D01*
X0019329Y0190865D02*
X0028778Y0190865D01*
X0028778Y0190827D02*
X0019329Y0190827D01*
X0019329Y0190790D02*
X0028778Y0190790D01*
X0028778Y0190752D02*
X0019329Y0190752D01*
X0019329Y0190714D02*
X0028778Y0190714D01*
X0028778Y0190676D02*
X0019329Y0190676D01*
X0019329Y0190638D02*
X0028778Y0190638D01*
X0028778Y0190600D02*
X0019329Y0190600D01*
X0019329Y0190562D02*
X0028778Y0190562D01*
X0028778Y0190524D02*
X0019329Y0190524D01*
X0019329Y0190486D02*
X0028778Y0190486D01*
X0028778Y0190449D02*
X0019329Y0190449D01*
X0019329Y0190411D02*
X0028778Y0190411D01*
X0028778Y0190373D02*
X0019329Y0190373D01*
X0019329Y0190335D02*
X0028778Y0190335D01*
X0028778Y0190297D02*
X0019329Y0190297D01*
X0019329Y0190259D02*
X0028778Y0190259D01*
X0028778Y0190221D02*
X0019329Y0190221D01*
X0019329Y0190183D02*
X0028778Y0190183D01*
X0028778Y0190146D02*
X0019329Y0190146D01*
X0019329Y0190108D02*
X0028778Y0190108D01*
X0028778Y0190070D02*
X0019329Y0190070D01*
X0019329Y0190032D02*
X0028778Y0190032D01*
X0028778Y0189994D02*
X0019329Y0189994D01*
X0019329Y0189956D02*
X0028778Y0189956D01*
X0028778Y0189918D02*
X0019329Y0189918D01*
X0019329Y0189880D02*
X0028778Y0189880D01*
X0028778Y0189842D02*
X0019329Y0189842D01*
X0019329Y0189805D02*
X0028778Y0189805D01*
X0028778Y0189767D02*
X0019329Y0189767D01*
X0019329Y0189729D02*
X0028778Y0189729D01*
X0028778Y0189691D02*
X0019329Y0189691D01*
X0019329Y0189653D02*
X0028778Y0189653D01*
X0028778Y0189615D02*
X0019329Y0189615D01*
X0019329Y0189577D02*
X0028778Y0189577D01*
X0028778Y0189539D02*
X0019329Y0189539D01*
X0019329Y0189502D02*
X0028778Y0189502D01*
X0028778Y0189464D02*
X0019329Y0189464D01*
X0019329Y0189426D02*
X0028778Y0189426D01*
X0028778Y0189388D02*
X0019329Y0189388D01*
X0019329Y0189350D02*
X0028778Y0189350D01*
X0028778Y0189312D02*
X0019329Y0189312D01*
X0019329Y0189274D02*
X0028778Y0189274D01*
X0028778Y0189236D02*
X0019329Y0189236D01*
X0019329Y0189198D02*
X0028778Y0189198D01*
X0028778Y0189161D02*
X0019329Y0189161D01*
X0019329Y0189123D02*
X0028778Y0189123D01*
X0028778Y0189085D02*
X0019329Y0189085D01*
X0019329Y0189047D02*
X0028778Y0189047D01*
X0028778Y0189009D02*
X0019329Y0189009D01*
X0019329Y0188971D02*
X0028778Y0188971D01*
X0028778Y0188933D02*
X0019329Y0188933D01*
X0019329Y0188895D02*
X0028778Y0188895D01*
X0028778Y0188858D02*
X0019329Y0188858D01*
X0019329Y0188820D02*
X0028778Y0188820D01*
X0028778Y0188782D02*
X0019329Y0188782D01*
X0019329Y0188744D02*
X0028778Y0188744D01*
X0028778Y0188706D02*
X0019329Y0188706D01*
X0019329Y0188668D02*
X0028778Y0188668D01*
X0028778Y0188630D02*
X0019329Y0188630D01*
X0019329Y0188592D02*
X0028778Y0188592D01*
D25*
X0063301Y0186926D02*
X0063301Y0183836D01*
X0060211Y0183836D01*
X0060211Y0186926D01*
X0063301Y0186926D01*
X0063301Y0184296D02*
X0060211Y0184296D01*
X0060211Y0184756D02*
X0063301Y0184756D01*
X0063301Y0185216D02*
X0060211Y0185216D01*
X0060211Y0185676D02*
X0063301Y0185676D01*
X0063301Y0186136D02*
X0060211Y0186136D01*
X0060211Y0186596D02*
X0063301Y0186596D01*
X0069206Y0186926D02*
X0069206Y0183836D01*
X0066116Y0183836D01*
X0066116Y0186926D01*
X0069206Y0186926D01*
X0069206Y0184296D02*
X0066116Y0184296D01*
X0066116Y0184756D02*
X0069206Y0184756D01*
X0069206Y0185216D02*
X0066116Y0185216D01*
X0066116Y0185676D02*
X0069206Y0185676D01*
X0069206Y0186136D02*
X0066116Y0186136D01*
X0066116Y0186596D02*
X0069206Y0186596D01*
X0069206Y0181926D02*
X0069206Y0178836D01*
X0066116Y0178836D01*
X0066116Y0181926D01*
X0069206Y0181926D01*
X0069206Y0179296D02*
X0066116Y0179296D01*
X0066116Y0179756D02*
X0069206Y0179756D01*
X0069206Y0180216D02*
X0066116Y0180216D01*
X0066116Y0180676D02*
X0069206Y0180676D01*
X0069206Y0181136D02*
X0066116Y0181136D01*
X0066116Y0181596D02*
X0069206Y0181596D01*
X0069206Y0176926D02*
X0069206Y0173836D01*
X0066116Y0173836D01*
X0066116Y0176926D01*
X0069206Y0176926D01*
X0069206Y0174296D02*
X0066116Y0174296D01*
X0066116Y0174756D02*
X0069206Y0174756D01*
X0069206Y0175216D02*
X0066116Y0175216D01*
X0066116Y0175676D02*
X0069206Y0175676D01*
X0069206Y0176136D02*
X0066116Y0176136D01*
X0066116Y0176596D02*
X0069206Y0176596D01*
X0063301Y0176926D02*
X0063301Y0173836D01*
X0060211Y0173836D01*
X0060211Y0176926D01*
X0063301Y0176926D01*
X0063301Y0174296D02*
X0060211Y0174296D01*
X0060211Y0174756D02*
X0063301Y0174756D01*
X0063301Y0175216D02*
X0060211Y0175216D01*
X0060211Y0175676D02*
X0063301Y0175676D01*
X0063301Y0176136D02*
X0060211Y0176136D01*
X0060211Y0176596D02*
X0063301Y0176596D01*
X0063301Y0178836D02*
X0063301Y0181926D01*
X0063301Y0178836D02*
X0060211Y0178836D01*
X0060211Y0181926D01*
X0063301Y0181926D01*
X0063301Y0179296D02*
X0060211Y0179296D01*
X0060211Y0179756D02*
X0063301Y0179756D01*
X0063301Y0180216D02*
X0060211Y0180216D01*
X0060211Y0180676D02*
X0063301Y0180676D01*
X0063301Y0181136D02*
X0060211Y0181136D01*
X0060211Y0181596D02*
X0063301Y0181596D01*
X0349413Y0174149D02*
X0352503Y0174149D01*
X0349413Y0174149D02*
X0349413Y0177239D01*
X0352503Y0177239D01*
X0352503Y0174149D01*
X0352503Y0174609D02*
X0349413Y0174609D01*
X0349413Y0175069D02*
X0352503Y0175069D01*
X0352503Y0175529D02*
X0349413Y0175529D01*
X0349413Y0175989D02*
X0352503Y0175989D01*
X0352503Y0176449D02*
X0349413Y0176449D01*
X0349413Y0176909D02*
X0352503Y0176909D01*
X0358476Y0175711D02*
X0361566Y0175711D01*
X0358476Y0175711D02*
X0358476Y0178801D01*
X0361566Y0178801D01*
X0361566Y0175711D01*
X0361566Y0176171D02*
X0358476Y0176171D01*
X0358476Y0176631D02*
X0361566Y0176631D01*
X0361566Y0177091D02*
X0358476Y0177091D01*
X0358476Y0177551D02*
X0361566Y0177551D01*
X0361566Y0178011D02*
X0358476Y0178011D01*
X0358476Y0178471D02*
X0361566Y0178471D01*
X0362226Y0175711D02*
X0365316Y0175711D01*
X0362226Y0175711D02*
X0362226Y0178801D01*
X0365316Y0178801D01*
X0365316Y0175711D01*
X0365316Y0176171D02*
X0362226Y0176171D01*
X0362226Y0176631D02*
X0365316Y0176631D01*
X0365316Y0177091D02*
X0362226Y0177091D01*
X0362226Y0177551D02*
X0365316Y0177551D01*
X0365316Y0178011D02*
X0362226Y0178011D01*
X0362226Y0178471D02*
X0365316Y0178471D01*
X0365976Y0175711D02*
X0369066Y0175711D01*
X0365976Y0175711D02*
X0365976Y0178801D01*
X0369066Y0178801D01*
X0369066Y0175711D01*
X0369066Y0176171D02*
X0365976Y0176171D01*
X0365976Y0176631D02*
X0369066Y0176631D01*
X0369066Y0177091D02*
X0365976Y0177091D01*
X0365976Y0177551D02*
X0369066Y0177551D01*
X0369066Y0178011D02*
X0365976Y0178011D01*
X0365976Y0178471D02*
X0369066Y0178471D01*
X0369726Y0175711D02*
X0372816Y0175711D01*
X0369726Y0175711D02*
X0369726Y0178801D01*
X0372816Y0178801D01*
X0372816Y0175711D01*
X0372816Y0176171D02*
X0369726Y0176171D01*
X0369726Y0176631D02*
X0372816Y0176631D01*
X0372816Y0177091D02*
X0369726Y0177091D01*
X0369726Y0177551D02*
X0372816Y0177551D01*
X0372816Y0178011D02*
X0369726Y0178011D01*
X0369726Y0178471D02*
X0372816Y0178471D01*
X0372019Y0199149D02*
X0372019Y0202239D01*
X0372019Y0199149D02*
X0368929Y0199149D01*
X0368929Y0202239D01*
X0372019Y0202239D01*
X0372019Y0199609D02*
X0368929Y0199609D01*
X0368929Y0200069D02*
X0372019Y0200069D01*
X0372019Y0200529D02*
X0368929Y0200529D01*
X0368929Y0200989D02*
X0372019Y0200989D01*
X0372019Y0201449D02*
X0368929Y0201449D01*
X0368929Y0201909D02*
X0372019Y0201909D01*
X0366113Y0202239D02*
X0366113Y0199149D01*
X0363023Y0199149D01*
X0363023Y0202239D01*
X0366113Y0202239D01*
X0366113Y0199609D02*
X0363023Y0199609D01*
X0363023Y0200069D02*
X0366113Y0200069D01*
X0366113Y0200529D02*
X0363023Y0200529D01*
X0363023Y0200989D02*
X0366113Y0200989D01*
X0366113Y0201449D02*
X0363023Y0201449D01*
X0363023Y0201909D02*
X0366113Y0201909D01*
X0375836Y0143176D02*
X0375836Y0140086D01*
X0375836Y0143176D02*
X0378926Y0143176D01*
X0378926Y0140086D01*
X0375836Y0140086D01*
X0375836Y0140546D02*
X0378926Y0140546D01*
X0378926Y0141006D02*
X0375836Y0141006D01*
X0375836Y0141466D02*
X0378926Y0141466D01*
X0378926Y0141926D02*
X0375836Y0141926D01*
X0375836Y0142386D02*
X0378926Y0142386D01*
X0378926Y0142846D02*
X0375836Y0142846D01*
X0381741Y0143176D02*
X0381741Y0140086D01*
X0381741Y0143176D02*
X0384831Y0143176D01*
X0384831Y0140086D01*
X0381741Y0140086D01*
X0381741Y0140546D02*
X0384831Y0140546D01*
X0384831Y0141006D02*
X0381741Y0141006D01*
X0381741Y0141466D02*
X0384831Y0141466D01*
X0384831Y0141926D02*
X0381741Y0141926D01*
X0381741Y0142386D02*
X0384831Y0142386D01*
X0384831Y0142846D02*
X0381741Y0142846D01*
X0372331Y0109739D02*
X0372331Y0106649D01*
X0369241Y0106649D01*
X0369241Y0109739D01*
X0372331Y0109739D01*
X0372331Y0107109D02*
X0369241Y0107109D01*
X0369241Y0107569D02*
X0372331Y0107569D01*
X0372331Y0108029D02*
X0369241Y0108029D01*
X0369241Y0108489D02*
X0372331Y0108489D01*
X0372331Y0108949D02*
X0369241Y0108949D01*
X0369241Y0109409D02*
X0372331Y0109409D01*
X0366426Y0109739D02*
X0366426Y0106649D01*
X0363336Y0106649D01*
X0363336Y0109739D01*
X0366426Y0109739D01*
X0366426Y0107109D02*
X0363336Y0107109D01*
X0363336Y0107569D02*
X0366426Y0107569D01*
X0366426Y0108029D02*
X0363336Y0108029D01*
X0363336Y0108489D02*
X0366426Y0108489D01*
X0366426Y0108949D02*
X0363336Y0108949D01*
X0363336Y0109409D02*
X0366426Y0109409D01*
X0366288Y0083211D02*
X0369378Y0083211D01*
X0366288Y0083211D02*
X0366288Y0086301D01*
X0369378Y0086301D01*
X0369378Y0083211D01*
X0369378Y0083671D02*
X0366288Y0083671D01*
X0366288Y0084131D02*
X0369378Y0084131D01*
X0369378Y0084591D02*
X0366288Y0084591D01*
X0366288Y0085051D02*
X0369378Y0085051D01*
X0369378Y0085511D02*
X0366288Y0085511D01*
X0366288Y0085971D02*
X0369378Y0085971D01*
X0370038Y0083211D02*
X0373128Y0083211D01*
X0370038Y0083211D02*
X0370038Y0086301D01*
X0373128Y0086301D01*
X0373128Y0083211D01*
X0373128Y0083671D02*
X0370038Y0083671D01*
X0370038Y0084131D02*
X0373128Y0084131D01*
X0373128Y0084591D02*
X0370038Y0084591D01*
X0370038Y0085051D02*
X0373128Y0085051D01*
X0373128Y0085511D02*
X0370038Y0085511D01*
X0370038Y0085971D02*
X0373128Y0085971D01*
X0365628Y0083211D02*
X0362538Y0083211D01*
X0362538Y0086301D01*
X0365628Y0086301D01*
X0365628Y0083211D01*
X0365628Y0083671D02*
X0362538Y0083671D01*
X0362538Y0084131D02*
X0365628Y0084131D01*
X0365628Y0084591D02*
X0362538Y0084591D01*
X0362538Y0085051D02*
X0365628Y0085051D01*
X0365628Y0085511D02*
X0362538Y0085511D01*
X0362538Y0085971D02*
X0365628Y0085971D01*
X0361878Y0083211D02*
X0358788Y0083211D01*
X0358788Y0086301D01*
X0361878Y0086301D01*
X0361878Y0083211D01*
X0361878Y0083671D02*
X0358788Y0083671D01*
X0358788Y0084131D02*
X0361878Y0084131D01*
X0361878Y0084591D02*
X0358788Y0084591D01*
X0358788Y0085051D02*
X0361878Y0085051D01*
X0361878Y0085511D02*
X0358788Y0085511D01*
X0358788Y0085971D02*
X0361878Y0085971D01*
X0352816Y0081649D02*
X0349726Y0081649D01*
X0349726Y0084739D01*
X0352816Y0084739D01*
X0352816Y0081649D01*
X0352816Y0082109D02*
X0349726Y0082109D01*
X0349726Y0082569D02*
X0352816Y0082569D01*
X0352816Y0083029D02*
X0349726Y0083029D01*
X0349726Y0083489D02*
X0352816Y0083489D01*
X0352816Y0083949D02*
X0349726Y0083949D01*
X0349726Y0084409D02*
X0352816Y0084409D01*
X0376148Y0050676D02*
X0376148Y0047586D01*
X0376148Y0050676D02*
X0379238Y0050676D01*
X0379238Y0047586D01*
X0376148Y0047586D01*
X0376148Y0048046D02*
X0379238Y0048046D01*
X0379238Y0048506D02*
X0376148Y0048506D01*
X0376148Y0048966D02*
X0379238Y0048966D01*
X0379238Y0049426D02*
X0376148Y0049426D01*
X0376148Y0049886D02*
X0379238Y0049886D01*
X0379238Y0050346D02*
X0376148Y0050346D01*
X0382054Y0050676D02*
X0382054Y0047586D01*
X0382054Y0050676D02*
X0385144Y0050676D01*
X0385144Y0047586D01*
X0382054Y0047586D01*
X0382054Y0048046D02*
X0385144Y0048046D01*
X0385144Y0048506D02*
X0382054Y0048506D01*
X0382054Y0048966D02*
X0385144Y0048966D01*
X0385144Y0049426D02*
X0382054Y0049426D01*
X0382054Y0049886D02*
X0385144Y0049886D01*
X0385144Y0050346D02*
X0382054Y0050346D01*
D26*
X0370984Y0049418D02*
X0365308Y0049418D01*
X0365308Y0055094D01*
X0370984Y0055094D01*
X0370984Y0049418D01*
X0370984Y0050048D02*
X0365308Y0050048D01*
X0365308Y0050678D02*
X0370984Y0050678D01*
X0370984Y0051308D02*
X0365308Y0051308D01*
X0365308Y0051938D02*
X0370984Y0051938D01*
X0370984Y0052568D02*
X0365308Y0052568D01*
X0365308Y0053198D02*
X0370984Y0053198D01*
X0370984Y0053828D02*
X0365308Y0053828D01*
X0365308Y0054458D02*
X0370984Y0054458D01*
X0370984Y0055088D02*
X0365308Y0055088D01*
X0365308Y0056293D02*
X0370984Y0056293D01*
X0365308Y0056293D02*
X0365308Y0061969D01*
X0370984Y0061969D01*
X0370984Y0056293D01*
X0370984Y0056923D02*
X0365308Y0056923D01*
X0365308Y0057553D02*
X0370984Y0057553D01*
X0370984Y0058183D02*
X0365308Y0058183D01*
X0365308Y0058813D02*
X0370984Y0058813D01*
X0370984Y0059443D02*
X0365308Y0059443D01*
X0365308Y0060073D02*
X0370984Y0060073D01*
X0370984Y0060703D02*
X0365308Y0060703D01*
X0365308Y0061333D02*
X0370984Y0061333D01*
X0370984Y0061963D02*
X0365308Y0061963D01*
X0364995Y0141918D02*
X0370671Y0141918D01*
X0364995Y0141918D02*
X0364995Y0147594D01*
X0370671Y0147594D01*
X0370671Y0141918D01*
X0370671Y0142548D02*
X0364995Y0142548D01*
X0364995Y0143178D02*
X0370671Y0143178D01*
X0370671Y0143808D02*
X0364995Y0143808D01*
X0364995Y0144438D02*
X0370671Y0144438D01*
X0370671Y0145068D02*
X0364995Y0145068D01*
X0364995Y0145698D02*
X0370671Y0145698D01*
X0370671Y0146328D02*
X0364995Y0146328D01*
X0364995Y0146958D02*
X0370671Y0146958D01*
X0370671Y0147588D02*
X0364995Y0147588D01*
X0364995Y0148793D02*
X0370671Y0148793D01*
X0364995Y0148793D02*
X0364995Y0154469D01*
X0370671Y0154469D01*
X0370671Y0148793D01*
X0370671Y0149423D02*
X0364995Y0149423D01*
X0364995Y0150053D02*
X0370671Y0150053D01*
X0370671Y0150683D02*
X0364995Y0150683D01*
X0364995Y0151313D02*
X0370671Y0151313D01*
X0370671Y0151943D02*
X0364995Y0151943D01*
X0364995Y0152573D02*
X0370671Y0152573D01*
X0370671Y0153203D02*
X0364995Y0153203D01*
X0364995Y0153833D02*
X0370671Y0153833D01*
X0370671Y0154463D02*
X0364995Y0154463D01*
X0237234Y0188844D02*
X0231558Y0188844D01*
X0237234Y0188844D02*
X0237234Y0183168D01*
X0231558Y0183168D01*
X0231558Y0188844D01*
X0231558Y0183798D02*
X0237234Y0183798D01*
X0237234Y0184428D02*
X0231558Y0184428D01*
X0231558Y0185058D02*
X0237234Y0185058D01*
X0237234Y0185688D02*
X0231558Y0185688D01*
X0231558Y0186318D02*
X0237234Y0186318D01*
X0237234Y0186948D02*
X0231558Y0186948D01*
X0231558Y0187578D02*
X0237234Y0187578D01*
X0237234Y0188208D02*
X0231558Y0188208D01*
X0231558Y0188838D02*
X0237234Y0188838D01*
X0237234Y0197282D02*
X0231558Y0197282D01*
X0237234Y0197282D02*
X0237234Y0191606D01*
X0231558Y0191606D01*
X0231558Y0197282D01*
X0231558Y0192236D02*
X0237234Y0192236D01*
X0237234Y0192866D02*
X0231558Y0192866D01*
X0231558Y0193496D02*
X0237234Y0193496D01*
X0237234Y0194126D02*
X0231558Y0194126D01*
X0231558Y0194756D02*
X0237234Y0194756D01*
X0237234Y0195386D02*
X0231558Y0195386D01*
X0231558Y0196016D02*
X0237234Y0196016D01*
X0237234Y0196646D02*
X0231558Y0196646D01*
X0231558Y0197276D02*
X0237234Y0197276D01*
X0237234Y0206032D02*
X0231558Y0206032D01*
X0237234Y0206032D02*
X0237234Y0200356D01*
X0231558Y0200356D01*
X0231558Y0206032D01*
X0231558Y0200986D02*
X0237234Y0200986D01*
X0237234Y0201616D02*
X0231558Y0201616D01*
X0231558Y0202246D02*
X0237234Y0202246D01*
X0237234Y0202876D02*
X0231558Y0202876D01*
X0231558Y0203506D02*
X0237234Y0203506D01*
X0237234Y0204136D02*
X0231558Y0204136D01*
X0231558Y0204766D02*
X0237234Y0204766D01*
X0237234Y0205396D02*
X0231558Y0205396D01*
X0231558Y0206026D02*
X0237234Y0206026D01*
X0227546Y0210407D02*
X0221870Y0210407D01*
X0227546Y0210407D02*
X0227546Y0204731D01*
X0221870Y0204731D01*
X0221870Y0210407D01*
X0221870Y0205361D02*
X0227546Y0205361D01*
X0227546Y0205991D02*
X0221870Y0205991D01*
X0221870Y0206621D02*
X0227546Y0206621D01*
X0227546Y0207251D02*
X0221870Y0207251D01*
X0221870Y0207881D02*
X0227546Y0207881D01*
X0227546Y0208511D02*
X0221870Y0208511D01*
X0221870Y0209141D02*
X0227546Y0209141D01*
X0227546Y0209771D02*
X0221870Y0209771D01*
X0221870Y0210401D02*
X0227546Y0210401D01*
D27*
X0306922Y0190720D02*
X0314370Y0190720D01*
X0306922Y0190720D02*
X0306922Y0198168D01*
X0314370Y0198168D01*
X0314370Y0190720D01*
X0314370Y0191546D02*
X0306922Y0191546D01*
X0306922Y0192372D02*
X0314370Y0192372D01*
X0314370Y0193198D02*
X0306922Y0193198D01*
X0306922Y0194024D02*
X0314370Y0194024D01*
X0314370Y0194850D02*
X0306922Y0194850D01*
X0306922Y0195676D02*
X0314370Y0195676D01*
X0314370Y0196502D02*
X0306922Y0196502D01*
X0306922Y0197328D02*
X0314370Y0197328D01*
X0314370Y0198154D02*
X0306922Y0198154D01*
D28*
X0351267Y0170638D02*
X0352309Y0170638D01*
X0351267Y0170638D02*
X0351267Y0173058D01*
X0352309Y0173058D01*
X0352309Y0170638D01*
X0352309Y0171175D02*
X0351267Y0171175D01*
X0351267Y0171712D02*
X0352309Y0171712D01*
X0352309Y0172249D02*
X0351267Y0172249D01*
X0351267Y0172786D02*
X0352309Y0172786D01*
X0353235Y0170638D02*
X0354277Y0170638D01*
X0353235Y0170638D02*
X0353235Y0173058D01*
X0354277Y0173058D01*
X0354277Y0170638D01*
X0354277Y0171175D02*
X0353235Y0171175D01*
X0353235Y0171712D02*
X0354277Y0171712D01*
X0354277Y0172249D02*
X0353235Y0172249D01*
X0353235Y0172786D02*
X0354277Y0172786D01*
X0355204Y0170638D02*
X0356246Y0170638D01*
X0355204Y0170638D02*
X0355204Y0173058D01*
X0356246Y0173058D01*
X0356246Y0170638D01*
X0356246Y0171175D02*
X0355204Y0171175D01*
X0355204Y0171712D02*
X0356246Y0171712D01*
X0356246Y0172249D02*
X0355204Y0172249D01*
X0355204Y0172786D02*
X0356246Y0172786D01*
X0357172Y0170638D02*
X0358214Y0170638D01*
X0357172Y0170638D02*
X0357172Y0173058D01*
X0358214Y0173058D01*
X0358214Y0170638D01*
X0358214Y0171175D02*
X0357172Y0171175D01*
X0357172Y0171712D02*
X0358214Y0171712D01*
X0358214Y0172249D02*
X0357172Y0172249D01*
X0357172Y0172786D02*
X0358214Y0172786D01*
X0359141Y0170638D02*
X0360183Y0170638D01*
X0359141Y0170638D02*
X0359141Y0173058D01*
X0360183Y0173058D01*
X0360183Y0170638D01*
X0360183Y0171175D02*
X0359141Y0171175D01*
X0359141Y0171712D02*
X0360183Y0171712D01*
X0360183Y0172249D02*
X0359141Y0172249D01*
X0359141Y0172786D02*
X0360183Y0172786D01*
X0361109Y0170638D02*
X0362151Y0170638D01*
X0361109Y0170638D02*
X0361109Y0173058D01*
X0362151Y0173058D01*
X0362151Y0170638D01*
X0362151Y0171175D02*
X0361109Y0171175D01*
X0361109Y0171712D02*
X0362151Y0171712D01*
X0362151Y0172249D02*
X0361109Y0172249D01*
X0361109Y0172786D02*
X0362151Y0172786D01*
X0363078Y0170638D02*
X0364120Y0170638D01*
X0363078Y0170638D02*
X0363078Y0173058D01*
X0364120Y0173058D01*
X0364120Y0170638D01*
X0364120Y0171175D02*
X0363078Y0171175D01*
X0363078Y0171712D02*
X0364120Y0171712D01*
X0364120Y0172249D02*
X0363078Y0172249D01*
X0363078Y0172786D02*
X0364120Y0172786D01*
X0365046Y0170638D02*
X0366088Y0170638D01*
X0365046Y0170638D02*
X0365046Y0173058D01*
X0366088Y0173058D01*
X0366088Y0170638D01*
X0366088Y0171175D02*
X0365046Y0171175D01*
X0365046Y0171712D02*
X0366088Y0171712D01*
X0366088Y0172249D02*
X0365046Y0172249D01*
X0365046Y0172786D02*
X0366088Y0172786D01*
X0367015Y0170638D02*
X0368057Y0170638D01*
X0367015Y0170638D02*
X0367015Y0173058D01*
X0368057Y0173058D01*
X0368057Y0170638D01*
X0368057Y0171175D02*
X0367015Y0171175D01*
X0367015Y0171712D02*
X0368057Y0171712D01*
X0368057Y0172249D02*
X0367015Y0172249D01*
X0367015Y0172786D02*
X0368057Y0172786D01*
X0368983Y0170638D02*
X0370025Y0170638D01*
X0368983Y0170638D02*
X0368983Y0173058D01*
X0370025Y0173058D01*
X0370025Y0170638D01*
X0370025Y0171175D02*
X0368983Y0171175D01*
X0368983Y0171712D02*
X0370025Y0171712D01*
X0370025Y0172249D02*
X0368983Y0172249D01*
X0368983Y0172786D02*
X0370025Y0172786D01*
X0371068Y0168855D02*
X0371068Y0167813D01*
X0369042Y0167813D01*
X0369042Y0168855D01*
X0371068Y0168855D01*
X0371068Y0168350D02*
X0369042Y0168350D01*
X0371068Y0166887D02*
X0371068Y0165845D01*
X0369042Y0165845D01*
X0369042Y0166887D01*
X0371068Y0166887D01*
X0371068Y0166382D02*
X0369042Y0166382D01*
X0371068Y0164918D02*
X0371068Y0163876D01*
X0369042Y0163876D01*
X0369042Y0164918D01*
X0371068Y0164918D01*
X0371068Y0164413D02*
X0369042Y0164413D01*
X0371068Y0162950D02*
X0371068Y0161908D01*
X0369042Y0161908D01*
X0369042Y0162950D01*
X0371068Y0162950D01*
X0371068Y0162445D02*
X0369042Y0162445D01*
X0368983Y0157705D02*
X0370025Y0157705D01*
X0368983Y0157705D02*
X0368983Y0160125D01*
X0370025Y0160125D01*
X0370025Y0157705D01*
X0370025Y0158242D02*
X0368983Y0158242D01*
X0368983Y0158779D02*
X0370025Y0158779D01*
X0370025Y0159316D02*
X0368983Y0159316D01*
X0368983Y0159853D02*
X0370025Y0159853D01*
X0368057Y0157705D02*
X0367015Y0157705D01*
X0367015Y0160125D01*
X0368057Y0160125D01*
X0368057Y0157705D01*
X0368057Y0158242D02*
X0367015Y0158242D01*
X0367015Y0158779D02*
X0368057Y0158779D01*
X0368057Y0159316D02*
X0367015Y0159316D01*
X0367015Y0159853D02*
X0368057Y0159853D01*
X0366088Y0157705D02*
X0365046Y0157705D01*
X0365046Y0160125D01*
X0366088Y0160125D01*
X0366088Y0157705D01*
X0366088Y0158242D02*
X0365046Y0158242D01*
X0365046Y0158779D02*
X0366088Y0158779D01*
X0366088Y0159316D02*
X0365046Y0159316D01*
X0365046Y0159853D02*
X0366088Y0159853D01*
X0364120Y0157705D02*
X0363078Y0157705D01*
X0363078Y0160125D01*
X0364120Y0160125D01*
X0364120Y0157705D01*
X0364120Y0158242D02*
X0363078Y0158242D01*
X0363078Y0158779D02*
X0364120Y0158779D01*
X0364120Y0159316D02*
X0363078Y0159316D01*
X0363078Y0159853D02*
X0364120Y0159853D01*
X0362151Y0157705D02*
X0361109Y0157705D01*
X0361109Y0160125D01*
X0362151Y0160125D01*
X0362151Y0157705D01*
X0362151Y0158242D02*
X0361109Y0158242D01*
X0361109Y0158779D02*
X0362151Y0158779D01*
X0362151Y0159316D02*
X0361109Y0159316D01*
X0361109Y0159853D02*
X0362151Y0159853D01*
X0360183Y0157705D02*
X0359141Y0157705D01*
X0359141Y0160125D01*
X0360183Y0160125D01*
X0360183Y0157705D01*
X0360183Y0158242D02*
X0359141Y0158242D01*
X0359141Y0158779D02*
X0360183Y0158779D01*
X0360183Y0159316D02*
X0359141Y0159316D01*
X0359141Y0159853D02*
X0360183Y0159853D01*
X0358214Y0157705D02*
X0357172Y0157705D01*
X0357172Y0160125D01*
X0358214Y0160125D01*
X0358214Y0157705D01*
X0358214Y0158242D02*
X0357172Y0158242D01*
X0357172Y0158779D02*
X0358214Y0158779D01*
X0358214Y0159316D02*
X0357172Y0159316D01*
X0357172Y0159853D02*
X0358214Y0159853D01*
X0356246Y0157705D02*
X0355204Y0157705D01*
X0355204Y0160125D01*
X0356246Y0160125D01*
X0356246Y0157705D01*
X0356246Y0158242D02*
X0355204Y0158242D01*
X0355204Y0158779D02*
X0356246Y0158779D01*
X0356246Y0159316D02*
X0355204Y0159316D01*
X0355204Y0159853D02*
X0356246Y0159853D01*
X0354277Y0157705D02*
X0353235Y0157705D01*
X0353235Y0160125D01*
X0354277Y0160125D01*
X0354277Y0157705D01*
X0354277Y0158242D02*
X0353235Y0158242D01*
X0353235Y0158779D02*
X0354277Y0158779D01*
X0354277Y0159316D02*
X0353235Y0159316D01*
X0353235Y0159853D02*
X0354277Y0159853D01*
X0352309Y0157705D02*
X0351267Y0157705D01*
X0351267Y0160125D01*
X0352309Y0160125D01*
X0352309Y0157705D01*
X0352309Y0158242D02*
X0351267Y0158242D01*
X0351267Y0158779D02*
X0352309Y0158779D01*
X0352309Y0159316D02*
X0351267Y0159316D01*
X0351267Y0159853D02*
X0352309Y0159853D01*
X0352171Y0161908D02*
X0352171Y0162950D01*
X0352171Y0161908D02*
X0350145Y0161908D01*
X0350145Y0162950D01*
X0352171Y0162950D01*
X0352171Y0162445D02*
X0350145Y0162445D01*
X0352171Y0163876D02*
X0352171Y0164918D01*
X0352171Y0163876D02*
X0350145Y0163876D01*
X0350145Y0164918D01*
X0352171Y0164918D01*
X0352171Y0164413D02*
X0350145Y0164413D01*
X0352171Y0165845D02*
X0352171Y0166887D01*
X0352171Y0165845D02*
X0350145Y0165845D01*
X0350145Y0166887D01*
X0352171Y0166887D01*
X0352171Y0166382D02*
X0350145Y0166382D01*
X0352171Y0167813D02*
X0352171Y0168855D01*
X0352171Y0167813D02*
X0350145Y0167813D01*
X0350145Y0168855D01*
X0352171Y0168855D01*
X0352171Y0168350D02*
X0350145Y0168350D01*
X0351579Y0078138D02*
X0352621Y0078138D01*
X0351579Y0078138D02*
X0351579Y0080558D01*
X0352621Y0080558D01*
X0352621Y0078138D01*
X0352621Y0078675D02*
X0351579Y0078675D01*
X0351579Y0079212D02*
X0352621Y0079212D01*
X0352621Y0079749D02*
X0351579Y0079749D01*
X0351579Y0080286D02*
X0352621Y0080286D01*
X0353548Y0078138D02*
X0354590Y0078138D01*
X0353548Y0078138D02*
X0353548Y0080558D01*
X0354590Y0080558D01*
X0354590Y0078138D01*
X0354590Y0078675D02*
X0353548Y0078675D01*
X0353548Y0079212D02*
X0354590Y0079212D01*
X0354590Y0079749D02*
X0353548Y0079749D01*
X0353548Y0080286D02*
X0354590Y0080286D01*
X0355516Y0078138D02*
X0356558Y0078138D01*
X0355516Y0078138D02*
X0355516Y0080558D01*
X0356558Y0080558D01*
X0356558Y0078138D01*
X0356558Y0078675D02*
X0355516Y0078675D01*
X0355516Y0079212D02*
X0356558Y0079212D01*
X0356558Y0079749D02*
X0355516Y0079749D01*
X0355516Y0080286D02*
X0356558Y0080286D01*
X0357485Y0078138D02*
X0358527Y0078138D01*
X0357485Y0078138D02*
X0357485Y0080558D01*
X0358527Y0080558D01*
X0358527Y0078138D01*
X0358527Y0078675D02*
X0357485Y0078675D01*
X0357485Y0079212D02*
X0358527Y0079212D01*
X0358527Y0079749D02*
X0357485Y0079749D01*
X0357485Y0080286D02*
X0358527Y0080286D01*
X0359453Y0078138D02*
X0360495Y0078138D01*
X0359453Y0078138D02*
X0359453Y0080558D01*
X0360495Y0080558D01*
X0360495Y0078138D01*
X0360495Y0078675D02*
X0359453Y0078675D01*
X0359453Y0079212D02*
X0360495Y0079212D01*
X0360495Y0079749D02*
X0359453Y0079749D01*
X0359453Y0080286D02*
X0360495Y0080286D01*
X0361422Y0078138D02*
X0362464Y0078138D01*
X0361422Y0078138D02*
X0361422Y0080558D01*
X0362464Y0080558D01*
X0362464Y0078138D01*
X0362464Y0078675D02*
X0361422Y0078675D01*
X0361422Y0079212D02*
X0362464Y0079212D01*
X0362464Y0079749D02*
X0361422Y0079749D01*
X0361422Y0080286D02*
X0362464Y0080286D01*
X0363390Y0078138D02*
X0364432Y0078138D01*
X0363390Y0078138D02*
X0363390Y0080558D01*
X0364432Y0080558D01*
X0364432Y0078138D01*
X0364432Y0078675D02*
X0363390Y0078675D01*
X0363390Y0079212D02*
X0364432Y0079212D01*
X0364432Y0079749D02*
X0363390Y0079749D01*
X0363390Y0080286D02*
X0364432Y0080286D01*
X0365359Y0078138D02*
X0366401Y0078138D01*
X0365359Y0078138D02*
X0365359Y0080558D01*
X0366401Y0080558D01*
X0366401Y0078138D01*
X0366401Y0078675D02*
X0365359Y0078675D01*
X0365359Y0079212D02*
X0366401Y0079212D01*
X0366401Y0079749D02*
X0365359Y0079749D01*
X0365359Y0080286D02*
X0366401Y0080286D01*
X0367327Y0078138D02*
X0368369Y0078138D01*
X0367327Y0078138D02*
X0367327Y0080558D01*
X0368369Y0080558D01*
X0368369Y0078138D01*
X0368369Y0078675D02*
X0367327Y0078675D01*
X0367327Y0079212D02*
X0368369Y0079212D01*
X0368369Y0079749D02*
X0367327Y0079749D01*
X0367327Y0080286D02*
X0368369Y0080286D01*
X0369296Y0078138D02*
X0370338Y0078138D01*
X0369296Y0078138D02*
X0369296Y0080558D01*
X0370338Y0080558D01*
X0370338Y0078138D01*
X0370338Y0078675D02*
X0369296Y0078675D01*
X0369296Y0079212D02*
X0370338Y0079212D01*
X0370338Y0079749D02*
X0369296Y0079749D01*
X0369296Y0080286D02*
X0370338Y0080286D01*
X0371381Y0076355D02*
X0371381Y0075313D01*
X0369355Y0075313D01*
X0369355Y0076355D01*
X0371381Y0076355D01*
X0371381Y0075850D02*
X0369355Y0075850D01*
X0371381Y0074387D02*
X0371381Y0073345D01*
X0369355Y0073345D01*
X0369355Y0074387D01*
X0371381Y0074387D01*
X0371381Y0073882D02*
X0369355Y0073882D01*
X0371381Y0072418D02*
X0371381Y0071376D01*
X0369355Y0071376D01*
X0369355Y0072418D01*
X0371381Y0072418D01*
X0371381Y0071913D02*
X0369355Y0071913D01*
X0371381Y0070450D02*
X0371381Y0069408D01*
X0369355Y0069408D01*
X0369355Y0070450D01*
X0371381Y0070450D01*
X0371381Y0069945D02*
X0369355Y0069945D01*
X0369296Y0065205D02*
X0370338Y0065205D01*
X0369296Y0065205D02*
X0369296Y0067625D01*
X0370338Y0067625D01*
X0370338Y0065205D01*
X0370338Y0065742D02*
X0369296Y0065742D01*
X0369296Y0066279D02*
X0370338Y0066279D01*
X0370338Y0066816D02*
X0369296Y0066816D01*
X0369296Y0067353D02*
X0370338Y0067353D01*
X0368369Y0065205D02*
X0367327Y0065205D01*
X0367327Y0067625D01*
X0368369Y0067625D01*
X0368369Y0065205D01*
X0368369Y0065742D02*
X0367327Y0065742D01*
X0367327Y0066279D02*
X0368369Y0066279D01*
X0368369Y0066816D02*
X0367327Y0066816D01*
X0367327Y0067353D02*
X0368369Y0067353D01*
X0366401Y0065205D02*
X0365359Y0065205D01*
X0365359Y0067625D01*
X0366401Y0067625D01*
X0366401Y0065205D01*
X0366401Y0065742D02*
X0365359Y0065742D01*
X0365359Y0066279D02*
X0366401Y0066279D01*
X0366401Y0066816D02*
X0365359Y0066816D01*
X0365359Y0067353D02*
X0366401Y0067353D01*
X0364432Y0065205D02*
X0363390Y0065205D01*
X0363390Y0067625D01*
X0364432Y0067625D01*
X0364432Y0065205D01*
X0364432Y0065742D02*
X0363390Y0065742D01*
X0363390Y0066279D02*
X0364432Y0066279D01*
X0364432Y0066816D02*
X0363390Y0066816D01*
X0363390Y0067353D02*
X0364432Y0067353D01*
X0362464Y0065205D02*
X0361422Y0065205D01*
X0361422Y0067625D01*
X0362464Y0067625D01*
X0362464Y0065205D01*
X0362464Y0065742D02*
X0361422Y0065742D01*
X0361422Y0066279D02*
X0362464Y0066279D01*
X0362464Y0066816D02*
X0361422Y0066816D01*
X0361422Y0067353D02*
X0362464Y0067353D01*
X0360495Y0065205D02*
X0359453Y0065205D01*
X0359453Y0067625D01*
X0360495Y0067625D01*
X0360495Y0065205D01*
X0360495Y0065742D02*
X0359453Y0065742D01*
X0359453Y0066279D02*
X0360495Y0066279D01*
X0360495Y0066816D02*
X0359453Y0066816D01*
X0359453Y0067353D02*
X0360495Y0067353D01*
X0358527Y0065205D02*
X0357485Y0065205D01*
X0357485Y0067625D01*
X0358527Y0067625D01*
X0358527Y0065205D01*
X0358527Y0065742D02*
X0357485Y0065742D01*
X0357485Y0066279D02*
X0358527Y0066279D01*
X0358527Y0066816D02*
X0357485Y0066816D01*
X0357485Y0067353D02*
X0358527Y0067353D01*
X0356558Y0065205D02*
X0355516Y0065205D01*
X0355516Y0067625D01*
X0356558Y0067625D01*
X0356558Y0065205D01*
X0356558Y0065742D02*
X0355516Y0065742D01*
X0355516Y0066279D02*
X0356558Y0066279D01*
X0356558Y0066816D02*
X0355516Y0066816D01*
X0355516Y0067353D02*
X0356558Y0067353D01*
X0354590Y0065205D02*
X0353548Y0065205D01*
X0353548Y0067625D01*
X0354590Y0067625D01*
X0354590Y0065205D01*
X0354590Y0065742D02*
X0353548Y0065742D01*
X0353548Y0066279D02*
X0354590Y0066279D01*
X0354590Y0066816D02*
X0353548Y0066816D01*
X0353548Y0067353D02*
X0354590Y0067353D01*
X0352621Y0065205D02*
X0351579Y0065205D01*
X0351579Y0067625D01*
X0352621Y0067625D01*
X0352621Y0065205D01*
X0352621Y0065742D02*
X0351579Y0065742D01*
X0351579Y0066279D02*
X0352621Y0066279D01*
X0352621Y0066816D02*
X0351579Y0066816D01*
X0351579Y0067353D02*
X0352621Y0067353D01*
X0352483Y0069408D02*
X0352483Y0070450D01*
X0352483Y0069408D02*
X0350457Y0069408D01*
X0350457Y0070450D01*
X0352483Y0070450D01*
X0352483Y0069945D02*
X0350457Y0069945D01*
X0352483Y0071376D02*
X0352483Y0072418D01*
X0352483Y0071376D02*
X0350457Y0071376D01*
X0350457Y0072418D01*
X0352483Y0072418D01*
X0352483Y0071913D02*
X0350457Y0071913D01*
X0352483Y0073345D02*
X0352483Y0074387D01*
X0352483Y0073345D02*
X0350457Y0073345D01*
X0350457Y0074387D01*
X0352483Y0074387D01*
X0352483Y0073882D02*
X0350457Y0073882D01*
X0352483Y0075313D02*
X0352483Y0076355D01*
X0352483Y0075313D02*
X0350457Y0075313D01*
X0350457Y0076355D01*
X0352483Y0076355D01*
X0352483Y0075850D02*
X0350457Y0075850D01*
D29*
X0356086Y0089481D02*
X0361052Y0089481D01*
X0356086Y0089481D02*
X0356086Y0096809D01*
X0361052Y0096809D01*
X0361052Y0089481D01*
X0361052Y0090032D02*
X0356086Y0090032D01*
X0356086Y0090583D02*
X0361052Y0090583D01*
X0361052Y0091134D02*
X0356086Y0091134D01*
X0356086Y0091685D02*
X0361052Y0091685D01*
X0361052Y0092236D02*
X0356086Y0092236D01*
X0356086Y0092787D02*
X0361052Y0092787D01*
X0361052Y0093338D02*
X0356086Y0093338D01*
X0356086Y0093889D02*
X0361052Y0093889D01*
X0361052Y0094440D02*
X0356086Y0094440D01*
X0356086Y0094991D02*
X0361052Y0094991D01*
X0361052Y0095542D02*
X0356086Y0095542D01*
X0356086Y0096093D02*
X0361052Y0096093D01*
X0361052Y0096644D02*
X0356086Y0096644D01*
X0356086Y0109407D02*
X0361052Y0109407D01*
X0361052Y0102079D01*
X0356086Y0102079D01*
X0356086Y0109407D01*
X0356086Y0102630D02*
X0361052Y0102630D01*
X0361052Y0103181D02*
X0356086Y0103181D01*
X0356086Y0103732D02*
X0361052Y0103732D01*
X0361052Y0104283D02*
X0356086Y0104283D01*
X0356086Y0104834D02*
X0361052Y0104834D01*
X0361052Y0105385D02*
X0356086Y0105385D01*
X0356086Y0105936D02*
X0361052Y0105936D01*
X0361052Y0106487D02*
X0356086Y0106487D01*
X0356086Y0107038D02*
X0361052Y0107038D01*
X0361052Y0107589D02*
X0356086Y0107589D01*
X0356086Y0108140D02*
X0361052Y0108140D01*
X0361052Y0108691D02*
X0356086Y0108691D01*
X0356086Y0109242D02*
X0361052Y0109242D01*
X0377740Y0109407D02*
X0382706Y0109407D01*
X0382706Y0102079D01*
X0377740Y0102079D01*
X0377740Y0109407D01*
X0377740Y0102630D02*
X0382706Y0102630D01*
X0382706Y0103181D02*
X0377740Y0103181D01*
X0377740Y0103732D02*
X0382706Y0103732D01*
X0382706Y0104283D02*
X0377740Y0104283D01*
X0377740Y0104834D02*
X0382706Y0104834D01*
X0382706Y0105385D02*
X0377740Y0105385D01*
X0377740Y0105936D02*
X0382706Y0105936D01*
X0382706Y0106487D02*
X0377740Y0106487D01*
X0377740Y0107038D02*
X0382706Y0107038D01*
X0382706Y0107589D02*
X0377740Y0107589D01*
X0377740Y0108140D02*
X0382706Y0108140D01*
X0382706Y0108691D02*
X0377740Y0108691D01*
X0377740Y0109242D02*
X0382706Y0109242D01*
X0382706Y0089481D02*
X0377740Y0089481D01*
X0377740Y0096809D01*
X0382706Y0096809D01*
X0382706Y0089481D01*
X0382706Y0090032D02*
X0377740Y0090032D01*
X0377740Y0090583D02*
X0382706Y0090583D01*
X0382706Y0091134D02*
X0377740Y0091134D01*
X0377740Y0091685D02*
X0382706Y0091685D01*
X0382706Y0092236D02*
X0377740Y0092236D01*
X0377740Y0092787D02*
X0382706Y0092787D01*
X0382706Y0093338D02*
X0377740Y0093338D01*
X0377740Y0093889D02*
X0382706Y0093889D01*
X0382706Y0094440D02*
X0377740Y0094440D01*
X0377740Y0094991D02*
X0382706Y0094991D01*
X0382706Y0095542D02*
X0377740Y0095542D01*
X0377740Y0096093D02*
X0382706Y0096093D01*
X0382706Y0096644D02*
X0377740Y0096644D01*
X0377427Y0181981D02*
X0382393Y0181981D01*
X0377427Y0181981D02*
X0377427Y0189309D01*
X0382393Y0189309D01*
X0382393Y0181981D01*
X0382393Y0182532D02*
X0377427Y0182532D01*
X0377427Y0183083D02*
X0382393Y0183083D01*
X0382393Y0183634D02*
X0377427Y0183634D01*
X0377427Y0184185D02*
X0382393Y0184185D01*
X0382393Y0184736D02*
X0377427Y0184736D01*
X0377427Y0185287D02*
X0382393Y0185287D01*
X0382393Y0185838D02*
X0377427Y0185838D01*
X0377427Y0186389D02*
X0382393Y0186389D01*
X0382393Y0186940D02*
X0377427Y0186940D01*
X0377427Y0187491D02*
X0382393Y0187491D01*
X0382393Y0188042D02*
X0377427Y0188042D01*
X0377427Y0188593D02*
X0382393Y0188593D01*
X0382393Y0189144D02*
X0377427Y0189144D01*
X0377427Y0201907D02*
X0382393Y0201907D01*
X0382393Y0194579D01*
X0377427Y0194579D01*
X0377427Y0201907D01*
X0377427Y0195130D02*
X0382393Y0195130D01*
X0382393Y0195681D02*
X0377427Y0195681D01*
X0377427Y0196232D02*
X0382393Y0196232D01*
X0382393Y0196783D02*
X0377427Y0196783D01*
X0377427Y0197334D02*
X0382393Y0197334D01*
X0382393Y0197885D02*
X0377427Y0197885D01*
X0377427Y0198436D02*
X0382393Y0198436D01*
X0382393Y0198987D02*
X0377427Y0198987D01*
X0377427Y0199538D02*
X0382393Y0199538D01*
X0382393Y0200089D02*
X0377427Y0200089D01*
X0377427Y0200640D02*
X0382393Y0200640D01*
X0382393Y0201191D02*
X0377427Y0201191D01*
X0377427Y0201742D02*
X0382393Y0201742D01*
X0360740Y0201907D02*
X0355774Y0201907D01*
X0360740Y0201907D02*
X0360740Y0194579D01*
X0355774Y0194579D01*
X0355774Y0201907D01*
X0355774Y0195130D02*
X0360740Y0195130D01*
X0360740Y0195681D02*
X0355774Y0195681D01*
X0355774Y0196232D02*
X0360740Y0196232D01*
X0360740Y0196783D02*
X0355774Y0196783D01*
X0355774Y0197334D02*
X0360740Y0197334D01*
X0360740Y0197885D02*
X0355774Y0197885D01*
X0355774Y0198436D02*
X0360740Y0198436D01*
X0360740Y0198987D02*
X0355774Y0198987D01*
X0355774Y0199538D02*
X0360740Y0199538D01*
X0360740Y0200089D02*
X0355774Y0200089D01*
X0355774Y0200640D02*
X0360740Y0200640D01*
X0360740Y0201191D02*
X0355774Y0201191D01*
X0355774Y0201742D02*
X0360740Y0201742D01*
X0360740Y0181981D02*
X0355774Y0181981D01*
X0355774Y0189309D01*
X0360740Y0189309D01*
X0360740Y0181981D01*
X0360740Y0182532D02*
X0355774Y0182532D01*
X0355774Y0183083D02*
X0360740Y0183083D01*
X0360740Y0183634D02*
X0355774Y0183634D01*
X0355774Y0184185D02*
X0360740Y0184185D01*
X0360740Y0184736D02*
X0355774Y0184736D01*
X0355774Y0185287D02*
X0360740Y0185287D01*
X0360740Y0185838D02*
X0355774Y0185838D01*
X0355774Y0186389D02*
X0360740Y0186389D01*
X0360740Y0186940D02*
X0355774Y0186940D01*
X0355774Y0187491D02*
X0360740Y0187491D01*
X0360740Y0188042D02*
X0355774Y0188042D01*
X0355774Y0188593D02*
X0360740Y0188593D01*
X0360740Y0189144D02*
X0355774Y0189144D01*
D30*
X0355983Y0149694D02*
X0355983Y0145194D01*
X0355983Y0149694D02*
X0362183Y0149694D01*
X0362183Y0145194D01*
X0355983Y0145194D01*
X0355983Y0145693D02*
X0362183Y0145693D01*
X0362183Y0146192D02*
X0355983Y0146192D01*
X0355983Y0146691D02*
X0362183Y0146691D01*
X0362183Y0147190D02*
X0355983Y0147190D01*
X0355983Y0147689D02*
X0362183Y0147689D01*
X0362183Y0148188D02*
X0355983Y0148188D01*
X0355983Y0148687D02*
X0362183Y0148687D01*
X0362183Y0149186D02*
X0355983Y0149186D01*
X0355983Y0149685D02*
X0362183Y0149685D01*
X0355983Y0143694D02*
X0355983Y0139194D01*
X0355983Y0143694D02*
X0362183Y0143694D01*
X0362183Y0139194D01*
X0355983Y0139194D01*
X0355983Y0139693D02*
X0362183Y0139693D01*
X0362183Y0140192D02*
X0355983Y0140192D01*
X0355983Y0140691D02*
X0362183Y0140691D01*
X0362183Y0141190D02*
X0355983Y0141190D01*
X0355983Y0141689D02*
X0362183Y0141689D01*
X0362183Y0142188D02*
X0355983Y0142188D01*
X0355983Y0142687D02*
X0362183Y0142687D01*
X0362183Y0143186D02*
X0355983Y0143186D01*
X0355983Y0143685D02*
X0362183Y0143685D01*
X0348708Y0136969D02*
X0344208Y0136969D01*
X0344208Y0143169D01*
X0348708Y0143169D01*
X0348708Y0136969D01*
X0348708Y0137468D02*
X0344208Y0137468D01*
X0344208Y0137967D02*
X0348708Y0137967D01*
X0348708Y0138466D02*
X0344208Y0138466D01*
X0344208Y0138965D02*
X0348708Y0138965D01*
X0348708Y0139464D02*
X0344208Y0139464D01*
X0344208Y0139963D02*
X0348708Y0139963D01*
X0348708Y0140462D02*
X0344208Y0140462D01*
X0344208Y0140961D02*
X0348708Y0140961D01*
X0348708Y0141460D02*
X0344208Y0141460D01*
X0344208Y0141959D02*
X0348708Y0141959D01*
X0348708Y0142458D02*
X0344208Y0142458D01*
X0344208Y0142957D02*
X0348708Y0142957D01*
X0342708Y0136969D02*
X0338208Y0136969D01*
X0338208Y0143169D01*
X0342708Y0143169D01*
X0342708Y0136969D01*
X0342708Y0137468D02*
X0338208Y0137468D01*
X0338208Y0137967D02*
X0342708Y0137967D01*
X0342708Y0138466D02*
X0338208Y0138466D01*
X0338208Y0138965D02*
X0342708Y0138965D01*
X0342708Y0139464D02*
X0338208Y0139464D01*
X0338208Y0139963D02*
X0342708Y0139963D01*
X0342708Y0140462D02*
X0338208Y0140462D01*
X0338208Y0140961D02*
X0342708Y0140961D01*
X0342708Y0141460D02*
X0338208Y0141460D01*
X0338208Y0141959D02*
X0342708Y0141959D01*
X0342708Y0142458D02*
X0338208Y0142458D01*
X0338208Y0142957D02*
X0342708Y0142957D01*
X0356296Y0057194D02*
X0356296Y0052694D01*
X0356296Y0057194D02*
X0362496Y0057194D01*
X0362496Y0052694D01*
X0356296Y0052694D01*
X0356296Y0053193D02*
X0362496Y0053193D01*
X0362496Y0053692D02*
X0356296Y0053692D01*
X0356296Y0054191D02*
X0362496Y0054191D01*
X0362496Y0054690D02*
X0356296Y0054690D01*
X0356296Y0055189D02*
X0362496Y0055189D01*
X0362496Y0055688D02*
X0356296Y0055688D01*
X0356296Y0056187D02*
X0362496Y0056187D01*
X0362496Y0056686D02*
X0356296Y0056686D01*
X0356296Y0057185D02*
X0362496Y0057185D01*
X0356296Y0051194D02*
X0356296Y0046694D01*
X0356296Y0051194D02*
X0362496Y0051194D01*
X0362496Y0046694D01*
X0356296Y0046694D01*
X0356296Y0047193D02*
X0362496Y0047193D01*
X0362496Y0047692D02*
X0356296Y0047692D01*
X0356296Y0048191D02*
X0362496Y0048191D01*
X0362496Y0048690D02*
X0356296Y0048690D01*
X0356296Y0049189D02*
X0362496Y0049189D01*
X0362496Y0049688D02*
X0356296Y0049688D01*
X0356296Y0050187D02*
X0362496Y0050187D01*
X0362496Y0050686D02*
X0356296Y0050686D01*
X0356296Y0051185D02*
X0362496Y0051185D01*
X0349021Y0044469D02*
X0344521Y0044469D01*
X0344521Y0050669D01*
X0349021Y0050669D01*
X0349021Y0044469D01*
X0349021Y0044968D02*
X0344521Y0044968D01*
X0344521Y0045467D02*
X0349021Y0045467D01*
X0349021Y0045966D02*
X0344521Y0045966D01*
X0344521Y0046465D02*
X0349021Y0046465D01*
X0349021Y0046964D02*
X0344521Y0046964D01*
X0344521Y0047463D02*
X0349021Y0047463D01*
X0349021Y0047962D02*
X0344521Y0047962D01*
X0344521Y0048461D02*
X0349021Y0048461D01*
X0349021Y0048960D02*
X0344521Y0048960D01*
X0344521Y0049459D02*
X0349021Y0049459D01*
X0349021Y0049958D02*
X0344521Y0049958D01*
X0344521Y0050457D02*
X0349021Y0050457D01*
X0343021Y0044469D02*
X0338521Y0044469D01*
X0338521Y0050669D01*
X0343021Y0050669D01*
X0343021Y0044469D01*
X0343021Y0044968D02*
X0338521Y0044968D01*
X0338521Y0045467D02*
X0343021Y0045467D01*
X0343021Y0045966D02*
X0338521Y0045966D01*
X0338521Y0046465D02*
X0343021Y0046465D01*
X0343021Y0046964D02*
X0338521Y0046964D01*
X0338521Y0047463D02*
X0343021Y0047463D01*
X0343021Y0047962D02*
X0338521Y0047962D01*
X0338521Y0048461D02*
X0343021Y0048461D01*
X0343021Y0048960D02*
X0338521Y0048960D01*
X0338521Y0049459D02*
X0343021Y0049459D01*
X0343021Y0049958D02*
X0338521Y0049958D01*
X0338521Y0050457D02*
X0343021Y0050457D01*
D31*
X0359396Y0051944D03*
X0359083Y0144444D03*
D32*
X0343458Y0140069D03*
X0343771Y0047569D03*
D33*
X0070333Y0066631D03*
X0065333Y0071631D03*
X0060333Y0066631D03*
X0060333Y0076631D03*
X0070333Y0076631D03*
M02*
