<svg version="1.1" xmlns="http://www.w3.org/2000/svg" xmlns:xlink="http://www.w3.org/1999/xlink" width="1132" height="965"><defs><clipPath id="ExCOzrTQxIUE"><path fill="none" stroke="none" d=" M 0 0 L 1132 0 L 1132 965 L 0 965 L 0 0 Z"/></clipPath></defs><g transform="scale(1,1)" clip-path="url(#ExCOzrTQxIUE)"><g><rect fill="rgb(255,255,255)" stroke="none" x="0" y="0" width="1132" height="965" fill-opacity="1"/><path fill="none" stroke="rgb(192,192,192)" paint-order="fill stroke markers" d=" M 75.5 0.5 L 75.5 965.5 M 75.5 0.5 L 75.5 965.5 M 164.5 0.5 L 164.5 965.5 M 252.5 0.5 L 252.5 965.5 M 430.5 0.5 L 430.5 965.5 M 518.5 0.5 L 518.5 965.5 M 607.5 0.5 L 607.5 965.5 M 695.5 0.5 L 695.5 965.5 M 784.5 0.5 L 784.5 965.5 M 873.5 0.5 L 873.5 965.5 M 961.5 0.5 L 961.5 965.5 M 1050.5 0.5 L 1050.5 965.5" stroke-opacity="1" stroke-linecap="round" stroke-linejoin="round" stroke-miterlimit="10"/><path fill="none" stroke="rgb(192,192,192)" paint-order="fill stroke markers" d=" M 4.5 0.5 L 4.5 965.5 M 22.5 0.5 L 22.5 965.5 M 40.5 0.5 L 40.5 965.5 M 58.5 0.5 L 58.5 965.5 M 93.5 0.5 L 93.5 965.5 M 111.5 0.5 L 111.5 965.5 M 128.5 0.5 L 128.5 965.5 M 146.5 0.5 L 146.5 965.5 M 182.5 0.5 L 182.5 965.5 M 199.5 0.5 L 199.5 965.5 M 217.5 0.5 L 217.5 965.5 M 235.5 0.5 L 235.5 965.5 M 270.5 0.5 L 270.5 965.5 M 288.5 0.5 L 288.5 965.5 M 306.5 0.5 L 306.5 965.5 M 323.5 0.5 L 323.5 965.5 M 359.5 0.5 L 359.5 965.5 M 376.5 0.5 L 376.5 965.5 M 394.5 0.5 L 394.5 965.5 M 412.5 0.5 L 412.5 965.5 M 447.5 0.5 L 447.5 965.5 M 465.5 0.5 L 465.5 965.5 M 483.5 0.5 L 483.5 965.5 M 500.5 0.5 L 500.5 965.5 M 536.5 0.5 L 536.5 965.5 M 554.5 0.5 L 554.5 965.5 M 571.5 0.5 L 571.5 965.5 M 589.5 0.5 L 589.5 965.5 M 624.5 0.5 L 624.5 965.5 M 642.5 0.5 L 642.5 965.5 M 660.5 0.5 L 660.5 965.5 M 678.5 0.5 L 678.5 965.5 M 713.5 0.5 L 713.5 965.5 M 731.5 0.5 L 731.5 965.5 M 748.5 0.5 L 748.5 965.5 M 766.5 0.5 L 766.5 965.5 M 802.5 0.5 L 802.5 965.5 M 819.5 0.5 L 819.5 965.5 M 837.5 0.5 L 837.5 965.5 M 855.5 0.5 L 855.5 965.5 M 890.5 0.5 L 890.5 965.5 M 908.5 0.5 L 908.5 965.5 M 926.5 0.5 L 926.5 965.5 M 943.5 0.5 L 943.5 965.5 M 979.5 0.5 L 979.5 965.5 M 997.5 0.5 L 997.5 965.5 M 1014.5 0.5 L 1014.5 965.5 M 1032.5 0.5 L 1032.5 965.5 M 1067.5 0.5 L 1067.5 965.5 M 1085.5 0.5 L 1085.5 965.5 M 1103.5 0.5 L 1103.5 965.5 M 1121.5 0.5 L 1121.5 965.5" stroke-opacity="0.23529411764705882" stroke-linecap="round" stroke-linejoin="round" stroke-miterlimit="10"/><path fill="none" stroke="rgb(192,192,192)" paint-order="fill stroke markers" d=" M 0.5 27.5 L 1132.5 27.5 M 0.5 27.5 L 1132.5 27.5 M 0.5 116.5 L 1132.5 116.5 M 0.5 205.5 L 1132.5 205.5 M 0.5 293.5 L 1132.5 293.5 M 0.5 382.5 L 1132.5 382.5 M 0.5 470.5 L 1132.5 470.5 M 0.5 559.5 L 1132.5 559.5 M 0.5 736.5 L 1132.5 736.5 M 0.5 825.5 L 1132.5 825.5 M 0.5 913.5 L 1132.5 913.5" stroke-opacity="1" stroke-linecap="round" stroke-linejoin="round" stroke-miterlimit="10"/><path fill="none" stroke="rgb(192,192,192)" paint-order="fill stroke markers" d=" M 0.5 10.5 L 1132.5 10.5 M 0.5 10.5 L 1132.5 10.5 M 0.5 45.5 L 1132.5 45.5 M 0.5 63.5 L 1132.5 63.5 M 0.5 81.5 L 1132.5 81.5 M 0.5 98.5 L 1132.5 98.5 M 0.5 134.5 L 1132.5 134.5 M 0.5 151.5 L 1132.5 151.5 M 0.5 169.5 L 1132.5 169.5 M 0.5 187.5 L 1132.5 187.5 M 0.5 222.5 L 1132.5 222.5 M 0.5 240.5 L 1132.5 240.5 M 0.5 258.5 L 1132.5 258.5 M 0.5 275.5 L 1132.5 275.5 M 0.5 311.5 L 1132.5 311.5 M 0.5 329.5 L 1132.5 329.5 M 0.5 346.5 L 1132.5 346.5 M 0.5 364.5 L 1132.5 364.5 M 0.5 399.5 L 1132.5 399.5 M 0.5 417.5 L 1132.5 417.5 M 0.5 435.5 L 1132.5 435.5 M 0.5 453.5 L 1132.5 453.5 M 0.5 488.5 L 1132.5 488.5 M 0.5 506.5 L 1132.5 506.5 M 0.5 523.5 L 1132.5 523.5 M 0.5 541.5 L 1132.5 541.5 M 0.5 577.5 L 1132.5 577.5 M 0.5 594.5 L 1132.5 594.5 M 0.5 612.5 L 1132.5 612.5 M 0.5 630.5 L 1132.5 630.5 M 0.5 665.5 L 1132.5 665.5 M 0.5 683.5 L 1132.5 683.5 M 0.5 701.5 L 1132.5 701.5 M 0.5 718.5 L 1132.5 718.5 M 0.5 754.5 L 1132.5 754.5 M 0.5 772.5 L 1132.5 772.5 M 0.5 789.5 L 1132.5 789.5 M 0.5 807.5 L 1132.5 807.5 M 0.5 842.5 L 1132.5 842.5 M 0.5 860.5 L 1132.5 860.5 M 0.5 878.5 L 1132.5 878.5 M 0.5 896.5 L 1132.5 896.5 M 0.5 931.5 L 1132.5 931.5 M 0.5 949.5 L 1132.5 949.5" stroke-opacity="0.23529411764705882" stroke-linecap="round" stroke-linejoin="round" stroke-miterlimit="10"/><path fill="none" stroke="rgb(0,0,0)" paint-order="fill stroke markers" d=" M 341.5 2.5 L 341.5 965.5" stroke-opacity="1" stroke-miterlimit="10"/><path fill="none" stroke="rgb(0,0,0)" paint-order="fill stroke markers" d=" M 341.5 1.5 L 337.5 5.5" stroke-opacity="1" stroke-miterlimit="10"/><path fill="none" stroke="rgb(0,0,0)" paint-order="fill stroke markers" d=" M 341.5 1.5 L 345.5 5.5" stroke-opacity="1" stroke-miterlimit="10"/><path fill="none" stroke="rgb(0,0,0)" paint-order="fill stroke markers" d=" M 0.5 647.5 L 1130.5 647.5" stroke-opacity="1" stroke-miterlimit="10"/><path fill="none" stroke="rgb(0,0,0)" paint-order="fill stroke markers" d=" M 1131.5 647.5 L 1127.5 643.5" stroke-opacity="1" stroke-miterlimit="10"/><path fill="none" stroke="rgb(0,0,0)" paint-order="fill stroke markers" d=" M 1131.5 647.5 L 1127.5 651.5" stroke-opacity="1" stroke-miterlimit="10"/><text fill="none" stroke="rgb(255,255,255)" font-family="geogebra-sans-serif, sans-serif" font-size="12px" font-style="normal" font-weight="normal" text-decoration="normal" x="70" y="663" text-anchor="start" dominant-baseline="alphabetic" stroke-opacity="1" stroke-linejoin="bevel" stroke-miterlimit="10" stroke-width="3">–3</text><text fill="rgb(0,0,0)" stroke="none" font-family="geogebra-sans-serif, sans-serif" font-size="12px" font-style="normal" font-weight="normal" text-decoration="normal" x="70" y="663" text-anchor="start" dominant-baseline="alphabetic" fill-opacity="1">–3</text><text fill="none" stroke="rgb(255,255,255)" font-family="geogebra-sans-serif, sans-serif" font-size="12px" font-style="normal" font-weight="normal" text-decoration="normal" x="159" y="663" text-anchor="start" dominant-baseline="alphabetic" stroke-opacity="1" stroke-linejoin="bevel" stroke-miterlimit="10" stroke-width="3">–2</text><text fill="rgb(0,0,0)" stroke="none" font-family="geogebra-sans-serif, sans-serif" font-size="12px" font-style="normal" font-weight="normal" text-decoration="normal" x="159" y="663" text-anchor="start" dominant-baseline="alphabetic" fill-opacity="1">–2</text><text fill="none" stroke="rgb(255,255,255)" font-family="geogebra-sans-serif, sans-serif" font-size="12px" font-style="normal" font-weight="normal" text-decoration="normal" x="247" y="663" text-anchor="start" dominant-baseline="alphabetic" stroke-opacity="1" stroke-linejoin="bevel" stroke-miterlimit="10" stroke-width="3">–1</text><text fill="rgb(0,0,0)" stroke="none" font-family="geogebra-sans-serif, sans-serif" font-size="12px" font-style="normal" font-weight="normal" text-decoration="normal" x="247" y="663" text-anchor="start" dominant-baseline="alphabetic" fill-opacity="1">–1</text><text fill="none" stroke="rgb(255,255,255)" font-family="geogebra-sans-serif, sans-serif" font-size="12px" font-style="normal" font-weight="normal" text-decoration="normal" x="428" y="663" text-anchor="start" dominant-baseline="alphabetic" stroke-opacity="1" stroke-linejoin="bevel" stroke-miterlimit="10" stroke-width="3">1</text><text fill="rgb(0,0,0)" stroke="none" font-family="geogebra-sans-serif, sans-serif" font-size="12px" font-style="normal" font-weight="normal" text-decoration="normal" x="428" y="663" text-anchor="start" dominant-baseline="alphabetic" fill-opacity="1">1</text><text fill="none" stroke="rgb(255,255,255)" font-family="geogebra-sans-serif, sans-serif" font-size="12px" font-style="normal" font-weight="normal" text-decoration="normal" x="516" y="663" text-anchor="start" dominant-baseline="alphabetic" stroke-opacity="1" stroke-linejoin="bevel" stroke-miterlimit="10" stroke-width="3">2</text><text fill="rgb(0,0,0)" stroke="none" font-family="geogebra-sans-serif, sans-serif" font-size="12px" font-style="normal" font-weight="normal" text-decoration="normal" x="516" y="663" text-anchor="start" dominant-baseline="alphabetic" fill-opacity="1">2</text><text fill="none" stroke="rgb(255,255,255)" font-family="geogebra-sans-serif, sans-serif" font-size="12px" font-style="normal" font-weight="normal" text-decoration="normal" x="605" y="663" text-anchor="start" dominant-baseline="alphabetic" stroke-opacity="1" stroke-linejoin="bevel" stroke-miterlimit="10" stroke-width="3">3</text><text fill="rgb(0,0,0)" stroke="none" font-family="geogebra-sans-serif, sans-serif" font-size="12px" font-style="normal" font-weight="normal" text-decoration="normal" x="605" y="663" text-anchor="start" dominant-baseline="alphabetic" fill-opacity="1">3</text><text fill="none" stroke="rgb(255,255,255)" font-family="geogebra-sans-serif, sans-serif" font-size="12px" font-style="normal" font-weight="normal" text-decoration="normal" x="693" y="663" text-anchor="start" dominant-baseline="alphabetic" stroke-opacity="1" stroke-linejoin="bevel" stroke-miterlimit="10" stroke-width="3">4</text><text fill="rgb(0,0,0)" stroke="none" font-family="geogebra-sans-serif, sans-serif" font-size="12px" font-style="normal" font-weight="normal" text-decoration="normal" x="693" y="663" text-anchor="start" dominant-baseline="alphabetic" fill-opacity="1">4</text><text fill="none" stroke="rgb(255,255,255)" font-family="geogebra-sans-serif, sans-serif" font-size="12px" font-style="normal" font-weight="normal" text-decoration="normal" x="782" y="663" text-anchor="start" dominant-baseline="alphabetic" stroke-opacity="1" stroke-linejoin="bevel" stroke-miterlimit="10" stroke-width="3">5</text><text fill="rgb(0,0,0)" stroke="none" font-family="geogebra-sans-serif, sans-serif" font-size="12px" font-style="normal" font-weight="normal" text-decoration="normal" x="782" y="663" text-anchor="start" dominant-baseline="alphabetic" fill-opacity="1">5</text><text fill="none" stroke="rgb(255,255,255)" font-family="geogebra-sans-serif, sans-serif" font-size="12px" font-style="normal" font-weight="normal" text-decoration="normal" x="871" y="663" text-anchor="start" dominant-baseline="alphabetic" stroke-opacity="1" stroke-linejoin="bevel" stroke-miterlimit="10" stroke-width="3">6</text><text fill="rgb(0,0,0)" stroke="none" font-family="geogebra-sans-serif, sans-serif" font-size="12px" font-style="normal" font-weight="normal" text-decoration="normal" x="871" y="663" text-anchor="start" dominant-baseline="alphabetic" fill-opacity="1">6</text><text fill="none" stroke="rgb(255,255,255)" font-family="geogebra-sans-serif, sans-serif" font-size="12px" font-style="normal" font-weight="normal" text-decoration="normal" x="959" y="663" text-anchor="start" dominant-baseline="alphabetic" stroke-opacity="1" stroke-linejoin="bevel" stroke-miterlimit="10" stroke-width="3">7</text><text fill="rgb(0,0,0)" stroke="none" font-family="geogebra-sans-serif, sans-serif" font-size="12px" font-style="normal" font-weight="normal" text-decoration="normal" x="959" y="663" text-anchor="start" dominant-baseline="alphabetic" fill-opacity="1">7</text><text fill="none" stroke="rgb(255,255,255)" font-family="geogebra-sans-serif, sans-serif" font-size="12px" font-style="normal" font-weight="normal" text-decoration="normal" x="1048" y="663" text-anchor="start" dominant-baseline="alphabetic" stroke-opacity="1" stroke-linejoin="bevel" stroke-miterlimit="10" stroke-width="3">8</text><text fill="rgb(0,0,0)" stroke="none" font-family="geogebra-sans-serif, sans-serif" font-size="12px" font-style="normal" font-weight="normal" text-decoration="normal" x="1048" y="663" text-anchor="start" dominant-baseline="alphabetic" fill-opacity="1">8</text><text fill="none" stroke="rgb(255,255,255)" font-family="geogebra-sans-serif, sans-serif" font-size="12px" font-style="normal" font-weight="normal" text-decoration="normal" x="320" y="918" text-anchor="start" dominant-baseline="alphabetic" stroke-opacity="1" stroke-linejoin="bevel" stroke-miterlimit="10" stroke-width="3">–3</text><text fill="rgb(0,0,0)" stroke="none" font-family="geogebra-sans-serif, sans-serif" font-size="12px" font-style="normal" font-weight="normal" text-decoration="normal" x="320" y="918" text-anchor="start" dominant-baseline="alphabetic" fill-opacity="1">–3</text><text fill="none" stroke="rgb(255,255,255)" font-family="geogebra-sans-serif, sans-serif" font-size="12px" font-style="normal" font-weight="normal" text-decoration="normal" x="320" y="830" text-anchor="start" dominant-baseline="alphabetic" stroke-opacity="1" stroke-linejoin="bevel" stroke-miterlimit="10" stroke-width="3">–2</text><text fill="rgb(0,0,0)" stroke="none" font-family="geogebra-sans-serif, sans-serif" font-size="12px" font-style="normal" font-weight="normal" text-decoration="normal" x="320" y="830" text-anchor="start" dominant-baseline="alphabetic" fill-opacity="1">–2</text><text fill="none" stroke="rgb(255,255,255)" font-family="geogebra-sans-serif, sans-serif" font-size="12px" font-style="normal" font-weight="normal" text-decoration="normal" x="320" y="741" text-anchor="start" dominant-baseline="alphabetic" stroke-opacity="1" stroke-linejoin="bevel" stroke-miterlimit="10" stroke-width="3">–1</text><text fill="rgb(0,0,0)" stroke="none" font-family="geogebra-sans-serif, sans-serif" font-size="12px" font-style="normal" font-weight="normal" text-decoration="normal" x="320" y="741" text-anchor="start" dominant-baseline="alphabetic" fill-opacity="1">–1</text><text fill="none" stroke="rgb(255,255,255)" font-family="geogebra-sans-serif, sans-serif" font-size="12px" font-style="normal" font-weight="normal" text-decoration="normal" x="327" y="564" text-anchor="start" dominant-baseline="alphabetic" stroke-opacity="1" stroke-linejoin="bevel" stroke-miterlimit="10" stroke-width="3">1</text><text fill="rgb(0,0,0)" stroke="none" font-family="geogebra-sans-serif, sans-serif" font-size="12px" font-style="normal" font-weight="normal" text-decoration="normal" x="327" y="564" text-anchor="start" dominant-baseline="alphabetic" fill-opacity="1">1</text><text fill="none" stroke="rgb(255,255,255)" font-family="geogebra-sans-serif, sans-serif" font-size="12px" font-style="normal" font-weight="normal" text-decoration="normal" x="327" y="475" text-anchor="start" dominant-baseline="alphabetic" stroke-opacity="1" stroke-linejoin="bevel" stroke-miterlimit="10" stroke-width="3">2</text><text fill="rgb(0,0,0)" stroke="none" font-family="geogebra-sans-serif, sans-serif" font-size="12px" font-style="normal" font-weight="normal" text-decoration="normal" x="327" y="475" text-anchor="start" dominant-baseline="alphabetic" fill-opacity="1">2</text><text fill="none" stroke="rgb(255,255,255)" font-family="geogebra-sans-serif, sans-serif" font-size="12px" font-style="normal" font-weight="normal" text-decoration="normal" x="327" y="387" text-anchor="start" dominant-baseline="alphabetic" stroke-opacity="1" stroke-linejoin="bevel" stroke-miterlimit="10" stroke-width="3">3</text><text fill="rgb(0,0,0)" stroke="none" font-family="geogebra-sans-serif, sans-serif" font-size="12px" font-style="normal" font-weight="normal" text-decoration="normal" x="327" y="387" text-anchor="start" dominant-baseline="alphabetic" fill-opacity="1">3</text><text fill="none" stroke="rgb(255,255,255)" font-family="geogebra-sans-serif, sans-serif" font-size="12px" font-style="normal" font-weight="normal" text-decoration="normal" x="327" y="298" text-anchor="start" dominant-baseline="alphabetic" stroke-opacity="1" stroke-linejoin="bevel" stroke-miterlimit="10" stroke-width="3">4</text><text fill="rgb(0,0,0)" stroke="none" font-family="geogebra-sans-serif, sans-serif" font-size="12px" font-style="normal" font-weight="normal" text-decoration="normal" x="327" y="298" text-anchor="start" dominant-baseline="alphabetic" fill-opacity="1">4</text><text fill="none" stroke="rgb(255,255,255)" font-family="geogebra-sans-serif, sans-serif" font-size="12px" font-style="normal" font-weight="normal" text-decoration="normal" x="327" y="210" text-anchor="start" dominant-baseline="alphabetic" stroke-opacity="1" stroke-linejoin="bevel" stroke-miterlimit="10" stroke-width="3">5</text><text fill="rgb(0,0,0)" stroke="none" font-family="geogebra-sans-serif, sans-serif" font-size="12px" font-style="normal" font-weight="normal" text-decoration="normal" x="327" y="210" text-anchor="start" dominant-baseline="alphabetic" fill-opacity="1">5</text><text fill="none" stroke="rgb(255,255,255)" font-family="geogebra-sans-serif, sans-serif" font-size="12px" font-style="normal" font-weight="normal" text-decoration="normal" x="327" y="121" text-anchor="start" dominant-baseline="alphabetic" stroke-opacity="1" stroke-linejoin="bevel" stroke-miterlimit="10" stroke-width="3">6</text><text fill="rgb(0,0,0)" stroke="none" font-family="geogebra-sans-serif, sans-serif" font-size="12px" font-style="normal" font-weight="normal" text-decoration="normal" x="327" y="121" text-anchor="start" dominant-baseline="alphabetic" fill-opacity="1">6</text><text fill="none" stroke="rgb(255,255,255)" font-family="geogebra-sans-serif, sans-serif" font-size="12px" font-style="normal" font-weight="normal" text-decoration="normal" x="327" y="32" text-anchor="start" dominant-baseline="alphabetic" stroke-opacity="1" stroke-linejoin="bevel" stroke-miterlimit="10" stroke-width="3">7</text><text fill="rgb(0,0,0)" stroke="none" font-family="geogebra-sans-serif, sans-serif" font-size="12px" font-style="normal" font-weight="normal" text-decoration="normal" x="327" y="32" text-anchor="start" dominant-baseline="alphabetic" fill-opacity="1">7</text><text fill="none" stroke="rgb(255,255,255)" font-family="geogebra-sans-serif, sans-serif" font-size="12px" font-style="normal" font-weight="normal" text-decoration="normal" x="327" y="663" text-anchor="start" dominant-baseline="alphabetic" stroke-opacity="1" stroke-linejoin="bevel" stroke-miterlimit="10" stroke-width="3">0</text><text fill="rgb(0,0,0)" stroke="none" font-family="geogebra-sans-serif, sans-serif" font-size="12px" font-style="normal" font-weight="normal" text-decoration="normal" x="327" y="663" text-anchor="start" dominant-baseline="alphabetic" fill-opacity="1">0</text><path fill="none" stroke="rgb(0,0,0)" paint-order="fill stroke markers" d=" M 636.5736711411334 647.9928575000006 C 636.5736711411334 810.9386060946244 504.48004259462385 943.0322346411338 341.53429399999993 943.0322346411338 C 178.58854540537595 943.0322346411338 46.494916858866475 810.9386060946244 46.494916858866475 647.9928575000006 C 46.494916858866475 485.0471089053767 178.58854540537595 352.95348035886735 341.53429399999993 352.95348035886735 C 504.48004259462385 352.95348035886735 636.5736711411334 485.0471089053767 636.5736711411334 647.9928575000006 Z" stroke-opacity="0.6980392156862745" stroke-linejoin="round" stroke-miterlimit="10" stroke-width="2.5" stroke-dasharray="10.5,8"/><text fill="none" stroke="rgb(255,255,255)" font-family="geogebra-sans-serif, sans-serif" font-size="16px" font-style="normal" font-weight="normal" text-decoration="normal" x="194" y="417" text-anchor="start" dominant-baseline="alphabetic" stroke-opacity="1" stroke-linejoin="bevel" stroke-miterlimit="10" stroke-width="3" stroke-dasharray="10.5,8">c</text><text fill="rgb(0,0,0)" stroke="none" font-family="geogebra-sans-serif, sans-serif" font-size="16px" font-style="normal" font-weight="normal" text-decoration="normal" x="194" y="417" text-anchor="start" dominant-baseline="alphabetic" fill-opacity="1">c</text><path fill="none" stroke="rgb(0,0,0)" paint-order="fill stroke markers" d=" M 954.6172273776633 647.9928575000006 C 954.6172273776633 790.907987247014 838.7616237470138 906.7635908776634 695.8464940000002 906.7635908776634 C 552.9313642529867 906.7635908776634 437.0757606223372 790.907987247014 437.0757606223372 647.9928575000006 C 437.0757606223372 505.07772775298713 552.9313642529867 389.22212412233773 695.8464940000002 389.22212412233773 C 838.7616237470138 389.22212412233773 954.6172273776633 505.07772775298713 954.6172273776633 647.9928575000006 Z" stroke-opacity="0.6980392156862745" stroke-linejoin="round" stroke-miterlimit="10" stroke-width="2.5" stroke-dasharray="10.5,8"/><text fill="none" stroke="rgb(255,255,255)" font-family="geogebra-sans-serif, sans-serif" font-size="16px" font-style="normal" font-weight="normal" text-decoration="normal" x="566" y="448" text-anchor="start" dominant-baseline="alphabetic" stroke-opacity="1" stroke-linejoin="bevel" stroke-miterlimit="10" stroke-width="3" stroke-dasharray="10.5,8">d</text><text fill="rgb(0,0,0)" stroke="none" font-family="geogebra-sans-serif, sans-serif" font-size="16px" font-style="normal" font-weight="normal" text-decoration="normal" x="566" y="448" text-anchor="start" dominant-baseline="alphabetic" fill-opacity="1">d</text><path fill="none" stroke="rgb(0,0,0)" paint-order="fill stroke markers" d=" M 591.6712419413309 293.6806575000005 C 591.6712419413309 431.82747921721653 479.6811157172161 543.8176054413314 341.53429399999993 543.8176054413314 C 203.38747228278373 543.8176054413314 91.39734605866892 431.82747921721653 91.39734605866892 293.6806575000005 C 91.39734605866892 155.53383578278442 203.38747228278373 43.54370955866966 341.53429399999993 43.54370955866966 C 479.6811157172161 43.54370955866966 591.6712419413309 155.53383578278442 591.6712419413309 293.6806575000005 Z" stroke-opacity="0.6980392156862745" stroke-linejoin="round" stroke-miterlimit="10" stroke-width="2.5" stroke-dasharray="10.5,8"/><text fill="none" stroke="rgb(255,255,255)" font-family="geogebra-sans-serif, sans-serif" font-size="16px" font-style="normal" font-weight="normal" text-decoration="normal" x="216" y="101" text-anchor="start" dominant-baseline="alphabetic" stroke-opacity="1" stroke-linejoin="bevel" stroke-miterlimit="10" stroke-width="3" stroke-dasharray="10.5,8">e</text><text fill="rgb(0,0,0)" stroke="none" font-family="geogebra-sans-serif, sans-serif" font-size="16px" font-style="normal" font-weight="normal" text-decoration="normal" x="216" y="101" text-anchor="start" dominant-baseline="alphabetic" fill-opacity="1">e</text><path fill="none" stroke="rgb(0,0,0)" paint-order="fill stroke markers" d=" M 1061.356702516574 293.6806575000005 C 1061.356702516574 446.6260653864279 937.3699518864278 570.612816016574 784.4245440000003 570.612816016574 C 631.4791361135728 570.612816016574 507.49238548342663 446.6260653864279 507.49238548342663 293.6806575000005 C 507.49238548342663 140.7352496135731 631.4791361135728 16.748498983426998 784.4245440000003 16.748498983426998 C 937.3699518864278 16.748498983426998 1061.356702516574 140.7352496135731 1061.356702516574 293.6806575000005 Z" stroke-opacity="0.6980392156862745" stroke-linejoin="round" stroke-miterlimit="10" stroke-width="2.5" stroke-dasharray="10.5,8"/><text fill="none" stroke="rgb(255,255,255)" font-family="geogebra-sans-serif, sans-serif" font-size="16px" font-style="normal" font-weight="normal" text-decoration="normal" x="645" y="78" text-anchor="start" dominant-baseline="alphabetic" stroke-opacity="1" stroke-linejoin="bevel" stroke-miterlimit="10" stroke-width="3" stroke-dasharray="10.5,8">f</text><text fill="rgb(0,0,0)" stroke="none" font-family="geogebra-sans-serif, sans-serif" font-size="16px" font-style="normal" font-weight="normal" text-decoration="normal" x="645" y="78" text-anchor="start" dominant-baseline="alphabetic" fill-opacity="1">f</text><path fill="none" stroke="rgb(0,0,0)" paint-order="fill stroke markers" d=" M 547.0353700000001 436.2913180000005 L 784.4245440000003 293.6806575000005" stroke-opacity="0.6980392156862745" stroke-linecap="round" stroke-linejoin="round" stroke-miterlimit="10" stroke-width="2.5"/><path fill="none" stroke="rgb(0,0,0)" paint-order="fill stroke markers" d=" M 547.0353700000001 436.2913180000005 L 341.53429399999993 293.6806575000005" stroke-opacity="0.6980392156862745" stroke-linecap="round" stroke-linejoin="round" stroke-miterlimit="10" stroke-width="2.5"/><path fill="none" stroke="rgb(0,0,0)" paint-order="fill stroke markers" d=" M 547.0353700000001 436.2913180000005 L 341.53429399999993 647.9928575000006" stroke-opacity="0.6980392156862745" stroke-linecap="round" stroke-linejoin="round" stroke-miterlimit="10" stroke-width="2.5"/><path fill="none" stroke="rgb(0,0,0)" paint-order="fill stroke markers" d=" M 547.0353700000001 436.2913180000005 L 695.8464940000002 647.9928575000006" stroke-opacity="0.6980392156862745" stroke-linecap="round" stroke-linejoin="round" stroke-miterlimit="10" stroke-width="2.5"/><path fill="none" stroke="rgb(68,68,68)" paint-order="fill stroke markers" d=" M 337.53429399999993 643.9928575000006 L 345.53429399999993 651.9928575000006" stroke-opacity="1" stroke-linecap="square" stroke-miterlimit="10" stroke-width="2"/><path fill="none" stroke="rgb(68,68,68)" paint-order="fill stroke markers" d=" M 337.53429399999993 651.9928575000006 L 345.53429399999993 643.9928575000006" stroke-opacity="1" stroke-linecap="square" stroke-miterlimit="10" stroke-width="2"/><text fill="none" stroke="rgb(255,255,255)" font-family="geogebra-sans-serif, sans-serif" font-size="16px" font-style="normal" font-weight="normal" text-decoration="normal" x="346" y="640" text-anchor="start" dominant-baseline="alphabetic" stroke-opacity="1" stroke-linecap="square" stroke-linejoin="bevel" stroke-miterlimit="10" stroke-width="3">A</text><text fill="rgb(68,68,68)" stroke="none" font-family="geogebra-sans-serif, sans-serif" font-size="16px" font-style="normal" font-weight="normal" text-decoration="normal" x="346" y="640" text-anchor="start" dominant-baseline="alphabetic" fill-opacity="1">A</text><path fill="none" stroke="rgb(77,77,255)" paint-order="fill stroke markers" d=" M 542.0353700000001 431.2913180000005 L 552.0353700000001 441.2913180000005" stroke-opacity="1" stroke-linecap="square" stroke-miterlimit="10" stroke-width="2.5"/><path fill="none" stroke="rgb(77,77,255)" paint-order="fill stroke markers" d=" M 542.0353700000001 441.2913180000005 L 552.0353700000001 431.2913180000005" stroke-opacity="1" stroke-linecap="square" stroke-miterlimit="10" stroke-width="2.5"/><text fill="none" stroke="rgb(255,255,255)" font-family="geogebra-sans-serif, sans-serif" font-size="16px" font-style="normal" font-weight="normal" text-decoration="normal" x="551" y="426" text-anchor="start" dominant-baseline="alphabetic" stroke-opacity="1" stroke-linecap="square" stroke-linejoin="bevel" stroke-miterlimit="10" stroke-width="3">B</text><text fill="rgb(77,77,255)" stroke="none" font-family="geogebra-sans-serif, sans-serif" font-size="16px" font-style="normal" font-weight="normal" text-decoration="normal" x="551" y="426" text-anchor="start" dominant-baseline="alphabetic" fill-opacity="1">B</text><path fill="none" stroke="rgb(125,125,255)" paint-order="fill stroke markers" d=" M 690.8464940000002 642.9928575000006 L 700.8464940000002 652.9928575000006" stroke-opacity="1" stroke-linecap="square" stroke-miterlimit="10" stroke-width="2.5"/><path fill="none" stroke="rgb(125,125,255)" paint-order="fill stroke markers" d=" M 690.8464940000002 652.9928575000006 L 700.8464940000002 642.9928575000006" stroke-opacity="1" stroke-linecap="square" stroke-miterlimit="10" stroke-width="2.5"/><text fill="none" stroke="rgb(255,255,255)" font-family="geogebra-sans-serif, sans-serif" font-size="16px" font-style="normal" font-weight="normal" text-decoration="normal" x="700" y="638" text-anchor="start" dominant-baseline="alphabetic" stroke-opacity="1" stroke-linecap="square" stroke-linejoin="bevel" stroke-miterlimit="10" stroke-width="3">C</text><text fill="rgb(125,125,255)" stroke="none" font-family="geogebra-sans-serif, sans-serif" font-size="16px" font-style="normal" font-weight="normal" text-decoration="normal" x="700" y="638" text-anchor="start" dominant-baseline="alphabetic" fill-opacity="1">C</text><path fill="none" stroke="rgb(125,125,255)" paint-order="fill stroke markers" d=" M 336.53429399999993 288.6806575000005 L 346.53429399999993 298.6806575000005" stroke-opacity="1" stroke-linecap="square" stroke-miterlimit="10" stroke-width="2.5"/><path fill="none" stroke="rgb(125,125,255)" paint-order="fill stroke markers" d=" M 336.53429399999993 298.6806575000005 L 346.53429399999993 288.6806575000005" stroke-opacity="1" stroke-linecap="square" stroke-miterlimit="10" stroke-width="2.5"/><text fill="none" stroke="rgb(255,255,255)" font-family="geogebra-sans-serif, sans-serif" font-size="16px" font-style="normal" font-weight="normal" text-decoration="normal" x="346" y="284" text-anchor="start" dominant-baseline="alphabetic" stroke-opacity="1" stroke-linecap="square" stroke-linejoin="bevel" stroke-miterlimit="10" stroke-width="3">D</text><text fill="rgb(125,125,255)" stroke="none" font-family="geogebra-sans-serif, sans-serif" font-size="16px" font-style="normal" font-weight="normal" text-decoration="normal" x="346" y="284" text-anchor="start" dominant-baseline="alphabetic" fill-opacity="1">D</text><path fill="none" stroke="rgb(77,77,255)" paint-order="fill stroke markers" d=" M 779.4245440000003 288.6806575000005 L 789.4245440000003 298.6806575000005" stroke-opacity="1" stroke-linecap="square" stroke-miterlimit="10" stroke-width="2.5"/><path fill="none" stroke="rgb(77,77,255)" paint-order="fill stroke markers" d=" M 779.4245440000003 298.6806575000005 L 789.4245440000003 288.6806575000005" stroke-opacity="1" stroke-linecap="square" stroke-miterlimit="10" stroke-width="2.5"/><text fill="none" stroke="rgb(255,255,255)" font-family="geogebra-sans-serif, sans-serif" font-size="16px" font-style="normal" font-weight="normal" text-decoration="normal" x="788" y="284" text-anchor="start" dominant-baseline="alphabetic" stroke-opacity="1" stroke-linecap="square" stroke-linejoin="bevel" stroke-miterlimit="10" stroke-width="3">E</text><text fill="rgb(77,77,255)" stroke="none" font-family="geogebra-sans-serif, sans-serif" font-size="16px" font-style="normal" font-weight="normal" text-decoration="normal" x="788" y="284" text-anchor="start" dominant-baseline="alphabetic" fill-opacity="1">E</text><path fill="rgb(255,255,255)" stroke="none" paint-order="stroke fill markers" d=" M 654 386 L 730 386 L 730 416 L 654 416 L 654 386 Z" fill-opacity="1"/><text fill="rgb(0,0,0)" stroke="none" font-family="geogebra-sans-serif, sans-serif" font-size="16px" font-style="normal" font-weight="normal" text-decoration="normal" x="657" y="405" text-anchor="start" dominant-baseline="alphabetic" fill-opacity="1">BE = 3.13</text><path fill="rgb(255,255,255)" stroke="none" paint-order="stroke fill markers" d=" M 467 337 L 544 337 L 544 367 L 467 367 L 467 337 Z" fill-opacity="1"/><text fill="rgb(0,0,0)" stroke="none" font-family="geogebra-sans-serif, sans-serif" font-size="16px" font-style="normal" font-weight="normal" text-decoration="normal" x="470" y="356" text-anchor="start" dominant-baseline="alphabetic" fill-opacity="1">BD = 2.82</text><path fill="rgb(255,255,255)" stroke="none" paint-order="stroke fill markers" d=" M 437 569 L 513 569 L 513 599 L 437 599 L 437 569 Z" fill-opacity="1"/><text fill="rgb(0,0,0)" stroke="none" font-family="geogebra-sans-serif, sans-serif" font-size="16px" font-style="normal" font-weight="normal" text-decoration="normal" x="440" y="588" text-anchor="start" dominant-baseline="alphabetic" fill-opacity="1">BA = 3.33</text><path fill="rgb(255,255,255)" stroke="none" paint-order="stroke fill markers" d=" M 655 529 L 732 529 L 732 559 L 655 559 L 655 529 Z" fill-opacity="1"/><text fill="rgb(0,0,0)" stroke="none" font-family="geogebra-sans-serif, sans-serif" font-size="16px" font-style="normal" font-weight="normal" text-decoration="normal" x="658" y="548" text-anchor="start" dominant-baseline="alphabetic" fill-opacity="1">BC = 2.92</text></g></g></svg>