<?xml version="1.0" encoding="UTF-8" standalone="no"?>
<!-- Created with Inkscape (http://www.inkscape.org/) -->

<svg
   xmlns:dc="http://purl.org/dc/elements/1.1/"
   xmlns:cc="http://creativecommons.org/ns#"
   xmlns:rdf="http://www.w3.org/1999/02/22-rdf-syntax-ns#"
   xmlns:svg="http://www.w3.org/2000/svg"
   xmlns="http://www.w3.org/2000/svg"
   xmlns:sodipodi="http://sodipodi.sourceforge.net/DTD/sodipodi-0.dtd"
   xmlns:inkscape="http://www.inkscape.org/namespaces/inkscape"
   width="70mm"
   height="20mm"
   viewBox="0 0 70 20"
   version="1.1"
   id="svg21520"
   inkscape:version="0.92.1 r15371"
   sodipodi:docname="BATTconnector.svg">
  <defs
     id="defs21514" />
  <sodipodi:namedview
     id="base"
     pagecolor="#ffffff"
     bordercolor="#666666"
     borderopacity="1.0"
     inkscape:pageopacity="0.0"
     inkscape:pageshadow="2"
     inkscape:zoom="3.959798"
     inkscape:cx="120.58391"
     inkscape:cy="86.147433"
     inkscape:document-units="mm"
     inkscape:current-layer="layer1"
     showgrid="false"
     inkscape:window-width="1920"
     inkscape:window-height="1058"
     inkscape:window-x="-8"
     inkscape:window-y="-8"
     inkscape:window-maximized="1" />
  <metadata
     id="metadata21517">
    <rdf:RDF>
      <cc:Work
         rdf:about="">
        <dc:format>image/svg+xml</dc:format>
        <dc:type
           rdf:resource="http://purl.org/dc/dcmitype/StillImage" />
        <dc:title></dc:title>
      </cc:Work>
    </rdf:RDF>
  </metadata>
  <g
     inkscape:label="Layer 1"
     inkscape:groupmode="layer"
     id="layer1"
     transform="translate(0,-277)">
    <path
       inkscape:connector-curvature="0"
       id="path22230-5-4"
       style="fill:#000000;fill-opacity:1;fill-rule:nonzero;stroke:#000000;stroke-width:0.5041045;stroke-linecap:round;stroke-linejoin:round;stroke-miterlimit:10;stroke-dasharray:none;stroke-opacity:1"
       d="m 8.5118818,291.31862 h -0.96788 v 0.96788 h 0.96788 z" />
    <path
       inkscape:connector-curvature="0"
       id="path22232-9-4"
       style="fill:#000000;fill-opacity:1;fill-rule:nonzero;stroke:#000000;stroke-width:0.5041045;stroke-linecap:round;stroke-linejoin:round;stroke-miterlimit:10;stroke-dasharray:none;stroke-opacity:1"
       d="m 8.5118818,286.51954 h -0.96788 v 0.96788 h 0.96788 z" />
    <path
       inkscape:connector-curvature="0"
       id="path22234-2-1"
       style="fill:#000000;fill-opacity:1;fill-rule:nonzero;stroke:#000000;stroke-width:0.5041045;stroke-linecap:round;stroke-linejoin:round;stroke-miterlimit:10;stroke-dasharray:none;stroke-opacity:1"
       d="m 8.5118818,281.6801 h -0.96788 v 0.96789 h 0.96788 z" />
    <path
       inkscape:connector-curvature="0"
       id="path22238-3-1"
       style="fill:#000000;fill-opacity:1;fill-rule:nonzero;stroke:#000000;stroke-width:0.5041045;stroke-linecap:round;stroke-linejoin:round;stroke-miterlimit:10;stroke-dasharray:none;stroke-opacity:1"
       d="m 61.704797,281.6801 h -0.96786 v 0.96789 h 0.96786 z" />
    <path
       inkscape:connector-curvature="0"
       id="path22304-1-6"
       style="fill:none;stroke:#000000;stroke-width:0.24197014;stroke-linecap:round;stroke-linejoin:round;stroke-miterlimit:10;stroke-dasharray:none;stroke-opacity:1"
       d="m 40.008217,279.74434 h 15.24406" />
    <path
       inkscape:connector-curvature="0"
       id="path22306-7-1"
       style="fill:none;stroke:#000000;stroke-width:0.24197014;stroke-linecap:round;stroke-linejoin:round;stroke-miterlimit:10;stroke-dasharray:none;stroke-opacity:1"
       d="m 40.008217,278.77645 h 15.24406" />
    <path
       inkscape:connector-curvature="0"
       id="path22308-0-9"
       style="fill:none;stroke:#000000;stroke-width:0.24197014;stroke-linecap:round;stroke-linejoin:round;stroke-miterlimit:10;stroke-dasharray:none;stroke-opacity:1"
       d="m 55.252277,278.77645 v 0.96789" />
    <path
       inkscape:connector-curvature="0"
       id="path22310-4-1"
       style="fill:none;stroke:#000000;stroke-width:0.24197014;stroke-linecap:round;stroke-linejoin:round;stroke-miterlimit:10;stroke-dasharray:none;stroke-opacity:1"
       d="m 40.008217,278.77645 v 0.96789" />
    <path
       inkscape:connector-curvature="0"
       id="path22312-2-1"
       style="fill:none;stroke:#000000;stroke-width:0.24197014;stroke-linecap:round;stroke-linejoin:round;stroke-miterlimit:10;stroke-dasharray:none;stroke-opacity:1"
       d="m 40.008217,279.74434 v 9.51753" />
    <path
       inkscape:connector-curvature="0"
       id="path22314-5-4"
       style="fill:none;stroke:#000000;stroke-width:0.24197014;stroke-linecap:round;stroke-linejoin:round;stroke-miterlimit:10;stroke-dasharray:none;stroke-opacity:1"
       d="m 40.008217,289.26187 h 15.24406" />
    <path
       inkscape:connector-curvature="0"
       id="path22316-4-5"
       style="fill:none;stroke:#000000;stroke-width:0.24197014;stroke-linecap:round;stroke-linejoin:round;stroke-miterlimit:10;stroke-dasharray:none;stroke-opacity:1"
       d="m 55.252277,289.26187 v -9.51753" />
    <path
       inkscape:connector-curvature="0"
       id="path22512-6-8"
       style="fill:none;stroke:#000000;stroke-width:0.32262686;stroke-linecap:round;stroke-linejoin:round;stroke-miterlimit:10;stroke-dasharray:none;stroke-opacity:1"
       d="m 6.8180938,289.42319 -1.209846,1.20985" />
    <path
       inkscape:connector-curvature="0"
       id="path22514-9-4"
       style="fill:none;stroke:#000000;stroke-width:0.32262686;stroke-linecap:round;stroke-linejoin:round;stroke-miterlimit:10;stroke-dasharray:none;stroke-opacity:1"
       d="m 5.6082478,290.63304 v 2.37937" />
    <path
       inkscape:connector-curvature="0"
       id="path22516-2-7"
       style="fill:none;stroke:#000000;stroke-width:0.32262686;stroke-linecap:round;stroke-linejoin:round;stroke-miterlimit:10;stroke-dasharray:none;stroke-opacity:1"
       d="m 5.6082478,293.01241 1.209846,1.20986" />
    <path
       inkscape:connector-curvature="0"
       id="path22518-7-9"
       style="fill:none;stroke:#000000;stroke-width:0.32262686;stroke-linecap:round;stroke-linejoin:round;stroke-miterlimit:10;stroke-dasharray:none;stroke-opacity:1"
       d="m 6.8180938,294.22227 h 2.419694" />
    <path
       inkscape:connector-curvature="0"
       id="path22520-5-3"
       style="fill:none;stroke:#000000;stroke-width:0.32262686;stroke-linecap:round;stroke-linejoin:round;stroke-miterlimit:10;stroke-dasharray:none;stroke-opacity:1"
       d="m 9.2377878,294.22227 1.2098472,-1.20986" />
    <path
       inkscape:connector-curvature="0"
       id="path22522-0-0"
       style="fill:none;stroke:#000000;stroke-width:0.32262686;stroke-linecap:round;stroke-linejoin:round;stroke-miterlimit:10;stroke-dasharray:none;stroke-opacity:1"
       d="m 10.447635,293.01241 v -2.37937" />
    <path
       inkscape:connector-curvature="0"
       id="path22524-2-9"
       style="fill:none;stroke:#000000;stroke-width:0.32262686;stroke-linecap:round;stroke-linejoin:round;stroke-miterlimit:10;stroke-dasharray:none;stroke-opacity:1"
       d="M 10.447635,290.63304 9.2377878,289.42319" />
    <path
       inkscape:connector-curvature="0"
       id="path22532-2-5"
       style="fill:none;stroke:#000000;stroke-width:0.32262686;stroke-linecap:round;stroke-linejoin:round;stroke-miterlimit:10;stroke-dasharray:none;stroke-opacity:1"
       d="m 5.6082478,280.95419 v 2.41971" />
    <path
       inkscape:connector-curvature="0"
       id="path22534-7-3"
       style="fill:none;stroke:#000000;stroke-width:0.32262686;stroke-linecap:round;stroke-linejoin:round;stroke-miterlimit:10;stroke-dasharray:none;stroke-opacity:1"
       d="m 5.6082478,283.3739 1.209846,1.20985" />
    <path
       inkscape:connector-curvature="0"
       id="path22536-9-8"
       style="fill:none;stroke:#000000;stroke-width:0.32262686;stroke-linecap:round;stroke-linejoin:round;stroke-miterlimit:10;stroke-dasharray:none;stroke-opacity:1"
       d="m 6.8180938,284.58375 h 2.419694" />
    <path
       inkscape:connector-curvature="0"
       id="path22538-7-6"
       style="fill:none;stroke:#000000;stroke-width:0.32262686;stroke-linecap:round;stroke-linejoin:round;stroke-miterlimit:10;stroke-dasharray:none;stroke-opacity:1"
       d="M 9.2377878,284.58375 10.447635,283.3739" />
    <path
       inkscape:connector-curvature="0"
       id="path22540-4-0"
       style="fill:none;stroke:#000000;stroke-width:0.32262686;stroke-linecap:round;stroke-linejoin:round;stroke-miterlimit:10;stroke-dasharray:none;stroke-opacity:1"
       d="m 6.8180938,284.58375 -1.209846,1.20986" />
    <path
       inkscape:connector-curvature="0"
       id="path22542-5-4"
       style="fill:none;stroke:#000000;stroke-width:0.32262686;stroke-linecap:round;stroke-linejoin:round;stroke-miterlimit:10;stroke-dasharray:none;stroke-opacity:1"
       d="m 5.6082478,285.79361 v 2.41972" />
    <path
       inkscape:connector-curvature="0"
       id="path22544-9-3"
       style="fill:none;stroke:#000000;stroke-width:0.32262686;stroke-linecap:round;stroke-linejoin:round;stroke-miterlimit:10;stroke-dasharray:none;stroke-opacity:1"
       d="m 5.6082478,288.21333 1.209846,1.20986" />
    <path
       inkscape:connector-curvature="0"
       id="path22546-8-5"
       style="fill:none;stroke:#000000;stroke-width:0.32262686;stroke-linecap:round;stroke-linejoin:round;stroke-miterlimit:10;stroke-dasharray:none;stroke-opacity:1"
       d="m 6.8180938,289.42319 h 2.419694" />
    <path
       inkscape:connector-curvature="0"
       id="path22548-9-3"
       style="fill:none;stroke:#000000;stroke-width:0.32262686;stroke-linecap:round;stroke-linejoin:round;stroke-miterlimit:10;stroke-dasharray:none;stroke-opacity:1"
       d="m 9.2377878,289.42319 1.2098472,-1.20986" />
    <path
       inkscape:connector-curvature="0"
       id="path22550-5-4"
       style="fill:none;stroke:#000000;stroke-width:0.32262686;stroke-linecap:round;stroke-linejoin:round;stroke-miterlimit:10;stroke-dasharray:none;stroke-opacity:1"
       d="m 10.447635,288.21333 v -2.41972" />
    <path
       inkscape:connector-curvature="0"
       id="path22552-7-7"
       style="fill:none;stroke:#000000;stroke-width:0.32262686;stroke-linecap:round;stroke-linejoin:round;stroke-miterlimit:10;stroke-dasharray:none;stroke-opacity:1"
       d="M 10.447635,285.79361 9.2377878,284.58375" />
    <path
       inkscape:connector-curvature="0"
       id="path22554-5-9"
       style="fill:none;stroke:#000000;stroke-width:0.32262686;stroke-linecap:round;stroke-linejoin:round;stroke-miterlimit:10;stroke-dasharray:none;stroke-opacity:1"
       d="m 6.8180938,279.74434 h 2.419694" />
    <path
       inkscape:connector-curvature="0"
       id="path22556-2-0"
       style="fill:none;stroke:#000000;stroke-width:0.32262686;stroke-linecap:round;stroke-linejoin:round;stroke-miterlimit:10;stroke-dasharray:none;stroke-opacity:1"
       d="m 5.6082478,280.95419 1.209846,-1.20985" />
    <path
       inkscape:connector-curvature="0"
       id="path22558-4-6"
       style="fill:none;stroke:#000000;stroke-width:0.32262686;stroke-linecap:round;stroke-linejoin:round;stroke-miterlimit:10;stroke-dasharray:none;stroke-opacity:1"
       d="m 9.2377878,279.74434 1.2098472,1.20985" />
    <path
       inkscape:connector-curvature="0"
       id="path22560-6-7"
       style="fill:none;stroke:#000000;stroke-width:0.32262686;stroke-linecap:round;stroke-linejoin:round;stroke-miterlimit:10;stroke-dasharray:none;stroke-opacity:1"
       d="m 10.447635,283.3739 v -2.41971" />
    <path
       inkscape:connector-curvature="0"
       id="path22576-8-3"
       style="fill:none;stroke:#000000;stroke-width:0.32262686;stroke-linecap:round;stroke-linejoin:round;stroke-miterlimit:10;stroke-dasharray:none;stroke-opacity:1"
       d="m 62.430717,279.74434 h -2.41969" />
    <path
       inkscape:connector-curvature="0"
       id="path22578-2-2"
       style="fill:none;stroke:#000000;stroke-width:0.32262686;stroke-linecap:round;stroke-linejoin:round;stroke-miterlimit:10;stroke-dasharray:none;stroke-opacity:1"
       d="m 60.011027,279.74434 -1.20986,1.20985" />
    <path
       inkscape:connector-curvature="0"
       id="path22580-4-5"
       style="fill:none;stroke:#000000;stroke-width:0.32262686;stroke-linecap:round;stroke-linejoin:round;stroke-miterlimit:10;stroke-dasharray:none;stroke-opacity:1"
       d="m 58.801167,280.95419 v 2.41971" />
    <path
       inkscape:connector-curvature="0"
       id="path22582-1-6"
       style="fill:none;stroke:#000000;stroke-width:0.32262686;stroke-linecap:round;stroke-linejoin:round;stroke-miterlimit:10;stroke-dasharray:none;stroke-opacity:1"
       d="m 58.801167,283.3739 1.20986,1.20985" />
    <path
       inkscape:connector-curvature="0"
       id="path22584-0-7"
       style="fill:none;stroke:#000000;stroke-width:0.32262686;stroke-linecap:round;stroke-linejoin:round;stroke-miterlimit:10;stroke-dasharray:none;stroke-opacity:1"
       d="m 63.640567,280.95419 v 2.41971" />
    <path
       inkscape:connector-curvature="0"
       id="path22586-7-7"
       style="fill:none;stroke:#000000;stroke-width:0.32262686;stroke-linecap:round;stroke-linejoin:round;stroke-miterlimit:10;stroke-dasharray:none;stroke-opacity:1"
       d="m 62.430717,279.74434 1.20985,1.20985" />
    <path
       inkscape:connector-curvature="0"
       id="path22588-7-2"
       style="fill:none;stroke:#000000;stroke-width:0.32262686;stroke-linecap:round;stroke-linejoin:round;stroke-miterlimit:10;stroke-dasharray:none;stroke-opacity:1"
       d="m 63.640567,283.3739 -1.20985,1.20985" />
    <path
       inkscape:connector-curvature="0"
       id="path22590-1-6"
       style="fill:none;stroke:#000000;stroke-width:0.32262686;stroke-linecap:round;stroke-linejoin:round;stroke-miterlimit:10;stroke-dasharray:none;stroke-opacity:1"
       d="m 60.011027,284.58375 h 2.41969" />
    <path
       inkscape:connector-curvature="0"
       id="path23314-1-7"
       style="fill:#000000;fill-opacity:1;fill-rule:evenodd;stroke:#000000;stroke-width:0.5041045;stroke-linecap:round;stroke-linejoin:round;stroke-miterlimit:10;stroke-dasharray:none;stroke-opacity:1"
       d="m 47.267277,287.46121 c 0,-0.0524 0.0406,-0.0947 0.0907,-0.0947 h 0.54443 c 0.0501,0 0.0907,0.0425 0.0907,0.0947 v 3.60134 c 0,0.0524 -0.0406,0.0947 -0.0907,0.0947 h -0.54443 c -0.0501,0 -0.0907,-0.0425 -0.0907,-0.0947 z" />
    <path
       inkscape:connector-curvature="0"
       id="path23316-1-9"
       style="fill:#000000;fill-opacity:1;fill-rule:evenodd;stroke:#000000;stroke-width:0.5041045;stroke-linecap:round;stroke-linejoin:round;stroke-miterlimit:10;stroke-dasharray:none;stroke-opacity:1"
       d="m 46.017127,287.46121 c 0,-0.0524 0.0406,-0.0947 0.0907,-0.0947 h 0.54443 c 0.0501,0 0.0907,0.0425 0.0907,0.0947 v 3.60134 c 0,0.0524 -0.0406,0.0947 -0.0907,0.0947 h -0.54443 c -0.0501,0 -0.0907,-0.0425 -0.0907,-0.0947 z" />
    <path
       inkscape:connector-curvature="0"
       id="path23318-9-9"
       style="fill:#000000;fill-opacity:1;fill-rule:evenodd;stroke:#000000;stroke-width:0.5041045;stroke-linecap:round;stroke-linejoin:round;stroke-miterlimit:10;stroke-dasharray:none;stroke-opacity:1"
       d="m 48.477137,287.46121 c 0,-0.0524 0.0406,-0.0947 0.0907,-0.0947 h 0.54443 c 0.0501,0 0.0907,0.0425 0.0907,0.0947 v 3.60134 c 0,0.0524 -0.0406,0.0947 -0.0907,0.0947 h -0.54443 c -0.0501,0 -0.0907,-0.0425 -0.0907,-0.0947 z" />
    <path
       inkscape:connector-curvature="0"
       id="path23320-5-7"
       style="fill:#000000;fill-opacity:1;fill-rule:evenodd;stroke:#000000;stroke-width:0.5041045;stroke-linecap:round;stroke-linejoin:round;stroke-miterlimit:10;stroke-dasharray:none;stroke-opacity:1"
       d="m 49.727327,287.46121 c 0,-0.0524 0.0406,-0.0947 0.0907,-0.0947 h 0.54443 c 0.0501,0 0.0907,0.0425 0.0907,0.0947 v 3.60134 c 0,0.0524 -0.0406,0.0947 -0.0907,0.0947 h -0.54443 c -0.0501,0 -0.0907,-0.0425 -0.0907,-0.0947 z" />
    <path
       inkscape:connector-curvature="0"
       id="path23322-0-4"
       style="fill:#000000;fill-opacity:1;fill-rule:evenodd;stroke:#000000;stroke-width:0.5041045;stroke-linecap:round;stroke-linejoin:round;stroke-miterlimit:10;stroke-dasharray:none;stroke-opacity:1"
       d="m 44.766947,287.46121 c 0,-0.0524 0.0406,-0.0947 0.0907,-0.0947 h 0.54443 c 0.0501,0 0.0907,0.0425 0.0907,0.0947 v 3.60134 c 0,0.0524 -0.0406,0.0947 -0.0907,0.0947 h -0.54443 c -0.0501,0 -0.0907,-0.0425 -0.0907,-0.0947 z" />
    <path
       inkscape:connector-curvature="0"
       id="path23716-7-2"
       style="fill:none;stroke:#000000;stroke-width:0.32262686;stroke-linecap:round;stroke-linejoin:round;stroke-miterlimit:10;stroke-dasharray:none;stroke-opacity:1"
       d="m 26.175637,279.74434 -1.20987,1.20985" />
    <path
       inkscape:connector-curvature="0"
       id="path23718-7-3"
       style="fill:none;stroke:#000000;stroke-width:0.32262686;stroke-linecap:round;stroke-linejoin:round;stroke-miterlimit:10;stroke-dasharray:none;stroke-opacity:1"
       d="m 24.965767,283.3739 1.20987,1.20985" />
    <path
       inkscape:connector-curvature="0"
       id="path23720-1-8"
       style="fill:none;stroke:#000000;stroke-width:0.32262686;stroke-linecap:round;stroke-linejoin:round;stroke-miterlimit:10;stroke-dasharray:none;stroke-opacity:1"
       d="m 26.175637,284.58375 -1.20987,1.20986" />
    <path
       inkscape:connector-curvature="0"
       id="path23722-7-1"
       style="fill:none;stroke:#000000;stroke-width:0.32262686;stroke-linecap:round;stroke-linejoin:round;stroke-miterlimit:10;stroke-dasharray:none;stroke-opacity:1"
       d="m 24.965767,288.21333 1.20987,1.20986" />
    <path
       inkscape:connector-curvature="0"
       id="path23724-8-7"
       style="fill:none;stroke:#000000;stroke-width:0.32262686;stroke-linecap:round;stroke-linejoin:round;stroke-miterlimit:10;stroke-dasharray:none;stroke-opacity:1"
       d="m 26.175637,279.74434 h 7.21875" />
    <path
       inkscape:connector-curvature="0"
       id="path23726-9-3"
       style="fill:none;stroke:#000000;stroke-width:0.32262686;stroke-linecap:round;stroke-linejoin:round;stroke-miterlimit:10;stroke-dasharray:none;stroke-opacity:1"
       d="m 33.394387,279.74434 1.20984,1.20985" />
    <path
       inkscape:connector-curvature="0"
       id="path23728-0-0"
       style="fill:none;stroke:#000000;stroke-width:0.32262686;stroke-linecap:round;stroke-linejoin:round;stroke-miterlimit:10;stroke-dasharray:none;stroke-opacity:1"
       d="m 34.604227,280.95419 v 2.41971" />
    <path
       inkscape:connector-curvature="0"
       id="path23730-7-3"
       style="fill:none;stroke:#000000;stroke-width:0.32262686;stroke-linecap:round;stroke-linejoin:round;stroke-miterlimit:10;stroke-dasharray:none;stroke-opacity:1"
       d="m 34.604227,283.3739 -1.20984,1.20985" />
    <path
       inkscape:connector-curvature="0"
       id="path23732-6-0"
       style="fill:none;stroke:#000000;stroke-width:0.32262686;stroke-linecap:round;stroke-linejoin:round;stroke-miterlimit:10;stroke-dasharray:none;stroke-opacity:1"
       d="m 33.394387,284.58375 1.20984,1.20986" />
    <path
       inkscape:connector-curvature="0"
       id="path23734-5-5"
       style="fill:none;stroke:#000000;stroke-width:0.32262686;stroke-linecap:round;stroke-linejoin:round;stroke-miterlimit:10;stroke-dasharray:none;stroke-opacity:1"
       d="m 34.604227,285.79361 v 2.41972" />
    <path
       inkscape:connector-curvature="0"
       id="path23736-1-6"
       style="fill:none;stroke:#000000;stroke-width:0.32262686;stroke-linecap:round;stroke-linejoin:round;stroke-miterlimit:10;stroke-dasharray:none;stroke-opacity:1"
       d="m 34.604227,288.21333 -1.20984,1.20986" />
    <path
       inkscape:connector-curvature="0"
       id="path23738-0-2"
       style="fill:none;stroke:#000000;stroke-width:0.32262686;stroke-linecap:round;stroke-linejoin:round;stroke-miterlimit:10;stroke-dasharray:none;stroke-opacity:1"
       d="m 33.394387,284.58375 h -7.21875" />
    <path
       inkscape:connector-curvature="0"
       id="path23740-7-2"
       style="fill:none;stroke:#000000;stroke-width:0.32262686;stroke-linecap:round;stroke-linejoin:round;stroke-miterlimit:10;stroke-dasharray:none;stroke-opacity:1"
       d="m 33.394387,289.42319 h -7.21875" />
    <path
       inkscape:connector-curvature="0"
       id="path23742-0-2"
       style="fill:none;stroke:#000000;stroke-width:0.32262686;stroke-linecap:round;stroke-linejoin:round;stroke-miterlimit:10;stroke-dasharray:none;stroke-opacity:1"
       d="m 24.965767,285.79361 v 2.41972" />
    <path
       inkscape:connector-curvature="0"
       id="path23744-8-9"
       style="fill:none;stroke:#000000;stroke-width:0.32262686;stroke-linecap:round;stroke-linejoin:round;stroke-miterlimit:10;stroke-dasharray:none;stroke-opacity:1"
       d="m 24.965767,280.95419 v 2.41971" />
    <path
       inkscape:connector-curvature="0"
       id="path23972-6-9"
       style="fill:#000000;fill-opacity:1;fill-rule:nonzero;stroke:#000000;stroke-width:0.5041045;stroke-linecap:round;stroke-linejoin:round;stroke-miterlimit:10;stroke-dasharray:none;stroke-opacity:1"
       d="m 27.869417,281.6801 h -0.96787 v 0.96789 h 0.96787 z" />
    <path
       inkscape:connector-curvature="0"
       id="path23974-7-0"
       style="fill:#000000;fill-opacity:1;fill-rule:nonzero;stroke:#000000;stroke-width:0.5041045;stroke-linecap:round;stroke-linejoin:round;stroke-miterlimit:10;stroke-dasharray:none;stroke-opacity:1"
       d="m 32.708807,281.6801 h -0.96788 v 0.96789 h 0.96788 z" />
    <path
       inkscape:connector-curvature="0"
       id="path23976-4-9"
       style="fill:#000000;fill-opacity:1;fill-rule:nonzero;stroke:#000000;stroke-width:0.5041045;stroke-linecap:round;stroke-linejoin:round;stroke-miterlimit:10;stroke-dasharray:none;stroke-opacity:1"
       d="m 32.708807,286.51954 h -0.96788 v 0.96788 h 0.96788 z" />
    <path
       inkscape:connector-curvature="0"
       id="path23978-5-7"
       style="fill:#000000;fill-opacity:1;fill-rule:nonzero;stroke:#000000;stroke-width:0.5041045;stroke-linecap:round;stroke-linejoin:round;stroke-miterlimit:10;stroke-dasharray:none;stroke-opacity:1"
       d="m 27.869417,286.51954 h -0.96787 v 0.96788 h 0.96787 z" />
    <path
       inkscape:connector-curvature="0"
       id="path24422-7-6"
       style="fill:#000000;fill-opacity:1;fill-rule:evenodd;stroke:#000000;stroke-width:0.5041045;stroke-linecap:round;stroke-linejoin:round;stroke-miterlimit:10;stroke-dasharray:none;stroke-opacity:1"
       d="m 28.796967,282.16405 c 0,0.75727 -0.6139,1.37117 -1.37117,1.37117 -0.75727,0 -1.37115,-0.6139 -1.37115,-1.37117 0,-0.75728 0.61388,-1.37118 1.37115,-1.37118 0.75727,0 1.37117,0.6139 1.37117,1.37118 z" />
    <path
       inkscape:connector-curvature="0"
       id="path24424-6-7"
       style="fill:#ffffff;fill-opacity:1;fill-rule:evenodd;stroke:#000000;stroke-width:0.04032835;stroke-linecap:square;stroke-linejoin:bevel;stroke-miterlimit:10;stroke-dasharray:none;stroke-opacity:1"
       d="m 28.393677,282.16405 c 0,0.53454 -0.43334,0.96788 -0.96788,0.96788 -0.53454,0 -0.96788,-0.43334 -0.96788,-0.96788 0,-0.53455 0.43334,-0.96789 0.96788,-0.96789 0.53454,0 0.96788,0.43334 0.96788,0.96789 z" />
    <path
       inkscape:connector-curvature="0"
       id="path24426-4-5"
       style="fill:#000000;fill-opacity:1;fill-rule:evenodd;stroke:#000000;stroke-width:0.5041045;stroke-linecap:round;stroke-linejoin:round;stroke-miterlimit:10;stroke-dasharray:none;stroke-opacity:1"
       d="m 33.636357,282.16405 c 0,0.75727 -0.6139,1.37117 -1.37117,1.37117 -0.75727,0 -1.37115,-0.6139 -1.37115,-1.37117 0,-0.75728 0.61388,-1.37118 1.37115,-1.37118 0.75727,0 1.37117,0.6139 1.37117,1.37118 z" />
    <path
       inkscape:connector-curvature="0"
       id="path24428-5-6"
       style="fill:#ffffff;fill-opacity:1;fill-rule:evenodd;stroke:#000000;stroke-width:0.04032835;stroke-linecap:square;stroke-linejoin:bevel;stroke-miterlimit:10;stroke-dasharray:none;stroke-opacity:1"
       d="m 33.233067,282.16405 c 0,0.53454 -0.43334,0.96788 -0.96788,0.96788 -0.53454,0 -0.96788,-0.43334 -0.96788,-0.96788 0,-0.53455 0.43334,-0.96789 0.96788,-0.96789 0.53454,0 0.96788,0.43334 0.96788,0.96789 z" />
    <path
       inkscape:connector-curvature="0"
       id="path24430-6-7"
       style="fill:#000000;fill-opacity:1;fill-rule:evenodd;stroke:#000000;stroke-width:0.5041045;stroke-linecap:round;stroke-linejoin:round;stroke-miterlimit:10;stroke-dasharray:none;stroke-opacity:1"
       d="m 28.796967,287.00348 c 0,0.75727 -0.6139,1.37117 -1.37117,1.37117 -0.75727,0 -1.37115,-0.6139 -1.37115,-1.37117 0,-0.75729 0.61388,-1.37119 1.37115,-1.37119 0.75727,0 1.37117,0.6139 1.37117,1.37119 z" />
    <path
       inkscape:connector-curvature="0"
       id="path24432-6-1"
       style="fill:#ffffff;fill-opacity:1;fill-rule:evenodd;stroke:#000000;stroke-width:0.04032835;stroke-linecap:square;stroke-linejoin:bevel;stroke-miterlimit:10;stroke-dasharray:none;stroke-opacity:1"
       d="m 28.393677,287.00348 c 0,0.53455 -0.43334,0.96788 -0.96788,0.96788 -0.53454,0 -0.96788,-0.43333 -0.96788,-0.96788 0,-0.53455 0.43334,-0.9679 0.96788,-0.9679 0.53454,0 0.96788,0.43335 0.96788,0.9679 z" />
    <path
       inkscape:connector-curvature="0"
       id="path24434-0-5"
       style="fill:#000000;fill-opacity:1;fill-rule:evenodd;stroke:#000000;stroke-width:0.5041045;stroke-linecap:round;stroke-linejoin:round;stroke-miterlimit:10;stroke-dasharray:none;stroke-opacity:1"
       d="m 33.636357,287.00348 c 0,0.75727 -0.6139,1.37117 -1.37117,1.37117 -0.75727,0 -1.37115,-0.6139 -1.37115,-1.37117 0,-0.75729 0.61388,-1.37119 1.37115,-1.37119 0.75727,0 1.37117,0.6139 1.37117,1.37119 z" />
    <path
       inkscape:connector-curvature="0"
       id="path24436-4-8"
       style="fill:#ffffff;fill-opacity:1;fill-rule:evenodd;stroke:#000000;stroke-width:0.04032835;stroke-linecap:square;stroke-linejoin:bevel;stroke-miterlimit:10;stroke-dasharray:none;stroke-opacity:1"
       d="m 33.233067,287.00348 c 0,0.53455 -0.43334,0.96788 -0.96788,0.96788 -0.53454,0 -0.96788,-0.43333 -0.96788,-0.96788 0,-0.53455 0.43334,-0.9679 0.96788,-0.9679 0.53454,0 0.96788,0.43335 0.96788,0.9679 z" />
    <path
       inkscape:connector-curvature="0"
       id="path24438-9-3"
       style="fill:#000000;fill-opacity:1;fill-rule:evenodd;stroke:#000000;stroke-width:0.5041045;stroke-linecap:round;stroke-linejoin:round;stroke-miterlimit:10;stroke-dasharray:none;stroke-opacity:1"
       d="m 9.4394408,282.16405 c 0,0.75727 -0.613897,1.37117 -1.371164,1.37117 -0.75727,0 -1.371167,-0.6139 -1.371167,-1.37117 0,-0.75728 0.613897,-1.37118 1.371167,-1.37118 0.757267,0 1.371164,0.6139 1.371164,1.37118 z" />
    <path
       inkscape:connector-curvature="0"
       id="path24440-5-9"
       style="fill:#ffffff;fill-opacity:1;fill-rule:evenodd;stroke:#000000;stroke-width:0.04032835;stroke-linecap:square;stroke-linejoin:bevel;stroke-miterlimit:10;stroke-dasharray:none;stroke-opacity:1"
       d="m 9.0361538,282.16405 c 0,0.53454 -0.433339,0.96788 -0.967877,0.96788 -0.534548,0 -0.967878,-0.43334 -0.967878,-0.96788 0,-0.53455 0.43333,-0.96789 0.967878,-0.96789 0.534538,0 0.967877,0.43334 0.967877,0.96789 z" />
    <path
       inkscape:connector-curvature="0"
       id="path24442-3-9"
       style="fill:#000000;fill-opacity:1;fill-rule:evenodd;stroke:#000000;stroke-width:0.5041045;stroke-linecap:round;stroke-linejoin:round;stroke-miterlimit:10;stroke-dasharray:none;stroke-opacity:1"
       d="m 9.4394408,287.00348 c 0,0.75727 -0.613897,1.37117 -1.371164,1.37117 -0.75727,0 -1.371167,-0.6139 -1.371167,-1.37117 0,-0.75729 0.613897,-1.37119 1.371167,-1.37119 0.757267,0 1.371164,0.6139 1.371164,1.37119 z" />
    <path
       inkscape:connector-curvature="0"
       id="path24444-4-6"
       style="fill:#ffffff;fill-opacity:1;fill-rule:evenodd;stroke:#000000;stroke-width:0.04032835;stroke-linecap:square;stroke-linejoin:bevel;stroke-miterlimit:10;stroke-dasharray:none;stroke-opacity:1"
       d="m 9.0361538,287.00348 c 0,0.53455 -0.433339,0.96788 -0.967877,0.96788 -0.534548,0 -0.967878,-0.43333 -0.967878,-0.96788 0,-0.53455 0.43333,-0.9679 0.967878,-0.9679 0.534538,0 0.967877,0.43335 0.967877,0.9679 z" />
    <path
       inkscape:connector-curvature="0"
       id="path24446-3-7"
       style="fill:#000000;fill-opacity:1;fill-rule:evenodd;stroke:#000000;stroke-width:0.5041045;stroke-linecap:round;stroke-linejoin:round;stroke-miterlimit:10;stroke-dasharray:none;stroke-opacity:1"
       d="m 9.4394408,291.80256 c 0,0.75729 -0.613897,1.37118 -1.371164,1.37118 -0.75727,0 -1.371167,-0.61389 -1.371167,-1.37118 0,-0.75727 0.613897,-1.37115 1.371167,-1.37115 0.757267,0 1.371164,0.61388 1.371164,1.37115 z" />
    <path
       inkscape:connector-curvature="0"
       id="path24448-3-1"
       style="fill:#ffffff;fill-opacity:1;fill-rule:evenodd;stroke:#000000;stroke-width:0.04032835;stroke-linecap:square;stroke-linejoin:bevel;stroke-miterlimit:10;stroke-dasharray:none;stroke-opacity:1"
       d="m 9.0361538,291.80256 c 0,0.53455 -0.433339,0.96788 -0.967877,0.96788 -0.534548,0 -0.967878,-0.43333 -0.967878,-0.96788 0,-0.53454 0.43333,-0.96788 0.967878,-0.96788 0.534538,0 0.967877,0.43334 0.967877,0.96788 z" />
    <path
       inkscape:connector-curvature="0"
       id="path24506-9-4"
       style="fill:#000000;fill-opacity:1;fill-rule:evenodd;stroke:#000000;stroke-width:0.5041045;stroke-linecap:round;stroke-linejoin:round;stroke-miterlimit:10;stroke-dasharray:none;stroke-opacity:1"
       d="m 62.632347,282.16405 c 0,0.75727 -0.61388,1.37117 -1.37115,1.37117 -0.75728,0 -1.37116,-0.6139 -1.37116,-1.37117 0,-0.75728 0.61388,-1.37118 1.37116,-1.37118 0.75727,0 1.37115,0.6139 1.37115,1.37118 z" />
    <path
       inkscape:connector-curvature="0"
       id="path24508-0-1"
       style="fill:#ffffff;fill-opacity:1;fill-rule:evenodd;stroke:#000000;stroke-width:0.04032835;stroke-linecap:square;stroke-linejoin:bevel;stroke-miterlimit:10;stroke-dasharray:none;stroke-opacity:1"
       d="m 62.229077,282.16405 c 0,0.53454 -0.43334,0.96788 -0.96788,0.96788 -0.53453,0 -0.96787,-0.43334 -0.96787,-0.96788 0,-0.53455 0.43334,-0.96789 0.96787,-0.96789 0.53454,0 0.96788,0.43334 0.96788,0.96789 z" />
    <path
       inkscape:connector-curvature="0"
       id="path24514-7-9"
       style="fill:none;stroke:#000000;stroke-width:0.80593419;stroke-linecap:round;stroke-linejoin:round;stroke-miterlimit:10;stroke-dasharray:none;stroke-opacity:1"
       d="M 5.6082478,295.43212 V 278.53448" />
    <path
       inkscape:connector-curvature="0"
       id="path24516-3-8"
       style="fill:none;stroke:#000000;stroke-width:0.80656719;stroke-linecap:round;stroke-linejoin:round;stroke-miterlimit:10;stroke-dasharray:none;stroke-opacity:1"
       d="M 5.6082478,278.53448 H 64.850407" />
    <path
       inkscape:connector-curvature="0"
       id="path24518-3-6"
       style="fill:none;stroke:#000000;stroke-width:0.80593419;stroke-linecap:round;stroke-linejoin:round;stroke-miterlimit:10;stroke-dasharray:none;stroke-opacity:1"
       d="m 64.850407,278.53448 v 16.89764" />
    <path
       style="fill:#808080;fill-opacity:1;stroke:#999999;stroke-width:0.07144788;stroke-linecap:butt;stroke-linejoin:round;stroke-miterlimit:10;stroke-dasharray:none;stroke-opacity:1;paint-order:normal"
       d="m 59.559947,283.85374 -0.55005,-0.5526 v -1.13431 -1.13431 l 0.55261,-0.55006 0.5526,-0.55005 h 1.10023 1.10024 l 0.55261,0.55005 0.55261,0.55006 v 1.13686 1.13686 l -0.55261,0.55006 -0.55261,0.55005 h -1.10281 -1.10278 z m 2.34514,-0.18004 c 0.53031,-0.22094 0.9208,-0.74697 0.99033,-1.33406 0.0888,-0.75028 -0.4124,-1.53177 -1.11665,-1.74092 -0.41884,-0.12441 -0.58201,-0.12441 -1.00085,2e-5 -0.41956,0.12461 -0.90034,0.55716 -1.04748,0.94241 -0.0745,0.19508 -0.0977,0.40977 -0.0808,0.74636 0.0202,0.40138 0.0522,0.5125 0.21189,0.73828 0.50915,0.71973 1.28254,0.96494 2.04349,0.64791 z"
       id="path26664-6"
       inkscape:connector-curvature="0" />
    <path
       style="fill:#808080;fill-opacity:1;stroke:#999999;stroke-width:0.07144788;stroke-linecap:butt;stroke-linejoin:round;stroke-miterlimit:10;stroke-dasharray:none;stroke-opacity:1;paint-order:normal"
       d="m 6.4713728,283.94804 -0.455285,-0.45834 v -1.32337 -1.32337 l 0.458329,-0.45527 0.458337,-0.45528 h 1.099987 1.100009 l 0.552602,0.55005 0.5526062,0.55006 v 1.13686 1.13686 l -0.5526062,0.55006 -0.552602,0.55005 h -1.103059 -1.103053 z m 2.286496,-0.29284 c 0.311969,-0.13661 0.622492,-0.44043 0.801316,-0.7842 0.177762,-0.34175 0.189003,-1.04019 0.02193,-1.36325 -0.206111,-0.39843 -0.394311,-0.59923 -0.73753,-0.78688 -0.282971,-0.15471 -0.41089,-0.18519 -0.781198,-0.18557 -0.377338,-5.2e-4 -0.493847,0.0278 -0.787678,0.19193 -0.778058,0.43454 -1.074364,1.42841 -0.663015,2.22387 0.199765,0.38631 0.670768,0.71892 1.20036,0.84764 0.199669,0.0486 0.67031,-0.0229 0.945909,-0.14347 z"
       id="path26666-4"
       inkscape:connector-curvature="0" />
    <path
       style="fill:#808080;fill-opacity:1;stroke:#999999;stroke-width:0.07144788;stroke-linecap:butt;stroke-linejoin:round;stroke-miterlimit:10;stroke-dasharray:none;stroke-opacity:1;paint-order:normal"
       d="m 6.4713728,288.80005 -0.455285,-0.45834 v -1.355 -1.35498 l 0.426936,-0.42365 0.426913,-0.42364 h 1.131403 1.13141 l 0.552602,0.55005 0.5526062,0.55004 v 1.13688 1.13686 l -0.5526062,0.55006 -0.552602,0.55005 h -1.103059 -1.103053 z m 2.152438,-0.24925 c 0.158329,-0.0473 0.386165,-0.20074 0.584769,-0.39384 1.2552492,-1.22051 -0.02551,-3.2757 -1.688224,-2.70912 -1.182717,0.40298 -1.47441,1.95571 -0.524484,2.79186 0.151851,0.13356 0.369226,0.27286 0.483082,0.30934 0.289508,0.0928 0.837234,0.0935 1.144857,0.002 z"
       id="path26668-2"
       inkscape:connector-curvature="0" />
    <path
       style="fill:#808080;fill-opacity:1;stroke:#999999;stroke-width:0.07144788;stroke-linecap:butt;stroke-linejoin:round;stroke-miterlimit:10;stroke-dasharray:none;stroke-opacity:1;paint-order:normal"
       d="m 6.4713728,293.58905 -0.455285,-0.45832 v -1.3235 -1.32349 l 0.426936,-0.42364 0.426913,-0.42365 h 1.165546 1.165552 l 0.51846,0.52119 0.5184632,0.52117 v 1.13423 1.13423 l -0.5526062,0.55006 -0.552602,0.55005 h -1.103059 -1.103053 z m 2.286496,-0.29519 c 0.310713,-0.13318 0.621668,-0.4365 0.801316,-0.78183 0.100217,-0.19262 0.136037,-0.37597 0.137561,-0.70335 0.0021,-0.37885 -0.0257,-0.49265 -0.19053,-0.78767 -0.32624,-0.58415 -0.986052,-0.93301 -1.622508,-0.85789 -1.1324,0.13375 -1.80389,1.41368 -1.272511,2.42564 0.103076,0.19643 0.509069,0.59298 0.715312,0.6988 0.38883,0.1995 0.974321,0.20209 1.431316,0.006 z"
       id="path26670-2"
       inkscape:connector-curvature="0" />
    <path
       style="opacity:1;fill:#00ff00;fill-opacity:1;stroke:#000000;stroke-width:0.02544114;stroke-linecap:butt;stroke-linejoin:round;stroke-miterlimit:10;stroke-dasharray:none;stroke-opacity:1;paint-order:normal"
       d="m 25.694207,283.86759 -0.5529,-0.55307 v -1.14576 -1.14575 l 0.55307,-0.5529 0.55307,-0.5529 h 3.5407 3.5407 l 0.55289,0.55307 0.5529,0.55307 v 1.13779 1.1378 l -0.56102,0.56086 -0.56103,0.56086 h -3.53274 -3.53274 z m 1.9057,-0.084 c 0.93836,-0.10591 1.58798,-0.96609 1.43063,-1.89433 -0.0659,-0.38868 -0.27938,-0.75236 -0.58424,-0.99527 -0.15777,-0.1257 -0.42844,-0.26186 -0.61565,-0.3097 -0.17138,-0.0438 -0.47766,-0.0585 -0.64864,-0.031 -0.66484,0.10651 -1.18014,0.58078 -1.34382,1.23684 -0.0525,0.2105 -0.049,0.55807 0.008,0.77199 0.0819,0.3085 0.21883,0.54313 0.44835,0.76852 0.26047,0.25578 0.58405,0.41057 0.94723,0.45311 0.15204,0.0178 0.19978,0.0178 0.35831,-10e-5 z m 4.83762,0 c 0.20129,-0.0227 0.35662,-0.068 0.54105,-0.15779 1.00374,-0.48859 1.2279,-1.82273 0.43883,-2.61181 -0.29362,-0.29362 -0.66248,-0.45503 -1.07951,-0.47238 -0.11934,-0.005 -0.24293,-4.5e-4 -0.31827,0.0116 -1.14883,0.18405 -1.74643,1.45802 -1.14968,2.45091 0.28696,0.47746 0.78833,0.76803 1.36867,0.7932 0.0307,0.002 0.12014,-0.005 0.19891,-0.0138 z"
       id="path22629"
       inkscape:connector-curvature="0" />
    <path
       style="opacity:1;fill:#00ff00;fill-opacity:1;stroke:#000000;stroke-width:0.02544114;stroke-linecap:butt;stroke-linejoin:round;stroke-miterlimit:10;stroke-dasharray:none;stroke-opacity:1;paint-order:normal"
       d="m 25.694207,288.70521 -0.5529,-0.55307 v -1.14575 -1.14576 l 0.55307,-0.55289 0.55307,-0.55291 h 3.5407 3.5407 l 0.55289,0.55307 0.5529,0.55307 v 1.1378 1.1378 l -0.56102,0.56085 -0.56103,0.56086 h -3.53274 -3.53274 z m 2.13124,-0.12309 c 0.48027,-0.12045 0.90107,-0.4774 1.0939,-0.92791 0.10077,-0.23543 0.12838,-0.37787 0.12708,-0.65561 -0.001,-0.21439 -0.007,-0.26747 -0.0435,-0.40579 -0.19171,-0.71977 -0.83673,-1.21736 -1.57804,-1.21736 -0.7642,0 -1.41859,0.52618 -1.59317,1.28102 -0.0353,0.15255 -0.0399,0.50551 -0.009,0.65244 0.11291,0.52899 0.44012,0.94774 0.91411,1.16986 0.33904,0.15888 0.72182,0.19523 1.08819,0.10335 z m 4.83763,-3e-4 c 0.17763,-0.0449 0.41129,-0.15186 0.55332,-0.25331 0.14096,-0.1007 0.34107,-0.31693 0.4359,-0.47102 0.42733,-0.69438 0.27043,-1.61261 -0.36217,-2.11967 -0.47236,-0.37861 -1.10437,-0.46709 -1.6661,-0.23324 -0.37147,0.15465 -0.72212,0.51343 -0.8709,0.89112 -0.20027,0.50841 -0.13883,1.07601 0.16539,1.52776 0.0877,0.13024 0.29682,0.33935 0.42706,0.42706 0.38639,0.2602 0.86831,0.34481 1.3175,0.2313 z"
       id="path22631"
       inkscape:connector-curvature="0" />
    <text
       xml:space="preserve"
       style="font-style:normal;font-weight:normal;font-size:4.23333311px;line-height:1.25;font-family:sans-serif;letter-spacing:0px;word-spacing:0px;fill:#000000;fill-opacity:1;stroke:none;stroke-width:0.26458332"
       x="21.433201"
       y="283.47369"
       id="text22635"><tspan
         sodipodi:role="line"
         id="tspan22633"
         x="21.433201"
         y="283.47369"
         style="fill:#000080;stroke-width:0.26458332">1</tspan><tspan
         sodipodi:role="line"
         x="21.433201"
         y="288.76535"
         style="fill:#000080;stroke-width:0.26458332"
         id="tspan22637">2</tspan></text>
    <text
       xml:space="preserve"
       style="font-style:normal;font-weight:normal;font-size:4.23333311px;line-height:1.25;font-family:sans-serif;letter-spacing:0px;word-spacing:0px;fill:#000000;fill-opacity:1;stroke:none;stroke-width:0.26458332"
       x="35.529346"
       y="283.50482"
       id="text22635-8"><tspan
         sodipodi:role="line"
         x="35.529346"
         y="283.50482"
         style="fill:#000080;stroke-width:0.26458332"
         id="tspan22637-4">3</tspan><tspan
         sodipodi:role="line"
         x="35.529346"
         y="288.79648"
         style="fill:#000080;stroke-width:0.26458332"
         id="tspan22662">4</tspan></text>
  </g>
</svg>
