<?xml version="1.0" encoding="UTF-8" standalone="no"?>
<!-- Created with Inkscape (http://www.inkscape.org/) -->

<svg
   xmlns:dc="http://purl.org/dc/elements/1.1/"
   xmlns:cc="http://creativecommons.org/ns#"
   xmlns:rdf="http://www.w3.org/1999/02/22-rdf-syntax-ns#"
   xmlns:svg="http://www.w3.org/2000/svg"
   xmlns="http://www.w3.org/2000/svg"
   xmlns:sodipodi="http://sodipodi.sourceforge.net/DTD/sodipodi-0.dtd"
   xmlns:inkscape="http://www.inkscape.org/namespaces/inkscape"
   width="240mm"
   height="120mm"
   viewBox="0 0 240 120"
   version="1.1"
   id="svg8"
   inkscape:version="0.92.1 r15371"
   sodipodi:docname="filteredMarked.svg">
  <defs
     id="defs2">
    <clipPath
       id="clipPath4503"
       clipPathUnits="userSpaceOnUse">
      <path
         inkscape:connector-curvature="0"
         id="path4501"
         d="M 0,7 V 3480 H 6820 V 7 Z" />
    </clipPath>
    <clipPath
       id="clipPath4697"
       clipPathUnits="userSpaceOnUse">
      <path
         inkscape:connector-curvature="0"
         id="path4695"
         d="m 366.668,388.332 h 6323.33 v 2830.84 H 366.668 Z" />
    </clipPath>
    <clipPath
       id="clipPath4707"
       clipPathUnits="userSpaceOnUse">
      <path
         inkscape:connector-curvature="0"
         id="path4705"
         d="M 0,7 H 6820 V 3480 H 0 Z" />
    </clipPath>
  </defs>
  <sodipodi:namedview
     id="base"
     pagecolor="#ffffff"
     bordercolor="#666666"
     borderopacity="1.0"
     inkscape:pageopacity="0.0"
     inkscape:pageshadow="2"
     inkscape:zoom="0.49497475"
     inkscape:cx="682.99384"
     inkscape:cy="658.97074"
     inkscape:document-units="mm"
     inkscape:current-layer="layer1"
     showgrid="false"
     inkscape:window-width="1920"
     inkscape:window-height="1178"
     inkscape:window-x="1358"
     inkscape:window-y="-8"
     inkscape:window-maximized="1" />
  <metadata
     id="metadata5">
    <rdf:RDF>
      <cc:Work
         rdf:about="">
        <dc:format>image/svg+xml</dc:format>
        <dc:type
           rdf:resource="http://purl.org/dc/dcmitype/StillImage" />
        <dc:title></dc:title>
      </cc:Work>
    </rdf:RDF>
  </metadata>
  <g
     inkscape:label="Layer 1"
     inkscape:groupmode="layer"
     id="layer1"
     transform="translate(0,-177)">
    <g
       transform="matrix(0.35277777,0,0,-0.35277777,0,297.24694)"
       inkscape:label="ink_ext_XXXXXX"
       id="g4493">
      <g
         id="g4497"
         transform="scale(0.1)">
        <g
           id="g4499"
           clip-path="url(#clipPath4503)">
          <path
             d="M 0,7 H 6820 V 3480 H 0 Z"
             style="fill:#ffffff;fill-opacity:1;fill-rule:nonzero;stroke:none"
             id="path4505"
             inkscape:connector-curvature="0" />
          <path
             d="m 366.668,389.168 h 6322.5 v 2830 h -6322.5 z"
             style="fill:#ffffff;fill-opacity:1;fill-rule:evenodd;stroke:none"
             id="path4507"
             inkscape:connector-curvature="0" />
          <path
             d="M 366.668,389.168 V 3219.17 H 6689.17 V 389.168 H 366.668"
             style="fill:none;stroke:#ffffff;stroke-width:5;stroke-linecap:butt;stroke-linejoin:round;stroke-miterlimit:10;stroke-dasharray:none;stroke-opacity:1"
             id="path4509"
             inkscape:connector-curvature="0" />
          <path
             d="M 366.668,3219.17 H 6689.17"
             style="fill:none;stroke:#000000;stroke-width:5;stroke-linecap:butt;stroke-linejoin:round;stroke-miterlimit:10;stroke-dasharray:none;stroke-opacity:1"
             id="path4511"
             inkscape:connector-curvature="0" />
          <path
             d="M 366.668,389.168 H 6689.17"
             style="fill:none;stroke:#000000;stroke-width:5;stroke-linecap:butt;stroke-linejoin:round;stroke-miterlimit:10;stroke-dasharray:none;stroke-opacity:1"
             id="path4513"
             inkscape:connector-curvature="0" />
          <path
             d="M 6689.17,389.168 V 3219.17"
             style="fill:none;stroke:#000000;stroke-width:5;stroke-linecap:butt;stroke-linejoin:round;stroke-miterlimit:10;stroke-dasharray:none;stroke-opacity:1"
             id="path4515"
             inkscape:connector-curvature="0" />
          <path
             d="M 366.668,389.168 V 3219.17"
             style="fill:none;stroke:#000000;stroke-width:5;stroke-linecap:butt;stroke-linejoin:round;stroke-miterlimit:10;stroke-dasharray:none;stroke-opacity:1"
             id="path4517"
             inkscape:connector-curvature="0" />
          <path
             d="M 366.668,389.168 H 6689.17"
             style="fill:none;stroke:#000000;stroke-width:5;stroke-linecap:butt;stroke-linejoin:round;stroke-miterlimit:10;stroke-dasharray:none;stroke-opacity:1"
             id="path4519"
             inkscape:connector-curvature="0" />
          <path
             d="M 366.668,389.168 V 3219.17"
             style="fill:none;stroke:#000000;stroke-width:5;stroke-linecap:butt;stroke-linejoin:round;stroke-miterlimit:10;stroke-dasharray:none;stroke-opacity:1"
             id="path4521"
             inkscape:connector-curvature="0" />
          <path
             d="M 366.668,389.168 V 452.5"
             style="fill:none;stroke:#000000;stroke-width:5;stroke-linecap:butt;stroke-linejoin:round;stroke-miterlimit:10;stroke-dasharray:none;stroke-opacity:1"
             id="path4523"
             inkscape:connector-curvature="0" />
          <path
             d="m 366.668,3219.17 v -62.5"
             style="fill:none;stroke:#000000;stroke-width:5;stroke-linecap:butt;stroke-linejoin:round;stroke-miterlimit:10;stroke-dasharray:none;stroke-opacity:1"
             id="path4525"
             inkscape:connector-curvature="0" />
          <g
             id="g4527"
             transform="scale(10)">
            <text
               transform="matrix(1,0,0,-1,33.9168,26.8332)"
               style="font-variant:normal;font-weight:normal;font-size:10px;font-family:'Helvetica Neue LT Pro';-inkscape-font-specification:Helvetica;writing-mode:lr-tb;fill:#000000;fill-opacity:1;fill-rule:nonzero;stroke:none"
               id="text4531">
              <tspan
                 x="0"
                 y="0"
                 id="tspan4529">0</tspan>
            </text>
          </g>
          <path
             d="M 1420,389.168 V 452.5"
             style="fill:none;stroke:#000000;stroke-width:5;stroke-linecap:butt;stroke-linejoin:round;stroke-miterlimit:10;stroke-dasharray:none;stroke-opacity:1"
             id="path4533"
             inkscape:connector-curvature="0" />
          <path
             d="m 1420,3219.17 v -62.5"
             style="fill:none;stroke:#000000;stroke-width:5;stroke-linecap:butt;stroke-linejoin:round;stroke-miterlimit:10;stroke-dasharray:none;stroke-opacity:1"
             id="path4535"
             inkscape:connector-curvature="0" />
          <g
             id="g4537"
             transform="scale(10)">
            <text
               transform="matrix(1,0,0,-1,136.5,26.8332)"
               style="font-variant:normal;font-weight:normal;font-size:10px;font-family:'Helvetica Neue LT Pro';-inkscape-font-specification:Helvetica;writing-mode:lr-tb;fill:#000000;fill-opacity:1;fill-rule:nonzero;stroke:none"
               id="text4541">
              <tspan
                 x="0 5.5599999"
                 y="0"
                 sodipodi:role="line"
                 id="tspan4539">50</tspan>
            </text>
          </g>
          <path
             d="M 2474.17,389.168 V 452.5"
             style="fill:none;stroke:#000000;stroke-width:5;stroke-linecap:butt;stroke-linejoin:round;stroke-miterlimit:10;stroke-dasharray:none;stroke-opacity:1"
             id="path4543"
             inkscape:connector-curvature="0" />
          <path
             d="m 2474.17,3219.17 v -62.5"
             style="fill:none;stroke:#000000;stroke-width:5;stroke-linecap:butt;stroke-linejoin:round;stroke-miterlimit:10;stroke-dasharray:none;stroke-opacity:1"
             id="path4545"
             inkscape:connector-curvature="0" />
          <g
             id="g4547"
             transform="scale(10)">
            <text
               transform="matrix(1,0,0,-1,239.083,26.8332)"
               style="font-variant:normal;font-weight:normal;font-size:10px;font-family:'Helvetica Neue LT Pro';-inkscape-font-specification:Helvetica;writing-mode:lr-tb;fill:#000000;fill-opacity:1;fill-rule:nonzero;stroke:none"
               id="text4551">
              <tspan
                 x="0 5.5599999 11.12"
                 y="0"
                 sodipodi:role="line"
                 id="tspan4549">100</tspan>
            </text>
          </g>
          <path
             d="M 3527.5,389.168 V 452.5"
             style="fill:none;stroke:#000000;stroke-width:5;stroke-linecap:butt;stroke-linejoin:round;stroke-miterlimit:10;stroke-dasharray:none;stroke-opacity:1"
             id="path4553"
             inkscape:connector-curvature="0" />
          <path
             d="m 3527.5,3219.17 v -62.5"
             style="fill:none;stroke:#000000;stroke-width:5;stroke-linecap:butt;stroke-linejoin:round;stroke-miterlimit:10;stroke-dasharray:none;stroke-opacity:1"
             id="path4555"
             inkscape:connector-curvature="0" />
          <g
             id="g4557"
             transform="scale(10)">
            <text
               transform="matrix(1,0,0,-1,344.417,26.8332)"
               style="font-variant:normal;font-weight:normal;font-size:10px;font-family:'Helvetica Neue LT Pro';-inkscape-font-specification:Helvetica;writing-mode:lr-tb;fill:#000000;fill-opacity:1;fill-rule:nonzero;stroke:none"
               id="text4561">
              <tspan
                 x="0 5.5599999 11.12"
                 y="0"
                 sodipodi:role="line"
                 id="tspan4559">150</tspan>
            </text>
          </g>
          <path
             d="M 4581.67,389.168 V 452.5"
             style="fill:none;stroke:#000000;stroke-width:5;stroke-linecap:butt;stroke-linejoin:round;stroke-miterlimit:10;stroke-dasharray:none;stroke-opacity:1"
             id="path4563"
             inkscape:connector-curvature="0" />
          <path
             d="m 4581.67,3219.17 v -62.5"
             style="fill:none;stroke:#000000;stroke-width:5;stroke-linecap:butt;stroke-linejoin:round;stroke-miterlimit:10;stroke-dasharray:none;stroke-opacity:1"
             id="path4565"
             inkscape:connector-curvature="0" />
          <g
             id="g4567"
             transform="scale(10)">
            <text
               transform="matrix(1,0,0,-1,449.833,26.8332)"
               style="font-variant:normal;font-weight:normal;font-size:10px;font-family:'Helvetica Neue LT Pro';-inkscape-font-specification:Helvetica;writing-mode:lr-tb;fill:#000000;fill-opacity:1;fill-rule:nonzero;stroke:none"
               id="text4571">
              <tspan
                 x="0 5.5599999 11.12"
                 y="0"
                 sodipodi:role="line"
                 id="tspan4569">200</tspan>
            </text>
          </g>
          <path
             d="M 5635,389.168 V 452.5"
             style="fill:none;stroke:#000000;stroke-width:5;stroke-linecap:butt;stroke-linejoin:round;stroke-miterlimit:10;stroke-dasharray:none;stroke-opacity:1"
             id="path4573"
             inkscape:connector-curvature="0" />
          <path
             d="m 5635,3219.17 v -62.5"
             style="fill:none;stroke:#000000;stroke-width:5;stroke-linecap:butt;stroke-linejoin:round;stroke-miterlimit:10;stroke-dasharray:none;stroke-opacity:1"
             id="path4575"
             inkscape:connector-curvature="0" />
          <g
             id="g4577"
             transform="scale(10)">
            <text
               transform="matrix(1,0,0,-1,555.167,26.8332)"
               style="font-variant:normal;font-weight:normal;font-size:10px;font-family:'Helvetica Neue LT Pro';-inkscape-font-specification:Helvetica;writing-mode:lr-tb;fill:#000000;fill-opacity:1;fill-rule:nonzero;stroke:none"
               id="text4581">
              <tspan
                 x="0 5.5599999 11.12"
                 y="0"
                 sodipodi:role="line"
                 id="tspan4579">250</tspan>
            </text>
          </g>
          <path
             d="M 6689.17,389.168 V 452.5"
             style="fill:none;stroke:#000000;stroke-width:5;stroke-linecap:butt;stroke-linejoin:round;stroke-miterlimit:10;stroke-dasharray:none;stroke-opacity:1"
             id="path4583"
             inkscape:connector-curvature="0" />
          <path
             d="m 6689.17,3219.17 v -62.5"
             style="fill:none;stroke:#000000;stroke-width:5;stroke-linecap:butt;stroke-linejoin:round;stroke-miterlimit:10;stroke-dasharray:none;stroke-opacity:1"
             id="path4585"
             inkscape:connector-curvature="0" />
          <g
             id="g4587"
             transform="scale(10)">
            <text
               transform="matrix(1,0,0,-1,660.583,26.8332)"
               style="font-variant:normal;font-weight:normal;font-size:10px;font-family:'Helvetica Neue LT Pro';-inkscape-font-specification:Helvetica;writing-mode:lr-tb;fill:#000000;fill-opacity:1;fill-rule:nonzero;stroke:none"
               id="text4591">
              <tspan
                 x="0 5.5599999 11.12"
                 y="0"
                 sodipodi:role="line"
                 id="tspan4589">300</tspan>
            </text>
          </g>
          <path
             d="m 366.668,389.168 h 62.5"
             style="fill:none;stroke:#000000;stroke-width:5;stroke-linecap:butt;stroke-linejoin:round;stroke-miterlimit:10;stroke-dasharray:none;stroke-opacity:1"
             id="path4593"
             inkscape:connector-curvature="0" />
          <path
             d="m 6689.17,389.168 h -63.34"
             style="fill:none;stroke:#000000;stroke-width:5;stroke-linecap:butt;stroke-linejoin:round;stroke-miterlimit:10;stroke-dasharray:none;stroke-opacity:1"
             id="path4595"
             inkscape:connector-curvature="0" />
          <g
             id="g4597"
             transform="scale(10)">
            <text
               transform="matrix(1,0,0,-1,28.25,35.25)"
               style="font-variant:normal;font-weight:normal;font-size:10px;font-family:'Helvetica Neue LT Pro';-inkscape-font-specification:Helvetica;writing-mode:lr-tb;fill:#000000;fill-opacity:1;fill-rule:nonzero;stroke:none"
               id="text4601">
              <tspan
                 x="0"
                 y="0"
                 id="tspan4599">2</tspan>
            </text>
          </g>
          <path
             d="m 366.668,743.332 h 62.5"
             style="fill:none;stroke:#000000;stroke-width:5;stroke-linecap:butt;stroke-linejoin:round;stroke-miterlimit:10;stroke-dasharray:none;stroke-opacity:1"
             id="path4603"
             inkscape:connector-curvature="0" />
          <path
             d="m 6689.17,743.332 h -63.34"
             style="fill:none;stroke:#000000;stroke-width:5;stroke-linecap:butt;stroke-linejoin:round;stroke-miterlimit:10;stroke-dasharray:none;stroke-opacity:1"
             id="path4605"
             inkscape:connector-curvature="0" />
          <g
             id="g4607"
             transform="scale(10)">
            <text
               transform="matrix(1,0,0,-1,28.25,70.6668)"
               style="font-variant:normal;font-weight:normal;font-size:10px;font-family:'Helvetica Neue LT Pro';-inkscape-font-specification:Helvetica;writing-mode:lr-tb;fill:#000000;fill-opacity:1;fill-rule:nonzero;stroke:none"
               id="text4611">
              <tspan
                 x="0"
                 y="0"
                 id="tspan4609">4</tspan>
            </text>
          </g>
          <path
             d="m 366.668,1096.67 h 62.5"
             style="fill:none;stroke:#000000;stroke-width:5;stroke-linecap:butt;stroke-linejoin:round;stroke-miterlimit:10;stroke-dasharray:none;stroke-opacity:1"
             id="path4613"
             inkscape:connector-curvature="0" />
          <path
             d="m 6689.17,1096.67 h -63.34"
             style="fill:none;stroke:#000000;stroke-width:5;stroke-linecap:butt;stroke-linejoin:round;stroke-miterlimit:10;stroke-dasharray:none;stroke-opacity:1"
             id="path4615"
             inkscape:connector-curvature="0" />
          <g
             id="g4617"
             transform="scale(10)">
            <text
               transform="matrix(1,0,0,-1,28.25,106)"
               style="font-variant:normal;font-weight:normal;font-size:10px;font-family:'Helvetica Neue LT Pro';-inkscape-font-specification:Helvetica;writing-mode:lr-tb;fill:#000000;fill-opacity:1;fill-rule:nonzero;stroke:none"
               id="text4621">
              <tspan
                 x="0"
                 y="0"
                 id="tspan4619">6</tspan>
            </text>
          </g>
          <path
             d="m 366.668,1450.83 h 62.5"
             style="fill:none;stroke:#000000;stroke-width:5;stroke-linecap:butt;stroke-linejoin:round;stroke-miterlimit:10;stroke-dasharray:none;stroke-opacity:1"
             id="path4623"
             inkscape:connector-curvature="0" />
          <path
             d="m 6689.17,1450.83 h -63.34"
             style="fill:none;stroke:#000000;stroke-width:5;stroke-linecap:butt;stroke-linejoin:round;stroke-miterlimit:10;stroke-dasharray:none;stroke-opacity:1"
             id="path4625"
             inkscape:connector-curvature="0" />
          <g
             id="g4627"
             transform="scale(10)">
            <text
               transform="matrix(1,0,0,-1,28.25,141.417)"
               style="font-variant:normal;font-weight:normal;font-size:10px;font-family:'Helvetica Neue LT Pro';-inkscape-font-specification:Helvetica;writing-mode:lr-tb;fill:#000000;fill-opacity:1;fill-rule:nonzero;stroke:none"
               id="text4631">
              <tspan
                 x="0"
                 y="0"
                 id="tspan4629">8</tspan>
            </text>
          </g>
          <path
             d="m 366.668,1804.17 h 62.5"
             style="fill:none;stroke:#000000;stroke-width:5;stroke-linecap:butt;stroke-linejoin:round;stroke-miterlimit:10;stroke-dasharray:none;stroke-opacity:1"
             id="path4633"
             inkscape:connector-curvature="0" />
          <path
             d="m 6689.17,1804.17 h -63.34"
             style="fill:none;stroke:#000000;stroke-width:5;stroke-linecap:butt;stroke-linejoin:round;stroke-miterlimit:10;stroke-dasharray:none;stroke-opacity:1"
             id="path4635"
             inkscape:connector-curvature="0" />
          <g
             id="g4637"
             transform="scale(10)">
            <text
               transform="matrix(1,0,0,-1,22.6668,176.75)"
               style="font-variant:normal;font-weight:normal;font-size:10px;font-family:'Helvetica Neue LT Pro';-inkscape-font-specification:Helvetica;writing-mode:lr-tb;fill:#000000;fill-opacity:1;fill-rule:nonzero;stroke:none"
               id="text4641">
              <tspan
                 x="0 5.5599999"
                 y="0"
                 sodipodi:role="line"
                 id="tspan4639">10</tspan>
            </text>
          </g>
          <path
             d="m 366.668,2158.33 h 62.5"
             style="fill:none;stroke:#000000;stroke-width:5;stroke-linecap:butt;stroke-linejoin:round;stroke-miterlimit:10;stroke-dasharray:none;stroke-opacity:1"
             id="path4643"
             inkscape:connector-curvature="0" />
          <path
             d="m 6689.17,2158.33 h -63.34"
             style="fill:none;stroke:#000000;stroke-width:5;stroke-linecap:butt;stroke-linejoin:round;stroke-miterlimit:10;stroke-dasharray:none;stroke-opacity:1"
             id="path4645"
             inkscape:connector-curvature="0" />
          <g
             id="g4647"
             transform="scale(10)">
            <text
               transform="matrix(1,0,0,-1,22.6668,212.167)"
               style="font-variant:normal;font-weight:normal;font-size:10px;font-family:'Helvetica Neue LT Pro';-inkscape-font-specification:Helvetica;writing-mode:lr-tb;fill:#000000;fill-opacity:1;fill-rule:nonzero;stroke:none"
               id="text4651">
              <tspan
                 x="0 5.5599999"
                 y="0"
                 sodipodi:role="line"
                 id="tspan4649">12</tspan>
            </text>
          </g>
          <path
             d="m 366.668,2511.67 h 62.5"
             style="fill:none;stroke:#000000;stroke-width:5;stroke-linecap:butt;stroke-linejoin:round;stroke-miterlimit:10;stroke-dasharray:none;stroke-opacity:1"
             id="path4653"
             inkscape:connector-curvature="0" />
          <path
             d="m 6689.17,2511.67 h -63.34"
             style="fill:none;stroke:#000000;stroke-width:5;stroke-linecap:butt;stroke-linejoin:round;stroke-miterlimit:10;stroke-dasharray:none;stroke-opacity:1"
             id="path4655"
             inkscape:connector-curvature="0" />
          <g
             id="g4657"
             transform="scale(10)">
            <text
               transform="matrix(1,0,0,-1,22.6668,247.5)"
               style="font-variant:normal;font-weight:normal;font-size:10px;font-family:'Helvetica Neue LT Pro';-inkscape-font-specification:Helvetica;writing-mode:lr-tb;fill:#000000;fill-opacity:1;fill-rule:nonzero;stroke:none"
               id="text4661">
              <tspan
                 x="0 5.5599999"
                 y="0"
                 sodipodi:role="line"
                 id="tspan4659">14</tspan>
            </text>
          </g>
          <path
             d="m 366.668,2865.83 h 62.5"
             style="fill:none;stroke:#000000;stroke-width:5;stroke-linecap:butt;stroke-linejoin:round;stroke-miterlimit:10;stroke-dasharray:none;stroke-opacity:1"
             id="path4663"
             inkscape:connector-curvature="0" />
          <path
             d="m 6689.17,2865.83 h -63.34"
             style="fill:none;stroke:#000000;stroke-width:5;stroke-linecap:butt;stroke-linejoin:round;stroke-miterlimit:10;stroke-dasharray:none;stroke-opacity:1"
             id="path4665"
             inkscape:connector-curvature="0" />
          <g
             id="g4667"
             transform="scale(10)">
            <text
               transform="matrix(1,0,0,-1,22.6668,282.917)"
               style="font-variant:normal;font-weight:normal;font-size:10px;font-family:'Helvetica Neue LT Pro';-inkscape-font-specification:Helvetica;writing-mode:lr-tb;fill:#000000;fill-opacity:1;fill-rule:nonzero;stroke:none"
               id="text4671">
              <tspan
                 x="0 5.5599999"
                 y="0"
                 sodipodi:role="line"
                 id="tspan4669">16</tspan>
            </text>
          </g>
          <path
             d="m 366.668,3219.17 h 62.5"
             style="fill:none;stroke:#000000;stroke-width:5;stroke-linecap:butt;stroke-linejoin:round;stroke-miterlimit:10;stroke-dasharray:none;stroke-opacity:1"
             id="path4673"
             inkscape:connector-curvature="0" />
          <path
             d="m 6689.17,3219.17 h -63.34"
             style="fill:none;stroke:#000000;stroke-width:5;stroke-linecap:butt;stroke-linejoin:round;stroke-miterlimit:10;stroke-dasharray:none;stroke-opacity:1"
             id="path4675"
             inkscape:connector-curvature="0" />
          <g
             id="g4677"
             transform="scale(10)">
            <text
               transform="matrix(1,0,0,-1,22.6668,318.25)"
               style="font-variant:normal;font-weight:normal;font-size:10px;font-family:'Helvetica Neue LT Pro';-inkscape-font-specification:Helvetica;writing-mode:lr-tb;fill:#000000;fill-opacity:1;fill-rule:nonzero;stroke:none"
               id="text4681">
              <tspan
                 x="0 5.5599999"
                 y="0"
                 sodipodi:role="line"
                 id="tspan4679">18</tspan>
            </text>
          </g>
          <path
             d="M 366.668,3219.17 H 6689.17"
             style="fill:none;stroke:#000000;stroke-width:5;stroke-linecap:butt;stroke-linejoin:round;stroke-miterlimit:10;stroke-dasharray:none;stroke-opacity:1"
             id="path4683"
             inkscape:connector-curvature="0" />
          <path
             d="M 366.668,389.168 H 6689.17"
             style="fill:none;stroke:#000000;stroke-width:5;stroke-linecap:butt;stroke-linejoin:round;stroke-miterlimit:10;stroke-dasharray:none;stroke-opacity:1"
             id="path4685"
             inkscape:connector-curvature="0" />
          <path
             d="M 6689.17,389.168 V 3219.17"
             style="fill:none;stroke:#000000;stroke-width:5;stroke-linecap:butt;stroke-linejoin:round;stroke-miterlimit:10;stroke-dasharray:none;stroke-opacity:1"
             id="path4687"
             inkscape:connector-curvature="0" />
          <path
             d="M 366.668,389.168 V 3219.17"
             style="fill:none;stroke:#000000;stroke-width:5;stroke-linecap:butt;stroke-linejoin:round;stroke-miterlimit:10;stroke-dasharray:none;stroke-opacity:1"
             id="path4689"
             inkscape:connector-curvature="0" />
        </g>
      </g>
      <g
         id="g4691"
         transform="scale(0.1)"
         style="stroke-width:8.50393677;stroke-miterlimit:10;stroke-dasharray:none">
        <g
           id="g4693"
           clip-path="url(#clipPath4697)"
           style="stroke-width:8.50393677;stroke-miterlimit:10;stroke-dasharray:none">
          <path
             d="m 387.5,1981.67 h 63.332 l 20.836,-177.5 H 535 l 20.832,-707.5 20.836,177.5 h 21.664 l 20.836,-177.5 20.832,354.16 21.668,-176.66 20.832,176.66 20.832,-176.66 h 20.836 21.664 20.836 l 20.832,176.66 21.668,-176.66 H 830 h 20.832 20.836 l 21.664,176.66 20.836,-176.66 20.832,176.66 21.668,-176.66 20.832,176.66 20.832,-176.66 h 20.838 21.66 l 20.84,176.66 h 20.83 l 21.67,-176.66 h 20.83 20.83 21.67 l 20.83,176.66 20.84,-176.66 H 1230 l 21.67,-177.5 h 20.83 l 20.83,177.5 H 1315 l 20.83,176.66 20.84,-176.66 h 20.83 21.67 20.83 20.83 l 21.67,176.66 20.83,-176.66 h 20.84 20.83 21.67 20.83 l 20.83,-530.838 h 21.67 20.83 l 20.84,-176.664 h 20.83 21.67 20.83 l 20.83,176.664 h 21.67 l 20.83,-176.664 h 20.84 l 21.66,176.664 h 20.84 20.83 20.83 21.67 L 1925.83,920 1946.67,743.332 h 21.66 L 1989.17,920 H 2010 l 20.83,354.17 21.67,-177.5 L 2073.33,920 2094.17,743.332 2115.83,920 2136.67,743.332 2157.5,920 h 20.83 L 2200,743.332 2220.83,920 h 20.84 L 2263.33,743.332 2284.17,920 2305,743.332 2325.83,920 h 21.67 l 20.83,-176.668 h 20.84 21.66 L 2431.67,920 2452.5,743.332 h 21.67 20.83 20.83 l 20.84,353.338 21.66,-176.67 h 20.84 20.83 l 21.67,-176.668 h 20.83 20.83 20.84 l 21.66,884.168 h 20.84 l 20.83,176.67 h 21.67 20.83 l 20.83,-176.67 h 20.84 l 21.66,176.67 20.84,-176.67 h 20.83 21.67 20.83 20.83 20.84 21.66 l 20.84,-176.67 h 20.83 l 21.67,176.67 20.83,176.67 20.83,-176.67 20.84,-176.67 h 21.66 l 20.84,353.34 20.83,-176.67 21.67,-176.67 20.83,176.67 20.83,-176.67 21.67,176.67 20.83,-884.168 20.84,176.668 h 20.83 21.67 L 3380,743.332 3400.83,920 h 21.67 20.83 l 20.84,176.67 H 3485 l 21.67,-176.67 20.83,176.67 h 20.83 21.67 20.83 L 3611.67,920 h 20.83 L 3654.17,743.332 3675,920 h 20.83 21.67 20.83 20.84 20.83 l 21.67,884.17 20.83,-176.67 20.83,176.67 21.67,177.5 h 20.83 20.84 21.66 20.84 20.83 l 20.83,176.66 21.67,-176.66 20.83,-177.5 h 20.84 l 21.66,-176.67 h 20.84 20.83 20.83 21.67 l 20.83,-176.67 20.84,353.34 21.66,-176.67 h 20.84 L 4265,920 l 20.83,176.67 h 21.67 l 20.83,-176.67 20.84,176.67 h 21.66 L 4391.67,920 h 20.83 l 20.83,176.67 21.67,177.5 h 20.83 l 20.84,-177.5 h 21.66 20.84 20.83 L 4581.67,920 4602.5,1096.67 4623.33,920 h 20.84 l 21.66,176.67 20.84,-176.67 h 20.83 21.67 20.83 20.83 20.84 l 21.66,176.67 h 20.84 20.83 L 4876.67,920 4897.5,743.332 4918.33,920 l 20.84,176.67 21.66,177.5 20.84,-177.5 h 20.83 L 5024.17,920 5045,1096.67 h 20.83 l 20.84,1061.66 21.66,176.67 20.84,-884.17 20.83,176.67 21.67,354.17 20.83,176.66 20.83,-176.66 h 20.84 l 21.66,353.33 20.84,-176.67 h 20.83 L 5319.17,2335 H 5340 l 20.83,-176.67 21.67,176.67 20.83,354.17 20.84,-177.5 L 5445,2335 h 21.67 20.83 20.83 21.67 l 20.83,-353.33 h 20.84 20.83 l 21.67,176.66 20.83,-707.5 h 20.83 21.67 20.83 l 20.84,884.17 20.83,-176.67 21.67,-176.66 20.83,353.33 h 20.83 l 21.67,530.83 h 20.83 l 20.84,-1591.66 h 20.83 21.67 20.83 l 20.83,-177.5 h 21.67 20.83 20.84 21.66 20.84 20.83 20.83 l 21.67,177.5 20.83,-177.5 h 20.84 l 21.66,177.5 h 20.84 20.83 20.83 21.67 l 20.83,176.66 20.84,-176.66 h 21.66 l 20.84,-177.5 h 20.83 20.83 L 6415,3042.5"
             style="fill:none;stroke:#0072bd;stroke-width:8.50393677;stroke-linecap:butt;stroke-linejoin:round;stroke-miterlimit:10;stroke-dasharray:none;stroke-opacity:1"
             id="path4699"
             inkscape:connector-curvature="0" />
        </g>
      </g>
      <g
         id="g4701"
         transform="scale(0.1)">
        <g
           id="g4703"
           clip-path="url(#clipPath4707)">
          <g
             id="g4709"
             transform="scale(10)">
            <text
               transform="matrix(1,0,0,-1,321.583,14.9168)"
               style="font-variant:normal;font-weight:normal;font-size:10px;font-family:'Helvetica Neue LT Pro';-inkscape-font-specification:Helvetica;writing-mode:lr-tb;fill:#000000;fill-opacity:1;fill-rule:nonzero;stroke:none"
               id="text4713">
              <tspan
                 x="0 6.1100001 8.3299999 16.66 22.219999 25 28.33 31.110001 34.439999 40 48.330002 53.889999 58.889999"
                 y="0"
                 sodipodi:role="line"
                 id="tspan4711">Time (frames)</tspan>
            </text>
            <text
               transform="matrix(0,1,1,0,15.8332,109.083)"
               style="font-variant:normal;font-weight:normal;font-size:10px;font-family:'Helvetica Neue LT Pro';-inkscape-font-specification:Helvetica;writing-mode:lr-tb;fill:#000000;fill-opacity:1;fill-rule:nonzero;stroke:none"
               id="text4717">
              <tspan
                 x="0 2.78 8.3400002 13.9 19.459999 24.459999 27.24 32.799999 35.580002 38.360001 41.139999 46.700001 52.259998 55.040001 60.040001 62.82 66.150002 71.709999 77.269997 82.830002 88.389999 93.389999 96.169998 98.949997 101.73 105.06 110.62 116.18 121.74 127.3 132.86 137.86"
                 y="0"
                 sodipodi:role="line"
                 id="tspan4715">Index of the strongest frequency</tspan>
            </text>
          </g>
        </g>
      </g>
    </g>
    <rect
       style="opacity:1;fill:#c0ffff;fill-opacity:0.50196078;stroke:#000000;stroke-width:0.30000001;stroke-linecap:butt;stroke-linejoin:round;stroke-miterlimit:10;stroke-dasharray:none;stroke-opacity:1;paint-order:normal"
       id="rect4834"
       width="5.8586907"
       height="99.994896"
       x="12.935232"
       y="183.68178"
       ry="0.22048603" />
    <rect
       style="opacity:1;fill:#ffffc0;fill-opacity:0.50196078;stroke:#000000;stroke-width:0.30000001;stroke-linecap:butt;stroke-linejoin:round;stroke-miterlimit:10;stroke-dasharray:none;stroke-opacity:1;paint-order:normal"
       id="rect4836"
       width="36.749561"
       height="99.861267"
       x="18.793922"
       y="183.68178"
       ry="0.22048603" />
    <rect
       style="opacity:1;fill:#c0ffc0;fill-opacity:0.50196078;stroke:#000000;stroke-width:0.30000001;stroke-linecap:butt;stroke-linejoin:round;stroke-miterlimit:10;stroke-dasharray:none;stroke-opacity:1;paint-order:normal"
       id="rect4838"
       width="39.689522"
       height="99.727623"
       x="55.543484"
       y="183.68178"
       ry="0.22048603" />
    <rect
       style="opacity:1;fill:#c0c0ff;fill-opacity:0.50196078;stroke:#000000;stroke-width:0.30000001;stroke-linecap:butt;stroke-linejoin:round;stroke-miterlimit:10;stroke-dasharray:none;stroke-opacity:1;paint-order:normal"
       id="rect4836-0"
       width="20.579756"
       height="99.861267"
       x="95.233009"
       y="183.68178"
       ry="0.22048603" />
    <rect
       style="opacity:1;fill:#c0ffc0;fill-opacity:0.50196078;stroke:#000000;stroke-width:0.30000001;stroke-linecap:butt;stroke-linejoin:round;stroke-miterlimit:10;stroke-dasharray:none;stroke-opacity:1;paint-order:normal"
       id="rect4838-0"
       width="17.372517"
       height="99.727623"
       x="115.81277"
       y="183.68178"
       ry="0.22048603" />
    <rect
       style="opacity:1;fill:#c0c0ff;fill-opacity:0.50196078;stroke:#000000;stroke-width:0.30000001;stroke-linecap:butt;stroke-linejoin:round;stroke-miterlimit:10;stroke-dasharray:none;stroke-opacity:1;paint-order:normal"
       id="rect4836-0-7"
       width="17.17207"
       height="99.861267"
       x="133.18529"
       y="183.68178"
       ry="0.22048603" />
    <rect
       style="opacity:1;fill:#c0ffc0;fill-opacity:0.50196078;stroke:#000000;stroke-width:0.30000001;stroke-linecap:butt;stroke-linejoin:round;stroke-miterlimit:10;stroke-dasharray:none;stroke-opacity:1;paint-order:normal"
       id="rect4838-0-7"
       width="28.239332"
       height="99.727623"
       x="150.35736"
       y="183.68178"
       ry="0.22048603" />
    <rect
       style="opacity:1;fill:#c0c0ff;fill-opacity:0.50196078;stroke:#000000;stroke-width:0.30000001;stroke-linecap:butt;stroke-linejoin:round;stroke-miterlimit:10;stroke-dasharray:none;stroke-opacity:1;paint-order:normal"
       id="rect4836-0-7-8"
       width="28.263756"
       height="99.861267"
       x="178.59669"
       y="183.54814"
       ry="0.22048603" />
    <rect
       style="opacity:1;fill:#c0ffc0;fill-opacity:0.50196078;stroke:#000000;stroke-width:0.30000001;stroke-linecap:butt;stroke-linejoin:round;stroke-miterlimit:10;stroke-dasharray:none;stroke-opacity:1;paint-order:normal"
       id="rect4838-0-7-8"
       width="17.467012"
       height="99.727623"
       x="206.86046"
       y="183.54814"
       ry="0.22048603" />
  </g>
</svg>
