<?xml version="1.0" encoding="utf-8"?>
<!-- Generator: Adobe Illustrator 18.0.0, SVG Export Plug-In . SVG Version: 6.00 Build 0)  -->
<!DOCTYPE svg PUBLIC "-//W3C//DTD SVG 1.1//EN" "http://www.w3.org/Graphics/SVG/1.1/DTD/svg11.dtd">
<svg version="1.1" id="Слой_2" xmlns="http://www.w3.org/2000/svg" xmlns:xlink="http://www.w3.org/1999/xlink" x="0px" y="0px"
	 viewBox="0 48 1590 1094" enable-background="new 0 48 1590 1094" xml:space="preserve">
<path fill="none" stroke="#000000" stroke-width="2" stroke-miterlimit="10" d="M1550.5,719.1c-4.6-4.1-9.4-8.6-12.2-14
	c-2.7-5-7.2-12.3-7.6-17.6c5,11.9,22.5,18.5,32.3,25c-11.9-12.2-20.4-22.9-25.8-38.7c6.8,8.9,13.6,18.8,20.8,28
	c4.4,5.6,15.8,20.3,23.1,20.9c-16.2-10.6-23.3-31.8-31.7-48c-8.6-16.7-21.7-29.9-29.5-46.8c3.8,3.3,6.2,9,9.1,13
	c3.3,4.5,7.8,8,11.3,12.2c6.4,8,14,15.4,17.5,24.9c-0.8-2-1.6-4-2.5-6.1c-6.6-15-15.1-29.3-24-43.5c-8.3-13.2-14.2-28.1-21.5-41.6
	c-7.6-14-15.8-28.2-22.4-42.8c-6.2-13.6-10.1-28-17.1-41.3c4.2,3.3,7.2,7.6,9.4,12.2c-0.7-2.4-1.5-4.8-2.4-6.8
	c7.4,7.2,14,20,17,29.8c4,12.6,11.8,22.7,17.2,34.5c4.8,10.5,8.5,22.5,17,31.7c5.7,6.1,13.4,11.8,20,17.4c3.4,2.9,8.9,8.1,13.5,7.8
	c-6.9-8.6-16-16-23.5-24.1c-7.2-7.7-13.1-16-18.2-25.6c-4.8-9.3-7.7-18.6-10.6-28.1c-2-6.5-5-15.1-8.9-21.9c2.8,4.4,5.4,8.9,8.6,13
	c2.5,3.3,8.7,16.3,12.9,15.9c-8.7-12.6-14.7-27.7-22.8-40.5c-5.6-8.9-14-16-21.5-23.6c-0.3-0.3-0.4-0.4-0.7-0.7
	c6.2,5.4,13,10.5,19.5,15.4c6.9,5.2,13.5,11.3,21.1,15.1c6.9,3.6,15.9,12.2,23.3,13.5c-4.8-7.4-15.5-11.4-22.4-17
	c-8-6.5-16-12.9-23.7-19.9c-13.8-12.9-30.7-27.3-37-45.7c3.6,8.3,13,15,20.7,22.1c7,6.6,14.3,16.2,22.8,20.4
	c-5.6-10.5-17-17.8-24.1-27c-9.8-12.7-18.4-24.4-24-39.9c-5.2-14.4-36.7-97.1-39.8-104.1c-2.6-6-8.9-11.5-10.7-17.8
	c4.8,5,10.5,9.3,15.2,14.4c5.3,5.7,7.9,12.5,11.1,19.3c-6.2-16.7-13.2-30.6-26.1-43.5c-5.2-5.2-11-8.9-15.8-14.2
	c-2.7-3-4.9-6.5-7.7-9.3c-2.8-2.8-6.6-4-9-7c12.5,0,24.2,14.7,33.1,21.7c-3.2-7.7-13-13.5-19.6-18.2c-8.5-6-16-10.3-25.6-14.3
	c-17.9-7.6-40.1-7.9-59.9-6.4c-28.2,2.4-58.7,10.1-84,23.9c-10.5,5.7-54.2,30.3-70.8,41.2c-51.5-24.2-108.9-25.8-120.4-27.8
	c-14.6-2.5-112.2,1.3-119.5,1.9c-8.3,0.7-180.1,1.5-187.6,0.9c-25.3-1.9-30.2-10.6-36.3-13.4c-4.9-2.3-10.2-6.4-14.2-10.1
	c9.3,2.6,16.2,4.9,25.8,4.1c-2.4-1.5-7.6-0.8-10.7-1.6c-4-0.9-7.9-1.7-11.8-2.9c-7.6-2.4-13.6-7.6-20.5-11.4
	c11.5,0.9,25.3,8.6,37.5,4.4c-9.4-2.6-19.6-3.2-28.8-7.9c-9.4-4.9-18-10.9-27.2-15.9c-5.2-2.8-11-6-16.6-7.7
	c-5-1.6-10.2-1.2-15.2-2.9c-4.6-1.6-9.1-4.4-13.8-6.1c-4-1.5-8.9-2.1-11.5-5.6c7.4,3,20,2.4,27.7,0.8c-5.8-0.7-12.5-3.3-17.9-5.4
	c-4.8-1.9-8.5-5.7-12.6-7.9c2.7-0.7,5,0.7,7.8,0.8c-2.5-2.5-7.2-5.8-8.9-6.5c2.1,1.1,4.6,1.2,7.3,1.2c5.3,4.4,10.9,8.2,15.5,7.8
	c-7.6-10.6-20.9-12.7-27-25c3.6-0.5,7.2,2.3,10.5-0.3c-6.5-0.3-13.8-7.4-18.9-11.5c-5.7-4.6-11.8-9.3-18.7-12.2c-7-3-16-4-23.7-5.4
	c-7-1.3-19.2,0.7-25-3.4c12.5-6.1,32.6,2.5,44.1,6.4c6.9,2.3,13.8,4,20.8,4.5c7.8,0.7,13.4-1.7,20.5-2.8c-6.2,0-9,0.1-15.1-1.9
	c-5.6-1.7-11.5-3.2-17.2-5.7c-4.9-2.1-9.4-4.1-14.3-6.4c-4.5-2.1-8.2-5.6-12.9-8.2c2.5-4.1,8.2,3.2,12.3,0.3
	c-7.3,0.1-10.9-2.5-16.6-7c4.6-2.9,11.3,0.5,16.6-2c-11.1-2-17.8-7.4-27.8-12.7c-4.9-2.5-9.3-4.5-14.4-5.4
	c-4.2-0.8-11.5-0.7-15.1-2.8c5.3-4.9,21.1,1.5,23.1-2.5c-4.1-0.5-7.6-3-11.7-3.8c-3.4-0.7-6.6,0.8-9.9-1.1c4.1-2.3,7.6-6.4,11.4-9.8
	c-4.6,0.1-7.3,0.4-12.1-0.7c1.2-0.5,2.8-1.9,4.1-2.3c-2-3-16.4-2.7-20.5-3.6c-6.4-1.6-12.5-4.2-19.1-6.4c-0.1-1.9,0.1-3.6,0.7-5.2
	c-8.2-2.4-17-3.2-25.2-5.8c1.3-0.9,3.4-2.4,4.4-4.1c-4.6-0.5-11.7,2.1-15.2,0c1.1-0.7,2.1-1.6,3.2-2.1c-5.7,2.3-12.6,0-18.7,0
	c-6.5,0-13.1-0.1-19.6,0c1.5-1.5,3-2.3,4.8-2.8c-9,0.3-16.6,1.1-25,2.8c-6.6,1.3-14.2,2-20.7,4.4c0.8-0.9,1.5-2.5,2.3-3.6
	c-8.1,2.9-16.7,4.1-25,5.4c-7.3,1.2-17,4.8-24.4,4.4c0.3-0.3,0.9-1.2,1.5-1.7c-5.4,0.1-10.2,1.3-15.6,0.8c0.8-0.9,1.5-2.7,2.3-3.3
	c-7.2,3.2-16.6,5.3-24.2,6.9c1.1-1.2,2.3-2.8,3.2-4.2c-9.5,1.2-19.6,5.7-29.5,8.7c-8.9,2.8-20.1,6.9-29.5,6.6c1.3-1.3,2.3-2.3,4-2.8
	c-6.6-1.2-16.8,2.5-23.2,3.7c-6.5,1.2-12.5,3.4-17.9,7.4c-5.4,3.8-11.4,8.3-15.8,13.4c-3.6,4.4-10.2,17.8-16.7,13.1
	c6.9-11.1,20.5-16.2,27.6-27c-2.3,1.6-5.4,2.4-7.9,3.4c-3.4,1.6-6.1,3.4-9.3,5.3c-5.3,3-22.8,17.6-27.8,21.1
	c-3.7,2.4-9.1,9.8-13.4,9.8c-3.3-8.5-21.3-20.8-29.9-15.1c-1.2,4.4,2,8.9,1.6,13.4c-0.3,4.5-1.5,8.2-1.9,12.7
	c-0.4,4.6,1.2,7.8,1.7,11.8c0.7,4.1-0.7,6.8-2.7,10.9l-1.9,5.4c0.1,5.8-3.8,14.4-5.7,19.9c-2.3,7-4.4,12.7-5.4,19.7
	c-0.9,6.5,1.2,12.5-1.9,18.9c-2.5,5.4-6.1,10.3-8.9,15.6c-6.8,12.9-0.3,21.6,1.7,35.4s-0.7,33.1-1.7,47
	c-1.1,13.1-20.9,64.1-23.6,77.9c-0.9,6-3.4,13-3.4,18.9c0,5.8,4.6,10.9,6.4,16.3c2.1,6.4,4.5,11,9.7,15.6c4.4,3.8,6.9,8.2,11.1,12.5
	c7.7,7.6,16.7,7.9,27,7.2c-0.4-1.5,0.1-1.7-0.8-3.2c9.5,9.4,28.5,6,35.4-4.9c3.8-6.1,4.8-9.9,5.4-17.2c0.7-7.2,1.3-13.9,6.4-18.8
	c9.1-9.1,17-18.2,27.3-25.3c11.8-8.1,19.9-19.5,26.1-31.9c3.3-6.6,6.2-13.4,11.9-17.9c6.2-4.9,11.4-8.2,16.2-14.7
	c8.9-12.2,16.7-27.6,17.4-42.4c11.1,3,77.4,66.5,87.1,76.7c8.9,9.3,2.4,27.3,4.2,39.2c2.1,13,5.2,27.3,10.9,39.9
	c5.2,11.4,12.6,21.7,19.9,31.7c2.8,3.8,9.9,9.9,9.8,14.7c-0.1,5.6-9.1,13.9-13.4,16.3c-11.1,6.2-60,21.6-73.4,24.1
	c-12.3,2.4-28.6,2.5-39.6,9.3c-11.4,7-20.3,17.2-26.8,28.5c-7,12.3-1.2,28.8-2.5,42.8c-1.2,13.6-4.4,27.3-6.4,40.8
	c-1.9,13.2-3.6,27.3-6.6,40.7c-2.9,12.6-5.7,29,7.3,36.4c10.6,6,17.6,13.2,25.3,22.7c4,4.9,7.8,9.7,11.8,14.4
	c5,6.1,42.1,26.8,48,29.5c3.3-2,10.2-0.9,10.3-1.5c15.1-7,18.3-28.2,13.4-42.7c-2.5-7.4-6.2-16.7-12.5-22
	c-4.8-4.1-15.4-7.7-18.3-13.1c8.6-5.3-0.7-9.3-5.6-10.9c-5.4-1.9-9.5-5.3-14.2-8.6c-11.4-8.2-14.6-21.3-15.6-34.2
	c-1.2-14,0.8-29.8,4.5-42.5c1.9-6.4,4.2-11.3,7.9-16.6c2.6-3.8,7.7-12.6,11.8-14.6c3.6-1.7,21.6-4.4,25.3-6.1
	c-14.4,6.2,4.2,22.1,5.8,30.9c1.2,6.8,6.9,33.7,8.1,40.8c2.4,14.8,2.8,29.9,2.8,45.3c0,6.9,0.1,14.7,3.4,20.8
	c3.3,6.2,10.7,7.2,16.7,8.9c12.3,3.3,15.6,1.7,27.8,4.8c6.9,1.7,21.5,12.5,27.8,15.6c2.3,1.1,4.2,3.6,6.6,4.2
	c3.3,1.1,25.2,2.4,32.6,3.7c6.4,1.1,13.9,3.7,15.4-4.5c2.4-12.9-6.4-29.9-12.5-40.9c-1.6-2.9-3.2-5.3-6-6.8
	c-3.2-1.7-6.4-0.8-9.5-3.2c-1.9-1.3-3-4.4-4.9-6.1c-3.2-3-5-2.5-8.9-3.8c-11.9-3.8-25-8.2-35.5-15.9c-6.2-4.6-16.8-25.4-18.8-31
	c-4.2-11.8-5.6-28.1-3.6-40.8c1.2-7.9,3.8-11.9,9.3-18c5.3,2.9,79.9,1.3,87.6,2.6c7.2,1.2,13.4,3.4,20.8,1.6
	c6.8-1.7,11.4-6.5,18.2-3.7c58,23.8,203.7,30.9,218.4,32.2c15.1,1.2,31,1.1,46.2-0.3c12.7-1.1,66.4-11.7,70.6-12.9
	c6.9-1.9,13.4-3.6,20-5.2c13.9-3.4,27.4-8.1,41.6-11.7c14.8-3.7,74.9-18.2,90.6-21.1c6.4-1.2,20.1-2,20.1-2s10.1,5,15.5,7.2
	c6.1,2.5,15,2.8,21.5,1.2c3.7-0.9,9-3.4,9-3.4s6.2,5.8,8,8.2c7.7,10.2,38.3,64.1,59.8,77c6.2,3.7,46,15.4,56.6,23.1
	c11.8,8.6,23.2,15.1,30.3,28.5c7,13,15.8,24.1,24.4,36c17.2,23.8,33.9,46.5,48.2,72.5c6.9,12.5,18.8,19.9,22.5,33.5
	c1.7,6.8,3.6,13.5,5.8,19.9s22,86.7,23.3,99.6c1.6,15,2.7,27.6,7.4,41.5c2.4,6.9,3.4,13.4,3.4,21.1c0,7.3-2.1,14.4-0.9,21.7
	c0.3,1.7,1.9,2.7,1.9,4.5c0,2.1-1.5,2.4-1.6,3.8c-0.7,3.7,0.3,6.8,1.5,10.1c2.1,6,5,11,6.6,17c3.3,12.5,8.1,24.5,11.9,37.1
	c8.6-5.2,15.1-15.9,20.4-24.4c6-9.3,13.5-18.9,17.6-29c2.3-5.3,5.3-12.9,3.4-19.1c-1.6-5.4-8.1-5.8-12.5-8.3
	c-6.5-3.7-6.8-7.4-2.3-13.4c2.9-3.7,6.1-9.9,10.7-11.8c-3-2.1-4-5.4-3.2-8.9c3.3,0.3,8.1-0.5,8.9-3.7c0.8-3-2.8-6.2-2.8-9.1
	c0-1.5,2-1.7,1.9-3.6c0-1.5-1.9-3.2-1.7-4.6c0.4-2.4,2.9-3.8,3.3-6.1c-4.5-0.9-14.3-4.4-12.5-10.9c0.5-0.1,1.1-0.3,1.6-0.4
	c-2-3.4-5-7.9-7.8-10.9c-19.2-21.5-23.1-66.5-25.6-82.3c-2.3-14.3-16-82.8-14.4-89.4c6.8-1.3,11.3,7.6,15.5,11.4
	c19.1,17.4,28.9,44.8,37.6,68.1c9.4,25,20.3,51.1,26.5,77c3.2,13.1,10.9,24,17,36.3c6.1,12.2,9.7,23.9,13.8,36.3
	c2,6.1,3.6,15.1,7.9,19.9c4.6,5.2,10.6,5.3,14.8,9.9c4.9,5.3,14.7,29.5,23.2,28c1.3-4.2,19.1-43.1,20.1-48.8
	c1.9-9.5-5.2-29-13.8-34.2c-6.1-3.6-12.9-0.9-18.2-7.3c-5.7-6.9-1.1-10.9,4.8-14c8-4.4,21.7-16.2,23.5-25c-2.9,0.3-18.8-1.9-13-6.5
	c-2.7-0.8-5.4-2.4-5.8-5.3c0.8,0,1.7-0.3,2.5-0.4c-4.6-8.2-18.6-6-21.6-16.8c1.2,0.1,3-0.5,4.4-0.4c-3.3-4.4-9.9-6.4-14.2-10.1
	c-5-4.4-8.1-9.9-10.5-16c-4.2-11.1-36.3-100.8-40.5-113.3c-3.8-11.4-7.6-22.8-10.6-34.4c-3.2-11.7-5.8-25.6-16.3-31.9
	c-13-7.8-26.5-15.6-40-22.1c-41.6-20.1-60.4-46.9-68.6-61c-7.2-12.5-5.4-28.8-2.9-42.5c2.5-13.6,12.3-72.6,13.5-88
	c1.2-15.6-6.8-77.2-14.3-90.5c-1.1-1.9-2.1-3.7-3.3-5.4c3.2-9.8,3.2-21.5,3-30.5c5.4,11,6.6,25.3,6.4,38.3
	c3.6-4.8,1.9-16.3,1.9-22.4c0-7.7-2.9-15.1-2.8-22.4c1.6,11,7,20.9,7.9,32.3c0.9,11.5,2,23.2,2.9,34.5c0.5,5.8-0.7,11.8,0.9,17.2
	c1.5,5.4,3.7,10.9,5.7,16.2c3,8.1,7.8,20.4,13.9,26.4c-6.8-14.3-15-25.2-15-41.6c0-12.3-3.3-31.4,1.9-42.3c-0.1,0.5,0,1.1,0.3,1.5
	c3.8,3.8,6.4,15.5,8.2,20.9c2.3,6.6,3.7,12.3,5.4,18.8c3.6,13.4,12.1,25.6,18.2,38.3c6.2,13.1,11.9,22.3,24.1,31.9
	c11,8.9,23.3,13.8,37,14.3c-4.4-1.9-9.4-2.1-14.2-4c-5.3-2.1-10.5-4.8-15.2-8.2c-9.4-6.5-15.9-15.2-21.2-25.2
	c-10.9-20.1-13.5-43.5-14.3-65.9c2.3,3,1.9,11.1,1.9,15.1c0,5.7,0.9,9.5,2.8,14.4c4.4,12.2,11.8,21.7,19.9,31.7
	c9.4,11.5,20.1,20,31.7,29c10.3,8,21.2,16.2,33.4,20.8c-2.7-2.4-7.4-4.2-11-6.2c-5.2-2.8-8.7-6.6-13.4-9.9
	c-8.6-6.2-18.3-14-25.4-22.7c-7.3-8.7-13.8-18.5-19.9-28.1c-4-6.1-8.3-14-8.2-21.5c6.9,19.9,22.8,41.3,39,54.2
	c11.9,9.7,25.7,21.1,40,28.2c5.7,11.4,9.5,23.5,17.4,34.1c8.3,11.3,18.8,20.5,30.3,28.4c11.7,7.8,22.7,17,32.9,26.9
	c9.9,9.7,14.8,21.9,22.8,32.3c-2.5-5.3-2.9-10.7-4.9-15.9c-2.4-6.6-7-11.9-11.5-17.2c-9.8-11.7-22.8-20.3-34.4-29.7
	c-18-14.3-31.3-31.3-37.5-53h0.1c0,0-0.1,0-0.1-0.1c-0.5-1.9-1.1-3.8-1.5-5.8c2.9,4.6,7,9.1,11,13.1c2.9,2.9,6.4,7.2,10.1,9.5
	c3.7,7.8,8.1,15.9,12.6,22.9c-1.2-7.8-4.1-16.3-7.3-23.3c-3.7-8.2-10.3-15.2-9.1-25c4.2,8.9,9.5,17,12.7,26
	c3.3,9.3,6.8,17,14.2,24.6c6.1,6.4,12.3,12.5,18.4,18.6c2.9,2.9,6.5,6.6,9.3,9.9c2.9,3.6,3.7,7.9,5.8,11.4c3.2,4.9,8.1,9.1,11.4,14
	c4.2,6.5,6.8,13,8.6,20.1c3.6,13.2,2,29.3,8.1,41.9c6,12.3,11.4,23.8,22.7,32.6c10.1,8,25.8,19.2,38.8,19.7
	c-14.4-6.4-29.8-10.3-39.4-24.6c-6.1-9.1-26-36.7-15.8-47.7c2.4,10.7,7.4,22.5,13.8,31.7c3.2,4.5,5.2,10.1,8.3,14.3
	c2.3,2.9,6,9.5,8.7,10.7c-5-9.1-10.6-18-15-27.7c-4.9-10.9-8.7-22-13-33.3c10.5,9.1,14.8,22.5,24.6,32.3c9.4,9.4,20.8,19.6,35,19.1
	c-12.5-3.4-33.3-16.3-31.3-31.4c6.8,9,17.2,15.8,26.1,22.1c8.3,6,19.2,12.9,29.8,13c-5.6-0.4-14.6-6.1-18.8-8.3
	C1561.4,728.4,1555.4,723.5,1550.5,719.1z M539.8,187.3c-8.7,0-16.4-0.4-24.5-2.7c-5.3-1.6-17.5-4-20.7-7.9c4.5,0,6.9-1.5,11.7-1.1
	c4.5,0.4,8.3,0.1,12.7,0.9c7.7,1.3,15,5.6,21.3,10.1c-3.3-3.7-7.6-6.8-12.1-8.2c12.3,0.1,24.4,3,35.2,8.9c2,1.1,4.4,2.9,7,5.2
	c-2.9-0.7-5.7-1.1-8-1.5C554.9,189.4,548.2,187.3,539.8,187.3z M1220.1,400.1c0.4-5.6,0-11.1-1.1-15.4c-2.3-9.3-9.7-19.3-9.5-28.9
	c5.2,2.8,7.2,8.9,10.7,13.5c3.6,4.6,5,9,5.4,14.4c0.5,7.3-0.3,14.6-1.7,21.7C1222.6,403.6,1221.3,401.8,1220.1,400.1z M1346.9,443
	c4.6,5.8,3.6,10.5,5.4,17c1.6,5.7,4.8,11.5,7,17.2c2.1,5.3,4.2,10.3,7.7,15.2c3.2,4.6,6.1,10.3,9.8,14.3
	c-1.9-6.9-12.5-21.7-8.2-28.4c5,9.5,7.3,20,12.5,29.5c4.5,8.2,11.5,15.1,15.1,23.5c-6-0.9-11.8-2.7-15.9-6
	c-7-5.7-13.4-18.4-17.4-26.5c-4.5-9.1-8.1-18.4-10.7-28.1C1350,462.7,1345.9,451.9,1346.9,443z M1316.1,422.2
	c5.6,8.7,6.2,22.3,9.3,32.1c3.3,10.7,9,21.1,12.7,31.7c0.5,1.6,0.8,3,1.2,4.5c-4.6-6.8-9.5-13.5-13.1-20.7
	C1319.2,456.4,1315.6,437.7,1316.1,422.2z M1329,503.1c-13.9-18.2-25-39.2-29-61.2c3.4,5.2,5.6,15.1,8.9,21.6
	c4.1,8.2,9,15,15.2,21.7c5,5.6,10.6,10.7,16.2,15.8c0.1,0.5,0.1,1.1,0.3,1.5c1.7,4.8,8.9,9.3,12.1,13.2c5.4,6.9,11.1,13.8,15.9,21.2
	C1354.2,527.3,1340.1,517.7,1329,503.1z M1405,562c-1.3-1.5-2.8-2.9-3.7-4.4c-2.9-4-6-7.8-9.3-11.8c-3.3-3.8-6.1-8.6-9.7-12.1
	c-4.4-4.2-8.9-7.3-10.7-13.4c6.8,6.5,15.8,10.6,25.3,11.9C1400.5,542.1,1400.8,552.2,1405,562z M1459.6,472.4
	c3.3,6,7.6,11.1,12.5,16C1466.9,483.7,1461.7,478.5,1459.6,472.4z"/>
</svg>
