<?xml version="1.0" encoding="utf-8"?>
<!-- Svg Vector Icons : http://www.onlinewebfonts.com/icon -->
<!DOCTYPE svg PUBLIC "-//W3C//DTD SVG 1.1//EN" "http://www.w3.org/Graphics/SVG/1.1/DTD/svg11.dtd">
<svg version="1.1" xmlns="http://www.w3.org/2000/svg" xmlns:xlink="http://www.w3.org/1999/xlink" x="0px" y="0px" viewBox="0 0 1000 1000" enable-background="new 0 0 1000 1000" xml:space="preserve">
<metadata> Svg Vector Icons : http://www.onlinewebfonts.com/icon </metadata>
<g><g transform="translate(0.000000,512.000000) scale(0.100000,-0.100000)"><path d="M2275.7,5015.4c-398.5-51.7-779.9-193.5-1111.3-415.8c-183.9-122.6-523.1-461.8-645.7-645.7c-182-272.1-312.3-578.7-381.3-900.6c-49.8-228-49.8-730,0-958.1c138-636.2,507.8-1191.8,1038.5-1552.1c264.4-180.1,352.6-291.3,352.6-444.6c0-122.6-70.9-205-318.1-375.5C641.3-664,279.1-1198.6,137.4-1852c-49.8-228-49.8-730,0-958.1c69-321.9,199.3-628.5,381.3-900.6c122.6-183.9,461.8-523.1,645.7-645.7c846.9-567.2,1918-567.2,2759.2,0c189.7,128.4,444.6,377.5,617,603.6c337.2,438.8,580.6,440.7,910.2,1.9c398.5-525,902.5-854.6,1519.5-986.8c228-49.8,730-49.8,958.1,0c492.4,105.4,892.9,323.8,1247.4,680.2c356.4,354.5,574.8,754.9,680.2,1247.4c49.8,228,49.8,730.1,0,958.1c-101.6,471.4-316.2,875.7-643.8,1214.8c-95.8,99.6-226.1,216.5-291.3,262.5c-189.7,136-239.5,185.8-291.3,289.3c-70.9,139.9-67.1,262.5,9.6,415.8c32.6,65.1,86.2,139.9,118.8,164.8c34.5,24.9,113.1,84.3,176.3,132.2c159,116.9,423.5,394.7,540.4,567.2c567.2,841.2,567.2,1912.3,0,2759.2c-122.6,184-461.8,523.1-645.7,645.7c-272.1,182-578.7,312.3-900.6,381.3c-228,49.8-730,49.8-958.1,0c-601.7-130.3-1097.9-444.5-1492.7-944.7c-160.9-205-383.2-302.7-584.4-256.7c-153.3,34.5-256.8,111.1-431.1,320c-390.9,471.4-827.8,741.5-1400.7,871.8C2902.3,5007.7,2427.1,5034.5,2275.7,5015.4z M3105.4,4616.8c199.3-51.7,525-195.4,676.4-300.8c297-205,557.6-505.9,716.6-829.7c297-603.6,300.8-1274.2,11.5-1879.7c-80.5-166.7-266.3-450.3-295.1-450.3c-7.7,0-143.7,130.3-300.8,289.3c-159,159-469.4,461.8-693.6,672.6l-406.2,383.2l126.5,128.4c231.8,233.8,534.6,643.8,733.9,994.5c86.2,153.3,99.6,187.8,90.1,247.2c-7.7,38.3-28.7,88.1-49.8,109.2c-38.3,38.3-38.3,38.3-141.8-32.6c-113.1-78.6-454.1-419.6-586.3-586.3c-92-116.9-170.5-264.4-239.5-450.3c-51.7-136.1-101.6-222.3-130.3-222.3c-9.6,0-92,65.2-183.9,143.7c-162.9,139.9-222.3,166.7-268.3,120.7c-42.2-42.1-23-101.6,63.2-201.2c47.9-53.6,86.2-105.4,86.2-115c0-7.7-55.6-65.1-124.5-126.5c-310.4-277.8-871.8-1061.5-871.8-1216.7c0-34.5,19.2-82.4,46-113.1l46-53.6l113.1,76.6c143.7,97.7,507.8,461.8,624.6,624.7c47.9,69,120.7,199.3,157.1,289.3c38.3,92,97.7,197.4,134.1,239.5c55.6,63.2,67.1,69,92,44.1c13.4-15.3,124.6-136,245.3-268.3c120.7-132.2,436.9-465.6,703.2-741.5l484.8-502L3824,790.3c-291.2-206.9-655.3-343-1030.9-385.2c-758.8-84.3-1546.3,283.6-1990.8,931.2c-103.5,149.5-249.1,475.2-302.8,676.4c-46,168.6-49.8,222.3-49.8,523.1c-1.9,302.7,3.8,354.5,47.9,521.2c107.3,394.7,289.3,712.8,571,992.5c320,321.9,691.7,517.4,1153.5,605.5C2442.5,4695.4,2869.8,4678.1,3105.4,4616.8z M7842.1,4616.8c655.3-139.9,1201.4-569.1,1485-1165c546.1-1151.6-38.3-2502.4-1260.8-2908.7c-233.8-76.6-438.8-103.5-737.7-90.1c-421.5,15.3-779.9,136.1-1120.9,377.5l-139.9,97.7l419.6,434.9c433,450.3,647.6,676.4,871.8,923.6l132.2,143.7l63.2-72.8c36.4-42.2,95.8-149.5,134.1-239.5c76.7-183.9,149.5-293.2,333.4-500.1c143.7-161,423.5-412,507.8-456c55.5-28.7,59.4-26.8,101.5,21.1c24.9,28.7,44.1,72.8,44.1,99.6c0,159-467.5,825.8-825.8,1180.3c-93.9,92-170.5,172.5-170.5,180.1c0,5.7,38.3,55.6,86.2,109.2c86.2,99.6,105.4,159.1,63.2,201.2c-46,46-105.4,19.2-270.2-122.6c-92-80.5-180.1-139.9-193.5-136.1c-28.7,11.5-70.9,95.8-164.8,325.7c-34.5,82.4-95.8,201.2-138,262.5c-99.6,151.4-503.9,569.1-638.1,661.1c-107.3,74.7-107.3,74.7-145.6,36.4c-70.9-72.8-69-162.9,11.5-308.5c185.9-339.1,534.6-816.3,772.2-1051.9l116.9-118.8l-396.6-373.6c-218.4-206.9-521.2-500.1-674.5-653.4c-153.3-153.3-283.6-279.8-291.3-279.8c-28.7,0-214.6,283.6-295.1,450.3c-126.5,266.3-180.1,486.7-193.5,797.1c-17.2,425.4,44.1,718.5,226.1,1071.1c116.9,226.1,243.3,396.6,421.5,565.3c321.9,302.7,745.4,505.9,1176.5,563.3C7326.6,4666.6,7671.6,4653.2,7842.1,4616.8z M3126.5-192.6c224.2-57.5,565.3-218.4,735.8-344.9l120.7-90.1l-465.6-482.9c-469.4-484.8-641.9-666.8-883.3-933.2l-132.2-143.7l-63.2,72.8c-36.4,42.2-95.8,149.5-134.1,239.5c-76.6,184-149.5,293.2-333.4,500.1c-143.7,160.9-423.5,412-507.8,456c-55.6,28.7-59.4,26.8-101.6-21.1c-24.9-28.7-44.1-72.8-44.1-99.6c0-159,467.5-825.9,825.9-1180.3c93.9-92,170.5-172.5,170.5-180.1c0-5.7-38.3-55.6-86.2-109.2c-86.2-99.6-105.4-159-63.2-201.2c46-46,105.4-19.2,268.3,120.7c92,78.6,174.4,143.7,183.9,143.7c28.8,0,74.7-80.5,138-239.5c93.9-237.6,145.6-323.8,293.2-502c164.8-195.4,433-457.9,548-534.6c80.5-51.7,80.5-51.7,118.8-15.3c70.9,72.8,69,162.9-11.5,308.5c-183.9,335.3-542.3,825.8-776,1059.6l-111.1,111.1l260.6,247.2c143.7,134.1,461.8,442.6,707.1,684.1c383.2,377.5,448.4,435,475.2,413.9c116.9-95.8,350.6-555.7,425.4-837.3c46-170.5,51.7-220.4,51.7-532.7s-5.7-362.1-51.7-532.7c-325.7-1212.9-1582.7-1900.8-2763-1513.7C917.2-4001.9,294.5-2980.6,465-1938.2c145.6,896.7,845,1611.5,1747.5,1782C2448.2-112.2,2885.1-129.4,3126.5-192.6z M7778.9-156.2c833.5-145.6,1511.8-766.4,1734.1-1594.2c47.9-170.5,51.7-218.4,51.7-542.3c0-323.8-3.8-371.7-51.7-542.3c-101.6-375.6-300.8-720.5-569.1-990.6c-270.2-268.3-615.1-467.5-990.6-569.1c-170.5-47.9-218.4-51.7-542.3-51.7c-323.8,0-371.7,3.8-542.3,51.7c-601.7,162.9-1117.1,578.7-1393,1124.8c-379.4,755-283.6,1678.5,247.2,2337.7l38.3,47.9l456.1-450.3c251-249.1,569.1-557.6,709-687.9l251-235.7l-111.1-111.1c-231.8-231.8-586.3-714.7-766.5-1040.4c-67.1-124.6-78.5-161-70.9-218.4c7.7-38.3,28.7-88.1,49.8-109.2c38.3-36.4,38.3-36.4,120.7,15.3c128.4,84.3,551.8,523.1,661.1,686c53.7,80.5,124.6,218.4,159,306.6c67.1,174.4,126.5,283.6,155.2,283.6c11.5,0,93.9-65.1,185.9-143.7c162.9-139.9,222.3-166.7,268.3-120.7c42.2,42.2,23,101.5-63.2,201.2c-47.9,53.6-86.2,103.5-86.2,109.2c0,7.7,76.6,88.1,170.5,180.1c356.4,350.7,825.8,1023.2,825.8,1180.3c0,26.8-19.2,70.9-44.1,99.6c-42.2,47.9-46,49.8-101.5,21.1c-84.3-44.1-364.1-295.1-507.8-456c-184-206.9-256.8-316.2-333.4-500.1c-38.3-90-97.7-197.4-134.1-239.5c-55.6-63.2-67.1-69-92-44.1c-13.4,15.3-124.6,136.1-245.3,268.3c-120.7,130.3-440.7,469.4-712.8,751.1l-492.4,511.6l118.8,84.3c266.3,189.7,655.3,354.5,935.1,392.8C7261.5-121.7,7600.7-125.6,7778.9-156.2z"/></g></g>
</svg>