<?xml version="1.0" encoding="UTF-8" standalone="no"?>
<!-- Created with Inkscape (http://www.inkscape.org/) -->

<svg
   xmlns:dc="http://purl.org/dc/elements/1.1/"
   xmlns:cc="http://creativecommons.org/ns#"
   xmlns:rdf="http://www.w3.org/1999/02/22-rdf-syntax-ns#"
   xmlns:svg="http://www.w3.org/2000/svg"
   xmlns="http://www.w3.org/2000/svg"
   xmlns:sodipodi="http://sodipodi.sourceforge.net/DTD/sodipodi-0.dtd"
   xmlns:inkscape="http://www.inkscape.org/namespaces/inkscape"
   width="140mm"
   height="95mm"
   viewBox="0 0 140 95"
   version="1.1"
   id="svg8"
   inkscape:version="0.92.1 r15371"
   sodipodi:docname="sensorMount.svg">
  <defs
     id="defs2">
    <clipPath
       id="clipPath4503"
       clipPathUnits="userSpaceOnUse">
      <path
         inkscape:connector-curvature="0"
         id="path4501"
         d="M 0,2 V 2530 H 6270 V 2 Z" />
    </clipPath>
    <clipPath
       id="clipPath4687"
       clipPathUnits="userSpaceOnUse">
      <path
         inkscape:connector-curvature="0"
         id="path4685"
         d="m 815.832,280 h 4865 v 2060.83 h -4865 z" />
    </clipPath>
    <clipPath
       id="clipPath4701"
       clipPathUnits="userSpaceOnUse">
      <path
         inkscape:connector-curvature="0"
         id="path4699"
         d="M 0,2 H 6270 V 2530 H 0 Z" />
    </clipPath>
    <clipPath
       id="clipPath4841"
       clipPathUnits="userSpaceOnUse">
      <path
         inkscape:connector-curvature="0"
         id="path4839"
         d="M 0,2 V 2530 H 6270 V 2 Z" />
    </clipPath>
    <clipPath
       id="clipPath5035"
       clipPathUnits="userSpaceOnUse">
      <path
         inkscape:connector-curvature="0"
         id="path5033"
         d="m 815.832,280 h 4865 v 2060.83 h -4865 z" />
    </clipPath>
    <clipPath
       id="clipPath5049"
       clipPathUnits="userSpaceOnUse">
      <path
         inkscape:connector-curvature="0"
         id="path5047"
         d="M 0,2 H 6270 V 2530 H 0 Z" />
    </clipPath>
    <clipPath
       id="clipPath5194"
       clipPathUnits="userSpaceOnUse">
      <path
         inkscape:connector-curvature="0"
         id="path5192"
         d="M 0,2 V 2530 H 6270 V 2 Z" />
    </clipPath>
    <clipPath
       id="clipPath5348"
       clipPathUnits="userSpaceOnUse">
      <path
         inkscape:connector-curvature="0"
         id="path5346"
         d="m 815.832,280 h 4865 v 2060.83 h -4865 z" />
    </clipPath>
    <clipPath
       id="clipPath5362"
       clipPathUnits="userSpaceOnUse">
      <path
         inkscape:connector-curvature="0"
         id="path5360"
         d="M 0,2 H 6270 V 2530 H 0 Z" />
    </clipPath>
  </defs>
  <sodipodi:namedview
     id="base"
     pagecolor="#ffffff"
     bordercolor="#666666"
     borderopacity="1.0"
     inkscape:pageopacity="0.0"
     inkscape:pageshadow="2"
     inkscape:zoom="1.979899"
     inkscape:cx="300.97663"
     inkscape:cy="230.84523"
     inkscape:document-units="mm"
     inkscape:current-layer="layer1"
     showgrid="false"
     inkscape:window-width="1920"
     inkscape:window-height="1178"
     inkscape:window-x="1358"
     inkscape:window-y="-8"
     inkscape:window-maximized="1" />
  <metadata
     id="metadata5">
    <rdf:RDF>
      <cc:Work
         rdf:about="">
        <dc:format>image/svg+xml</dc:format>
        <dc:type
           rdf:resource="http://purl.org/dc/dcmitype/StillImage" />
        <dc:title></dc:title>
      </cc:Work>
    </rdf:RDF>
  </metadata>
  <g
     inkscape:label="Layer 1"
     inkscape:groupmode="layer"
     id="layer1"
     transform="translate(0,-202)">
    <path
       id="path5469"
       d="m 134.12889,260.17654 c -0.38593,-0.34398 -0.78863,-0.72152 -1.02355,-1.17456 -0.22652,-0.41949 -0.60406,-1.03194 -0.63761,-1.47659 0.41948,0.99837 1.88768,1.55209 2.70988,2.09743 -0.99838,-1.02355 -1.71151,-1.92125 -2.16455,-3.24683 0.5705,0.74669 1.141,1.57727 1.74506,2.34913 0.36915,0.46982 1.32558,1.70311 1.93803,1.75345 -1.35914,-0.88931 -1.95481,-2.66793 -2.65954,-4.02707 -0.72152,-1.40108 -1.82058,-2.50853 -2.47497,-3.92639 0.3188,0.27686 0.52016,0.75508 0.76346,1.09067 0.27686,0.37753 0.6544,0.67118 0.94804,1.02354 0.53694,0.67118 1.17456,1.29202 1.4682,2.08904 -0.0671,-0.16779 -0.13424,-0.33558 -0.20974,-0.51177 -0.55372,-1.25846 -1.26685,-2.45819 -2.01354,-3.64953 -0.69634,-1.10744 -1.19134,-2.35751 -1.80378,-3.49012 -0.63763,-1.17457 -1.32558,-2.3659 -1.8793,-3.59081 -0.52017,-1.141 -0.84736,-2.34912 -1.43465,-3.46495 0.35237,0.27686 0.60406,0.63762 0.78864,1.02355 -0.0587,-0.20136 -0.12585,-0.40271 -0.20135,-0.57051 0.62083,0.60406 1.17455,1.67795 1.42625,2.50014 0.33559,1.05711 0.98998,1.90447 1.44303,2.89446 0.40271,0.88092 0.71313,1.88769 1.42625,2.65954 0.47822,0.51177 1.12422,0.98999 1.67795,1.45981 0.28525,0.2433 0.74668,0.67957 1.13261,0.6544 -0.57889,-0.72152 -1.34236,-1.34236 -1.97159,-2.02193 -0.60406,-0.646 -1.09905,-1.34235 -1.52693,-2.14776 -0.4027,-0.78025 -0.646,-1.56049 -0.88931,-2.35751 -0.16779,-0.54534 -0.41948,-1.26685 -0.74668,-1.83736 0.23491,0.36915 0.45305,0.74669 0.72151,1.09067 0.20975,0.27686 0.72991,1.36753 1.08228,1.33396 -0.72991,-1.0571 -1.23329,-2.32395 -1.91286,-3.39783 -0.46982,-0.74669 -1.17456,-1.34236 -1.80379,-1.97998 -0.0252,-0.0252 -0.0336,-0.0335 -0.0587,-0.0587 0.52016,0.45305 1.09066,0.88093 1.63599,1.29202 0.57889,0.43627 1.13261,0.94804 1.77023,1.26685 0.57889,0.30203 1.33397,1.02355 1.95481,1.13261 -0.40271,-0.62084 -1.30041,-0.95642 -1.8793,-1.42625 -0.67118,-0.54533 -1.34236,-1.08227 -1.98837,-1.66956 -1.15778,-1.08227 -2.57564,-2.29039 -3.10419,-3.8341 0.30203,0.69635 1.09066,1.25846 1.73667,1.85413 0.58728,0.55372 1.19973,1.35914 1.91286,1.71151 -0.46983,-0.88093 -1.42625,-1.49338 -2.02193,-2.26523 -0.82219,-1.06549 -1.54371,-2.04709 -2.01353,-3.3475 -0.43627,-1.20812 -3.07903,-8.14642 -3.33911,-8.7337 -0.21813,-0.50338 -0.74668,-0.96482 -0.8977,-1.49337 0.40271,0.41949 0.88092,0.78024 1.27524,1.20812 0.44465,0.47821 0.66279,1.04872 0.93126,1.61922 -0.52017,-1.40109 -1.10744,-2.56726 -2.18972,-3.64953 -0.43626,-0.43627 -0.92287,-0.74669 -1.32557,-1.19134 -0.22653,-0.25169 -0.4111,-0.54534 -0.64602,-0.78025 -0.23491,-0.23491 -0.55372,-0.33559 -0.75507,-0.58728 1.04872,0 2.03031,1.23329 2.777,1.82057 -0.26847,-0.64601 -1.09066,-1.13261 -1.64439,-1.52693 -0.71312,-0.50338 -1.34235,-0.86414 -2.14776,-1.19973 -1.50177,-0.63762 -3.36429,-0.66279 -5.02545,-0.53694 -2.3659,0.20135 -4.92477,0.84736 -7.04737,2.00515 -0.88092,0.47821 -4.54722,2.54208 -5.93992,3.45656 -4.3207,-2.03031 -9.1364,-2.16455 -10.10121,-2.33234 -1.2249,-0.20975 -9.41327,0.10906 -10.02572,0.1594 -0.69635,0.0587 -15.109891,0.12585 -15.739121,0.0755 -2.1226,-0.15941 -2.5337,-0.88931 -3.04547,-1.12422 -0.41109,-0.19297 -0.85575,-0.53694 -1.19134,-0.84736 0.78025,0.21813 1.35914,0.41109 2.16455,0.34397 -0.20135,-0.12584 -0.63762,-0.0671 -0.8977,-0.13423 -0.33559,-0.0755 -0.66279,-0.14263 -0.98999,-0.24331 -0.63762,-0.20135 -1.141,-0.63761 -1.71989,-0.95642 0.96482,0.0755 2.1226,0.72151 3.14614,0.36914 -0.78863,-0.21813 -1.64438,-0.26847 -2.41624,-0.66278 -0.78863,-0.4111 -1.51015,-0.91448 -2.282,-1.33397 -0.43627,-0.23491 -0.92287,-0.50338 -1.39269,-0.64601 -0.41949,-0.13423 -0.85576,-0.10067 -1.27524,-0.2433 -0.38593,-0.13424 -0.76347,-0.36915 -1.15778,-0.51177 -0.33559,-0.12585 -0.74669,-0.17619 -0.96482,-0.46983 0.62084,0.25169 1.67794,0.20136 2.32395,0.0671 -0.4866,-0.0587 -1.04872,-0.27686 -1.50176,-0.45304 -0.40271,-0.15941 -0.71312,-0.47822 -1.05711,-0.66279 0.22653,-0.0587 0.41949,0.0587 0.6544,0.0671 -0.20974,-0.20974 -0.60406,-0.4866 -0.74668,-0.54533 0.17618,0.0923 0.38593,0.10068 0.61245,0.10068 0.44465,0.36915 0.91448,0.68796 1.30041,0.6544 -0.63762,-0.88931 -1.75346,-1.0655 -2.26523,-2.09743 0.30203,-0.0419 0.60406,0.19296 0.88092,-0.0252 -0.54533,-0.0252 -1.15778,-0.62084 -1.58566,-0.96482 -0.47821,-0.38592 -0.98998,-0.78024 -1.56887,-1.02354 -0.58728,-0.2517 -1.34236,-0.33559 -1.98837,-0.45305 -0.58728,-0.10906 -1.61082,0.0587 -2.09743,-0.28525 1.04872,-0.51177 2.73505,0.20974 3.69987,0.53694 0.57889,0.19297 1.15778,0.33559 1.74506,0.37754 0.6544,0.0587 1.12422,-0.14262 1.71989,-0.23491 -0.52016,0 -0.75507,0.008 -1.26685,-0.15941 -0.46982,-0.14262 -0.96481,-0.26847 -1.44303,-0.47821 -0.41109,-0.17618 -0.78863,-0.34398 -1.19973,-0.53694 -0.37753,-0.17619 -0.68795,-0.46983 -1.08227,-0.68796 0.20974,-0.34398 0.68796,0.26847 1.03194,0.0252 -0.61245,0.008 -0.91448,-0.20974 -1.3927,-0.58728 0.38593,-0.24331 0.94804,0.0419 1.3927,-0.1678 -0.93126,-0.16779 -1.49337,-0.62084 -2.33235,-1.06549 -0.41109,-0.20974 -0.78024,-0.37754 -1.20812,-0.45305 -0.35237,-0.0671 -0.96482,-0.0587 -1.26685,-0.23491 0.44466,-0.41109 1.77024,0.12585 1.93803,-0.20974 -0.34398,-0.0419 -0.63762,-0.25169 -0.9816,-0.31881 -0.28525,-0.0587 -0.55372,0.0671 -0.83058,-0.0923 0.34398,-0.19296 0.63762,-0.53694 0.95643,-0.82219 -0.38593,0.008 -0.61245,0.0336 -1.01516,-0.0587 0.10068,-0.042 0.23491,-0.15941 0.34398,-0.19296 -0.16779,-0.25169 -1.37591,-0.22652 -1.71989,-0.30203 -0.53694,-0.13424 -1.04872,-0.35237 -1.60244,-0.53694 -0.008,-0.15941 0.008,-0.30203 0.0587,-0.43627 -0.68796,-0.20136 -1.42625,-0.26847 -2.11421,-0.4866 0.10907,-0.0755 0.28525,-0.20136 0.36915,-0.34398 -0.38593,-0.042 -0.9816,0.17618 -1.27524,0 0.0923,-0.0587 0.17619,-0.13424 0.26847,-0.17619 -0.47821,0.19297 -1.0571,0 -1.56888,0 -0.545329,0 -1.099049,-0.008 -1.644379,0 0.12584,-0.12584 0.25169,-0.19296 0.40271,-0.23491 -0.75508,0.0252 -1.3927,0.0923 -2.09744,0.23491 -0.55372,0.10907 -1.19134,0.1678 -1.73667,0.36915 0.0671,-0.0755 0.12585,-0.20974 0.19297,-0.30203 -0.67957,0.2433 -1.40109,0.34398 -2.09743,0.45305 -0.61245,0.10067 -1.42626,0.4027 -2.0471,0.36915 0.0252,-0.0252 0.0755,-0.10068 0.12585,-0.14263 -0.45305,0.008 -0.85575,0.10907 -1.3088,0.0671 0.0671,-0.0755 0.12585,-0.22652 0.19297,-0.27686 -0.60406,0.26847 -1.3927,0.44465 -2.03032,0.57889 0.0923,-0.10068 0.19296,-0.23491 0.26847,-0.35237 -0.79702,0.10068 -1.64438,0.47822 -2.47496,0.72991 -0.74669,0.23491 -1.68634,0.57889 -2.47497,0.55372 0.10906,-0.10907 0.19296,-0.19296 0.33559,-0.23492 -0.55372,-0.10067 -1.40948,0.20975 -1.94642,0.31042 -0.54533,0.10068 -1.04871,0.28526 -1.50176,0.62085 -0.45304,0.31881 -0.95643,0.69634 -1.32558,1.12422 -0.30203,0.36914 -0.85575,1.49337 -1.40108,1.09905 0.57889,-0.93126 1.71989,-1.35913 2.31556,-2.26522 -0.19296,0.13423 -0.45304,0.20135 -0.66279,0.28525 -0.28524,0.13423 -0.51177,0.28525 -0.78024,0.44465 -0.44465,0.25169 -1.91285,1.47659 -2.33234,1.77023 -0.31042,0.20136 -0.76347,0.8222 -1.12422,0.8222 -0.27686,-0.71313 -1.7870094,-1.74507 -2.5085291,-1.26685 -0.10068,0.36915 0.16779,0.74668 0.13424,1.12422 -0.0252,0.37754 -0.12585,0.68796 -0.15941,1.06549 -0.0336,0.38593 0.10068,0.6544 0.14263,0.98999 0.0587,0.34398 -0.0587,0.5705 -0.22653,0.91448 l -0.1594,0.45305 c 0.008,0.4866 -0.31881,1.20812 -0.47822,1.66955 -0.19296,0.58728 -0.36914,1.0655 -0.45304,1.65278 -0.0755,0.54533 0.10068,1.04871 -0.15941,1.58565 -0.20974,0.45305 -0.51177,0.86415 -0.74668,1.3088 -0.5705,1.08228 -0.0252,1.81218 0.14262,2.96996 0.1678,1.15778 -0.0587,2.777 -0.14262,3.94317 -0.0923,1.09906 -1.75345,5.37781 -1.97997,6.5356 -0.0755,0.50338 -0.28526,1.09066 -0.28526,1.58565 0,0.48661 0.38593,0.91448 0.53695,1.36753 0.17618,0.53694 0.37753,0.92287 0.8138,1.30879 0.36915,0.31881 0.57889,0.68796 0.93126,1.04872 0.64601,0.63762 1.40108,0.66279 2.26522,0.60406 -0.0335,-0.12585 0.008,-0.14263 -0.0671,-0.26847 0.7970194,0.78863 2.3910691,0.50338 2.9699591,-0.4111 0.31881,-0.51177 0.4027,-0.83058 0.45304,-1.44303 0.0587,-0.60406 0.10907,-1.16617 0.53695,-1.57727 0.76346,-0.76346 1.42625,-1.52693 2.29039,-2.1226 0.98998,-0.67957 1.66955,-1.63599 2.18972,-2.67632 0.27686,-0.55372 0.52016,-1.12422 0.99837,-1.50176 0.52016,-0.4111 0.95643,-0.68796 1.35914,-1.23329 0.74668,-1.02354 1.40108,-2.31556 1.45981,-3.55724 0.93126,0.25169 6.49365,5.57916 7.30745,6.43492 0.74668,0.78024 0.20135,2.29039 0.35237,3.28877 0.17618,1.09066 0.43626,2.29039 0.91447,3.34749 0.43627,0.95643 1.05711,1.82057 1.66956,2.65955 0.23491,0.31881 0.83058,0.83058 0.82219,1.23329 -0.008,0.46982 -0.76346,1.16617 -1.12422,1.36752 -0.93126,0.52017 -5.03383,1.81218 -6.15805,2.02193 -1.03194,0.20135 -2.39947,0.20974 -3.32233,0.78024 -0.95643,0.58728 -1.70312,1.44303 -2.24845,2.39107 -0.58728,1.03193 -0.10068,2.41624 -0.20975,3.5908 -0.10067,1.141 -0.36914,2.29039 -0.53694,3.42301 -0.1594,1.10744 -0.30203,2.29039 -0.55372,3.41462 -0.2433,1.0571 -0.47821,2.43301 0.61245,3.05385 0.88931,0.50339 1.47659,1.10745 2.1226,1.90447 0.33559,0.4111 0.6544,0.8138 0.98999,1.20812 0.41949,0.51177 3.53207,2.24844 4.02707,2.47497 0.27686,-0.1678 0.85575,-0.0755 0.86414,-0.12585 1.26685,-0.58728 1.53531,-2.3659 1.12422,-3.58241 -0.20974,-0.62084 -0.52016,-1.40108 -1.04872,-1.84574 -0.4027,-0.34398 -1.29201,-0.64601 -1.53531,-1.09905 0.72151,-0.44466 -0.0587,-0.78024 -0.46983,-0.91448 -0.45305,-0.15941 -0.79702,-0.44466 -1.19134,-0.72152 -0.95643,-0.68796 -1.2249,-1.78701 -1.3088,-2.86928 -0.10067,-1.17456 0.0671,-2.50014 0.37754,-3.56564 0.1594,-0.53694 0.35237,-0.94803 0.66279,-1.39269 0.21813,-0.31881 0.64601,-1.0571 0.98999,-1.2249 0.30203,-0.14262 1.81218,-0.36914 2.12259,-0.51177 -1.20812,0.52016 0.35237,1.85413 0.48661,2.59242 0.10068,0.57051 0.57889,2.82734 0.67957,3.42301 0.20135,1.24168 0.23491,2.50853 0.23491,3.80055 0,0.57888 0.008,1.23328 0.28525,1.74506 0.27686,0.52016 0.8977,0.60406 1.40108,0.74668 1.03194,0.27686 1.3088,0.14263 2.33235,0.40271 0.57889,0.14262 1.80379,1.04871 2.33234,1.30879 0.19296,0.0923 0.35237,0.30203 0.55372,0.35237 0.27686,0.0923 2.114209,0.20136 2.735049,0.31042 0.53694,0.0923 1.16617,0.31042 1.29202,-0.37754 0.20135,-1.08227 -0.53695,-2.50852 -1.04872,-3.43139 -0.13423,-0.2433 -0.26847,-0.44466 -0.50338,-0.5705 -0.26847,-0.14263 -0.53694,-0.0671 -0.79703,-0.26847 -0.159399,-0.10907 -0.251689,-0.36915 -0.411089,-0.51178 -0.26847,-0.25169 -0.41949,-0.20974 -0.74669,-0.31881 -0.99837,-0.31881 -2.09743,-0.68795 -2.97835,-1.33396 -0.52016,-0.38593 -1.40947,-2.13099 -1.57726,-2.60082 -0.35237,-0.98998 -0.46983,-2.35751 -0.30203,-3.423 0.10067,-0.66279 0.3188,-0.99838 0.78024,-1.51015 0.44465,0.2433 6.703389,0.10907 7.349389,0.21813 0.60406,0.10068 1.12423,0.28525 1.74507,0.13424 0.5705,-0.14263 0.95642,-0.54533 1.52693,-0.31042 4.86603,1.99675 17.08986,2.59242 18.32315,2.70149 1.26685,0.10067 2.60081,0.0923 3.87605,-0.0252 1.0655,-0.0923 5.57077,-0.9816 5.923141,-1.08228 0.57889,-0.1594 1.12423,-0.30203 1.67795,-0.43626 1.16617,-0.28525 2.29878,-0.67957 3.49012,-0.9816 1.24168,-0.31042 6.2839,-1.52693 7.60109,-1.77023 0.53694,-0.10068 1.68633,-0.16779 1.68633,-0.16779 0,0 0.84737,0.41948 1.30041,0.60406 0.51177,0.20974 1.25846,0.23491 1.80379,0.10067 0.31042,-0.0755 0.75508,-0.28525 0.75508,-0.28525 0,0 0.52016,0.48661 0.67117,0.68796 0.64601,0.85575 3.21327,5.37781 5.01706,6.46009 0.52016,0.31042 3.85927,1.29201 4.748579,1.93802 0.989984,0.72152 1.946411,1.26685 2.542081,2.39107 0.58728,1.09066 1.32557,2.02193 2.04709,3.0203 1.44303,1.99675 2.84412,3.90122 4.04385,6.08255 0.57888,1.04871 1.57726,1.66955 1.88768,2.81056 0.14263,0.5705 0.30203,1.13261 0.48661,1.66955 0.18457,0.53694 1.84574,7.27389 1.9548,8.35616 0.13424,1.25846 0.22652,2.31557 0.62084,3.48174 0.20135,0.57889 0.28525,1.12422 0.28525,1.77023 0,0.61245 -0.17618,1.20812 -0.0755,1.82057 0.0252,0.14263 0.15941,0.22652 0.15941,0.37754 0,0.17618 -0.12585,0.20135 -0.13424,0.31881 -0.0587,0.31041 0.0252,0.5705 0.12585,0.84736 0.17618,0.50338 0.41949,0.92287 0.55372,1.42625 0.27686,1.04872 0.67957,2.05548 0.99838,3.11259 0.72151,-0.43627 1.26684,-1.33397 1.7115,-2.04709 0.50338,-0.78025 1.13261,-1.58566 1.47659,-2.43302 0.19296,-0.44466 0.44466,-1.08228 0.28525,-1.60244 -0.13423,-0.45305 -0.67956,-0.4866 -1.04871,-0.69635 -0.54533,-0.31042 -0.5705,-0.62084 -0.19297,-1.12422 0.2433,-0.31042 0.51178,-0.83058 0.8977,-0.98999 -0.25169,-0.17618 -0.33558,-0.45304 -0.26847,-0.74668 0.27686,0.0252 0.67957,-0.0419 0.74669,-0.31042 0.0671,-0.25169 -0.23492,-0.52016 -0.23492,-0.76347 0,-0.12584 0.1678,-0.14262 0.15941,-0.30203 0,-0.12584 -0.15941,-0.26847 -0.14263,-0.38592 0.0336,-0.20136 0.24331,-0.31881 0.27687,-0.51178 -0.37754,-0.0755 -1.19974,-0.36914 -1.04872,-0.91448 0.0419,-0.008 0.0923,-0.0252 0.13424,-0.0336 -0.1678,-0.28525 -0.41949,-0.66278 -0.6544,-0.91448 -1.61083,-1.80379 -1.93803,-5.57916 -2.14777,-6.90474 -0.19297,-1.19973 -1.34236,-6.94669 -1.20812,-7.50041 0.5705,-0.10906 0.94804,0.63762 1.30041,0.95643 1.60243,1.45981 2.42462,3.7586 3.15453,5.7134 0.78863,2.09743 1.70311,4.28715 2.22328,6.46009 0.26847,1.09905 0.91448,2.01353 1.42625,3.04547 0.51177,1.02354 0.8138,2.00514 1.15778,3.04547 0.1678,0.51177 0.30203,1.26684 0.66279,1.66955 0.38593,0.43627 0.88931,0.44466 1.24168,0.83058 0.41109,0.44466 1.23329,2.47497 1.94641,2.34912 0.10907,-0.35236 1.60244,-3.61597 1.68634,-4.09418 0.1594,-0.79702 -0.43627,-2.43302 -1.15778,-2.86928 -0.51177,-0.30203 -1.08228,-0.0755 -1.52693,-0.61245 -0.47822,-0.5789 -0.0923,-0.91448 0.40271,-1.17457 0.67117,-0.36914 1.82057,-1.35913 1.97158,-2.09743 -0.2433,0.0252 -1.57727,-0.1594 -1.09067,-0.54533 -0.22652,-0.0671 -0.45304,-0.20135 -0.4866,-0.44465 0.0671,0 0.14263,-0.0252 0.20975,-0.0336 -0.38593,-0.68796 -1.56049,-0.50339 -1.81218,-1.40948 0.10067,0.008 0.25169,-0.0419 0.36914,-0.0336 -0.27686,-0.36915 -0.83058,-0.53695 -1.19134,-0.84737 -0.41949,-0.36914 -0.67956,-0.83058 -0.88092,-1.34235 -0.35237,-0.93126 -3.04547,-8.45684 -3.39784,-9.50556 -0.31881,-0.95643 -0.63761,-1.91285 -0.88931,-2.88606 -0.26847,-0.9816 -0.4866,-2.14777 -1.36752,-2.67632 -1.09066,-0.6544 -2.22328,-1.3088 -3.35589,-1.85413 -3.49012,-1.68633 -5.06739,-3.93478 -5.75535,-5.11773 -0.60406,-1.04872 -0.45304,-2.41624 -0.2433,-3.56563 0.20974,-1.141 1.03193,-6.09094 1.13261,-7.38296 0.10068,-1.30879 -0.5705,-6.47686 -1.19973,-7.5927 -0.0923,-0.1594 -0.17618,-0.31042 -0.27686,-0.45304 0.26847,-0.82219 0.26847,-1.80379 0.25169,-2.55887 0.45305,0.92287 0.55372,2.1226 0.53694,3.21327 0.30203,-0.40271 0.15941,-1.36753 0.15941,-1.8793 0,-0.64601 -0.2433,-1.26685 -0.23491,-1.8793 0.13423,0.92287 0.58728,1.75345 0.66278,2.70988 0.0755,0.96482 0.1678,1.94642 0.24331,2.89446 0.042,0.4866 -0.0587,0.98998 0.0755,1.44303 0.12585,0.45304 0.31042,0.91448 0.47822,1.35913 0.25169,0.67957 0.6544,1.71151 1.16617,2.21489 -0.5705,-1.19973 -1.25846,-2.11421 -1.25846,-3.49013 0,-1.03193 -0.27686,-2.63437 0.1594,-3.54885 -0.008,0.0419 0,0.0923 0.0252,0.12585 0.31881,0.31881 0.53694,1.30041 0.68796,1.75345 0.19296,0.55372 0.31042,1.03194 0.45304,1.57727 0.30203,1.12422 1.01516,2.14777 1.52693,3.21326 0.52016,1.09906 0.99838,1.87091 2.02193,2.67632 0.92286,0.74669 1.9548,1.15778 3.10419,1.19973 -0.36915,-0.1594 -0.78863,-0.17618 -1.19134,-0.33559 -0.44465,-0.17618 -0.88092,-0.4027 -1.27523,-0.68795 -0.78864,-0.54533 -1.33397,-1.27524 -1.77863,-2.11421 -0.91448,-1.68634 -1.13261,-3.64953 -1.19973,-5.52883 0.19297,0.25169 0.15941,0.93126 0.15941,1.26685 0,0.47821 0.0755,0.79702 0.23491,1.20812 0.36915,1.02354 0.98999,1.82057 1.66956,2.65954 0.78863,0.96482 1.68633,1.67794 2.65954,2.43302 0.86414,0.67118 1.77862,1.35913 2.80217,1.74506 -0.22653,-0.20135 -0.62084,-0.35237 -0.92287,-0.52016 -0.43627,-0.23491 -0.72991,-0.55372 -1.12423,-0.83059 -0.72151,-0.52016 -1.53532,-1.17455 -2.13099,-1.90446 -0.61245,-0.72991 -1.15778,-1.5521 -1.66955,-2.35751 -0.33559,-0.51178 -0.69635,-1.17456 -0.68796,-1.80379 0.57889,1.66955 1.91286,3.46495 3.27199,4.54723 0.99838,0.8138 2.15616,1.77023 3.35589,2.3659 0.47821,0.95643 0.79703,1.97158 1.45981,2.86089 0.69635,0.94804 1.57727,1.7199 2.54209,2.38268 0.9816,0.6544 1.90446,1.42626 2.76022,2.25684 0.83058,0.8138 1.24168,1.83735 1.91285,2.70988 -0.20974,-0.44465 -0.2433,-0.8977 -0.41109,-1.33397 -0.20135,-0.55372 -0.58728,-0.99837 -0.96482,-1.44303 -0.82219,-0.9816 -1.91286,-1.70311 -2.88607,-2.49175 -1.51015,-1.19973 -2.62598,-2.62598 -3.14614,-4.44655 h 0.008 c 0,0 -0.008,0 -0.008,-0.008 -0.0419,-0.15941 -0.0923,-0.31881 -0.12585,-0.4866 0.2433,0.38592 0.58728,0.76346 0.92287,1.09905 0.2433,0.2433 0.53694,0.60406 0.84736,0.79702 0.31043,0.6544 0.67957,1.33397 1.05711,1.92125 -0.10068,-0.6544 -0.34398,-1.36753 -0.61245,-1.9548 -0.31042,-0.68796 -0.86414,-1.27524 -0.76347,-2.09744 0.35237,0.74669 0.79703,1.42626 1.0655,2.18133 0.27686,0.78024 0.5705,1.42625 1.19134,2.06387 0.51177,0.53694 1.03194,1.04872 1.54371,1.56049 0.2433,0.2433 0.54533,0.55372 0.78024,0.83058 0.2433,0.30203 0.31042,0.66279 0.48661,0.95643 0.26847,0.4111 0.67956,0.76347 0.95643,1.17456 0.35237,0.54533 0.5705,1.09067 0.72151,1.68634 0.30203,1.10744 0.1678,2.45819 0.67957,3.51529 0.50338,1.03194 0.95643,1.99675 1.90447,2.73505 0.84736,0.67118 2.16454,1.61082 3.25521,1.65278 -1.20812,-0.53695 -2.50014,-0.86415 -3.30555,-2.06388 -0.51178,-0.76346 -2.18133,-3.07902 -1.32558,-4.00189 0.20135,0.8977 0.62084,1.88768 1.15778,2.65954 0.26847,0.37754 0.43627,0.84736 0.69635,1.19973 0.19297,0.2433 0.50338,0.79702 0.72991,0.8977 -0.41949,-0.76347 -0.88931,-1.51015 -1.25846,-2.32395 -0.4111,-0.91448 -0.72991,-1.84574 -1.09066,-2.79378 0.88091,0.76346 1.24167,1.88769 2.06387,2.70988 0.78863,0.78863 1.74506,1.64438 2.9364,1.60244 -1.04872,-0.28526 -2.79378,-1.36753 -2.62599,-2.63438 0.57051,0.75508 1.44304,1.32558 2.18972,1.85413 0.69635,0.50338 1.61083,1.08228 2.50014,1.09066 -0.46982,-0.0335 -1.2249,-0.51177 -1.57727,-0.69634 -0.46143,-0.19297 -0.96482,-0.60406 -1.37591,-0.97321 z M 49.333979,215.56 c -0.7299,0 -1.37591,-0.0336 -2.05548,-0.22652 -0.44466,-0.13424 -1.4682,-0.33559 -1.73667,-0.66279 0.37753,0 0.57889,-0.12585 0.98159,-0.0923 0.37754,0.0336 0.69635,0.008 1.0655,0.0755 0.64601,0.10907 1.25846,0.46982 1.78701,0.84736 -0.27686,-0.31042 -0.63762,-0.5705 -1.01516,-0.68796 1.03194,0.008 2.0471,0.2517 2.95319,0.74669 0.16779,0.0923 0.36914,0.2433 0.58728,0.43626 -0.24331,-0.0587 -0.47822,-0.0923 -0.67118,-0.12584 -0.62923,-0.13424 -1.19134,-0.31042 -1.89608,-0.31042 z m 57.075271,17.85333 c 0.0336,-0.46983 0,-0.93126 -0.0923,-1.29202 -0.19296,-0.78024 -0.8138,-1.61922 -0.79702,-2.42463 0.43626,0.23491 0.60406,0.74668 0.8977,1.13261 0.30203,0.38593 0.41949,0.75508 0.45304,1.20812 0.042,0.61245 -0.0252,1.2249 -0.14262,1.82057 -0.10907,-0.15102 -0.21814,-0.30203 -0.31881,-0.44465 z m 10.63817,3.59919 c 0.38592,0.4866 0.30203,0.88092 0.45304,1.42625 0.13424,0.47821 0.40271,0.96482 0.58728,1.44303 0.17619,0.44466 0.35237,0.86414 0.64601,1.27524 0.26847,0.38593 0.51177,0.86414 0.82219,1.19973 -0.1594,-0.57889 -1.04871,-1.82057 -0.68795,-2.38268 0.41948,0.79702 0.61245,1.67794 1.04871,2.47497 0.37754,0.68795 0.96482,1.26685 1.26685,1.97158 -0.50338,-0.0755 -0.98999,-0.22652 -1.33397,-0.50338 -0.58728,-0.47822 -1.12422,-1.54371 -1.45981,-2.22328 -0.37753,-0.76346 -0.67956,-1.54371 -0.8977,-2.35751 -0.18457,-0.67118 -0.52855,-1.57727 -0.44465,-2.32395 z m -2.58404,-1.74507 c 0.46983,0.72991 0.52017,1.87091 0.78025,2.69311 0.27686,0.8977 0.75507,1.77023 1.06549,2.65954 0.0419,0.13423 0.0671,0.25169 0.10068,0.37754 -0.38593,-0.57051 -0.79702,-1.13262 -1.09905,-1.73668 -0.58729,-1.12422 -0.88932,-2.6931 -0.84737,-3.99351 z m 1.08228,6.78729 c -1.16617,-1.52693 -2.09743,-3.28877 -2.43302,-5.13451 0.28525,0.43627 0.46982,1.26685 0.74668,1.81218 0.34398,0.68796 0.75508,1.25846 1.27524,1.82057 0.41949,0.46982 0.88931,0.8977 1.35914,1.32558 0.008,0.0419 0.008,0.0923 0.0252,0.12584 0.14263,0.40271 0.74669,0.78025 1.01516,1.10745 0.45304,0.57889 0.93126,1.15778 1.33396,1.77861 -1.20812,-0.80541 -2.39107,-1.61082 -3.32233,-2.83572 z m 6.37618,4.94154 c -0.10906,-0.12584 -0.23491,-0.2433 -0.31042,-0.36914 -0.2433,-0.33559 -0.50338,-0.6544 -0.78024,-0.98999 -0.27686,-0.31881 -0.51177,-0.72151 -0.8138,-1.01515 -0.36915,-0.35237 -0.74669,-0.61245 -0.8977,-1.12423 0.5705,0.54533 1.32558,0.88931 2.1226,0.99838 0.30203,0.83058 0.3272,1.67794 0.67956,2.50013 z m 4.58079,-7.51718 c 0.27687,0.50338 0.63762,0.93125 1.04872,1.34235 -0.43627,-0.39432 -0.87253,-0.83058 -1.04872,-1.34235 z"
       stroke-miterlimit="10"
       inkscape:connector-curvature="0"
       style="fill:none;stroke:#000000;stroke-width:0.16779444;stroke-miterlimit:10" />
    <circle
       style="opacity:1;fill:#000000;fill-opacity:1;stroke:#000000;stroke-width:0.36706552;stroke-linecap:butt;stroke-linejoin:round;stroke-miterlimit:10;stroke-dasharray:none;stroke-opacity:1;paint-order:normal"
       id="path5479"
       cx="15.019675"
       cy="220.23503"
       r="2.3164673" />
    <circle
       style="opacity:1;fill:#000000;fill-opacity:1;stroke:#000000;stroke-width:0.36706552;stroke-linecap:butt;stroke-linejoin:round;stroke-miterlimit:10;stroke-dasharray:none;stroke-opacity:1;paint-order:normal"
       id="path5479-2"
       cx="30.335236"
       cy="259.22809"
       r="2.3164673" />
    <circle
       style="opacity:1;fill:#000000;fill-opacity:1;stroke:#000000;stroke-width:0.36706552;stroke-linecap:butt;stroke-linejoin:round;stroke-miterlimit:10;stroke-dasharray:none;stroke-opacity:1;paint-order:normal"
       id="path5479-7"
       cx="70.750504"
       cy="224.41342"
       r="2.3164673" />
    <text
       xml:space="preserve"
       style="font-style:normal;font-weight:normal;font-size:4.23333311px;line-height:1.25;font-family:sans-serif;letter-spacing:0px;word-spacing:0px;fill:#000000;fill-opacity:1;stroke:none;stroke-width:0.26458332"
       x="56.331707"
       y="212.70099"
       id="text5504"><tspan
         sodipodi:role="line"
         id="tspan5502"
         x="56.331707"
         y="212.70099"
         style="font-size:4.23333311px;stroke-width:0.26458332">Sensor mounted on the:</tspan></text>
    <text
       xml:space="preserve"
       style="font-style:normal;font-weight:normal;font-size:4.23333311px;line-height:1.25;font-family:sans-serif;letter-spacing:0px;word-spacing:0px;fill:#000000;fill-opacity:1;stroke:none;stroke-width:0.26458332"
       x="19.395443"
       y="221.31041"
       id="text5504-3"><tspan
         sodipodi:role="line"
         id="tspan5502-1"
         x="19.395443"
         y="221.31041"
         style="font-size:4.23333311px;stroke-width:0.26458332">head</tspan></text>
    <text
       xml:space="preserve"
       style="font-style:normal;font-weight:normal;font-size:4.23333311px;line-height:1.25;font-family:sans-serif;letter-spacing:0px;word-spacing:0px;fill:#000000;fill-opacity:1;stroke:none;stroke-width:0.26458332"
       x="73.784782"
       y="228.25941"
       id="text5504-8"><tspan
         sodipodi:role="line"
         id="tspan5502-5"
         x="73.784782"
         y="228.25941"
         style="font-size:4.23333311px;stroke-width:0.26458332">saddle</tspan></text>
    <text
       xml:space="preserve"
       style="font-style:normal;font-weight:normal;font-size:4.23333311px;line-height:1.25;font-family:sans-serif;letter-spacing:0px;word-spacing:0px;fill:#000000;fill-opacity:1;stroke:none;stroke-width:0.26458332"
       x="33.293457"
       y="256.72363"
       id="text5504-2"><tspan
         sodipodi:role="line"
         id="tspan5502-9"
         x="33.293457"
         y="256.72363"
         style="font-size:4.23333311px;stroke-width:0.26458332">hoof (ankle)</tspan></text>
  </g>
</svg>
